<svg width="29" height="23" viewBox="0 0 29 23" fill="none" xmlns="http://www.w3.org/2000/svg">
<path d="M20.0238 0C16.2736 0 13.23 2.80391 13.1488 6.25662C9.83298 5.88864 7.6738 4.74152 6.34929 3.61122C4.88043 2.35774 4.41544 1.24409 4.41544 1.24409C4.34755 1.08582 4.23532 0.947141 4.0903 0.842322C3.94527 0.737504 3.77268 0.670329 3.59029 0.647708C3.4079 0.625087 3.22228 0.647836 3.05254 0.713616C2.8828 0.779396 2.73507 0.885832 2.62454 1.02197C2.62454 1.02197 1.38116 2.55556 1.38116 4.79167C1.38116 6.07007 1.81739 7.01599 2.33729 7.81765C2.31814 7.80935 2.18895 7.76774 2.18895 7.76774C2.02388 7.69148 1.83979 7.6574 1.65572 7.66903C1.47165 7.68065 1.29427 7.73756 1.14193 7.83386C0.98959 7.93017 0.867814 8.06238 0.789194 8.21682C0.710574 8.37126 0.677964 8.54234 0.694735 8.71235C0.694735 8.71235 1.09337 11.4085 3.83286 13.3792L3.54696 13.4454C3.39177 13.4812 3.24766 13.5498 3.12592 13.6458C3.00419 13.7419 2.90814 13.8626 2.84531 13.9988C2.78247 14.1349 2.75456 14.2826 2.76375 14.4303C2.77294 14.5781 2.819 14.7219 2.8983 14.8504C2.8983 14.8504 3.36284 15.5775 4.33587 16.3428C4.9128 16.7966 5.76029 17.2648 6.75925 17.698C5.53244 18.1128 3.70307 18.5278 1.03592 18.5278C0.836897 18.5278 0.642079 18.5808 0.474776 18.6805C0.307472 18.7803 0.174768 18.9225 0.0925395 19.0902C0.0103108 19.2579 -0.0179605 19.444 0.0111079 19.6262C0.0401764 19.8084 0.125354 19.9789 0.256449 20.1175C0.256449 20.1175 1.04788 20.9243 2.6124 21.6261C4.17692 22.328 6.58692 23 10.012 23C16.0327 23 20.3584 20.3276 23.0581 16.9405C25.7577 13.5535 26.9285 9.4946 26.9285 6.38889C26.9285 6.19182 26.9152 5.99753 26.8961 5.8049C28.3538 4.50519 28.9009 3.52809 28.927 3.4802C29.0582 3.23678 29.0094 2.94444 28.8057 2.75022C28.6027 2.55536 28.288 2.50048 28.0208 2.6142L27.9089 2.66162C27.8129 2.70251 27.7169 2.74366 27.6203 2.78391C27.9013 2.36927 28.1231 1.92617 28.277 1.46745C28.3627 1.21445 28.2702 0.93721 28.0437 0.773654C27.8173 0.610099 27.5053 0.592589 27.2602 0.731228C26.4163 1.20581 25.6074 1.53805 24.7654 1.76069C23.5262 0.673052 21.8583 0 20.0238 0ZM20.0238 1.91667C22.705 1.91667 24.8571 3.90797 24.8571 6.38889C24.8571 9.03318 23.7838 12.8007 21.3912 15.8025C18.9987 18.8043 15.3841 21.0833 10.012 21.0833C7.41225 21.0833 5.6829 20.6482 4.38712 20.1774C5.74446 19.9824 6.91315 19.7221 7.75315 19.4212C9.2098 18.8995 9.99582 18.2969 9.99582 18.2969C10.14 18.1824 10.2474 18.0334 10.3062 17.8663C10.365 17.6991 10.3729 17.5202 10.3292 17.3491C10.2855 17.178 10.1918 17.0214 10.0583 16.8963C9.9248 16.7712 9.75669 16.6824 9.57237 16.6398C7.69241 16.2049 6.4867 15.5016 5.73029 14.9153L6.8105 14.6657C7.02412 14.6164 7.2152 14.5054 7.356 14.3488C7.4968 14.1921 7.58001 13.9981 7.59353 13.7947C7.60706 13.5914 7.55021 13.3893 7.43123 13.2179C7.31226 13.0465 7.13734 12.9146 6.93187 12.8414C4.69122 12.044 3.75031 10.9163 3.26915 9.97141C3.85466 10.0836 4.39981 10.2222 5.17873 10.2222C5.41198 10.222 5.63833 10.149 5.82115 10.015C6.00396 9.88097 6.13254 9.69377 6.18606 9.4837C6.23957 9.27364 6.2149 9.05301 6.11603 8.85754C6.01717 8.66206 5.84989 8.50318 5.64129 8.40663C5.64129 8.40663 3.45256 7.475 3.45256 4.79167C3.45256 4.30991 3.59676 4.00478 3.70204 3.63992C4.06328 4.08911 4.361 4.52243 4.94408 5.02002C6.7218 6.53708 9.66012 8.08396 14.0995 8.30431C14.24 8.31124 14.3805 8.29163 14.5125 8.24666C14.6445 8.2017 14.7653 8.13232 14.8674 8.04276C14.9694 7.95321 15.0507 7.84535 15.1063 7.72577C15.1619 7.60619 15.1905 7.47739 15.1905 7.34722V6.38889C15.1905 3.90797 17.3426 1.91667 20.0238 1.91667Z" fill="#3672C2"/>
</svg>
