<svg width="44" height="36" viewBox="0 0 44 36" fill="none" xmlns="http://www.w3.org/2000/svg">
    <path d="M16.775 0.665625L15.5547 0.812499C15.5547 0.812499 10.0797 1.41094 6.08125 4.62187H6.03438L5.98438 4.66875C5.0875 5.49375 4.69688 6.50781 4.07969 7.99062C3.35216 9.77463 2.73281 11.6009 2.225 13.4594C1.06563 17.6516 0.125 22.7297 0.125 27.375V27.7656L0.320312 28.1562C1.76719 30.6953 4.33594 32.3125 6.71719 33.4297C9.09687 34.5469 11.1547 35.1391 12.5766 35.1875L13.5047 35.2359L13.9922 34.4062L15.7016 31.3781C17.5141 31.7875 19.6016 32.0625 22 32.0625C24.3984 32.0625 26.4859 31.7875 28.2984 31.3781L30.0078 34.4062L30.4969 35.2359L31.4234 35.1875C32.8453 35.1391 34.9031 34.5469 37.2828 33.4297C39.6641 32.3125 42.2328 30.6953 43.6797 28.1562L43.875 27.7656V27.375C43.875 22.7297 42.9344 17.6516 41.775 13.4594C41.2672 11.6009 40.6478 9.77463 39.9203 7.99062C39.3031 6.50625 38.9125 5.49375 38.0156 4.67031L37.9672 4.62031H37.9172C33.9219 1.41094 28.4453 0.812499 28.4453 0.812499L27.225 0.665625L26.7844 1.78906C26.7844 1.78906 26.3328 2.92969 26.0531 4.23125C24.7098 4.04591 23.356 3.94779 22 3.9375C21.1641 3.9375 19.7188 3.99219 17.9469 4.23125C17.7621 3.40051 17.5172 2.5843 17.2141 1.78906L16.775 0.665625ZM14.6266 4.23125C14.6938 4.45 14.7609 4.63906 14.8219 4.81719C12.8016 5.31719 10.6469 6.07969 8.67031 7.30625L10.3297 9.94375C14.3828 7.42812 20.2047 7.0625 22 7.0625C23.7938 7.0625 29.6172 7.42812 33.6703 9.94375L35.3297 7.30625C33.3531 6.07969 31.1984 5.31719 29.1781 4.81562C29.2391 4.63906 29.3062 4.45 29.3734 4.22969C30.8312 4.52344 33.6156 5.19531 35.9156 7.01406C35.9031 7.02031 36.5016 7.92344 37.0391 9.21094C37.5891 10.5359 38.1984 12.3 38.7484 14.2891C39.8047 18.1031 40.6344 22.7484 40.7016 26.8375C39.7172 28.3391 37.8938 29.6937 35.9641 30.5984C34.7539 31.1703 33.4736 31.5801 32.1562 31.8172L31.375 30.5C31.8391 30.3281 32.2969 30.1406 32.6937 29.9625C35.0984 28.9062 36.4047 27.7656 36.4047 27.7656L34.3531 25.4219C34.3531 25.4219 33.475 26.2281 31.4234 27.1312C29.375 28.0344 26.2422 28.9375 22 28.9375C17.7578 28.9375 14.6266 28.0344 12.5766 27.1312C10.525 26.2281 9.64687 25.4219 9.64687 25.4219L7.59531 27.7656C7.59531 27.7656 8.90156 28.9062 11.3063 29.9625C11.7031 30.1406 12.1609 30.3297 12.625 30.5L11.8438 31.8187C10.5257 31.5808 9.2449 31.1699 8.03437 30.5969C6.10625 29.6937 4.28125 28.3391 3.3 26.8375C3.36563 22.7484 4.19531 18.1031 5.25313 14.2891C5.72055 12.5638 6.29084 10.868 6.96094 9.21094C7.49844 7.92344 8.09687 7.02031 8.08437 7.01406C10.3844 5.19531 13.1688 4.52344 14.6266 4.23125V4.23125ZM16.5312 14.875C15.3234 14.875 14.2547 15.5641 13.6016 16.4375C12.9484 17.3109 12.625 18.3844 12.625 19.5625C12.625 20.7406 12.9484 21.8141 13.6016 22.6875C14.2547 23.5609 15.3234 24.25 16.5312 24.25C17.7391 24.25 18.8078 23.5609 19.4609 22.6875C20.1141 21.8141 20.4375 20.7406 20.4375 19.5625C20.4375 18.3844 20.1141 17.3109 19.4609 16.4375C18.8078 15.5641 17.7391 14.875 16.5312 14.875ZM27.4688 14.875C26.2609 14.875 25.1922 15.5641 24.5391 16.4375C23.8859 17.3109 23.5625 18.3844 23.5625 19.5625C23.5625 20.7406 23.8859 21.8141 24.5391 22.6875C25.1922 23.5609 26.2609 24.25 27.4688 24.25C28.6766 24.25 29.7453 23.5609 30.3984 22.6875C31.0516 21.8141 31.375 20.7406 31.375 19.5625C31.375 18.3844 31.0516 17.3109 30.3984 16.4375C29.7453 15.5641 28.6766 14.875 27.4688 14.875ZM16.5312 18C16.6172 18 16.7266 18.0312 16.9219 18.2937C17.1172 18.5547 17.3125 19.0125 17.3125 19.5625C17.3125 20.1125 17.1172 20.5703 16.9219 20.8328C16.7266 21.0937 16.6172 21.125 16.5312 21.125C16.4453 21.125 16.3359 21.0937 16.1406 20.8312C15.8822 20.459 15.7457 20.0157 15.75 19.5625C15.75 19.0125 15.9453 18.5547 16.1406 18.2922C16.3359 18.0312 16.4453 18 16.5312 18ZM27.4688 18C27.5547 18 27.6641 18.0312 27.8594 18.2937C28.0547 18.5547 28.25 19.0125 28.25 19.5625C28.25 20.1125 28.0547 20.5703 27.8594 20.8328C27.6641 21.0937 27.5547 21.125 27.4688 21.125C27.3828 21.125 27.2734 21.0937 27.0781 20.8312C26.8197 20.459 26.6832 20.0157 26.6875 19.5625C26.6875 19.0125 26.8828 18.5547 27.0781 18.2922C27.2734 18.0312 27.3828 18 27.4688 18Z" fill="#5865F2"/>
    </svg>
    