<svg width="25" height="27" viewBox="0 0 25 27" fill="none" xmlns="http://www.w3.org/2000/svg">
<path d="M2.89969 0C2.51628 0 2.16662 0.219224 1.99958 0.56434L0.0998886 4.48927C0.0341491 4.6251 0 4.77404 0 4.92493V22.4783C0 23.0305 0.447715 23.4783 1 23.4783H4.68182C5.2341 23.4783 5.68182 23.926 5.68182 24.4783V26C5.68182 26.5523 6.12953 27 6.68182 27H9.80351C10.0744 27 10.3336 26.8901 10.522 26.6955L13.3416 23.7827C13.53 23.5881 13.7893 23.4783 14.0601 23.4783H17.7581C18.0289 23.4783 18.2882 23.3684 18.4766 23.1738L24.7185 16.7256C24.8991 16.5391 25 16.2896 25 16.0301V1C25 0.447716 24.5523 0 24 0H2.89969ZM4.54545 3.34783C4.54545 2.79554 4.99317 2.34783 5.54545 2.34783H21.7273C22.2796 2.34783 22.7273 2.79554 22.7273 3.34783V14.8561C22.7273 15.1157 22.6263 15.3651 22.4458 15.5517L19.6129 18.4781C19.4245 18.6727 19.1653 18.7826 18.8944 18.7826H12.9238C12.6529 18.7826 12.3936 18.8925 12.2053 19.0871L10.8094 20.5291C10.1843 21.1748 9.09091 20.7323 9.09091 19.8335V19.7826C9.09091 19.2303 8.64319 18.7826 8.09091 18.7826H5.54545C4.99317 18.7826 4.54545 18.3349 4.54545 17.7826V3.34783ZM11.2273 5.86957C10.675 5.86957 10.2273 6.31728 10.2273 6.86957V13.087C10.2273 13.6392 10.675 14.087 11.2273 14.087H11.5C12.0523 14.087 12.5 13.6392 12.5 13.087V6.86957C12.5 6.31728 12.0523 5.86957 11.5 5.86957H11.2273ZM15.7727 5.86957C15.2204 5.86957 14.7727 6.31728 14.7727 6.86957V13.087C14.7727 13.6392 15.2204 14.087 15.7727 14.087H16.0455C16.5977 14.087 17.0455 13.6392 17.0455 13.087V6.86957C17.0455 6.31728 16.5977 5.86957 16.0455 5.86957H15.7727Z" fill="#691FC0"/>
</svg>
