<svg width="33" height="25" viewBox="0 0 33 25" fill="none" xmlns="http://www.w3.org/2000/svg">
<path d="M29.8421 5.16931C29.6988 4.23438 28.8362 3.51563 27.7573 3.22644C25.7427 2.86707 21.573 2.4375 16.3946 2.4375C11.8625 2.4375 7.47367 2.79687 5.09943 3.29944L29.8421 5.16931ZM29.8421 5.16931C30.2748 7.46875 30.5614 9.91418 30.5614 12.4298L29.8421 5.16931ZM4.78695 1.73965L4.78695 1.73963L4.78514 1.74004C3.16963 2.10706 1.75048 3.21433 1.45284 4.93178L1.45283 4.93178L1.45269 4.93263C1.16505 6.66281 0.875 9.2583 0.875 12.5C0.875 15.7409 1.1621 18.2645 1.52347 20.0704C1.8244 21.7113 3.23765 22.8924 4.85539 23.26L4.85538 23.26L4.85863 23.2606C7.39021 23.7654 11.7122 24.125 16.4649 24.125C21.2175 24.125 25.5396 23.7655 28.0683 23.2606L28.0683 23.2607L28.0715 23.26C29.69 22.8929 31.1062 21.7856 31.4039 20.0682L31.4041 20.0668C31.694 18.2669 32.0546 15.6748 32.125 12.4325L32.125 12.4325V12.4298C32.125 9.18685 31.7645 6.59039 31.4035 4.78659C31.1054 3.14543 29.692 1.96434 28.0715 1.59685L28.0716 1.59644L28.0615 1.595C25.5375 1.23471 21.1456 0.875 16.3946 0.875C11.6428 0.875 7.17371 1.23443 4.78695 1.73965ZM5.13554 3.41957C7.49986 2.92074 11.8727 2.5625 16.3946 2.5625C21.5629 2.5625 25.7222 2.99094 27.73 3.34856C28.7805 3.63165 29.5859 4.32283 29.7186 5.18825L29.7185 5.18826L29.7193 5.19243C30.1508 7.48559 30.4363 9.92265 30.4364 12.4284C30.3663 15.5079 30.0077 18.0167 29.7187 19.8108L29.7186 19.8114C29.6189 20.4485 29.2341 20.8708 28.812 21.1554C28.4174 21.4214 27.9991 21.561 27.7664 21.6387C27.752 21.6435 27.7382 21.6481 27.7253 21.6524C25.1443 22.1521 20.8416 22.5077 16.5351 22.5077C12.2224 22.5077 7.84947 22.2213 5.34587 21.6522C4.29398 21.3696 3.48726 20.678 3.3545 19.8118L3.3533 19.8039L3.35112 19.7963C2.77987 17.7998 2.56359 15.1546 2.56359 12.5C2.56359 9.19961 2.85241 6.76486 3.13739 5.26565L3.13745 5.26566L3.13806 5.26185C3.2388 4.62516 3.63991 4.20183 4.0722 3.91611C4.43053 3.67927 4.79764 3.54443 5.02232 3.46191C5.06574 3.44596 5.10385 3.43197 5.13554 3.41957ZM12.5707 6.64145L12.3837 6.53468V6.75V18.25V18.4653L12.5707 18.3586L22.6409 12.6086L22.831 12.5L22.6409 12.3914L17.6058 9.51645L12.5707 6.64145ZM14.0723 15.5886V9.41136L19.4507 12.5L14.0723 15.5886Z" fill="#FF0000" stroke="#FF0000" stroke-width="0.25"/>
</svg>
