<svg width="336" height="72" viewBox="0 0 336 72" fill="none" xmlns="http://www.w3.org/2000/svg">
<path d="M73.44 31.584L71.52 40.704H82.08V60.096H67.296L64.8 72H45.024L47.52 60.096H34.176L31.68 72H12L14.496 60.096H0.96V40.704H18.72L20.64 31.584H7.488V12.192H24.768L27.168 0.959999H46.848L44.448 12.192H57.792L60.192 0.959999H79.968L77.568 12.192H88.608V31.584H73.44ZM53.664 31.584H40.32L38.4 40.704H51.744L53.664 31.584ZM115.643 61.44V43.68L144.251 2.88H167.195V43.008H174.107V61.44H167.195V72H145.691V61.44H115.643ZM147.419 27.168L137.051 43.008H147.419V27.168ZM202.053 55.008C210.629 48.608 217.413 42.816 222.405 37.632C227.397 32.384 229.893 27.488 229.893 22.944C229.893 21.408 229.541 20.224 228.837 19.392C228.197 18.56 227.333 18.144 226.245 18.144C224.965 18.144 223.941 18.816 223.173 20.16C222.469 21.44 222.213 23.424 222.405 26.112H201.765C201.957 20.16 203.237 15.264 205.605 11.424C208.037 7.584 211.173 4.768 215.013 2.976C218.853 1.184 223.077 0.287996 227.685 0.287996C235.877 0.287996 241.861 2.272 245.637 6.23999C249.477 10.144 251.397 15.168 251.397 21.312C251.397 27.776 249.317 33.856 245.157 39.552C241.061 45.184 235.909 49.952 229.701 53.856H251.685V71.04H202.053V55.008ZM277.932 35.904C277.932 24.832 280.268 16.128 284.94 9.792C289.676 3.456 296.94 0.287996 306.732 0.287996C316.46 0.287996 323.692 3.488 328.428 9.888C333.164 16.224 335.532 24.896 335.532 35.904C335.532 46.976 333.164 55.712 328.428 62.112C323.692 68.448 316.46 71.616 306.732 71.616C296.94 71.616 289.676 68.448 284.94 62.112C280.268 55.712 277.932 46.976 277.932 35.904ZM314.508 35.904C314.508 30.784 313.996 26.944 312.972 24.384C311.948 21.76 309.868 20.448 306.732 20.448C303.532 20.448 301.42 21.76 300.396 24.384C299.372 26.944 298.86 30.784 298.86 35.904C298.86 41.088 299.372 44.992 300.396 47.616C301.42 50.176 303.532 51.456 306.732 51.456C309.868 51.456 311.948 50.176 312.972 47.616C313.996 44.992 314.508 41.088 314.508 35.904Z" fill="#131312"/>
<path d="M73.44 31.584V28.584C72.0213 28.584 70.7966 29.5777 70.5044 30.966L73.44 31.584ZM71.52 40.704L68.5844 40.086C68.3981 40.9707 68.6208 41.8922 69.1904 42.5942C69.76 43.2963 70.6159 43.704 71.52 43.704V40.704ZM82.08 40.704H85.08C85.08 39.0471 83.7369 37.704 82.08 37.704V40.704ZM82.08 60.096V63.096C83.7369 63.096 85.08 61.7529 85.08 60.096H82.08ZM67.296 60.096V57.096C65.8764 57.096 64.6512 58.091 64.3599 59.4804L67.296 60.096ZM64.8 72V75C66.2196 75 67.4448 74.005 67.7362 72.6156L64.8 72ZM45.024 72L42.0878 71.3844C41.9024 72.2688 42.1255 73.1897 42.6952 73.8912C43.2648 74.5927 44.1203 75 45.024 75V72ZM47.52 60.096L50.4562 60.7116C50.6416 59.8272 50.4185 58.9063 49.8488 58.2048C49.2792 57.5033 48.4237 57.096 47.52 57.096V60.096ZM34.176 60.096V57.096C32.7564 57.096 31.5312 58.091 31.2398 59.4804L34.176 60.096ZM31.68 72V75C33.0996 75 34.3248 74.005 34.6162 72.6156L31.68 72ZM12 72L9.06385 71.3844C8.8784 72.2688 9.10151 73.1897 9.67117 73.8912C10.2408 74.5927 11.0963 75 12 75V72ZM14.496 60.096L17.4322 60.7116C17.6176 59.8272 17.3945 58.9063 16.8248 58.2048C16.2552 57.5033 15.3997 57.096 14.496 57.096V60.096ZM0.96 60.096H-2.04C-2.04 61.7529 -0.696854 63.096 0.96 63.096L0.96 60.096ZM0.96 40.704V37.704C-0.696854 37.704 -2.04 39.0471 -2.04 40.704H0.96ZM18.72 40.704V43.704C20.1387 43.704 21.3634 42.7103 21.6557 41.322L18.72 40.704ZM20.64 31.584L23.5756 32.202C23.7619 31.3173 23.5392 30.3958 22.9696 29.6938C22.4 28.9917 21.5441 28.584 20.64 28.584V31.584ZM7.488 31.584H4.488C4.488 33.2409 5.83115 34.584 7.488 34.584L7.488 31.584ZM7.488 12.192V9.192C5.83115 9.192 4.488 10.5351 4.488 12.192H7.488ZM24.768 12.192V15.192C26.1833 15.192 27.406 14.2029 27.7018 12.8189L24.768 12.192ZM27.168 0.959999V-2.04C25.7527 -2.04 24.53 -1.0509 24.2342 0.333122L27.168 0.959999ZM46.848 0.959999L49.7818 1.58688C49.971 0.701199 49.75 -0.222572 49.1805 -0.926716C48.6109 -1.63086 47.7537 -2.04 46.848 -2.04V0.959999ZM44.448 12.192L41.5142 11.5651C41.325 12.4508 41.546 13.3746 42.1156 14.0787C42.6851 14.7829 43.5423 15.192 44.448 15.192V12.192ZM57.792 12.192V15.192C59.2073 15.192 60.43 14.2029 60.7258 12.8189L57.792 12.192ZM60.192 0.959999V-2.04C58.7767 -2.04 57.554 -1.0509 57.2582 0.333126L60.192 0.959999ZM79.968 0.959999L82.9018 1.58688C83.091 0.701199 82.87 -0.222572 82.3005 -0.926716C81.7309 -1.63086 80.8737 -2.04 79.968 -2.04V0.959999ZM77.568 12.192L74.6342 11.5651C74.445 12.4508 74.666 13.3746 75.2356 14.0787C75.8051 14.7829 76.6623 15.192 77.568 15.192V12.192ZM88.608 12.192H91.608C91.608 10.5351 90.2649 9.192 88.608 9.192V12.192ZM88.608 31.584V34.584C90.2649 34.584 91.608 33.2409 91.608 31.584H88.608ZM53.664 31.584L56.5997 32.202C56.7859 31.3173 56.5632 30.3958 55.9936 29.6938C55.424 28.9917 54.5681 28.584 53.664 28.584V31.584ZM40.32 31.584V28.584C38.9013 28.584 37.6766 29.5777 37.3844 30.966L40.32 31.584ZM38.4 40.704L35.4644 40.086C35.2781 40.9707 35.5008 41.8922 36.0704 42.5942C36.64 43.2963 37.4959 43.704 38.4 43.704V40.704ZM51.744 40.704V43.704C53.1627 43.704 54.3874 42.7103 54.6797 41.322L51.744 40.704ZM70.5044 30.966L68.5844 40.086L74.4557 41.322L76.3757 32.202L70.5044 30.966ZM71.52 43.704H82.08V37.704H71.52V43.704ZM79.08 40.704V60.096H85.08V40.704H79.08ZM82.08 57.096H67.296V63.096H82.08V57.096ZM64.3599 59.4804L61.8638 71.3844L67.7362 72.6156L70.2322 60.7116L64.3599 59.4804ZM64.8 69H45.024V75H64.8V69ZM47.9602 72.6156L50.4562 60.7116L44.5839 59.4804L42.0878 71.3844L47.9602 72.6156ZM47.52 57.096H34.176V63.096H47.52V57.096ZM31.2398 59.4804L28.7439 71.3844L34.6162 72.6156L37.1122 60.7116L31.2398 59.4804ZM31.68 69H12V75H31.68V69ZM14.9362 72.6156L17.4322 60.7116L11.5598 59.4804L9.06385 71.3844L14.9362 72.6156ZM14.496 57.096H0.96V63.096H14.496V57.096ZM3.96 60.096V40.704H-2.04V60.096H3.96ZM0.96 43.704H18.72V37.704H0.96V43.704ZM21.6557 41.322L23.5756 32.202L17.7044 30.966L15.7844 40.086L21.6557 41.322ZM20.64 28.584H7.488V34.584H20.64V28.584ZM10.488 31.584V12.192H4.488V31.584H10.488ZM7.488 15.192H24.768V9.192H7.488V15.192ZM27.7018 12.8189L30.1018 1.58688L24.2342 0.333122L21.8342 11.5651L27.7018 12.8189ZM27.168 3.96H46.848V-2.04H27.168V3.96ZM43.9142 0.333122L41.5142 11.5651L47.3818 12.8189L49.7818 1.58688L43.9142 0.333122ZM44.448 15.192H57.792V9.192H44.448V15.192ZM60.7258 12.8189L63.1258 1.58687L57.2582 0.333126L54.8582 11.5651L60.7258 12.8189ZM60.192 3.96H79.968V-2.04H60.192V3.96ZM77.0342 0.333122L74.6342 11.5651L80.5018 12.8189L82.9018 1.58688L77.0342 0.333122ZM77.568 15.192H88.608V9.192H77.568V15.192ZM85.608 12.192V31.584H91.608V12.192H85.608ZM88.608 28.584H73.44V34.584H88.608V28.584ZM53.664 28.584H40.32V34.584H53.664V28.584ZM37.3844 30.966L35.4644 40.086L41.3357 41.322L43.2556 32.202L37.3844 30.966ZM38.4 43.704H51.744V37.704H38.4V43.704ZM54.6797 41.322L56.5997 32.202L50.7284 30.966L48.8084 40.086L54.6797 41.322ZM115.643 61.44H112.643C112.643 63.0969 113.986 64.44 115.643 64.44V61.44ZM115.643 43.68L113.187 41.9577C112.833 42.4623 112.643 43.0637 112.643 43.68H115.643ZM144.251 2.88V-0.120003C143.273 -0.120003 142.356 0.356819 141.795 1.15767L144.251 2.88ZM167.195 2.88H170.195C170.195 1.22314 168.852 -0.120003 167.195 -0.120003V2.88ZM167.195 43.008H164.195C164.195 44.6649 165.538 46.008 167.195 46.008V43.008ZM174.107 43.008H177.107C177.107 41.3511 175.764 40.008 174.107 40.008V43.008ZM174.107 61.44V64.44C175.764 64.44 177.107 63.0969 177.107 61.44H174.107ZM167.195 61.44V58.44C165.538 58.44 164.195 59.7831 164.195 61.44H167.195ZM167.195 72V75C168.852 75 170.195 73.6569 170.195 72H167.195ZM145.691 72H142.691C142.691 73.6569 144.034 75 145.691 75V72ZM145.691 61.44H148.691C148.691 59.7831 147.348 58.44 145.691 58.44V61.44ZM147.419 27.168H150.419C150.419 25.8413 149.548 24.6722 148.276 24.2931C147.005 23.914 145.636 24.415 144.909 25.525L147.419 27.168ZM137.051 43.008L134.541 41.365C133.938 42.2869 133.888 43.4655 134.412 44.4347C134.936 45.404 135.949 46.008 137.051 46.008V43.008ZM147.419 43.008V46.008C149.076 46.008 150.419 44.6649 150.419 43.008H147.419ZM118.643 61.44V43.68H112.643V61.44H118.643ZM118.1 45.4023L146.708 4.60232L141.795 1.15767L113.187 41.9577L118.1 45.4023ZM144.251 5.88H167.195V-0.120003H144.251V5.88ZM164.195 2.88V43.008H170.195V2.88H164.195ZM167.195 46.008H174.107V40.008H167.195V46.008ZM171.107 43.008V61.44H177.107V43.008H171.107ZM174.107 58.44H167.195V64.44H174.107V58.44ZM164.195 61.44V72H170.195V61.44H164.195ZM167.195 69H145.691V75H167.195V69ZM148.691 72V61.44H142.691V72H148.691ZM145.691 58.44H115.643V64.44H145.691V58.44ZM144.909 25.525L134.541 41.365L139.561 44.651L149.929 28.811L144.909 25.525ZM137.051 46.008H147.419V40.008H137.051V46.008ZM150.419 43.008V27.168H144.419V43.008H150.419ZM202.053 55.008L200.259 52.6037C199.5 53.17 199.053 54.0612 199.053 55.008H202.053ZM222.405 37.632L224.566 39.7129C224.57 39.7085 224.574 39.7041 224.579 39.6996L222.405 37.632ZM228.837 19.392L226.459 21.2211C226.488 21.258 226.517 21.2943 226.547 21.3298L228.837 19.392ZM223.173 20.16L220.568 18.6716C220.56 18.6857 220.552 18.7 220.544 18.7142L223.173 20.16ZM222.405 26.112V29.112C223.238 29.112 224.033 28.7658 224.601 28.1564C225.168 27.5469 225.457 26.7289 225.397 25.8983L222.405 26.112ZM201.765 26.112L198.767 26.0153C198.74 26.8273 199.045 27.6152 199.61 28.1988C200.175 28.7825 200.953 29.112 201.765 29.112V26.112ZM205.605 11.424L203.071 9.81884C203.064 9.82896 203.058 9.83913 203.051 9.84933L205.605 11.424ZM215.013 2.976L213.744 0.257446L215.013 2.976ZM245.637 6.23999L243.464 8.30809C243.475 8.32005 243.487 8.33193 243.498 8.34371L245.637 6.23999ZM245.157 39.552L242.734 37.7826L242.731 37.7875L245.157 39.552ZM229.701 53.856L228.104 51.3164C226.972 52.0281 226.448 53.4026 226.818 54.687C227.189 55.9715 228.364 56.856 229.701 56.856V53.856ZM251.685 53.856H254.685C254.685 52.1991 253.342 50.856 251.685 50.856V53.856ZM251.685 71.04V74.04C253.342 74.04 254.685 72.6969 254.685 71.04H251.685ZM202.053 71.04H199.053C199.053 72.6969 200.396 74.04 202.053 74.04V71.04ZM203.847 57.4123C212.498 50.9568 219.421 45.0563 224.566 39.7129L220.244 35.5511C215.405 40.5757 208.76 46.2592 200.259 52.6037L203.847 57.4123ZM224.579 39.6996C229.8 34.2109 232.893 28.6054 232.893 22.944H226.893C226.893 26.3706 224.994 30.5571 220.231 35.5644L224.579 39.6996ZM232.893 22.944C232.893 20.9855 232.446 19.0127 231.127 17.4542L226.547 21.3298C226.636 21.4353 226.893 21.8305 226.893 22.944H232.893ZM231.215 17.5629C229.983 15.9617 228.225 15.144 226.245 15.144V21.144C226.326 21.144 226.373 21.1516 226.394 21.1561C226.413 21.1603 226.416 21.1628 226.408 21.159C226.399 21.155 226.396 21.1516 226.399 21.1547C226.404 21.1584 226.425 21.1767 226.459 21.2211L231.215 17.5629ZM226.245 15.144C223.647 15.144 221.738 16.6238 220.568 18.6716L225.778 21.6484C225.987 21.2815 226.137 21.1732 226.163 21.1561C226.167 21.1535 226.17 21.1518 226.171 21.1509C226.173 21.15 226.174 21.1496 226.174 21.1496C226.174 21.1496 226.174 21.1497 226.173 21.1499C226.173 21.15 226.173 21.1501 226.173 21.15C226.173 21.15 226.177 21.1487 226.188 21.1473C226.198 21.1458 226.217 21.144 226.245 21.144V15.144ZM220.544 18.7142C219.412 20.7727 219.209 23.4782 219.413 26.3257L225.397 25.8983C225.217 23.3698 225.526 22.1073 225.802 21.6058L220.544 18.7142ZM222.405 23.112H201.765V29.112H222.405V23.112ZM204.763 26.2087C204.944 20.6175 206.139 16.2729 208.159 12.9987L203.051 9.84933C200.335 14.2551 198.97 19.7025 198.767 26.0153L204.763 26.2087ZM208.139 13.0292C210.288 9.63688 212.999 7.22626 216.282 5.69455L213.744 0.257446C209.347 2.30973 205.786 5.53111 203.071 9.81884L208.139 13.0292ZM216.282 5.69455C219.691 4.10369 223.477 3.28799 227.685 3.28799V-2.712C222.678 -2.712 218.015 -1.73569 213.744 0.257446L216.282 5.69455ZM227.685 3.28799C235.461 3.28799 240.483 5.17615 243.464 8.30809L247.81 4.1719C243.239 -0.63216 236.293 -2.712 227.685 -2.712V3.28799ZM243.498 8.34371C246.717 11.6162 248.397 15.8505 248.397 21.312H254.397C254.397 14.4855 252.237 8.67181 247.776 4.13628L243.498 8.34371ZM248.397 21.312C248.397 27.0814 246.555 32.5509 242.734 37.7826L247.58 41.3214C252.079 35.1611 254.397 28.4706 254.397 21.312H248.397ZM242.731 37.7875C238.871 43.0945 234.006 47.6047 228.104 51.3164L231.298 56.3956C237.812 52.2993 243.251 47.2735 247.583 41.3165L242.731 37.7875ZM229.701 56.856H251.685V50.856H229.701V56.856ZM248.685 53.856V71.04H254.685V53.856H248.685ZM251.685 68.04H202.053V74.04H251.685V68.04ZM205.053 71.04V55.008H199.053V71.04H205.053ZM284.94 9.792L282.537 7.99589C282.533 8.0011 282.529 8.00633 282.525 8.01157L284.94 9.792ZM328.428 9.888L326.016 11.6725C326.019 11.6764 326.022 11.6803 326.025 11.6841L328.428 9.888ZM328.428 62.112L330.831 63.9081C330.834 63.9043 330.837 63.9004 330.84 63.8965L328.428 62.112ZM284.94 62.112L282.517 63.8808C282.524 63.89 282.53 63.8991 282.537 63.9081L284.94 62.112ZM312.972 24.384L310.177 25.4746C310.18 25.4825 310.183 25.4903 310.187 25.4982L312.972 24.384ZM300.396 24.384L303.181 25.4982C303.185 25.4903 303.188 25.4825 303.191 25.4746L300.396 24.384ZM300.396 47.616L297.601 48.7066C297.604 48.7145 297.607 48.7223 297.611 48.7302L300.396 47.616ZM312.972 47.616L315.757 48.7302C315.761 48.7223 315.764 48.7145 315.767 48.7066L312.972 47.616ZM280.932 35.904C280.932 25.2196 283.19 17.2206 287.355 11.5724L282.525 8.01157C277.346 15.0354 274.932 24.4444 274.932 35.904H280.932ZM287.343 11.5881C291.378 6.19025 297.635 3.28799 306.732 3.28799V-2.712C296.245 -2.712 287.974 0.721741 282.537 7.99589L287.343 11.5881ZM306.732 3.28799C315.745 3.28799 321.973 6.20898 326.016 11.6725L330.84 8.10347C325.411 0.767017 317.175 -2.712 306.732 -2.712V3.28799ZM326.025 11.6841C330.248 17.333 332.532 25.2956 332.532 35.904H338.532C338.532 24.4964 336.081 15.115 330.831 8.09188L326.025 11.6841ZM332.532 35.904C332.532 46.5786 330.246 54.6113 326.016 60.3275L330.84 63.8965C336.082 56.8128 338.532 47.3734 338.532 35.904H332.532ZM326.025 60.3159C321.986 65.7189 315.757 68.616 306.732 68.616V74.616C317.163 74.616 325.398 71.1771 330.831 63.9081L326.025 60.3159ZM306.732 68.616C297.635 68.616 291.378 65.7137 287.343 60.3159L282.537 63.9081C287.974 71.1823 296.245 74.616 306.732 74.616V68.616ZM287.363 60.3432C283.189 54.625 280.932 46.5861 280.932 35.904H274.932C274.932 47.366 277.347 56.799 282.517 63.8808L287.363 60.3432ZM317.508 35.904C317.508 30.6725 316.997 26.3696 315.757 23.2698L310.187 25.4982C310.995 27.5184 311.508 30.8955 311.508 35.904H317.508ZM315.767 23.2934C315.057 21.4743 313.904 19.9412 312.245 18.8946C310.61 17.8635 308.712 17.448 306.732 17.448V23.448C307.888 23.448 308.598 23.6885 309.044 23.9694C309.464 24.2348 309.863 24.6697 310.177 25.4746L315.767 23.2934ZM306.732 17.448C304.731 17.448 302.815 17.8588 301.165 18.8837C299.486 19.9266 298.316 21.4613 297.601 23.2934L303.191 25.4746C303.5 24.6827 303.898 24.2494 304.331 23.9803C304.793 23.6932 305.533 23.448 306.732 23.448V17.448ZM297.611 23.2698C296.371 26.3696 295.86 30.6725 295.86 35.904H301.86C301.86 30.8955 302.373 27.5184 303.181 25.4982L297.611 23.2698ZM295.86 35.904C295.86 41.2014 296.372 45.5554 297.601 48.7066L303.191 46.5254C302.373 44.4286 301.86 40.9746 301.86 35.904H295.86ZM297.611 48.7302C298.335 50.5407 299.516 52.045 301.193 53.0616C302.837 54.0582 304.743 54.456 306.732 54.456V48.456C305.521 48.456 304.771 48.2138 304.303 47.9304C303.868 47.667 303.481 47.2513 303.181 46.5018L297.611 48.7302ZM306.732 54.456C308.7 54.456 310.587 54.0538 312.216 53.051C313.875 52.0305 315.039 50.5275 315.757 48.7302L310.187 46.5018C309.882 47.2645 309.493 47.6815 309.072 47.941C308.621 48.2182 307.9 48.456 306.732 48.456V54.456ZM315.767 48.7066C316.997 45.5554 317.508 41.2014 317.508 35.904H311.508C311.508 40.9746 310.996 44.4286 310.177 46.5254L315.767 48.7066Z" fill="url(#paint0_linear_566_8271)"/>
<defs>
<linearGradient id="paint0_linear_566_8271" x1="149.5" y1="79" x2="147.5" y2="-3" gradientUnits="userSpaceOnUse">
<stop stop-color="white" stop-opacity="0.42"/>
<stop offset="1" stop-opacity="0"/>
</linearGradient>
</defs>
</svg>
