<svg width="457" height="457" viewBox="0 0 457 457" fill="none" xmlns="http://www.w3.org/2000/svg">
<g filter="url(#filter0_ii_260_6169)">
<rect width="456.402" height="456.402" rx="11" fill="#212127"/>
</g>
<path fill-rule="evenodd" clip-rule="evenodd" d="M245.927 185C260.35 185 270.043 195.102 270.043 210.134V244.866C270.043 259.898 260.35 270 245.927 270H209.073C194.672 270 185 259.898 185 244.866V210.134C185 195.102 194.672 185 209.073 185H245.927ZM245.927 191.391H209.073C198.332 191.391 191.391 198.749 191.391 210.134V244.866C191.391 256.255 198.332 263.609 209.073 263.609H245.927C256.694 263.609 263.652 256.255 263.652 244.866V210.134C263.652 198.749 256.694 191.391 245.927 191.391ZM248.65 228.03C248.677 228.052 248.703 228.074 248.759 228.126L248.841 228.204C248.858 228.22 248.876 228.238 248.896 228.258L249.134 228.494C249.903 229.263 252.026 231.432 258.356 237.932C259.587 239.193 259.566 241.217 258.3 242.448C257.039 243.688 255.011 243.65 253.78 242.388C253.78 242.388 245.05 233.428 244.428 232.823C243.767 232.282 242.706 231.967 241.662 232.069C240.602 232.176 239.647 232.683 238.97 233.505C229.068 245.516 228.949 245.631 228.787 245.788C225.131 249.376 219.23 249.316 215.638 245.652C215.638 245.652 211.676 241.63 211.608 241.549C210.624 240.637 208.868 240.697 207.816 241.809L201.297 248.681C200.666 249.346 199.823 249.678 198.979 249.678C198.187 249.678 197.398 249.389 196.781 248.801C195.498 247.591 195.447 245.563 196.661 244.289L203.172 237.416C206.619 233.756 212.434 233.577 216.111 237.029L220.193 241.17C221.331 242.32 223.18 242.342 224.322 241.217C224.752 240.71 234.032 229.44 234.032 229.44C235.795 227.301 238.284 225.981 241.049 225.708C243.818 225.465 246.507 226.27 248.65 228.03ZM212.942 204.722C218.83 204.726 223.615 209.515 223.615 215.391C223.615 221.275 218.826 226.064 212.942 226.064C207.058 226.064 202.274 221.275 202.274 215.391C202.274 209.507 207.058 204.722 212.942 204.722ZM212.938 211.113C210.582 211.113 208.665 213.03 208.665 215.391C208.665 217.751 210.582 219.673 212.942 219.673C215.303 219.673 217.224 217.751 217.224 215.391C217.224 213.035 215.303 211.117 212.938 211.113Z" fill="#656565"/>
<path d="M82.0438 294.32V311H79.3078V294.32H82.0438ZM101.644 297.56C102.684 297.56 103.612 297.776 104.428 298.208C105.26 298.64 105.908 299.28 106.372 300.128C106.852 300.976 107.092 302 107.092 303.2V311H104.38V303.608C104.38 302.424 104.084 301.52 103.492 300.896C102.9 300.256 102.092 299.936 101.068 299.936C100.044 299.936 99.2279 300.256 98.6199 300.896C98.0279 301.52 97.7319 302.424 97.7319 303.608V311H95.0199V303.608C95.0199 302.424 94.7239 301.52 94.1319 300.896C93.5399 300.256 92.7319 299.936 91.7079 299.936C90.6839 299.936 89.8679 300.256 89.2599 300.896C88.6679 301.52 88.3719 302.424 88.3719 303.608V311H85.6359V297.776H88.3719V299.288C88.8199 298.744 89.3879 298.32 90.0759 298.016C90.7639 297.712 91.4999 297.56 92.2839 297.56C93.3399 297.56 94.2839 297.784 95.1159 298.232C95.9479 298.68 96.5879 299.328 97.0359 300.176C97.4359 299.376 98.0599 298.744 98.9079 298.28C99.7559 297.8 100.668 297.56 101.644 297.56ZM109.661 304.328C109.661 303 109.933 301.824 110.477 300.8C111.037 299.776 111.789 298.984 112.733 298.424C113.693 297.848 114.749 297.56 115.901 297.56C116.941 297.56 117.845 297.768 118.613 298.184C119.397 298.584 120.021 299.088 120.485 299.696V297.776H123.245V311H120.485V309.032C120.021 309.656 119.389 310.176 118.589 310.592C117.789 311.008 116.877 311.216 115.853 311.216C114.717 311.216 113.677 310.928 112.733 310.352C111.789 309.76 111.037 308.944 110.477 307.904C109.933 306.848 109.661 305.656 109.661 304.328ZM120.485 304.376C120.485 303.464 120.293 302.672 119.909 302C119.541 301.328 119.053 300.816 118.445 300.464C117.837 300.112 117.181 299.936 116.477 299.936C115.773 299.936 115.117 300.112 114.509 300.464C113.901 300.8 113.405 301.304 113.021 301.976C112.653 302.632 112.469 303.416 112.469 304.328C112.469 305.24 112.653 306.04 113.021 306.728C113.405 307.416 113.901 307.944 114.509 308.312C115.133 308.664 115.789 308.84 116.477 308.84C117.181 308.84 117.837 308.664 118.445 308.312C119.053 307.96 119.541 307.448 119.909 306.776C120.293 306.088 120.485 305.288 120.485 304.376ZM132.167 297.56C133.191 297.56 134.095 297.768 134.879 298.184C135.679 298.584 136.303 299.088 136.751 299.696V297.776H139.511V311.216C139.511 312.432 139.255 313.512 138.743 314.456C138.231 315.416 137.487 316.168 136.511 316.712C135.551 317.256 134.399 317.528 133.055 317.528C131.263 317.528 129.775 317.104 128.591 316.256C127.407 315.424 126.735 314.288 126.575 312.848H129.287C129.495 313.536 129.935 314.088 130.607 314.504C131.295 314.936 132.111 315.152 133.055 315.152C134.159 315.152 135.047 314.816 135.719 314.144C136.407 313.472 136.751 312.496 136.751 311.216V309.008C136.287 309.632 135.655 310.16 134.855 310.592C134.071 311.008 133.175 311.216 132.167 311.216C131.015 311.216 129.959 310.928 128.999 310.352C128.055 309.76 127.303 308.944 126.743 307.904C126.199 306.848 125.927 305.656 125.927 304.328C125.927 303 126.199 301.824 126.743 300.8C127.303 299.776 128.055 298.984 128.999 298.424C129.959 297.848 131.015 297.56 132.167 297.56ZM136.751 304.376C136.751 303.464 136.559 302.672 136.175 302C135.807 301.328 135.319 300.816 134.711 300.464C134.103 300.112 133.447 299.936 132.743 299.936C132.039 299.936 131.383 300.112 130.775 300.464C130.167 300.8 129.671 301.304 129.287 301.976C128.919 302.632 128.735 303.416 128.735 304.328C128.735 305.24 128.919 306.04 129.287 306.728C129.671 307.416 130.167 307.944 130.775 308.312C131.399 308.664 132.055 308.84 132.743 308.84C133.447 308.84 134.103 308.664 134.711 308.312C135.319 307.96 135.807 307.448 136.175 306.776C136.559 306.088 136.751 305.288 136.751 304.376ZM155.225 304.064C155.225 304.56 155.193 305.008 155.129 305.408H145.025C145.105 306.464 145.497 307.312 146.201 307.952C146.905 308.592 147.769 308.912 148.793 308.912C150.265 308.912 151.305 308.296 151.913 307.064H154.865C154.465 308.28 153.737 309.28 152.681 310.064C151.641 310.832 150.345 311.216 148.793 311.216C147.529 311.216 146.393 310.936 145.385 310.376C144.393 309.8 143.609 309 143.033 307.976C142.473 306.936 142.193 305.736 142.193 304.376C142.193 303.016 142.465 301.824 143.009 300.8C143.569 299.76 144.345 298.96 145.337 298.4C146.345 297.84 147.497 297.56 148.793 297.56C150.041 297.56 151.153 297.832 152.129 298.376C153.105 298.92 153.865 299.688 154.409 300.68C154.953 301.656 155.225 302.784 155.225 304.064ZM152.369 303.2C152.353 302.192 151.993 301.384 151.289 300.776C150.585 300.168 149.713 299.864 148.673 299.864C147.729 299.864 146.921 300.168 146.249 300.776C145.577 301.368 145.177 302.176 145.049 303.2H152.369ZM160.917 307.712L158.013 314.336H156.237L157.941 307.712H160.917ZM177.684 294.32L171.42 311H168.252L161.964 294.32H164.892L169.836 308.192L174.804 294.32H177.684ZM181.364 296.024C180.868 296.024 180.452 295.856 180.116 295.52C179.78 295.184 179.612 294.768 179.612 294.272C179.612 293.776 179.78 293.36 180.116 293.024C180.452 292.688 180.868 292.52 181.364 292.52C181.844 292.52 182.252 292.688 182.588 293.024C182.924 293.36 183.092 293.776 183.092 294.272C183.092 294.768 182.924 295.184 182.588 295.52C182.252 295.856 181.844 296.024 181.364 296.024ZM182.708 297.776V311H179.972V297.776H182.708ZM185.388 304.328C185.388 303 185.66 301.824 186.204 300.8C186.764 299.776 187.516 298.984 188.46 298.424C189.42 297.848 190.484 297.56 191.652 297.56C192.516 297.56 193.364 297.752 194.196 298.136C195.044 298.504 195.716 299 196.212 299.624V293.24H198.972V311H196.212V309.008C195.764 309.648 195.14 310.176 194.34 310.592C193.556 311.008 192.652 311.216 191.628 311.216C190.476 311.216 189.42 310.928 188.46 310.352C187.516 309.76 186.764 308.944 186.204 307.904C185.66 306.848 185.388 305.656 185.388 304.328ZM196.212 304.376C196.212 303.464 196.02 302.672 195.636 302C195.268 301.328 194.78 300.816 194.172 300.464C193.564 300.112 192.908 299.936 192.204 299.936C191.5 299.936 190.844 300.112 190.236 300.464C189.628 300.8 189.132 301.304 188.748 301.976C188.38 302.632 188.196 303.416 188.196 304.328C188.196 305.24 188.38 306.04 188.748 306.728C189.132 307.416 189.628 307.944 190.236 308.312C190.86 308.664 191.516 308.84 192.204 308.84C192.908 308.84 193.564 308.664 194.172 308.312C194.78 307.96 195.268 307.448 195.636 306.776C196.02 306.088 196.212 305.288 196.212 304.376ZM214.686 304.064C214.686 304.56 214.654 305.008 214.59 305.408H204.486C204.566 306.464 204.958 307.312 205.662 307.952C206.366 308.592 207.23 308.912 208.254 308.912C209.726 308.912 210.766 308.296 211.374 307.064H214.326C213.926 308.28 213.198 309.28 212.142 310.064C211.102 310.832 209.806 311.216 208.254 311.216C206.99 311.216 205.854 310.936 204.846 310.376C203.854 309.8 203.07 309 202.494 307.976C201.934 306.936 201.654 305.736 201.654 304.376C201.654 303.016 201.926 301.824 202.47 300.8C203.03 299.76 203.806 298.96 204.798 298.4C205.806 297.84 206.958 297.56 208.254 297.56C209.502 297.56 210.614 297.832 211.59 298.376C212.566 298.92 213.326 299.688 213.87 300.68C214.414 301.656 214.686 302.784 214.686 304.064ZM211.83 303.2C211.814 302.192 211.454 301.384 210.75 300.776C210.046 300.168 209.174 299.864 208.134 299.864C207.19 299.864 206.382 300.168 205.71 300.776C205.038 301.368 204.638 302.176 204.51 303.2H211.83ZM223.114 311.216C221.866 311.216 220.738 310.936 219.73 310.376C218.722 309.8 217.93 309 217.354 307.976C216.778 306.936 216.49 305.736 216.49 304.376C216.49 303.032 216.786 301.84 217.378 300.8C217.97 299.76 218.778 298.96 219.802 298.4C220.826 297.84 221.97 297.56 223.234 297.56C224.498 297.56 225.642 297.84 226.666 298.4C227.69 298.96 228.498 299.76 229.09 300.8C229.682 301.84 229.978 303.032 229.978 304.376C229.978 305.72 229.674 306.912 229.066 307.952C228.458 308.992 227.626 309.8 226.57 310.376C225.53 310.936 224.378 311.216 223.114 311.216ZM223.114 308.84C223.818 308.84 224.474 308.672 225.082 308.336C225.706 308 226.21 307.496 226.594 306.824C226.978 306.152 227.17 305.336 227.17 304.376C227.17 303.416 226.986 302.608 226.618 301.952C226.25 301.28 225.762 300.776 225.154 300.44C224.546 300.104 223.89 299.936 223.186 299.936C222.482 299.936 221.826 300.104 221.218 300.44C220.626 300.776 220.154 301.28 219.802 301.952C219.45 302.608 219.274 303.416 219.274 304.376C219.274 305.8 219.634 306.904 220.354 307.688C221.09 308.456 222.01 308.84 223.114 308.84ZM244.653 311.216C243.405 311.216 242.277 310.936 241.269 310.376C240.261 309.8 239.469 309 238.893 307.976C238.317 306.936 238.029 305.736 238.029 304.376C238.029 303.032 238.325 301.84 238.917 300.8C239.509 299.76 240.317 298.96 241.341 298.4C242.365 297.84 243.509 297.56 244.773 297.56C246.037 297.56 247.181 297.84 248.205 298.4C249.229 298.96 250.037 299.76 250.629 300.8C251.221 301.84 251.517 303.032 251.517 304.376C251.517 305.72 251.213 306.912 250.605 307.952C249.997 308.992 249.165 309.8 248.109 310.376C247.069 310.936 245.917 311.216 244.653 311.216ZM244.653 308.84C245.357 308.84 246.013 308.672 246.621 308.336C247.245 308 247.749 307.496 248.133 306.824C248.517 306.152 248.709 305.336 248.709 304.376C248.709 303.416 248.525 302.608 248.157 301.952C247.789 301.28 247.301 300.776 246.693 300.44C246.085 300.104 245.429 299.936 244.725 299.936C244.021 299.936 243.365 300.104 242.757 300.44C242.165 300.776 241.693 301.28 241.341 301.952C240.989 302.608 240.813 303.416 240.813 304.376C240.813 305.8 241.173 306.904 241.893 307.688C242.629 308.456 243.549 308.84 244.653 308.84ZM256.958 299.696C257.358 299.024 257.886 298.504 258.542 298.136C259.214 297.752 260.006 297.56 260.918 297.56V300.392H260.222C259.15 300.392 258.334 300.664 257.774 301.208C257.23 301.752 256.958 302.696 256.958 304.04V311H254.222V297.776H256.958V299.696ZM269.259 297.824C269.355 296.336 269.923 295.176 270.963 294.344C272.019 293.512 273.363 293.096 274.995 293.096C276.115 293.096 277.083 293.296 277.899 293.696C278.715 294.096 279.331 294.64 279.747 295.328C280.163 296.016 280.371 296.792 280.371 297.656C280.371 298.648 280.107 299.496 279.579 300.2C279.051 300.904 278.419 301.376 277.683 301.616V301.712C278.627 302 279.363 302.528 279.891 303.296C280.419 304.048 280.683 305.016 280.683 306.2C280.683 307.144 280.467 307.984 280.035 308.72C279.603 309.456 278.963 310.04 278.115 310.472C277.267 310.888 276.251 311.096 275.067 311.096C273.339 311.096 271.915 310.656 270.795 309.776C269.691 308.88 269.099 307.6 269.019 305.936H271.659C271.723 306.784 272.051 307.48 272.643 308.024C273.235 308.552 274.035 308.816 275.043 308.816C276.019 308.816 276.771 308.552 277.299 308.024C277.827 307.48 278.091 306.784 278.091 305.936C278.091 304.816 277.731 304.024 277.011 303.56C276.307 303.08 275.219 302.84 273.747 302.84H273.123V300.584H273.771C275.067 300.568 276.051 300.352 276.723 299.936C277.411 299.52 277.755 298.864 277.755 297.968C277.755 297.2 277.507 296.592 277.011 296.144C276.515 295.68 275.811 295.448 274.899 295.448C274.003 295.448 273.307 295.68 272.811 296.144C272.315 296.592 272.019 297.152 271.923 297.824H269.259ZM283.005 304.328C283.005 303 283.277 301.824 283.821 300.8C284.381 299.776 285.133 298.984 286.077 298.424C287.037 297.848 288.101 297.56 289.269 297.56C290.133 297.56 290.981 297.752 291.813 298.136C292.661 298.504 293.333 299 293.829 299.624V293.24H296.589V311H293.829V309.008C293.381 309.648 292.757 310.176 291.957 310.592C291.173 311.008 290.269 311.216 289.245 311.216C288.093 311.216 287.037 310.928 286.077 310.352C285.133 309.76 284.381 308.944 283.821 307.904C283.277 306.848 283.005 305.656 283.005 304.328ZM293.829 304.376C293.829 303.464 293.637 302.672 293.253 302C292.885 301.328 292.397 300.816 291.789 300.464C291.181 300.112 290.525 299.936 289.821 299.936C289.117 299.936 288.461 300.112 287.853 300.464C287.245 300.8 286.749 301.304 286.365 301.976C285.997 302.632 285.813 303.416 285.813 304.328C285.813 305.24 285.997 306.04 286.365 306.728C286.749 307.416 287.245 307.944 287.853 308.312C288.477 308.664 289.133 308.84 289.821 308.84C290.525 308.84 291.181 308.664 291.789 308.312C292.397 307.96 292.885 307.448 293.253 306.776C293.637 306.088 293.829 305.288 293.829 304.376ZM323.985 294.32V311H321.249V299.576L316.161 311H314.265L309.153 299.576V311H306.417V294.32H309.369L315.225 307.4L321.057 294.32H323.985ZM333.317 311.216C332.069 311.216 330.941 310.936 329.933 310.376C328.925 309.8 328.133 309 327.557 307.976C326.981 306.936 326.693 305.736 326.693 304.376C326.693 303.032 326.989 301.84 327.581 300.8C328.173 299.76 328.981 298.96 330.005 298.4C331.029 297.84 332.173 297.56 333.437 297.56C334.701 297.56 335.845 297.84 336.869 298.4C337.893 298.96 338.701 299.76 339.293 300.8C339.885 301.84 340.181 303.032 340.181 304.376C340.181 305.72 339.877 306.912 339.269 307.952C338.661 308.992 337.829 309.8 336.773 310.376C335.733 310.936 334.581 311.216 333.317 311.216ZM333.317 308.84C334.021 308.84 334.677 308.672 335.285 308.336C335.909 308 336.413 307.496 336.797 306.824C337.181 306.152 337.373 305.336 337.373 304.376C337.373 303.416 337.189 302.608 336.821 301.952C336.453 301.28 335.965 300.776 335.357 300.44C334.749 300.104 334.093 299.936 333.389 299.936C332.685 299.936 332.029 300.104 331.421 300.44C330.829 300.776 330.357 301.28 330.005 301.952C329.653 302.608 329.477 303.416 329.477 304.376C329.477 305.8 329.837 306.904 330.557 307.688C331.293 308.456 332.213 308.84 333.317 308.84ZM341.974 304.328C341.974 303 342.246 301.824 342.79 300.8C343.35 299.776 344.102 298.984 345.046 298.424C346.006 297.848 347.07 297.56 348.238 297.56C349.102 297.56 349.95 297.752 350.782 298.136C351.63 298.504 352.302 299 352.798 299.624V293.24H355.558V311H352.798V309.008C352.35 309.648 351.726 310.176 350.926 310.592C350.142 311.008 349.238 311.216 348.214 311.216C347.062 311.216 346.006 310.928 345.046 310.352C344.102 309.76 343.35 308.944 342.79 307.904C342.246 306.848 341.974 305.656 341.974 304.328ZM352.798 304.376C352.798 303.464 352.606 302.672 352.222 302C351.854 301.328 351.366 300.816 350.758 300.464C350.15 300.112 349.494 299.936 348.79 299.936C348.086 299.936 347.43 300.112 346.822 300.464C346.214 300.8 345.718 301.304 345.334 301.976C344.966 302.632 344.782 303.416 344.782 304.328C344.782 305.24 344.966 306.04 345.334 306.728C345.718 307.416 346.214 307.944 346.822 308.312C347.446 308.664 348.102 308.84 348.79 308.84C349.494 308.84 350.15 308.664 350.758 308.312C351.366 307.96 351.854 307.448 352.222 306.776C352.606 306.088 352.798 305.288 352.798 304.376ZM371.272 304.064C371.272 304.56 371.24 305.008 371.176 305.408H361.072C361.152 306.464 361.544 307.312 362.248 307.952C362.952 308.592 363.816 308.912 364.84 308.912C366.312 308.912 367.352 308.296 367.96 307.064H370.912C370.512 308.28 369.784 309.28 368.728 310.064C367.688 310.832 366.392 311.216 364.84 311.216C363.576 311.216 362.44 310.936 361.432 310.376C360.44 309.8 359.656 309 359.08 307.976C358.52 306.936 358.24 305.736 358.24 304.376C358.24 303.016 358.512 301.824 359.056 300.8C359.616 299.76 360.392 298.96 361.384 298.4C362.392 297.84 363.544 297.56 364.84 297.56C366.088 297.56 367.2 297.832 368.176 298.376C369.152 298.92 369.912 299.688 370.456 300.68C371 301.656 371.272 302.784 371.272 304.064ZM368.416 303.2C368.4 302.192 368.04 301.384 367.336 300.776C366.632 300.168 365.76 299.864 364.72 299.864C363.776 299.864 362.968 300.168 362.296 300.776C361.624 301.368 361.224 302.176 361.096 303.2H368.416ZM376.7 293.24V311H373.964V293.24H376.7Z" fill="#6F6F6F"/>
<defs>
<filter id="filter0_ii_260_6169" x="-4" y="-3" width="463.402" height="463.401" filterUnits="userSpaceOnUse" color-interpolation-filters="sRGB">
<feFlood flood-opacity="0" result="BackgroundImageFix"/>
<feBlend mode="normal" in="SourceGraphic" in2="BackgroundImageFix" result="shape"/>
<feColorMatrix in="SourceAlpha" type="matrix" values="0 0 0 0 0 0 0 0 0 0 0 0 0 0 0 0 0 0 127 0" result="hardAlpha"/>
<feOffset dx="-4" dy="-3"/>
<feGaussianBlur stdDeviation="5"/>
<feComposite in2="hardAlpha" operator="arithmetic" k2="-1" k3="1"/>
<feColorMatrix type="matrix" values="0 0 0 0 0.57934 0 0 0 0 0.57934 0 0 0 0 0.57934 0 0 0 0.12 0"/>
<feBlend mode="normal" in2="shape" result="effect1_innerShadow_260_6169"/>
<feColorMatrix in="SourceAlpha" type="matrix" values="0 0 0 0 0 0 0 0 0 0 0 0 0 0 0 0 0 0 127 0" result="hardAlpha"/>
<feOffset dx="3" dy="4"/>
<feGaussianBlur stdDeviation="5"/>
<feComposite in2="hardAlpha" operator="arithmetic" k2="-1" k3="1"/>
<feColorMatrix type="matrix" values="0 0 0 0 0 0 0 0 0 0 0 0 0 0 0 0 0 0 0.12 0"/>
<feBlend mode="normal" in2="effect1_innerShadow_260_6169" result="effect2_innerShadow_260_6169"/>
</filter>
</defs>
</svg>
