<svg width="113" height="626" viewBox="0 0 113 626" fill="none" xmlns="http://www.w3.org/2000/svg">
    <path d="M29.1983 592.245L42.2483 592.258L42.4214 559.259L67.4714 559.284L67.2983 592.284L82.2983 592.299L82.495 554.8L109.045 554.826L108.674 625.625L2.47365 625.518L2.845 554.719L29.395 554.746L29.1983 592.245ZM109.564 455.878L71.3593 475.789L71.3585 475.939L109.459 475.978L109.284 509.277L3.08391 509.17L3.34353 459.671C3.38864 451.071 4.97719 443.722 8.10918 437.626C11.1412 431.529 15.315 426.983 20.6308 423.988C25.847 420.894 31.7552 419.35 38.3552 419.356C45.4551 419.364 51.7447 421.37 57.2237 425.375C62.7032 429.281 66.6236 434.935 68.9848 442.337L109.756 419.279L109.564 455.878ZM49.1585 475.917L49.2278 462.717C49.2446 459.517 48.5571 457.116 47.1655 455.515C45.6739 453.914 43.3781 453.111 40.2781 453.108C37.4781 453.105 35.2737 453.953 33.6648 455.651C32.0564 457.25 31.244 459.599 31.2278 462.699L31.1585 475.899L49.1585 475.917ZM110.264 322.392L72.0595 342.303L72.0587 342.453L110.159 342.491L109.984 375.791L3.78406 375.683L4.04368 326.184C4.08879 317.584 5.67734 310.236 8.80933 304.139C11.8413 298.042 16.0152 293.497 21.3309 290.502C26.5472 287.407 32.4553 285.863 39.0553 285.87C46.1553 285.877 52.4448 287.883 57.9238 291.889C63.4034 295.795 67.3237 301.448 69.6849 308.851L110.456 285.792L110.264 322.392ZM49.8587 342.43L49.9279 329.231C49.9447 326.031 49.2573 323.63 47.8657 322.029C46.3741 320.427 44.0783 319.625 40.9783 319.622C38.1783 319.619 35.9738 320.467 34.3649 322.165C32.7565 323.763 31.9442 326.112 31.9279 329.212L31.8587 342.412L49.8587 342.43ZM112.006 190.556C111.953 200.556 109.555 209.754 104.811 218.149C100.067 226.444 93.5327 233.037 85.207 237.929C76.8813 242.82 67.5184 245.261 57.1184 245.25C46.7184 245.24 37.3813 242.78 29.107 237.872C20.8327 232.964 14.4173 226.357 9.86086 218.053C5.20493 209.648 2.90318 200.446 2.95563 190.446C3.00808 180.446 5.40607 171.299 10.1496 163.003C14.7931 154.708 21.2775 148.165 29.6027 143.373C37.9284 138.482 47.2912 136.041 57.6912 136.052C68.0912 136.062 77.4283 138.522 85.7026 143.43C93.9775 148.238 100.443 154.845 105.099 163.25C109.755 171.554 112.058 180.656 112.006 190.556ZM80.9556 190.525C80.9902 183.925 78.917 178.823 74.7358 175.219C70.4547 171.614 64.7142 169.809 57.5142 169.801C50.2142 169.794 44.4547 171.588 40.2359 175.184C35.917 178.779 33.7402 183.877 33.7056 190.477C33.6705 197.177 35.7935 202.329 40.0746 205.933C44.2557 209.538 49.9963 211.343 57.2962 211.351C64.4962 211.358 70.2557 209.564 74.5746 205.968C78.7934 202.373 80.9205 197.225 80.9556 190.525ZM111.757 37.6945L73.5527 57.6056L73.5519 57.7556L111.652 57.7942L111.477 91.0937L5.27732 90.9862L5.53695 41.4869C5.58206 32.887 7.17061 25.5387 10.3026 19.4419C13.3346 13.3451 17.5085 8.79932 22.8242 5.80472C28.0404 2.71003 33.9486 1.16602 40.5486 1.1727C47.6486 1.17989 53.9381 3.18624 59.4171 7.19175C64.8966 11.0973 68.817 16.7512 71.1782 24.1535L111.949 1.09497L111.757 37.6945ZM51.352 57.7332L51.4212 44.5333C51.438 41.3334 50.7506 38.9327 49.359 37.3313C47.8673 35.7298 45.5715 34.9275 42.4715 34.9244C39.6715 34.9215 37.4671 35.7693 35.8582 37.4677C34.2498 39.066 33.4375 41.4152 33.4212 44.5151L33.352 57.7149L51.352 57.7332Z" fill="#131312"/>
    <path d="M29.1983 592.245L27.1983 592.243C27.1925 593.348 28.0832 594.244 29.1878 594.245L29.1983 592.245ZM42.2483 592.258L42.2378 594.258C43.3424 594.26 44.2425 593.365 44.2483 592.261L42.2483 592.258ZM42.4214 559.259L42.4319 557.259C41.3273 557.258 40.4272 558.152 40.4214 559.257L42.4214 559.259ZM67.4714 559.284L69.4714 559.286C69.4771 558.182 68.5864 557.285 67.4818 557.284L67.4714 559.284ZM67.2983 592.284L65.2983 592.282C65.2925 593.386 66.1832 594.283 67.2878 594.284L67.2983 592.284ZM82.2983 592.299L82.2878 594.299C83.3923 594.3 84.2925 593.406 84.2983 592.301L82.2983 592.299ZM82.495 554.8L82.5054 552.8C81.4009 552.798 80.5007 553.693 80.495 554.798L82.495 554.8ZM109.045 554.826L111.045 554.828C111.051 553.724 110.16 552.828 109.055 552.826L109.045 554.826ZM108.674 625.625L108.663 627.625C109.768 627.627 110.668 626.732 110.674 625.627L108.674 625.625ZM2.47365 625.518L0.473649 625.516C0.467856 626.62 1.35859 627.517 2.46316 627.518L2.47365 625.518ZM2.845 554.719L2.85549 552.719C1.75092 552.718 0.850791 553.612 0.844997 554.717L2.845 554.719ZM29.395 554.746L31.395 554.748C31.4008 553.643 30.51 552.747 29.4055 552.746L29.395 554.746ZM29.1878 594.245L42.2378 594.258L42.2588 590.259L29.2088 590.245L29.1878 594.245ZM44.2483 592.261L44.4214 559.261L40.4214 559.257L40.2483 592.256L44.2483 592.261ZM42.4109 561.259L67.4609 561.284L67.4818 557.284L42.4319 557.259L42.4109 561.259ZM65.4714 559.282L65.2983 592.282L69.2983 592.286L69.4714 559.286L65.4714 559.282ZM67.2878 594.284L82.2878 594.299L82.3088 590.299L67.3088 590.284L67.2878 594.284ZM84.2983 592.301L84.495 554.802L80.495 554.798L80.2983 592.297L84.2983 592.301ZM82.4845 556.8L109.034 556.826L109.055 552.826L82.5054 552.8L82.4845 556.8ZM107.045 554.824L106.674 625.623L110.674 625.627L111.045 554.828L107.045 554.824ZM108.684 623.625L2.48414 623.518L2.46316 627.518L108.663 627.625L108.684 623.625ZM4.47365 625.52L4.845 554.721L0.844997 554.717L0.473649 625.516L4.47365 625.52ZM2.83451 556.719L29.3845 556.746L29.4055 552.746L2.85549 552.719L2.83451 556.719ZM27.395 554.744L27.1983 592.243L31.1983 592.247L31.395 554.748L27.395 554.744ZM109.564 455.878L110.482 457.651C111.143 457.306 111.56 456.624 111.564 455.88L109.564 455.878ZM71.3593 475.789L70.4409 474.017C69.7799 474.361 69.3632 475.043 69.3593 475.787L71.3593 475.789ZM71.3585 475.939L69.3585 475.937C69.3527 477.042 70.2435 477.938 71.348 477.939L71.3585 475.939ZM109.459 475.978L111.459 475.98C111.464 474.875 110.574 473.979 109.469 473.978L109.459 475.978ZM109.284 509.277L109.273 511.277C110.378 511.279 111.278 510.384 111.284 509.279L109.284 509.277ZM3.08391 509.17L1.08391 509.168C1.07811 510.272 1.96885 511.169 3.07342 511.17L3.08391 509.17ZM8.10918 437.626L9.8874 438.534C9.8914 438.526 9.89535 438.518 9.89924 438.51L8.10918 437.626ZM20.6308 423.988L21.6068 425.73C21.6199 425.723 21.633 425.715 21.6459 425.707L20.6308 423.988ZM57.2237 425.375L56.0388 426.992C56.0453 426.996 56.0518 427.001 56.0583 427.006L57.2237 425.375ZM68.9848 442.337L67.0791 442.952C67.2615 443.524 67.692 443.983 68.2514 444.201C68.8107 444.419 69.4395 444.374 69.9638 444.077L68.9848 442.337ZM109.756 419.279L111.756 419.281C111.76 418.569 111.384 417.91 110.771 417.551C110.157 417.192 109.398 417.188 108.777 417.539L109.756 419.279ZM49.1585 475.917L49.148 477.917C50.2526 477.918 51.1527 477.023 51.1585 475.919L49.1585 475.917ZM47.1655 455.515L48.6776 454.2C48.6626 454.182 48.6473 454.165 48.6318 454.149L47.1655 455.515ZM33.6648 455.651L35.0715 457.067C35.0859 457.053 35.1 457.038 35.114 457.024L33.6648 455.651ZM31.1585 475.899L29.1585 475.897C29.1528 477.001 30.0435 477.898 31.1481 477.899L31.1585 475.899ZM108.645 454.105L70.4409 474.017L72.2778 477.562L110.482 457.651L108.645 454.105ZM69.3593 475.787L69.3585 475.937L73.3585 475.941L73.3593 475.791L69.3593 475.787ZM71.348 477.939L109.448 477.978L109.469 473.978L71.369 473.939L71.348 477.939ZM107.459 475.976L107.284 509.275L111.284 509.279L111.459 475.98L107.459 475.976ZM109.294 507.277L3.0944 507.17L3.07342 511.17L109.273 511.277L109.294 507.277ZM5.0839 509.172L5.34353 459.673L1.34354 459.669L1.08391 509.168L5.0839 509.172ZM5.34353 459.673C5.3874 451.309 6.9318 444.287 9.8874 438.534L6.33096 436.718C3.02258 443.158 1.38988 450.833 1.34354 459.669L5.34353 459.673ZM9.89924 438.51C12.7736 432.73 16.6822 428.504 21.6068 425.73L19.6547 422.247C13.9479 425.462 9.50879 430.327 6.31911 436.741L9.89924 438.51ZM21.6459 425.707C26.5237 422.813 32.0716 421.35 38.3447 421.356L38.3656 417.356C31.4387 417.349 25.1703 418.974 19.6156 422.27L21.6459 425.707ZM38.3447 421.356C45.0418 421.363 50.916 423.247 56.0388 426.992L58.4085 423.759C52.5733 419.493 45.8685 417.364 38.3656 417.356L38.3447 421.356ZM56.0583 427.006C61.1357 430.625 64.8277 435.894 67.0791 442.952L70.8904 441.722C68.4195 433.976 64.2707 427.937 58.3891 423.745L56.0583 427.006ZM69.9638 444.077L110.735 421.018L108.777 417.539L68.0058 440.597L69.9638 444.077ZM107.756 419.277L107.564 455.876L111.564 455.88L111.756 419.281L107.756 419.277ZM51.1585 475.919L51.2278 462.719L47.2278 462.715L47.1585 475.915L51.1585 475.919ZM51.2278 462.719C51.2459 459.272 50.513 456.312 48.6776 454.2L45.6535 456.83C46.6013 457.921 47.2433 459.763 47.2278 462.715L51.2278 462.719ZM48.6318 454.149C46.6304 452 43.7079 451.112 40.2886 451.108L40.2676 455.108C43.0483 455.111 44.7174 455.827 45.6993 456.881L48.6318 454.149ZM40.2886 451.108C37.056 451.105 34.2793 452.101 32.2155 454.279L35.114 457.024C36.268 455.805 37.9003 455.106 40.2676 455.108L40.2886 451.108ZM32.258 454.236C30.1504 456.33 29.2458 459.267 29.2278 462.697L33.2278 462.701C33.2423 459.931 33.9623 458.169 35.0715 457.067L32.258 454.236ZM29.2278 462.697L29.1585 475.897L33.1585 475.901L33.2278 462.701L29.2278 462.697ZM31.1481 477.899L49.148 477.917L49.169 473.917L31.169 473.899L31.1481 477.899ZM110.264 322.392L111.183 324.164C111.844 323.82 112.26 323.138 112.264 322.394L110.264 322.392ZM72.0595 342.303L71.141 340.53C70.48 340.875 70.0634 341.557 70.0595 342.301L72.0595 342.303ZM72.0587 342.453L70.0587 342.451C70.0529 343.555 70.9436 344.452 72.0482 344.453L72.0587 342.453ZM110.159 342.491L112.159 342.493C112.164 341.389 111.274 340.493 110.169 340.491L110.159 342.491ZM109.984 375.791L109.974 377.791C111.078 377.792 111.978 376.898 111.984 375.793L109.984 375.791ZM3.78406 375.683L1.78406 375.681C1.77826 376.786 2.669 377.682 3.77357 377.683L3.78406 375.683ZM8.80933 304.139L10.5875 305.047C10.5915 305.039 10.5955 305.031 10.5994 305.024L8.80933 304.139ZM21.3309 290.502L22.307 292.243C22.3201 292.236 22.3331 292.229 22.346 292.221L21.3309 290.502ZM57.9238 291.889L56.739 293.505C56.7454 293.51 56.7519 293.515 56.7584 293.519L57.9238 291.889ZM69.6849 308.851L67.7792 309.466C67.9617 310.038 68.3922 310.496 68.9515 310.715C69.5108 310.933 70.1397 310.887 70.6639 310.591L69.6849 308.851ZM110.456 285.792L112.456 285.794C112.46 285.082 112.085 284.423 111.471 284.065C110.857 283.706 110.098 283.701 109.477 284.052L110.456 285.792ZM49.8587 342.43L49.8482 344.43C50.9528 344.432 51.8529 343.537 51.8587 342.432L49.8587 342.43ZM47.8657 322.029L49.3778 320.713C49.3628 320.696 49.3475 320.679 49.3319 320.662L47.8657 322.029ZM34.3649 322.165L35.7717 323.581C35.7861 323.566 35.8002 323.552 35.8141 323.537L34.3649 322.165ZM31.8587 342.412L29.8587 342.41C29.8529 343.515 30.7436 344.411 31.8482 344.412L31.8587 342.412ZM109.346 320.619L71.141 340.53L72.9779 344.076L111.183 324.164L109.346 320.619ZM70.0595 342.301L70.0587 342.451L74.0587 342.455L74.0595 342.305L70.0595 342.301ZM72.0482 344.453L110.148 344.491L110.169 340.491L72.0692 340.453L72.0482 344.453ZM108.159 342.489L107.984 375.789L111.984 375.793L112.159 342.493L108.159 342.489ZM109.994 373.791L3.79455 373.684L3.77357 377.683L109.974 377.791L109.994 373.791ZM5.78405 375.686L6.04368 326.186L2.04369 326.182L1.78406 375.681L5.78405 375.686ZM6.04368 326.186C6.08755 317.822 7.63195 310.8 10.5875 305.047L7.03111 303.231C3.72273 309.671 2.09003 317.346 2.04369 326.182L6.04368 326.186ZM10.5994 305.024C13.4737 299.244 17.3824 295.018 22.307 292.243L20.3548 288.76C14.648 291.975 10.2089 296.841 7.01926 303.255L10.5994 305.024ZM22.346 292.221C27.2239 289.327 32.7718 287.864 39.0448 287.87L39.0658 283.87C32.1388 283.863 25.8704 285.488 20.3158 288.783L22.346 292.221ZM39.0448 287.87C45.742 287.877 51.6162 289.76 56.739 293.505L59.1086 290.273C53.2734 286.007 46.5686 283.878 39.0658 283.87L39.0448 287.87ZM56.7584 293.519C61.8359 297.138 65.5278 302.408 67.7792 309.466L71.5906 308.236C69.1196 300.489 64.9708 294.451 59.0892 290.259L56.7584 293.519ZM70.6639 310.591L111.435 287.532L109.477 284.052L68.7059 307.111L70.6639 310.591ZM108.456 285.79L108.264 322.39L112.264 322.394L112.456 285.794L108.456 285.79ZM51.8587 342.432L51.9279 329.233L47.9279 329.229L47.8587 342.428L51.8587 342.432ZM51.9279 329.233C51.946 325.785 51.2131 322.825 49.3778 320.713L46.3536 323.344C47.3015 324.435 47.9434 326.276 47.9279 329.229L51.9279 329.233ZM49.3319 320.662C47.3306 318.513 44.4081 317.625 40.9888 317.622L40.9678 321.622C43.7485 321.624 45.4176 322.341 46.3994 323.395L49.3319 320.662ZM40.9888 317.622C37.7562 317.618 34.9795 318.614 32.9157 320.793L35.8141 323.537C36.9682 322.319 38.6004 321.619 40.9678 321.622L40.9888 317.622ZM32.9581 320.749C30.8506 322.844 29.9459 325.781 29.9279 329.21L33.9279 329.214C33.9425 326.444 34.6624 324.683 35.7717 323.581L32.9581 320.749ZM29.9279 329.21L29.8587 342.41L33.8587 342.414L33.9279 329.214L29.9279 329.21ZM31.8482 344.412L49.8482 344.43L49.8692 340.43L31.8692 340.412L31.8482 344.412ZM104.811 218.149L106.546 219.136L106.551 219.127L104.811 218.149ZM85.207 237.929L86.2147 239.652L85.207 237.929ZM9.86087 218.053L11.6153 217.085L11.6114 217.078L9.86087 218.053ZM10.1496 163.003L11.8848 163.991C11.8878 163.985 11.8908 163.98 11.8938 163.975L10.1496 163.003ZM29.6027 143.373L30.5948 145.106C30.6 145.103 30.6052 145.1 30.6104 145.097L29.6027 143.373ZM85.7026 143.43L84.6768 145.151C84.682 145.154 84.6871 145.157 84.6923 145.16L85.7026 143.43ZM105.099 163.25L103.348 164.224L103.353 164.233L105.099 163.25ZM74.7358 175.219L76.0454 173.702C76.0395 173.697 76.0337 173.692 76.0278 173.687L74.7358 175.219ZM40.2359 175.184L41.5117 176.719C41.5176 176.714 41.5236 176.709 41.5295 176.704L40.2359 175.184ZM40.0746 205.933L41.3841 204.416C41.3783 204.411 41.3724 204.406 41.3665 204.401L40.0746 205.933ZM74.5746 205.968L75.8504 207.503C75.8564 207.498 75.8623 207.493 75.8682 207.488L74.5746 205.968ZM110.006 190.554C109.955 200.226 107.639 209.085 103.071 217.17L106.551 219.127C111.47 210.422 113.951 200.886 114.006 190.558L110.006 190.554ZM103.076 217.162C98.5082 225.149 92.2258 231.49 84.1993 236.206L86.2147 239.652C94.8395 234.585 101.626 227.739 106.546 219.136L103.076 217.162ZM84.1993 236.206C76.2068 240.901 67.2005 243.261 57.1289 243.25L57.1079 247.25C67.8364 247.261 77.5557 244.739 86.2147 239.652L84.1993 236.206ZM57.1289 243.25C47.0573 243.24 38.0759 240.863 30.1328 236.151L28.0812 239.593C36.6867 244.698 46.3795 247.239 57.1079 247.25L57.1289 243.25ZM30.1328 236.151C22.1594 231.421 15.9978 225.073 11.6153 217.085L8.10647 219.02C12.8369 227.642 19.506 234.506 28.0812 239.593L30.1328 236.151ZM11.6114 217.078C7.12738 208.984 4.9049 200.12 4.95563 190.448L0.955634 190.444C0.901463 200.772 3.28247 210.312 8.11038 219.028L11.6114 217.078ZM4.95563 190.448C5.00636 180.776 7.32146 171.971 11.8848 163.991L8.41443 162.016C3.49069 170.626 1.00981 180.116 0.955634 190.444L4.95563 190.448ZM11.8938 163.975C16.3581 156 22.5809 149.718 30.5948 145.106L28.6105 141.641C19.974 146.612 13.2282 153.417 8.40538 162.032L11.8938 163.975ZM30.6104 145.097C38.6028 140.401 47.6091 138.042 57.6807 138.052L57.7017 134.052C46.9733 134.041 37.2539 136.563 28.5949 141.65L30.6104 145.097ZM57.6807 138.052C67.7523 138.062 76.7337 140.439 84.6768 145.151L86.7284 141.709C78.1229 136.604 68.4301 134.063 57.7017 134.052L57.6807 138.052ZM84.6923 145.16C92.6554 149.788 98.8656 156.132 103.348 164.224L106.849 162.275C102.02 153.557 95.2995 146.689 86.713 141.7L84.6923 145.16ZM103.353 164.233C107.835 172.226 110.056 180.986 110.006 190.554L114.006 190.558C114.059 180.327 111.676 170.883 106.844 162.266L103.353 164.233ZM82.9556 190.527C82.9926 183.467 80.7536 177.76 76.0454 173.702L73.4263 176.736C77.0803 179.886 78.9878 184.383 78.9556 190.523L82.9556 190.527ZM76.0278 173.687C71.2966 169.703 65.0581 167.809 57.5247 167.801L57.5037 171.801C64.3702 171.808 69.6128 173.525 73.4439 176.751L76.0278 173.687ZM57.5247 167.801C49.902 167.794 43.628 169.67 38.9422 173.664L41.5295 176.704C45.2814 173.506 50.5264 171.794 57.5037 171.801L57.5247 167.801ZM38.96 173.649C34.1028 177.693 31.7427 183.399 31.7056 190.475L35.7056 190.479C35.7377 184.355 37.7311 179.866 41.5117 176.719L38.96 173.649ZM31.7056 190.475C31.668 197.64 33.9608 203.406 38.7827 207.466L41.3665 204.401C37.6262 201.252 35.6729 196.714 35.7056 190.479L31.7056 190.475ZM38.765 207.451C43.4089 211.454 49.6631 213.343 57.2858 213.351L57.3067 209.351C50.3294 209.344 45.1025 207.622 41.3841 204.416L38.765 207.451ZM57.2858 213.351C64.8192 213.358 71.0775 211.477 75.8504 207.503L73.2987 204.434C69.4338 207.651 64.1732 209.358 57.3067 209.351L57.2858 213.351ZM75.8682 207.488C80.6259 203.433 82.9181 197.676 82.9556 190.527L78.9556 190.523C78.9228 196.774 76.961 201.312 73.2809 204.448L75.8682 207.488ZM111.757 37.6944L112.676 39.4672C113.337 39.1227 113.753 38.4405 113.757 37.6965L111.757 37.6944ZM73.5527 57.6056L72.6343 55.8329C71.9733 56.1774 71.5566 56.8595 71.5527 57.6036L73.5527 57.6056ZM73.5519 57.7556L71.5519 57.7536C71.5462 58.8582 72.4369 59.7545 73.5415 59.7556L73.5519 57.7556ZM111.652 57.7942L113.652 57.7962C113.658 56.6916 112.767 55.7954 111.662 55.7942L111.652 57.7942ZM111.477 91.0937L111.467 93.0937C112.571 93.0948 113.471 92.2003 113.477 91.0958L111.477 91.0937ZM5.27732 90.9862L3.27732 90.9842C3.27153 92.0888 4.16226 92.9851 5.26683 92.9862L5.27732 90.9862ZM10.3026 19.442L12.0808 20.3498C12.0848 20.3421 12.0888 20.3342 12.0927 20.3264L10.3026 19.442ZM22.8242 5.80472L23.8003 7.54623C23.8134 7.53886 23.8264 7.5313 23.8393 7.52362L22.8242 5.80472ZM59.4171 7.19178L58.2323 8.808C58.2387 8.8127 58.2452 8.81741 58.2517 8.82199L59.4171 7.19178ZM71.1782 24.1535L69.2725 24.7686C69.455 25.3406 69.8855 25.7992 70.4448 26.0172C71.0041 26.2353 71.6329 26.1898 72.1572 25.8934L71.1782 24.1535ZM111.949 1.09498L113.949 1.097C113.953 0.384915 113.578 -0.273846 112.964 -0.632618C112.351 -0.99139 111.591 -0.996065 110.97 -0.644829L111.949 1.09498ZM51.352 57.7332L51.3415 59.7331C52.446 59.7343 53.3462 58.8397 53.352 57.7352L51.352 57.7332ZM49.359 37.3313L50.871 36.0158C50.856 35.9986 50.8408 35.9816 50.8252 35.9649L49.359 37.3313ZM35.8582 37.4677L37.265 38.8833C37.2793 38.869 37.2935 38.8545 37.3074 38.8398L35.8582 37.4677ZM33.352 57.715L31.352 57.7129C31.3462 58.8175 32.2369 59.7138 33.3415 59.7149L33.352 57.715ZM110.839 35.9217L72.6343 55.8329L74.4712 59.3783L112.676 39.4672L110.839 35.9217ZM71.5527 57.6036L71.5519 57.7536L75.5519 57.7577L75.5527 57.6076L71.5527 57.6036ZM73.5415 59.7556L111.641 59.7942L111.662 55.7942L73.5624 55.7557L73.5415 59.7556ZM109.652 57.7922L109.477 91.0917L113.477 91.0958L113.652 57.7962L109.652 57.7922ZM111.488 89.0938L5.28781 88.9863L5.26683 92.9862L111.467 93.0937L111.488 89.0938ZM7.27732 90.9883L7.53695 41.489L3.53695 41.4849L3.27732 90.9842L7.27732 90.9883ZM7.53695 41.489C7.58082 33.125 9.12522 26.1032 12.0808 20.3498L8.52438 18.534C5.21599 24.9742 3.5833 32.6491 3.53695 41.4849L7.53695 41.489ZM12.0927 20.3264C14.967 14.5466 18.8756 10.3205 23.8003 7.54623L21.8481 4.06326C16.1413 7.27816 11.7022 12.1436 8.51252 18.5575L12.0927 20.3264ZM23.8393 7.52362C28.7172 4.62972 34.2651 3.16629 40.5381 3.17264L40.5591 -0.827302C33.6321 -0.834314 27.3637 0.790371 21.8091 4.08581L23.8393 7.52362ZM40.5381 3.17264C47.2352 3.17942 53.1094 5.06291 58.2323 8.808L60.6019 5.5755C54.7667 1.30956 48.0619 -0.819708 40.5591 -0.827302L40.5381 3.17264ZM58.2517 8.82199C63.3291 12.4409 67.0211 17.7104 69.2725 24.7686L73.0839 23.5384C70.6129 15.7919 66.4641 9.75358 60.5825 5.5615L58.2517 8.82199ZM72.1572 25.8934L112.928 2.83478L110.97 -0.644829L70.1992 22.4137L72.1572 25.8934ZM109.949 1.09295L109.757 37.6924L113.757 37.6965L113.949 1.097L109.949 1.09295ZM53.352 57.7352L53.4212 44.5354L49.4212 44.5313L49.352 57.7312L53.352 57.7352ZM53.4212 44.5354C53.4393 41.0878 52.7064 38.1279 50.871 36.0158L47.8469 38.6468C48.7947 39.7375 49.4367 41.5789 49.4212 44.5313L53.4212 44.5354ZM50.8252 35.9649C48.8238 33.8161 45.9013 32.9279 42.482 32.9244L42.4611 36.9244C45.2417 36.9272 46.9109 37.6435 47.8927 38.6977L50.8252 35.9649ZM42.482 32.9244C39.2494 32.9211 36.4727 33.9169 34.409 36.0955L37.3074 38.8398C38.4614 37.6216 40.0937 36.922 42.4611 36.9244L42.482 32.9244ZM34.4514 36.052C32.3439 38.1464 31.4392 41.0835 31.4212 44.5131L35.4212 44.5172C35.4357 41.7468 36.1557 39.9856 37.265 38.8833L34.4514 36.052ZM31.4212 44.5131L31.352 57.7129L35.352 57.717L35.4212 44.5172L31.4212 44.5131ZM33.3415 59.7149L51.3415 59.7331L51.3624 55.7332L33.3625 55.715L33.3415 59.7149Z" fill="url(#paint0_linear_900_8102)"/>
    <defs>
    <linearGradient id="paint0_linear_900_8102" x1="-14.1985" y1="304.135" x2="180.624" y2="308.874" gradientUnits="userSpaceOnUse">
    <stop stop-color="#06AACA" stop-opacity="0.48"/>
    <stop offset="0.705968" stop-color="#1E1317"/>
    </linearGradient>
    </defs>
    </svg>
    