<svg width="110" height="626" viewBox="0 0 110 626" fill="none" xmlns="http://www.w3.org/2000/svg">
    <path d="M81.3324 33.6548L68.2825 33.71V66.71L43.2328 66.8161V33.8161L28.2329 33.8796V71.3796L1.68313 71.492V0.691954L107.882 0.242423L107.882 71.0424L81.3324 71.1548V33.6548ZM1.68313 170.442L39.7828 150.33V150.18L1.68313 150.342L1.68313 117.042L107.882 116.592L107.882 166.092C107.882 174.692 106.332 182.049 103.232 188.162C100.232 194.274 96.0823 198.842 90.7823 201.864C85.5824 204.986 79.6824 206.561 73.0825 206.589C65.9826 206.619 59.6826 204.646 54.1827 200.669C48.6827 196.793 44.7327 191.159 42.3328 183.77L1.68313 207.042V170.442ZM61.9826 150.086V163.286C61.9826 166.486 62.6826 168.883 64.0826 170.477C65.5826 172.071 67.8825 172.861 70.9825 172.848C73.7825 172.836 75.9825 171.977 77.5824 170.27C79.1824 168.664 79.9824 166.31 79.9824 163.21V150.01L61.9826 150.086ZM1.68313 303.93L39.7828 283.819V283.669L1.68313 283.83V250.53L107.882 250.08V299.58C107.882 308.18 106.332 315.537 103.232 321.65C100.232 327.763 96.0823 332.33 90.7823 335.353C85.5824 338.475 79.6824 340.05 73.0825 340.078C65.9826 340.108 59.6826 338.134 54.1827 334.158C48.6827 330.281 44.7327 324.648 42.3328 317.258L1.68313 340.53L1.68313 303.93ZM61.9826 283.575V296.775C61.9826 299.975 62.6826 302.372 64.0826 303.966C65.5826 305.559 67.8825 306.35 70.9825 306.337C73.7825 306.325 75.9825 305.465 77.5824 303.759C79.1824 302.152 79.9824 299.798 79.9824 296.698V283.498L61.9826 283.575ZM0.633135 435.773C0.633135 425.773 2.98311 416.563 7.68307 408.143C12.383 399.823 18.883 393.195 27.1829 388.26C35.4828 383.325 44.8327 380.835 55.2326 380.791C65.6326 380.747 74.9825 383.158 83.2824 388.023C91.5823 392.888 98.0323 399.46 102.632 407.741C107.332 416.121 109.682 425.311 109.682 435.311C109.682 445.311 107.332 454.471 102.632 462.791C98.0323 471.11 91.5823 477.688 83.2824 482.523C74.9825 487.458 65.6326 489.947 55.2326 489.991C44.8327 490.035 35.4828 487.625 27.1829 482.76C18.883 477.995 12.383 471.423 7.68307 463.043C2.98311 454.763 0.633135 445.673 0.633135 435.773ZM31.6829 435.641C31.6829 442.241 33.7828 447.332 37.9828 450.914C42.2828 454.496 48.0327 456.272 55.2326 456.241C62.5326 456.211 68.2825 454.386 72.4825 450.768C76.7825 447.15 78.9324 442.041 78.9324 435.441C78.9324 428.741 76.7825 423.6 72.4825 420.018C68.2825 416.436 62.5326 414.661 55.2326 414.691C48.0327 414.722 42.2828 416.546 37.9828 420.164C33.7828 423.782 31.6829 428.941 31.6829 435.641ZM1.68313 588.631L39.7828 568.52V568.37L1.68313 568.531V535.231L107.882 534.781L107.882 584.281C107.882 592.881 106.332 600.238 103.232 606.351C100.232 612.464 96.0823 617.031 90.7823 620.054C85.5824 623.176 79.6824 624.751 73.0825 624.779C65.9826 624.809 59.6826 622.836 54.1827 618.859C48.6827 614.982 44.7327 609.349 42.3328 601.959L1.68313 625.231V588.631ZM61.9826 568.276V581.476C61.9826 584.676 62.6826 587.073 64.0826 588.667C65.5826 590.261 67.8825 591.051 70.9825 591.038C73.7825 591.026 75.9825 590.167 77.5824 588.46C79.1824 586.853 79.9824 584.5 79.9824 581.4V568.2L61.9826 568.276Z" fill="#131312"/>
    <path d="M81.3324 33.6548L83.3324 33.6463C83.3324 32.5418 82.437 31.6501 81.3324 31.6548V33.6548ZM68.2825 33.71V31.71C67.178 31.7147 66.2826 32.6139 66.2826 33.7185L68.2825 33.71ZM68.2825 66.71V68.71C69.3871 68.7054 70.2825 67.8062 70.2825 66.7016L68.2825 66.71ZM43.2328 66.8161L41.2328 66.8245C41.2328 67.9291 42.1282 68.8208 43.2328 68.8161V66.8161ZM43.2328 33.8161L45.2327 33.8076C45.2327 32.703 44.3373 31.8114 43.2328 31.8161V33.8161ZM28.2329 33.8796V31.8796C27.1283 31.8843 26.2329 32.7835 26.2329 33.888L28.2329 33.8796ZM28.2329 71.3796V73.3796C29.3374 73.3749 30.2329 72.4757 30.2329 71.3711L28.2329 71.3796ZM1.68313 71.492L-0.316856 71.5004C-0.316856 72.605 0.578567 73.4966 1.68313 73.492V71.492ZM1.68313 0.691954V-1.30805C0.578567 -1.30337 -0.316856 -0.404148 -0.316856 0.70042L1.68313 0.691954ZM107.882 0.242423L109.882 0.233957C109.882 -0.870611 108.987 -1.76225 107.882 -1.75758V0.242423ZM107.882 71.0424V73.0424C108.987 73.0378 109.882 72.1385 109.882 71.034L107.882 71.0424ZM81.3324 71.1548L79.3324 71.1633C79.3324 72.2678 80.2279 73.1595 81.3324 73.1548V71.1548ZM81.3324 31.6548L68.2825 31.71V35.71L81.3324 35.6548V31.6548ZM66.2826 33.7185V66.7185L70.2825 66.7016V33.7016L66.2826 33.7185ZM68.2825 64.71L43.2328 64.8161V68.8161L68.2825 68.71V64.71ZM45.2327 66.8076V33.8076L41.2328 33.8245V66.8245L45.2327 66.8076ZM43.2328 31.8161L28.2329 31.8796V35.8796L43.2328 35.8161V31.8161ZM26.2329 33.888V71.388L30.2329 71.3711V33.8711L26.2329 33.888ZM28.2329 69.3796L1.68313 69.492V73.492L28.2329 73.3796V69.3796ZM3.68311 71.4835V0.683489L-0.316856 0.70042V71.5004L3.68311 71.4835ZM1.68313 2.69195L107.882 2.24242V-1.75758L1.68313 -1.30805V2.69195ZM105.882 0.250889V71.0509L109.882 71.034V0.233957L105.882 0.250889ZM107.882 69.0424L81.3324 69.1548V73.1548L107.882 73.0424V69.0424ZM83.3324 71.1463V33.6463L79.3324 33.6633V71.1633L83.3324 71.1463ZM1.68313 170.442L0.755384 168.674C0.0962106 169.022 -0.316856 169.706 -0.316856 170.45L1.68313 170.442ZM39.7828 150.33L40.7105 152.098C41.3697 151.75 41.7828 151.066 41.7828 150.322L39.7828 150.33ZM39.7828 150.18L41.7828 150.172C41.7828 149.067 40.8873 148.176 39.7828 148.18V150.18ZM1.68313 150.342L-0.316856 150.35C-0.316856 151.455 0.578567 152.346 1.68313 152.342V150.342ZM1.68313 117.042V115.042C0.578567 115.046 -0.316856 115.945 -0.316856 117.05L1.68313 117.042ZM107.882 116.592L109.882 116.584C109.882 115.479 108.987 114.587 107.882 114.592L107.882 116.592ZM103.232 188.162L101.449 187.263C101.445 187.271 101.441 187.279 101.438 187.287L103.232 188.162ZM90.7823 201.864L89.7971 200.128C89.7841 200.136 89.7711 200.143 89.7582 200.151L90.7823 201.864ZM54.1827 200.669L55.359 199.047C55.3525 199.042 55.346 199.038 55.3395 199.033L54.1827 200.669ZM42.3328 183.769L44.2352 183.144C44.0497 182.573 43.6168 182.117 43.0564 181.902C42.4959 181.687 41.8673 181.736 41.3446 182.035L42.3328 183.769ZM1.68313 207.042L-0.316856 207.05C-0.316856 207.762 0.0617566 208.419 0.677214 208.774C1.29267 209.13 2.05214 209.131 2.67125 208.776L1.68313 207.042ZM61.9826 150.086V148.086C60.878 148.091 59.9826 148.99 59.9826 150.095L61.9826 150.086ZM64.0826 170.477L62.5774 171.801C62.5925 171.818 62.6079 171.835 62.6235 171.851L64.0826 170.477ZM77.5825 170.27L76.1682 168.862C76.154 168.876 76.1399 168.891 76.1261 168.906L77.5825 170.27ZM79.9824 150.01L81.9824 150.002C81.9824 148.897 81.087 148.005 79.9824 148.01V150.01ZM2.61087 172.209L40.7105 152.098L38.855 148.562L0.755384 168.674L2.61087 172.209ZM41.7828 150.322V150.172L37.7828 150.189V150.339L41.7828 150.322ZM39.7828 148.18L1.68313 148.342V152.342L39.7828 152.18V148.18ZM3.68311 150.333L3.68311 117.033L-0.316856 117.05L-0.316856 150.35L3.68311 150.333ZM1.68313 119.042L107.882 118.592L107.882 114.592L1.68313 115.042V119.042ZM105.882 116.6L105.882 166.1L109.882 166.084L109.882 116.584L105.882 116.6ZM105.882 166.1C105.882 174.465 104.375 181.494 101.449 187.263L105.015 189.06C108.29 182.603 109.882 174.92 109.882 166.084L105.882 166.1ZM101.438 187.287C98.5936 193.081 94.7071 197.328 89.7971 200.128L91.7675 203.601C97.4574 200.356 101.871 195.467 105.027 189.037L101.438 187.287ZM89.7582 200.151C84.8956 203.07 79.3555 204.563 73.0825 204.589V208.589C80.0094 208.56 86.2692 206.903 91.8065 203.578L89.7582 200.151ZM73.0825 204.589C66.3854 204.618 60.5014 202.765 55.359 199.047L53.0063 202.292C58.8638 206.527 65.5797 208.621 73.0825 208.589V204.589ZM55.3395 199.033C50.2431 195.441 46.5236 190.191 44.2352 183.144L40.4303 184.395C42.9419 192.128 47.1223 198.145 53.0258 202.306L55.3395 199.033ZM41.3446 182.035L0.695006 205.307L2.67125 208.776L43.3209 185.504L41.3446 182.035ZM3.68311 207.033V170.433L-0.316856 170.45V207.05L3.68311 207.033ZM59.9826 150.095V163.295L63.9826 163.278V150.078L59.9826 150.095ZM59.9826 163.295C59.9826 166.742 60.731 169.698 62.5774 171.801L65.5877 169.154C64.6342 168.068 63.9826 166.23 63.9826 163.278L59.9826 163.295ZM62.6235 171.851C64.6361 173.99 67.5632 174.863 70.9825 174.848V170.848C68.2018 170.86 66.529 170.152 65.5416 169.103L62.6235 171.851ZM70.9825 174.848C74.2151 174.835 76.9865 173.824 79.0388 171.635L76.1261 168.906C74.9784 170.13 73.3499 170.838 70.9825 170.848V174.848ZM78.9966 171.679C81.0931 169.573 81.9824 166.631 81.9824 163.202L77.9824 163.219C77.9824 165.989 77.2717 167.754 76.1682 168.862L78.9966 171.679ZM81.9824 163.202V150.002L77.9824 150.019V163.219L81.9824 163.202ZM79.9824 148.01L61.9826 148.086V152.086L79.9824 152.01V148.01ZM1.68313 303.93L0.755384 302.162C0.0962106 302.51 -0.316856 303.194 -0.316856 303.938L1.68313 303.93ZM39.7828 283.819L40.7105 285.586C41.3697 285.239 41.7828 284.554 41.7828 283.81L39.7828 283.819ZM39.7828 283.669L41.7828 283.66C41.7828 282.556 40.8873 281.664 39.7828 281.669V283.669ZM1.68313 283.83L-0.316856 283.838C-0.316856 284.943 0.578567 285.835 1.68313 285.83V283.83ZM1.68313 250.53V248.53C0.578567 248.535 -0.316856 249.434 -0.316856 250.538L1.68313 250.53ZM107.882 250.08L109.882 250.072C109.882 248.967 108.987 248.076 107.882 248.08V250.08ZM103.232 321.65L101.449 320.751C101.445 320.759 101.441 320.767 101.438 320.775L103.232 321.65ZM90.7823 335.353L89.7971 333.616C89.7841 333.624 89.7711 333.631 89.7582 333.639L90.7823 335.353ZM54.1827 334.158L55.359 332.535C55.3525 332.53 55.346 332.526 55.3395 332.521L54.1827 334.158ZM42.3328 317.258L44.2352 316.633C44.0497 316.062 43.6168 315.605 43.0564 315.39C42.4959 315.175 41.8673 315.224 41.3446 315.523L42.3328 317.258ZM1.68313 340.53L-0.316856 340.538C-0.316856 341.25 0.0617566 341.907 0.677214 342.263C1.29267 342.618 2.05214 342.619 2.67125 342.265L1.68313 340.53ZM61.9826 283.575V281.575C60.878 281.579 59.9826 282.479 59.9826 283.583L61.9826 283.575ZM64.0826 303.966L62.5774 305.289C62.5925 305.306 62.6079 305.323 62.6235 305.34L64.0826 303.966ZM77.5825 303.759L76.1682 302.35C76.154 302.365 76.1399 302.379 76.1261 302.394L77.5825 303.759ZM79.9824 283.498L81.9824 283.49C81.9824 282.385 81.087 281.494 79.9824 281.498V283.498ZM2.61087 305.698L40.7105 285.586L38.855 282.051L0.755384 302.162L2.61087 305.698ZM41.7828 283.81V283.66L37.7828 283.677V283.827L41.7828 283.81ZM39.7828 281.669L1.68313 281.83V285.83L39.7828 285.669V281.669ZM3.68311 283.821V250.521L-0.316856 250.538V283.838L3.68311 283.821ZM1.68313 252.53L107.882 252.08V248.08L1.68313 248.53V252.53ZM105.882 250.089L105.882 299.589L109.882 299.572L109.882 250.072L105.882 250.089ZM105.882 299.589C105.882 307.953 104.375 314.983 101.449 320.751L105.015 322.549C108.29 316.091 109.882 308.408 109.882 299.572L105.882 299.589ZM101.438 320.775C98.5936 326.57 94.7071 330.816 89.7971 333.616L91.7675 337.089C97.4574 333.844 101.871 328.956 105.027 322.525L101.438 320.775ZM89.7582 333.639C84.8956 336.559 79.3555 338.051 73.0825 338.078V342.078C80.0094 342.048 86.2692 340.391 91.8065 337.066L89.7582 333.639ZM73.0825 338.078C66.3854 338.106 60.5014 336.253 55.359 332.535L53.0063 335.78C58.8638 340.015 65.5797 342.109 73.0825 342.078V338.078ZM55.3395 332.521C50.2431 328.929 46.5236 323.679 44.2352 316.633L40.4303 317.883C42.9419 325.616 47.1223 331.633 53.0258 335.794L55.3395 332.521ZM41.3446 315.523L0.695006 338.795L2.67125 342.265L43.3209 318.992L41.3446 315.523ZM3.68311 340.521L3.68311 303.921L-0.316856 303.938L-0.316856 340.538L3.68311 340.521ZM59.9826 283.583V296.783L63.9826 296.766V283.566L59.9826 283.583ZM59.9826 296.783C59.9826 300.231 60.731 303.187 62.5774 305.289L65.5877 302.642C64.6342 301.557 63.9826 299.719 63.9826 296.766L59.9826 296.783ZM62.6235 305.34C64.6361 307.478 67.5632 308.351 70.9825 308.337V304.337C68.2018 304.348 66.529 303.641 65.5416 302.592L62.6235 305.34ZM70.9825 308.337C74.2151 308.323 76.9865 307.312 79.0388 305.123L76.1261 302.394C74.9784 303.618 73.3499 304.326 70.9825 304.337V308.337ZM78.9966 305.167C81.0931 303.061 81.9824 300.12 81.9824 296.69L77.9824 296.707C77.9824 299.477 77.2717 301.242 76.1682 302.35L78.9966 305.167ZM81.9824 296.69V283.49L77.9824 283.507V296.707L81.9824 296.69ZM79.9824 281.498L61.9826 281.575V285.575L79.9824 285.498V281.498ZM7.68307 408.143L5.94272 407.165L5.93773 407.174L7.68307 408.143ZM27.1829 388.26L26.1662 386.542L27.1829 388.26ZM102.632 407.741L100.883 408.718L100.887 408.725L102.632 407.741ZM102.632 462.791L100.892 461.813C100.889 461.818 100.886 461.823 100.883 461.829L102.632 462.791ZM83.2824 482.523L82.2812 480.796C82.276 480.799 82.2708 480.802 82.2656 480.805L83.2824 482.523ZM27.1829 482.76L28.1996 481.034C28.1945 481.031 28.1893 481.028 28.1841 481.025L27.1829 482.76ZM7.68307 463.043L9.42845 462.059L9.4234 462.05L7.68307 463.043ZM37.9828 450.914L36.6812 452.439C36.6871 452.444 36.693 452.448 36.6989 452.453L37.9828 450.914ZM72.4825 450.768L71.1986 449.24C71.1927 449.245 71.1868 449.25 71.1809 449.255L72.4825 450.768ZM72.4825 420.018L71.1809 421.542C71.1868 421.547 71.1927 421.552 71.1986 421.557L72.4825 420.018ZM37.9828 420.164L36.6989 418.636C36.693 418.641 36.6871 418.646 36.6812 418.651L37.9828 420.164ZM2.63311 435.764C2.63311 426.092 4.90206 417.221 9.42842 409.112L5.93773 407.174C1.06417 415.904 -1.36685 425.453 -1.36685 435.781L2.63311 435.764ZM9.4234 409.121C13.9489 401.11 20.1979 394.736 28.1996 389.978L26.1662 386.542C17.568 391.655 10.8171 398.536 5.94275 407.165L9.4234 409.121ZM28.1996 389.978C36.1673 385.241 45.1612 382.834 55.2326 382.791V378.791C44.5043 378.837 34.7983 381.41 26.1662 386.542L28.1996 389.978ZM55.2326 382.791C65.3041 382.749 74.298 385.079 82.2656 389.749L84.2991 386.296C75.667 381.237 65.961 378.746 55.2326 378.791V382.791ZM82.2656 389.749C90.2637 394.437 96.4586 400.753 100.883 408.718L104.382 406.764C99.606 398.167 92.9009 391.338 84.2991 386.296L82.2656 389.749ZM100.887 408.725C105.413 416.795 107.682 425.648 107.682 435.319L111.682 435.303C111.682 424.974 109.251 415.446 104.378 406.757L100.887 408.725ZM107.682 435.319C107.682 444.991 105.413 453.809 100.892 461.813L104.373 463.769C109.251 455.133 111.682 445.631 111.682 435.303L107.682 435.319ZM100.883 461.829C96.4606 469.827 90.2707 476.141 82.2812 480.796L84.2836 484.25C92.8939 479.234 99.6039 472.394 104.382 463.753L100.883 461.829ZM82.2656 480.805C74.298 485.542 65.3041 487.949 55.2326 487.991V491.991C65.961 491.946 75.667 489.373 84.2991 484.241L82.2656 480.805ZM55.2326 487.991C45.1612 488.034 36.1673 485.704 28.1996 481.034L26.1662 484.487C34.7983 489.546 44.5043 492.037 55.2326 491.991V487.991ZM28.1841 481.025C20.1969 476.439 13.9535 470.127 9.42842 462.059L5.93773 464.027C10.8126 472.719 17.569 479.551 26.1817 484.496L28.1841 481.025ZM9.4234 462.05C4.90024 454.081 2.63311 445.332 2.63311 435.764L-1.36685 435.781C-1.36685 446.013 1.06599 455.444 5.94275 464.036L9.4234 462.05ZM29.6829 435.65C29.6829 442.709 31.9518 448.405 36.6812 452.439L39.2844 449.39C35.6139 446.26 33.6828 441.773 33.6828 435.633L29.6829 435.65ZM36.6989 452.453C41.4509 456.412 47.6992 458.273 55.2326 458.241V454.241C48.3662 454.271 43.1146 452.581 39.2667 449.376L36.6989 452.453ZM55.2326 458.241C62.8553 458.209 69.1193 456.3 73.7841 452.281L71.1809 449.255C67.4458 452.473 62.2099 454.212 55.2326 454.241V458.241ZM73.7664 452.297C78.6023 448.227 80.9324 442.509 80.9324 435.433L76.9325 435.45C76.9325 441.574 74.9626 446.073 71.1986 449.24L73.7664 452.297ZM80.9324 435.433C80.9324 428.268 78.6095 422.514 73.7664 418.479L71.1986 421.557C74.9554 424.687 76.9325 429.214 76.9325 435.45L80.9324 435.433ZM73.7841 418.494C69.1193 414.516 62.8553 412.659 55.2326 412.691V416.691C62.2099 416.662 67.4458 418.357 71.1809 421.542L73.7841 418.494ZM55.2326 412.691C47.6992 412.723 41.4509 414.638 36.6989 418.636L39.2667 421.693C43.1146 418.455 48.3662 416.721 55.2326 416.691V412.691ZM36.6812 418.651C31.9448 422.731 29.6829 428.501 29.6829 435.65L33.6828 435.633C33.6828 429.382 35.6208 424.833 39.2844 421.678L36.6812 418.651ZM1.68313 588.631L0.755384 586.863C0.0962106 587.211 -0.316856 587.895 -0.316856 588.64L1.68313 588.631ZM39.7828 568.52L40.7105 570.288C41.3697 569.94 41.7828 569.255 41.7828 568.511L39.7828 568.52ZM39.7828 568.37L41.7828 568.361C41.7828 567.257 40.8873 566.365 39.7828 566.37V568.37ZM1.68313 568.531L-0.316856 568.539C-0.316856 569.644 0.578567 570.536 1.68313 570.531V568.531ZM1.68313 535.231V533.231C0.578567 533.236 -0.316856 534.135 -0.316856 535.239L1.68313 535.231ZM107.882 534.781L109.882 534.773C109.882 533.668 108.987 532.777 107.882 532.781V534.781ZM103.232 606.351L101.449 605.453C101.445 605.46 101.441 605.468 101.438 605.476L103.232 606.351ZM90.7823 620.054L89.7971 618.318C89.7841 618.325 89.7711 618.333 89.7582 618.34L90.7823 620.054ZM54.1827 618.859L55.359 617.236C55.3525 617.232 55.346 617.227 55.3395 617.222L54.1827 618.859ZM42.3328 601.959L44.2352 601.334C44.0497 600.763 43.6168 600.307 43.0564 600.091C42.4959 599.876 41.8673 599.925 41.3446 600.224L42.3328 601.959ZM1.68313 625.231L-0.316856 625.239C-0.316856 625.952 0.0617566 626.608 0.677214 626.964C1.29267 627.319 2.05214 627.32 2.67125 626.966L1.68313 625.231ZM61.9826 568.276V566.276C60.878 566.28 59.9826 567.18 59.9826 568.284L61.9826 568.276ZM64.0826 588.667L62.5774 589.99C62.5925 590.007 62.6079 590.024 62.6235 590.041L64.0826 588.667ZM77.5825 588.46L76.1682 587.052C76.154 587.066 76.1399 587.08 76.1261 587.095L77.5825 588.46ZM79.9824 568.2L81.9824 568.191C81.9824 567.087 81.087 566.195 79.9824 566.2V568.2ZM2.61087 590.399L40.7105 570.288L38.855 566.752L0.755384 586.863L2.61087 590.399ZM41.7828 568.511V568.361L37.7828 568.378V568.528L41.7828 568.511ZM39.7828 566.37L1.68313 566.531V570.531L39.7828 570.37V566.37ZM3.68311 568.523V535.223L-0.316856 535.239V568.539L3.68311 568.523ZM1.68313 537.231L107.882 536.781V532.781L1.68313 533.231V537.231ZM105.882 534.79V584.29L109.882 584.273V534.773L105.882 534.79ZM105.882 584.29C105.882 592.654 104.375 599.684 101.449 605.453L105.015 607.25C108.29 600.792 109.882 593.109 109.882 584.273L105.882 584.29ZM101.438 605.476C98.5936 611.271 94.7071 615.517 89.7971 618.318L91.7675 621.79C97.4574 618.545 101.871 613.657 105.027 607.226L101.438 605.476ZM89.7582 618.34C84.8956 621.26 79.3555 622.752 73.0825 622.779V626.779C80.0094 626.75 86.2692 625.092 91.8065 621.767L89.7582 618.34ZM73.0825 622.779C66.3854 622.807 60.5014 620.955 55.359 617.236L53.0063 620.481C58.8638 624.717 65.5797 626.811 73.0825 626.779V622.779ZM55.3395 617.222C50.2431 613.63 46.5236 608.38 44.2352 601.334L40.4303 602.584C42.9419 610.317 47.1223 616.334 53.0258 620.495L55.3395 617.222ZM41.3446 600.224L0.695006 623.496L2.67125 626.966L43.3209 603.694L41.3446 600.224ZM3.68311 625.223V588.623L-0.316856 588.64V625.239L3.68311 625.223ZM59.9826 568.284V581.484L63.9826 581.467V568.267L59.9826 568.284ZM59.9826 581.484C59.9826 584.932 60.731 587.888 62.5774 589.99L65.5877 587.344C64.6342 586.258 63.9826 584.42 63.9826 581.467L59.9826 581.484ZM62.6235 590.041C64.6361 592.179 67.5632 593.052 70.9825 593.038V589.038C68.2018 589.049 66.529 588.342 65.5416 587.293L62.6235 590.041ZM70.9825 593.038C74.2151 593.024 76.9865 592.014 79.0388 589.824L76.1261 587.095C74.9784 588.319 73.3499 589.028 70.9825 589.038V593.038ZM78.9966 589.868C81.0931 587.763 81.9824 584.821 81.9824 581.391L77.9824 581.408C77.9824 584.178 77.2717 585.943 76.1682 587.052L78.9966 589.868ZM81.9824 581.391V568.191L77.9824 568.208V581.408L81.9824 581.391ZM79.9824 566.2L61.9826 566.276V570.276L79.9824 570.2V566.2Z" fill="url(#paint0_linear_900_8103)"/>
    <defs>
    <linearGradient id="paint0_linear_900_8103" x1="126.24" y1="321.534" x2="-68.6052" y2="317.817" gradientUnits="userSpaceOnUse">
    <stop stop-color="#06AACA" stop-opacity="0.48"/>
    <stop offset="0.705968" stop-color="#1E1317"/>
    </linearGradient>
    </defs>
    </svg>
    