<svg width="363" height="115" viewBox="0 0 363 115" fill="none" xmlns="http://www.w3.org/2000/svg">
    <path d="M0.358893 96.4834L0.386981 68.7334L45.1509 5.21789L81.0004 5.40592L80.9369 68.1059L91.7368 68.1625L91.7076 96.9625L80.9078 96.9059L80.8911 113.406L47.2915 113.23L47.3082 96.7296L0.358893 96.4834ZM50.0624 43.1938L33.8376 67.8589L50.0374 67.9438L50.0624 43.1938ZM136.013 57.2947C136.03 39.9947 139.694 26.4139 147.004 16.5522C154.414 6.69099 165.769 1.80052 181.068 1.88077C196.268 1.96049 207.563 7.01976 214.953 17.0586C222.343 26.9974 226.029 40.5668 226.011 57.7668C225.994 75.0668 222.28 88.6973 214.87 98.6585C207.46 108.52 196.155 113.41 180.956 113.331C165.656 113.25 154.311 108.241 146.921 98.3021C139.631 88.2638 135.995 74.5947 136.013 57.2947ZM193.162 57.5945C193.17 49.5945 192.376 43.5903 190.78 39.5819C189.184 35.4735 185.936 33.4065 181.036 33.3808C176.037 33.3545 172.735 35.3872 171.13 39.4788C169.526 43.4704 168.72 49.4662 168.712 57.4662C168.704 65.5662 169.498 71.6704 171.094 75.7788C172.69 79.7872 175.988 81.8045 180.987 81.8307C185.887 81.8564 189.139 79.8735 190.743 75.8819C192.347 71.7903 193.154 65.6945 193.162 57.5945ZM271.287 97.9044L271.315 70.1544L316.079 6.63893L351.928 6.82697L351.865 69.5269L362.665 69.5836L362.636 98.3836L351.836 98.3269L351.819 114.827L318.219 114.651L318.236 98.1507L271.287 97.9044ZM320.99 44.6149L304.765 69.2799L320.965 69.3649L320.99 44.6149Z" fill="#131312"/>
    <path d="M0.358892 96.4834L-1.64108 96.4729C-1.6422 97.5775 -0.747685 98.4776 0.356868 98.4834L0.358892 96.4834ZM0.38698 68.7334L-1.24939 67.5766C-1.48562 67.9118 -1.61258 68.312 -1.61299 68.7229L0.38698 68.7334ZM45.1509 5.21789L45.1529 3.21789C44.5009 3.21447 43.8894 3.52915 43.5145 4.06109L45.1509 5.21789ZM81.0004 5.40593L83.0004 5.41642C83.0015 4.31185 82.107 3.41172 81.0024 3.40593L81.0004 5.40593ZM80.9369 68.1059L78.937 68.0954C78.9358 69.2 79.8304 70.1001 80.9349 70.1059L80.9369 68.1059ZM91.7368 68.1625L93.7368 68.173C93.7379 67.0685 92.8434 66.1683 91.7388 66.1625L91.7368 68.1625ZM91.7076 96.9625L91.7056 98.9625C92.8102 98.9683 93.7065 98.0776 93.7076 96.973L91.7076 96.9625ZM80.9078 96.9059L80.9098 94.9059C79.8053 94.9001 78.9089 95.7908 78.9078 96.8954L80.9078 96.9059ZM80.8911 113.406L80.8891 115.406C81.9936 115.412 82.8899 114.521 82.8911 113.416L80.8911 113.406ZM47.2915 113.23L45.2916 113.219C45.2905 114.324 46.185 115.224 47.2895 115.23L47.2915 113.23ZM47.3082 96.7296L49.3082 96.7401C49.3093 95.6356 48.4148 94.7354 47.3103 94.7296L47.3082 96.7296ZM50.0624 43.1938L52.0624 43.2043C52.0633 42.3199 51.4831 41.5374 50.6358 41.2802C49.7885 41.0231 48.8753 41.3523 48.3901 42.0897L50.0624 43.1938ZM33.8376 67.8589L32.1653 66.7548C31.7624 67.3673 31.7286 68.1528 32.0773 68.8008C32.426 69.4488 33.101 69.855 33.8356 69.8589L33.8376 67.8589ZM50.0374 67.9438L50.0353 69.9438C51.1399 69.9496 52.0362 69.0589 52.0373 67.9543L50.0374 67.9438ZM2.35886 96.4939L2.38695 68.7439L-1.61299 68.7229L-1.64108 96.4729L2.35886 96.4939ZM2.02336 69.8902L46.7873 6.3747L43.5145 4.06109L-1.24939 67.5766L2.02336 69.8902ZM45.1489 7.21789L80.9984 7.40592L81.0024 3.40593L45.1529 3.21789L45.1489 7.21789ZM79.0004 5.39543L78.937 68.0954L82.9369 68.1164L83.0004 5.41642L79.0004 5.39543ZM80.9349 70.1059L91.7348 70.1625L91.7388 66.1625L80.939 66.1059L80.9349 70.1059ZM89.7368 68.152L89.7077 96.952L93.7076 96.973L93.7368 68.173L89.7368 68.152ZM91.7097 94.9625L80.9098 94.9059L80.9058 98.9059L91.7056 98.9625L91.7097 94.9625ZM78.9078 96.8954L78.8911 113.395L82.8911 113.416L82.9078 96.9164L78.9078 96.8954ZM80.8931 111.406L47.2936 111.23L47.2895 115.23L80.8891 115.406L80.8931 111.406ZM49.2915 113.24L49.3082 96.7401L45.3083 96.7192L45.2916 113.219L49.2915 113.24ZM47.3103 94.7296L0.360917 94.4834L0.356868 98.4834L47.3062 98.7296L47.3103 94.7296ZM48.3901 42.0897L32.1653 66.7548L35.5099 68.9629L51.7347 44.2979L48.3901 42.0897ZM33.8356 69.8589L50.0353 69.9438L50.0394 65.9438L33.8396 65.8589L33.8356 69.8589ZM52.0373 67.9543L52.0624 43.2043L48.0624 43.1833L48.0374 67.9333L52.0373 67.9543ZM147.004 16.5522L145.403 15.3463L145.395 15.3568L147.004 16.5522ZM214.953 17.0586L213.344 18.2398L213.35 18.2476L214.953 17.0586ZM214.87 98.6585L216.471 99.8644L216.477 99.8566L214.87 98.6585ZM146.921 98.3021L145.305 99.4729C145.309 99.479 145.313 99.4851 145.318 99.4911L146.921 98.3021ZM190.78 39.5819L188.916 40.2992C188.918 40.3045 188.92 40.3097 188.922 40.3149L190.78 39.5819ZM171.13 39.4788L172.987 40.2314C172.989 40.2261 172.991 40.2209 172.993 40.2157L171.13 39.4788ZM171.094 75.7788L169.23 76.4961C169.232 76.5014 169.234 76.5066 169.236 76.5119L171.094 75.7788ZM190.743 75.8819L192.6 76.6344C192.602 76.6292 192.604 76.624 192.606 76.6187L190.743 75.8819ZM138.013 57.3052C138.03 40.2636 141.641 27.1525 148.612 17.7476L145.395 15.3568C137.747 25.6752 134.03 39.7259 134.013 57.2842L138.013 57.3052ZM148.605 17.758C155.546 8.51977 166.23 3.80295 181.066 3.88077L181.07 -0.11923C165.307 -0.20191 153.281 4.8622 145.403 15.3464L148.605 17.758ZM181.066 3.88077C195.79 3.95799 206.415 8.82774 213.344 18.2398L216.562 15.8773C208.71 5.21179 196.747 -0.0370063 181.07 -0.11923L181.066 3.88077ZM213.35 18.2476C220.398 27.7265 224.029 40.8227 224.011 57.7563L228.011 57.7773C228.029 40.3109 224.288 26.2682 216.556 15.8696L213.35 18.2476ZM224.011 57.7563C223.994 74.7914 220.336 87.9533 213.264 97.4604L216.477 99.8566C224.224 89.4414 227.994 75.3422 228.011 57.7773L224.011 57.7563ZM213.269 97.4527C206.325 106.694 195.688 111.408 180.958 111.331L180.954 115.331C196.622 115.413 208.595 110.345 216.471 99.8643L213.269 97.4527ZM180.958 111.331C166.121 111.253 155.447 106.424 148.524 97.1131L145.318 99.4911C153.175 110.058 165.19 115.248 180.954 115.331L180.958 111.331ZM148.538 97.1314C141.579 87.5494 137.995 74.3452 138.013 57.3052L134.013 57.2842C133.995 74.8442 137.683 88.9783 145.305 99.4729L148.538 97.1314ZM195.162 57.605C195.17 49.5306 194.377 43.2179 192.638 38.8489L188.922 40.3149C190.375 43.9627 191.17 49.6583 191.162 57.584L195.162 57.605ZM192.644 38.8646C191.714 36.4716 190.253 34.5604 188.216 33.2643C186.196 31.9786 183.763 31.395 181.038 31.3808L181.034 35.3808C183.21 35.3922 184.851 35.855 186.079 36.6363C187.29 37.4073 188.25 38.5838 188.916 40.2992L192.644 38.8646ZM181.038 31.3808C178.271 31.3662 175.803 31.921 173.756 33.1812C171.69 34.4533 170.206 36.3502 169.268 38.742L172.993 40.2157C173.659 38.5159 174.628 37.3506 175.864 36.59C177.119 35.8175 178.802 35.369 181.034 35.3808L181.038 31.3808ZM169.274 38.7263C167.526 43.077 166.72 49.3814 166.712 57.4557L170.712 57.4767C170.72 49.5511 171.527 43.8638 172.987 40.2314L169.274 38.7263ZM166.712 57.4557C166.704 65.6313 167.497 72.0355 169.23 76.4961L172.958 75.0615C171.499 71.3053 170.704 65.5011 170.712 57.4767L166.712 57.4557ZM169.236 76.5119C170.175 78.8705 171.663 80.7412 173.726 82.003C175.767 83.2515 178.226 83.8163 180.985 83.8307L180.989 79.8307C178.749 79.819 177.059 79.362 175.802 78.5931C174.567 77.8377 173.608 76.6956 172.951 75.0458L169.236 76.5119ZM180.985 83.8307C183.702 83.845 186.129 83.3029 188.148 82.0716C190.186 80.8287 191.659 78.9744 192.6 76.6344L188.887 75.1294C188.223 76.781 187.268 77.914 186.055 78.654C184.822 79.4056 183.173 79.8422 180.989 79.8307L180.985 83.8307ZM192.606 76.6187C194.347 72.1763 195.154 65.7805 195.162 57.605L191.162 57.584C191.154 65.6084 190.348 71.4042 188.881 75.145L192.606 76.6187ZM271.287 97.9044L269.287 97.8939C269.286 98.9985 270.18 99.8986 271.285 99.9044L271.287 97.9044ZM271.315 70.1545L269.679 68.9976C269.442 69.3328 269.315 69.7331 269.315 70.144L271.315 70.1545ZM316.079 6.63893L316.081 4.63894C315.429 4.63552 314.817 4.95019 314.442 5.48213L316.079 6.63893ZM351.928 6.82697L353.928 6.83746C353.929 5.73289 353.035 4.83276 351.93 4.82697L351.928 6.82697ZM351.865 69.5269L349.865 69.5164C349.864 70.621 350.758 71.5211 351.863 71.5269L351.865 69.5269ZM362.665 69.5836L364.665 69.5941C364.666 68.4895 363.771 67.5894 362.667 67.5836L362.665 69.5836ZM362.636 98.3836L362.634 100.384C363.738 100.389 364.634 99.4986 364.636 98.3941L362.636 98.3836ZM351.836 98.3269L351.838 96.3269C350.733 96.3211 349.837 97.2119 349.836 98.3164L351.836 98.3269ZM351.819 114.827L351.817 116.827C352.922 116.833 353.818 115.942 353.819 114.837L351.819 114.827ZM318.219 114.651L316.219 114.64C316.218 115.745 317.113 116.645 318.217 116.651L318.219 114.651ZM318.236 98.1507L320.236 98.1612C320.237 97.0566 319.343 96.1565 318.238 96.1507L318.236 98.1507ZM320.99 44.6149L322.99 44.6254C322.991 43.7409 322.411 42.9584 321.564 42.7013C320.716 42.4441 319.803 42.7733 319.318 43.5108L320.99 44.6149ZM304.765 69.2799L303.093 68.1758C302.69 68.7883 302.657 69.5738 303.005 70.2218C303.354 70.8698 304.029 71.276 304.763 71.2799L304.765 69.2799ZM320.965 69.3649L320.963 71.3649C322.068 71.3707 322.964 70.4799 322.965 69.3754L320.965 69.3649ZM273.287 97.9149L273.315 70.1649L269.315 70.144L269.287 97.8939L273.287 97.9149ZM272.951 71.3113L317.715 7.79574L314.442 5.48213L269.679 68.9976L272.951 71.3113ZM316.077 8.63893L351.926 8.82697L351.93 4.82697L316.081 4.63894L316.077 8.63893ZM349.928 6.81648L349.865 69.5164L353.865 69.5374L353.928 6.83746L349.928 6.81648ZM351.863 71.5269L362.663 71.5836L362.667 67.5836L351.867 67.5269L351.863 71.5269ZM360.665 69.5731L360.636 98.3731L364.636 98.3941L364.665 69.5941L360.665 69.5731ZM362.638 96.3836L351.838 96.3269L351.834 100.327L362.634 100.384L362.638 96.3836ZM349.836 98.3164L349.819 114.816L353.819 114.837L353.836 98.3374L349.836 98.3164ZM351.821 112.827L318.221 112.651L318.217 116.651L351.817 116.827L351.821 112.827ZM320.219 114.661L320.236 98.1612L316.236 98.1402L316.219 114.64L320.219 114.661ZM318.238 96.1507L271.289 95.9044L271.285 99.9044L318.234 100.151L318.238 96.1507ZM319.318 43.5108L303.093 68.1758L306.438 70.384L322.663 45.719L319.318 43.5108ZM304.763 71.2799L320.963 71.3649L320.967 67.3649L304.768 67.2799L304.763 71.2799ZM322.965 69.3754L322.99 44.6254L318.99 44.6044L318.965 69.3544L322.965 69.3754Z" fill="url(#paint0_linear_900_8073)"/>
    <defs>
    <linearGradient id="paint0_linear_900_8073" x1="186.356" y1="-10.5993" x2="177.555" y2="183.945" gradientUnits="userSpaceOnUse">
    <stop stop-color="#5226FF" stop-opacity="0.61"/>
    <stop offset="0.705968" stop-color="#1E1317"/>
    </linearGradient>
    </defs>
    </svg>
    