<svg width="69" height="387" viewBox="0 0 69 387" fill="none" xmlns="http://www.w3.org/2000/svg">
<path d="M11.272 48.384V25.728L1 22.368V0L68.968 24.864V49.44L1 74.208V51.744L11.272 48.384ZM27.304 43.2L46.216 37.056L27.304 30.912V43.2ZM17.992 123.786V151.05H1L1 100.17H17.032L52.072 127.05V100.17H68.968V151.05H52.936L17.992 123.786ZM68.968 202.591H30.664C27.528 202.591 25.032 203.263 23.176 204.607C21.384 206.015 20.488 208.255 20.488 211.327C20.488 214.399 21.384 216.671 23.176 218.143C25.032 219.615 27.528 220.351 30.664 220.351H68.968V241.567H30.664C24.2 241.567 18.664 240.223 14.056 237.535C9.512 234.847 6.088 231.167 3.784 226.495C1.48 221.823 0.328 216.607 0.328 210.847C0.328 205.087 1.48 199.967 3.784 195.487C6.088 191.071 9.512 187.615 14.056 185.119C18.6 182.623 24.136 181.375 30.664 181.375H68.968V202.591ZM1 312.967L30.472 293.191H1V271.879H68.968L68.968 293.191H40.36L68.968 312.679V336.775L36.424 313.351L1 338.311V312.967ZM68.968 386.78H1V365.468H68.968V386.78Z" fill="#131312"/>
<path d="M11.272 48.384L12.2047 51.2353C13.4379 50.832 14.272 49.6815 14.272 48.384H11.272ZM11.272 25.728H14.272C14.272 24.4305 13.4379 23.28 12.2047 22.8767L11.272 25.728ZM1 22.368H-2C-2 23.6655 -1.16588 24.816 0.0673218 25.2193L1 22.368ZM1 0L2.03066 -2.8174C1.11063 -3.15396 0.0842209 -3.02011 -0.718727 -2.45886C-1.52167 -1.89761 -2 -0.979659 -2 0L1 0ZM68.968 24.864H71.968C71.968 23.6046 71.1814 22.4793 69.9987 22.0466L68.968 24.864ZM68.968 49.44L69.9951 52.2587C71.1797 51.827 71.968 50.7008 71.968 49.44H68.968ZM1 74.208H-2C-2 75.187 -1.52231 76.1044 -0.720253 76.6658C0.0818024 77.2272 1.10732 77.3619 2.02715 77.0267L1 74.208ZM1 51.744L0.0673218 48.8927C-1.16588 49.2961 -2 50.4465 -2 51.744H1ZM27.304 43.2H24.304C24.304 44.1603 24.7637 45.0626 25.5406 45.627C26.3175 46.1915 27.3176 46.3499 28.2309 46.0532L27.304 43.2ZM46.216 37.056L47.1429 39.9092C48.3791 39.5076 49.216 38.3557 49.216 37.056C49.216 35.7563 48.3791 34.6044 47.1429 34.2028L46.216 37.056ZM27.304 30.912L28.2309 28.0588C27.3176 27.7621 26.3175 27.9205 25.5406 28.485C24.7637 29.0495 24.304 29.9517 24.304 30.912H27.304ZM14.272 48.384V25.728H8.272V48.384H14.272ZM12.2047 22.8767L1.93268 19.5167L0.0673218 25.2193L10.3393 28.5793L12.2047 22.8767ZM4 22.368V0L-2 0V22.368H4ZM-0.0306625 2.8174L67.9373 27.6814L69.9987 22.0466L2.03066 -2.8174L-0.0306625 2.8174ZM65.968 24.864V49.44H71.968V24.864H65.968ZM67.9409 46.6213L-0.0271454 71.3893L2.02715 77.0267L69.9951 52.2587L67.9409 46.6213ZM4 74.208V51.744H-2V74.208H4ZM1.93268 54.5953L12.2047 51.2353L10.3393 45.5327L0.0673218 48.8927L1.93268 54.5953ZM28.2309 46.0532L47.1429 39.9092L45.2891 34.2028L26.3771 40.3468L28.2309 46.0532ZM47.1429 34.2028L28.2309 28.0588L26.3771 33.7652L45.2891 39.9092L47.1429 34.2028ZM24.304 30.912V43.2H30.304V30.912H24.304ZM17.992 123.786L19.8374 121.421C18.9334 120.715 17.7064 120.587 16.676 121.09C15.6456 121.593 14.992 122.639 14.992 123.786H17.992ZM17.992 151.05V154.05C19.6489 154.05 20.992 152.707 20.992 151.05H17.992ZM1 151.05H-2C-2 152.707 -0.656853 154.05 1 154.05V151.05ZM1 100.17V97.17C-0.656853 97.17 -2 98.5131 -2 100.17H1ZM17.032 100.17L18.858 97.7897C18.3341 97.3878 17.6923 97.17 17.032 97.17V100.17ZM52.072 127.05L50.246 129.43C51.1523 130.126 52.3747 130.246 53.399 129.741C54.4234 129.235 55.072 128.192 55.072 127.05H52.072ZM52.072 100.17V97.17C50.4151 97.17 49.072 98.5131 49.072 100.17H52.072ZM68.968 100.17H71.968C71.968 98.5131 70.6249 97.17 68.968 97.17V100.17ZM68.968 151.05V154.05C70.6249 154.05 71.968 152.707 71.968 151.05H68.968ZM52.936 151.05L51.0906 153.415C51.6178 153.827 52.2673 154.05 52.936 154.05V151.05ZM14.992 123.786V151.05H20.992V123.786H14.992ZM17.992 148.05H1V154.05H17.992V148.05ZM4 151.05L4 100.17H-2L-2 151.05H4ZM1 103.17H17.032V97.17H1V103.17ZM15.206 102.55L50.246 129.43L53.898 124.67L18.858 97.7897L15.206 102.55ZM55.072 127.05V100.17H49.072V127.05H55.072ZM52.072 103.17H68.968V97.17H52.072V103.17ZM65.968 100.17V151.05H71.968V100.17H65.968ZM68.968 148.05H52.936V154.05H68.968V148.05ZM54.7814 148.685L19.8374 121.421L16.1466 126.151L51.0906 153.415L54.7814 148.685ZM68.968 202.591V205.591C70.6249 205.591 71.968 204.248 71.968 202.591H68.968ZM23.176 204.607L21.4165 202.177C21.3847 202.2 21.3534 202.224 21.3225 202.248L23.176 204.607ZM23.176 218.143L21.2718 220.461C21.285 220.472 21.2984 220.483 21.3118 220.493L23.176 218.143ZM68.968 220.351H71.968C71.968 218.694 70.6249 217.351 68.968 217.351V220.351ZM68.968 241.567V244.567C70.6249 244.567 71.968 243.224 71.968 241.567H68.968ZM14.056 237.535L12.5286 240.117C12.5338 240.12 12.5391 240.123 12.5444 240.126L14.056 237.535ZM3.784 226.495L1.09338 227.822L3.784 226.495ZM3.784 195.487L1.12424 194.099C1.12153 194.104 1.11883 194.109 1.11613 194.115L3.784 195.487ZM14.056 185.119L12.6117 182.489L14.056 185.119ZM68.968 181.375H71.968C71.968 179.718 70.6249 178.375 68.968 178.375V181.375ZM68.968 199.591H30.664V205.591H68.968V199.591ZM30.664 199.591C27.1243 199.591 23.9425 200.348 21.4165 202.177L24.9355 207.037C26.1216 206.178 27.9317 205.591 30.664 205.591V199.591ZM21.3225 202.248C18.574 204.407 17.488 207.677 17.488 211.327H23.488C23.488 208.832 24.194 207.622 25.0295 206.966L21.3225 202.248ZM17.488 211.327C17.488 214.985 18.5766 218.247 21.2718 220.461L25.0802 215.825C24.1914 215.095 23.488 213.813 23.488 211.327H17.488ZM21.3118 220.493C23.8479 222.505 27.0709 223.351 30.664 223.351V217.351C27.9851 217.351 26.2161 216.725 25.0402 215.792L21.3118 220.493ZM30.664 223.351H68.968V217.351H30.664V223.351ZM65.968 220.351V241.567H71.968V220.351H65.968ZM68.968 238.567H30.664V244.567H68.968V238.567ZM30.664 238.567C24.6189 238.567 19.6287 237.312 15.5676 234.943L12.5444 240.126C17.6993 243.133 23.7812 244.567 30.664 244.567V238.567ZM15.5834 234.953C11.5336 232.557 8.5173 229.31 6.47461 225.168L1.09338 227.822C3.65871 233.024 7.4904 237.136 12.5286 240.117L15.5834 234.953ZM6.47461 225.168C4.39487 220.951 3.328 216.196 3.328 210.847H-2.672C-2.672 217.018 -1.43488 222.695 1.09338 227.822L6.47461 225.168ZM3.328 210.847C3.328 205.495 4.39559 200.857 6.45187 196.859L1.11613 194.115C-1.43559 199.076 -2.672 204.678 -2.672 210.847H3.328ZM6.44376 196.874C8.46239 193.005 11.4527 189.972 15.5003 187.748L12.6117 182.489C7.57131 185.258 3.71362 189.136 1.12424 194.099L6.44376 196.874ZM15.5003 187.748C19.5014 185.55 24.5125 184.375 30.664 184.375V178.375C23.7595 178.375 17.6986 179.695 12.6117 182.489L15.5003 187.748ZM30.664 184.375H68.968V178.375H30.664V184.375ZM65.968 181.375V202.591H71.968V181.375H65.968ZM1 312.967L-0.671585 310.476C-1.50186 311.033 -2 311.967 -2 312.967H1ZM30.472 293.191L32.1436 295.682C33.24 294.946 33.7265 293.58 33.342 292.317C32.9575 291.054 31.7923 290.191 30.472 290.191V293.191ZM1 293.191H-2C-2 294.848 -0.656853 296.191 1 296.191V293.191ZM1 271.879V268.879C-0.656853 268.879 -2 270.222 -2 271.879H1ZM68.968 271.879H71.968C71.968 270.222 70.6249 268.879 68.968 268.879V271.879ZM68.968 293.191V296.191C70.6249 296.191 71.968 294.848 71.968 293.191H68.968ZM40.36 293.191V290.191C39.0435 290.191 37.8809 291.049 37.4931 292.307C37.1053 293.565 37.583 294.929 38.671 295.67L40.36 293.191ZM68.968 312.679H71.968C71.968 311.686 71.4772 310.758 70.657 310.199L68.968 312.679ZM68.968 336.775L67.2155 339.21C68.1291 339.867 69.334 339.958 70.3359 339.445C71.3378 338.931 71.968 337.9 71.968 336.775H68.968ZM36.424 313.351L38.1765 310.916C37.1387 310.169 35.7414 310.162 34.696 310.898L36.424 313.351ZM1 338.311H-2C-2 339.431 -1.37579 340.458 -0.381325 340.974C0.613144 341.49 1.81217 341.408 2.72796 340.763L1 338.311ZM2.67159 315.458L32.1436 295.682L28.8004 290.7L-0.671585 310.476L2.67159 315.458ZM30.472 290.191H1V296.191H30.472V290.191ZM4 293.191V271.879H-2V293.191H4ZM1 274.879H68.968V268.879H1V274.879ZM65.968 271.879L65.968 293.191H71.968L71.968 271.879H65.968ZM68.968 290.191H40.36V296.191H68.968V290.191ZM38.671 295.67L67.279 315.158L70.657 310.199L42.049 290.711L38.671 295.67ZM65.968 312.679V336.775H71.968V312.679H65.968ZM70.7205 334.34L38.1765 310.916L34.6715 315.786L67.2155 339.21L70.7205 334.34ZM34.696 310.898L-0.727959 335.858L2.72796 340.763L38.152 315.803L34.696 310.898ZM4 338.311V312.967H-2V338.311H4ZM68.968 386.78V389.78C70.6249 389.78 71.968 388.436 71.968 386.78H68.968ZM1 386.78H-2C-2 388.436 -0.656853 389.78 1 389.78V386.78ZM1 365.467V362.467C-0.656853 362.467 -2 363.811 -2 365.467H1ZM68.968 365.467H71.968C71.968 363.811 70.6249 362.467 68.968 362.467V365.467ZM68.968 383.78H1V389.78H68.968V383.78ZM4 386.78V365.467H-2V386.78H4ZM1 368.467H68.968V362.467H1V368.467ZM65.968 365.467V386.78H71.968V365.467H65.968Z" fill="url(#paint0_linear_566_8272)"/>
<defs>
<linearGradient id="paint0_linear_566_8272" x1="107" y1="242.5" x2="-14.0003" y2="242.922" gradientUnits="userSpaceOnUse">
<stop stop-color="white" stop-opacity="0.42"/>
<stop offset="1" stop-opacity="0"/>
</linearGradient>
</defs>
</svg>
