<svg width="69" height="435" viewBox="0 0 69 435" fill="none" xmlns="http://www.w3.org/2000/svg">
    <path d="M35.848 46.3765C34.888 50.4725 32.904 53.6405 29.896 55.8805C26.952 58.1845 23.528 59.3365 19.624 59.3365C13.672 59.3365 9.064 57.3525 5.8 53.3845C2.6 49.4805 1 43.8485 1 36.4885V0.872495L68.968 0.872495V35.5285C68.968 42.4405 67.464 47.8805 64.456 51.8485C61.448 55.8165 57.064 57.8005 51.304 57.8005C47.336 57.8005 43.976 56.7445 41.224 54.6325C38.536 52.5845 36.744 49.8325 35.848 46.3765ZM42.472 22.1845V30.4405C42.472 32.3605 42.856 33.7685 43.624 34.6645C44.392 35.6245 45.576 36.1045 47.176 36.1045C48.84 36.1045 50.056 35.6245 50.824 34.6645C51.656 33.7685 52.072 32.3605 52.072 30.4405V22.1845L42.472 22.1845ZM18.088 31.8805C18.088 33.8005 18.44 35.2085 19.144 36.1045C19.912 37.0645 21.128 37.5445 22.792 37.5445C26.056 37.5445 27.688 35.6565 27.688 31.8805V22.1845H18.088V31.8805ZM68.968 108.449H30.664C27.528 108.449 25.032 109.121 23.176 110.465C21.384 111.873 20.488 114.113 20.488 117.185C20.488 120.257 21.384 122.529 23.176 124.001C25.032 125.473 27.528 126.209 30.664 126.209H68.968L68.968 147.426H30.664C24.2 147.426 18.664 146.082 14.056 143.394C9.512 140.706 6.088 137.026 3.784 132.354C1.48 127.681 0.328 122.465 0.328 116.705C0.328 110.945 1.48 105.825 3.784 101.345C6.088 96.9295 9.512 93.4735 14.056 90.9775C18.6 88.4815 24.136 87.2335 30.664 87.2335H68.968V108.449ZM1 242.922V221.61L35.176 199.05H1V177.738H68.968V199.05L34.216 221.61H68.968V242.922H1ZM1 338.854L1 317.542L35.176 294.982H1V273.67H68.968V294.982L34.216 317.542H68.968V338.854H1ZM68.968 434.882L21.64 410.498H1V389.186H21.64L68.968 364.802V389.186L44.872 400.034L68.968 410.882V434.882Z" fill="#131312"/>
    <path d="M35.848 46.3765L38.752 45.6236C38.4057 44.2878 37.1927 43.3605 35.8128 43.3767C34.4329 43.3929 33.2421 44.3483 32.9272 45.6919L35.848 46.3765ZM29.896 55.8805L28.1042 53.4744C28.085 53.4887 28.0659 53.5032 28.0471 53.518L29.896 55.8805ZM5.8 53.3845L3.47982 55.2863L3.48313 55.2903L5.8 53.3845ZM1 0.872495V-2.12751C-0.656854 -2.12751 -2 -0.78436 -2 0.872495H1ZM68.968 0.872495H71.968C71.968 -0.78436 70.6249 -2.12751 68.968 -2.12751V0.872495ZM41.224 54.6325L43.0505 52.2526L43.0421 52.2462L41.224 54.6325ZM42.472 22.1845V19.1845C40.8151 19.1845 39.472 20.5276 39.472 22.1845H42.472ZM43.624 34.6645L45.9666 32.7904C45.9454 32.7639 45.9238 32.7378 45.9018 32.7121L43.624 34.6645ZM50.824 34.6645L48.6256 32.6231C48.5755 32.6771 48.5274 32.7329 48.4814 32.7904L50.824 34.6645ZM52.072 22.1845H55.072C55.072 20.5276 53.7289 19.1845 52.072 19.1845V22.1845ZM19.144 36.1045L16.785 37.958C16.7905 37.9649 16.7959 37.9717 16.8014 37.9786L19.144 36.1045ZM27.688 22.1845H30.688C30.688 20.5276 29.3449 19.1845 27.688 19.1845V22.1845ZM18.088 22.1845V19.1845C16.4311 19.1845 15.088 20.5276 15.088 22.1845H18.088ZM32.9272 45.6919C32.1077 49.1882 30.475 51.7088 28.1042 53.4744L31.6878 58.2866C35.333 55.5721 37.6683 51.7568 38.7688 47.0611L32.9272 45.6919ZM28.0471 53.518C25.6555 55.3897 22.8897 56.3365 19.624 56.3365V62.3365C24.1663 62.3365 28.2485 60.9793 31.7449 58.243L28.0471 53.518ZM19.624 56.3365C14.4102 56.3365 10.7172 54.6399 8.11687 51.4787L3.48313 55.2903C7.41078 60.0651 12.9338 62.3365 19.624 62.3365V56.3365ZM8.12018 51.4827C5.52209 48.313 4 43.4637 4 36.4885H-2C-2 44.2333 -0.322091 50.6479 3.47982 55.2863L8.12018 51.4827ZM4 36.4885V0.872495H-2V36.4885H4ZM1 3.87249L68.968 3.87249V-2.12751L1 -2.12751V3.87249ZM65.968 0.872495V35.5285H71.968V0.872495H65.968ZM65.968 35.5285C65.968 42.0351 64.5502 46.7583 62.0653 50.0362L66.8467 53.6608C70.3778 49.0027 71.968 42.8459 71.968 35.5285H65.968ZM62.0653 50.0362C59.7183 53.1322 56.2922 54.8005 51.304 54.8005V60.8005C57.8358 60.8005 63.1777 58.5008 66.8467 53.6608L62.0653 50.0362ZM51.304 54.8005C47.8971 54.8005 45.2047 53.9059 43.0505 52.2526L39.3975 57.0124C42.7473 59.5831 46.7749 60.8005 51.304 60.8005V54.8005ZM43.0421 52.2462C40.9204 50.6297 39.4895 48.4683 38.752 45.6236L32.944 47.1294C33.9985 51.1967 36.1516 54.5393 39.4059 57.0188L43.0421 52.2462ZM39.472 22.1845V30.4405H45.472V22.1845H39.472ZM39.472 30.4405C39.472 32.6569 39.8971 34.9263 41.3462 36.6169L45.9018 32.7121C45.8149 32.6107 45.472 32.0641 45.472 30.4405H39.472ZM41.2814 36.5386C42.7815 38.4137 44.9617 39.1045 47.176 39.1045V33.1045C46.1903 33.1045 46.0025 32.8353 45.9666 32.7904L41.2814 36.5386ZM47.176 39.1045C49.4078 39.1045 51.6446 38.441 53.1666 36.5386L48.4814 32.7904C48.4674 32.808 48.2722 33.1045 47.176 33.1045V39.1045ZM53.0224 36.7058C54.5954 35.0119 55.072 32.7034 55.072 30.4405H49.072C49.072 32.0176 48.7167 32.5251 48.6256 32.6231L53.0224 36.7058ZM55.072 30.4405V22.1845H49.072V30.4405H55.072ZM52.072 19.1845L42.472 19.1845V25.1845L52.072 25.1845V19.1845ZM15.088 31.8805C15.088 34.0533 15.4652 36.2781 16.785 37.958L21.503 34.251C21.4148 34.1389 21.088 33.5477 21.088 31.8805H15.088ZM16.8014 37.9786C18.3234 39.881 20.5602 40.5445 22.792 40.5445V34.5445C21.6958 34.5445 21.5006 34.2479 21.4866 34.2304L16.8014 37.9786ZM22.792 40.5445C25.0096 40.5445 27.1842 39.8828 28.7336 38.0904C30.2107 36.3815 30.688 34.1325 30.688 31.8805H24.688C24.688 33.4045 24.3493 33.9875 24.1944 34.1666C24.1118 34.2622 23.8384 34.5445 22.792 34.5445V40.5445ZM30.688 31.8805V22.1845H24.688V31.8805H30.688ZM27.688 19.1845H18.088V25.1845H27.688V19.1845ZM15.088 22.1845V31.8805H21.088V22.1845H15.088ZM68.968 108.449V111.449C70.6249 111.449 71.968 110.106 71.968 108.449H68.968ZM23.176 110.465L21.4165 108.036C21.3847 108.059 21.3534 108.082 21.3225 108.107L23.176 110.465ZM23.176 124.001L21.2718 126.32C21.285 126.331 21.2984 126.341 21.3118 126.352L23.176 124.001ZM68.968 126.209H71.968C71.968 124.553 70.6249 123.209 68.968 123.209V126.209ZM68.968 147.426V150.426C70.6249 150.426 71.968 149.082 71.968 147.426H68.968ZM14.056 143.394L12.5286 145.976C12.5338 145.979 12.5391 145.982 12.5444 145.985L14.056 143.394ZM3.784 132.354L1.09339 133.68L1.09339 133.68L3.784 132.354ZM3.784 101.345L1.12425 99.9578C1.12153 99.963 1.11882 99.9682 1.11614 99.9735L3.784 101.345ZM14.056 90.9775L12.6117 88.3481L12.6117 88.3481L14.056 90.9775ZM68.968 87.2335H71.968C71.968 85.5766 70.6249 84.2335 68.968 84.2335V87.2335ZM68.968 105.449H30.664V111.449H68.968V105.449ZM30.664 105.449C27.1243 105.449 23.9425 106.207 21.4165 108.036L24.9355 112.895C26.1216 112.036 27.9317 111.449 30.664 111.449V105.449ZM21.3225 108.107C18.574 110.266 17.488 113.536 17.488 117.185H23.488C23.488 114.691 24.194 113.481 25.0295 112.824L21.3225 108.107ZM17.488 117.185C17.488 120.843 18.5766 124.106 21.2718 126.32L25.0802 121.683C24.1914 120.953 23.488 119.672 23.488 117.185H17.488ZM21.3118 126.352C23.8479 128.363 27.0709 129.209 30.664 129.209V123.209C27.9851 123.209 26.2161 122.584 25.0402 121.651L21.3118 126.352ZM30.664 129.209H68.968V123.209H30.664V129.209ZM65.968 126.209L65.968 147.426H71.968L71.968 126.209H65.968ZM68.968 144.426H30.664V150.426H68.968L68.968 144.426ZM30.664 144.426C24.6189 144.426 19.6287 143.171 15.5676 140.802L12.5444 145.985C17.6993 148.992 23.7812 150.426 30.664 150.426V144.426ZM15.5834 140.811C11.5336 138.416 8.5173 135.169 6.47461 131.027L1.09339 133.68C3.6587 138.882 7.4904 142.995 12.5286 145.976L15.5834 140.811ZM6.47461 131.027C4.39487 126.809 3.328 122.055 3.328 116.705H-2.672C-2.672 122.876 -1.43487 128.554 1.09339 133.68L6.47461 131.027ZM3.328 116.705C3.328 111.354 4.39559 106.716 6.45186 102.718L1.11614 99.9735C-1.43559 104.935 -2.672 110.537 -2.672 116.705H3.328ZM6.44375 102.733C8.46239 98.8642 11.4527 95.8303 15.5003 93.6069L12.6117 88.3481C7.57131 91.1167 3.71362 94.9948 1.12425 99.9578L6.44375 102.733ZM15.5003 93.6069C19.5014 91.4092 24.5125 90.2335 30.664 90.2335L30.664 84.2335C23.7595 84.2335 17.6986 85.5538 12.6117 88.3481L15.5003 93.6069ZM30.664 90.2335H68.968V84.2335H30.664L30.664 90.2335ZM65.968 87.2335V108.449H71.968V87.2335H65.968ZM1 242.922H-2C-2 244.578 -0.656854 245.922 1 245.922V242.922ZM1 221.61L-0.652723 219.106C-1.49388 219.661 -2 220.602 -2 221.61H1ZM35.176 199.05L36.8287 201.553C37.9341 200.824 38.4302 199.455 38.0492 198.187C37.6683 196.918 36.5005 196.05 35.176 196.05V199.05ZM1 199.05H-2C-2 200.706 -0.656854 202.05 1 202.05V199.05ZM1 177.738V174.738C-0.656854 174.738 -2 176.081 -2 177.738H1ZM68.968 177.738H71.968C71.968 176.081 70.6249 174.738 68.968 174.738V177.738ZM68.968 199.05L70.6015 201.566C71.4537 201.013 71.968 200.066 71.968 199.05H68.968ZM34.216 221.61L32.5825 219.093C31.468 219.817 30.9622 221.187 31.3395 222.461C31.7168 223.735 32.8872 224.61 34.216 224.61V221.61ZM68.968 221.61H71.968C71.968 219.953 70.6249 218.61 68.968 218.61V221.61ZM68.968 242.922V245.922C70.6249 245.922 71.968 244.578 71.968 242.922H68.968ZM4 242.922V221.61H-2V242.922H4ZM2.65272 224.113L36.8287 201.553L33.5233 196.546L-0.652723 219.106L2.65272 224.113ZM35.176 196.05H1V202.05H35.176V196.05ZM4 199.05V177.738H-2V199.05H4ZM1 180.738H68.968V174.738H1V180.738ZM65.968 177.738V199.05H71.968V177.738H65.968ZM67.3345 196.533L32.5825 219.093L35.8495 224.126L70.6015 201.566L67.3345 196.533ZM34.216 224.61H68.968V218.61H34.216V224.61ZM65.968 221.61V242.922H71.968V221.61H65.968ZM68.968 239.922H1V245.922H68.968V239.922ZM1 338.854H-2C-2 340.511 -0.656854 341.854 1 341.854V338.854ZM1 317.542L-0.652723 315.038C-1.49388 315.594 -2 316.534 -2 317.542H1ZM35.176 294.982L36.8287 297.486C37.9341 296.756 38.4302 295.388 38.0492 294.119C37.6683 292.851 36.5005 291.982 35.176 291.982V294.982ZM1 294.982H-2C-2 296.639 -0.656854 297.982 1 297.982V294.982ZM1 273.67V270.67C-0.656854 270.67 -2 272.013 -2 273.67H1ZM68.968 273.67H71.968C71.968 272.013 70.6249 270.67 68.968 270.67V273.67ZM68.968 294.982L70.6015 297.498C71.4537 296.945 71.968 295.998 71.968 294.982H68.968ZM34.216 317.542L32.5825 315.026C31.468 315.749 30.9622 317.12 31.3395 318.394C31.7168 319.668 32.8872 320.542 34.216 320.542V317.542ZM68.968 317.542H71.968C71.968 315.885 70.6249 314.542 68.968 314.542V317.542ZM68.968 338.854V341.854C70.6249 341.854 71.968 340.511 71.968 338.854H68.968ZM4 338.854L4 317.542H-2L-2 338.854H4ZM2.65272 320.046L36.8287 297.486L33.5233 292.478L-0.652723 315.038L2.65272 320.046ZM35.176 291.982H1V297.982H35.176V291.982ZM4 294.982V273.67H-2V294.982H4ZM1 276.67H68.968V270.67H1V276.67ZM65.968 273.67V294.982H71.968V273.67H65.968ZM67.3345 292.466L32.5825 315.026L35.8495 320.058L70.6015 297.498L67.3345 292.466ZM34.216 320.542H68.968V314.542H34.216V320.542ZM65.968 317.542V338.854H71.968V317.542H65.968ZM68.968 335.854H1V341.854H68.968V335.854ZM68.968 434.882L67.594 437.549C68.524 438.029 69.6365 437.989 70.5297 437.444C71.423 436.899 71.968 435.929 71.968 434.882H68.968ZM21.64 410.498L23.014 407.832C22.5891 407.613 22.118 407.498 21.64 407.498V410.498ZM1 410.498H-2C-2 412.155 -0.656854 413.498 1 413.498V410.498ZM1 389.186V386.186C-0.656854 386.186 -2 387.53 -2 389.186H1ZM21.64 389.186V392.186C22.118 392.186 22.5891 392.072 23.014 391.853L21.64 389.186ZM68.968 364.802H71.968C71.968 363.756 71.423 362.786 70.5297 362.241C69.6365 361.696 68.524 361.656 67.594 362.136L68.968 364.802ZM68.968 389.186L70.1995 391.922C71.2759 391.437 71.968 390.367 71.968 389.186H68.968ZM44.872 400.034L43.6405 397.299C42.5641 397.783 41.872 398.854 41.872 400.034C41.872 401.215 42.5641 402.285 43.6405 402.77L44.872 400.034ZM68.968 410.882H71.968C71.968 409.702 71.2759 408.631 70.1995 408.147L68.968 410.882ZM70.342 432.216L23.014 407.832L20.266 413.165L67.594 437.549L70.342 432.216ZM21.64 407.498H1V413.498H21.64V407.498ZM4 410.498V389.186H-2V410.498H4ZM1 392.186H21.64V386.186H1V392.186ZM23.014 391.853L70.342 367.469L67.594 362.136L20.266 386.52L23.014 391.853ZM65.968 364.802V389.186H71.968V364.802H65.968ZM67.7365 386.451L43.6405 397.299L46.1035 402.77L70.1995 391.922L67.7365 386.451ZM43.6405 402.77L67.7365 413.618L70.1995 408.147L46.1035 397.299L43.6405 402.77ZM65.968 410.882V434.882H71.968V410.882H65.968Z" fill="url(#paint0_linear_1001_8074)"/>
    <defs>
    <linearGradient id="paint0_linear_1001_8074" x1="107" y1="215.5" x2="-14.0003" y2="215.922" gradientUnits="userSpaceOnUse">
    <stop stop-color="white" stop-opacity="0.42"/>
    <stop offset="1" stop-opacity="0"/>
    </linearGradient>
    </defs>
    </svg>
    