<svg width="68" height="227" viewBox="0 0 68 227" fill="none" xmlns="http://www.w3.org/2000/svg">
<path d="M0 65.7703V44.4583L34.176 21.8982H0V0.586247H67.968V21.8982L33.216 44.4583H67.968V65.7703H0ZM67.968 144.519H51.072V117.831H41.664V137.031H25.632V117.831H0V96.5188H67.968V144.519ZM67.968 226.233H51.072V208.185H0V186.873H51.072V169.017H67.968V226.233Z" fill="#131312"/>
<path d="M0 65.7702H-3C-3 67.4271 -1.65685 68.7702 0 68.7702V65.7702ZM0 44.4583L-1.65273 41.9545C-2.49388 42.5098 -3 43.4503 -3 44.4583H0ZM34.176 21.8983L35.8287 24.4019C36.9341 23.6723 37.4302 22.304 37.0492 21.0354C36.6683 19.7669 35.5005 18.8983 34.176 18.8983V21.8983ZM0 21.8983H-3C-3 23.5551 -1.65685 24.8983 0 24.8983V21.8983ZM0 0.586243V-2.41376C-1.65685 -2.41376 -3 -1.0706 -3 0.586243H0ZM67.968 0.586243H70.968C70.968 -1.0706 69.6249 -2.41376 67.968 -2.41376V0.586243ZM67.968 21.8983L69.6015 24.4145C70.4537 23.8613 70.968 22.9143 70.968 21.8983H67.968ZM33.216 44.4583L31.5825 41.942C30.468 42.6655 29.9622 44.036 30.3395 45.3101C30.7168 46.5842 31.8872 47.4583 33.216 47.4583V44.4583ZM67.968 44.4583H70.968C70.968 42.8014 69.6249 41.4583 67.968 41.4583L67.968 44.4583ZM67.968 65.7702V68.7702C69.6249 68.7702 70.968 67.4271 70.968 65.7702H67.968ZM3 65.7702V44.4583H-3V65.7702H3ZM1.65273 46.9619L35.8287 24.4019L32.5233 19.3945L-1.65273 41.9545L1.65273 46.9619ZM34.176 18.8983H0V24.8983H34.176V18.8983ZM3 21.8983V0.586243H-3V21.8983H3ZM0 3.58624H67.968V-2.41376H0V3.58624ZM64.968 0.586243V21.8983H70.968V0.586243H64.968ZM66.3345 19.382L31.5825 41.942L34.8495 46.9745L69.6015 24.4145L66.3345 19.382ZM33.216 47.4583H67.968L67.968 41.4583H33.216V47.4583ZM64.968 44.4583V65.7702H70.968V44.4583H64.968ZM67.968 62.7702H0V68.7702H67.968V62.7702ZM67.968 144.519V147.519C69.6249 147.519 70.968 146.176 70.968 144.519H67.968ZM51.072 144.519H48.072C48.072 146.176 49.4151 147.519 51.072 147.519V144.519ZM51.072 117.831H54.072C54.072 116.174 52.7289 114.831 51.072 114.831V117.831ZM41.664 117.831V114.831C40.0071 114.831 38.664 116.174 38.664 117.831H41.664ZM41.664 137.031V140.031C43.3209 140.031 44.664 138.688 44.664 137.031H41.664ZM25.632 137.031H22.632C22.632 138.688 23.9752 140.031 25.632 140.031V137.031ZM25.632 117.831H28.632C28.632 116.174 27.2889 114.831 25.632 114.831V117.831ZM0 117.831H-3C-3 119.488 -1.65685 120.831 0 120.831V117.831ZM0 96.5188V93.5188C-1.65685 93.5188 -3 94.8619 -3 96.5188H0ZM67.968 96.5188H70.968C70.968 94.8619 69.6249 93.5188 67.968 93.5188V96.5188ZM67.968 141.519H51.072V147.519H67.968V141.519ZM54.072 144.519V117.831H48.072V144.519H54.072ZM51.072 114.831H41.664V120.831H51.072V114.831ZM38.664 117.831V137.031H44.664V117.831H38.664ZM41.664 134.031H25.632V140.031H41.664V134.031ZM28.632 137.031V117.831H22.632V137.031H28.632ZM25.632 114.831H0V120.831H25.632V114.831ZM3 117.831V96.5188H-3V117.831H3ZM0 99.5188H67.968V93.5188H0V99.5188ZM64.968 96.5188V144.519H70.968V96.5188H64.968ZM67.968 226.233V229.233C69.6249 229.233 70.968 227.89 70.968 226.233H67.968ZM51.072 226.233H48.072C48.072 227.89 49.4151 229.233 51.072 229.233V226.233ZM51.072 208.185H54.072C54.072 206.529 52.7289 205.185 51.072 205.185V208.185ZM0 208.185H-3C-3 209.842 -1.65685 211.185 0 211.185V208.185ZM0 186.874V183.874C-1.65685 183.874 -3 185.217 -3 186.874H0ZM51.072 186.874V189.874C52.7289 189.874 54.072 188.53 54.072 186.874H51.072ZM51.072 169.017V166.017C49.4151 166.017 48.072 167.361 48.072 169.017H51.072ZM67.968 169.017H70.968C70.968 167.361 69.6249 166.017 67.968 166.017V169.017ZM67.968 223.233H51.072V229.233H67.968V223.233ZM54.072 226.233V208.185H48.072V226.233H54.072ZM51.072 205.185H0V211.185H51.072V205.185ZM3 208.185V186.874H-3V208.185H3ZM0 189.874H51.072V183.874H0V189.874ZM54.072 186.874V169.017H48.072V186.874H54.072ZM51.072 172.017H67.968V166.017H51.072V172.017ZM64.968 169.017V226.233H70.968V169.017H64.968Z" fill="url(#paint0_linear_566_8337)"/>
<defs>
<linearGradient id="paint0_linear_566_8337" x1="106" y1="111.5" x2="-15.0003" y2="111.922" gradientUnits="userSpaceOnUse">
<stop stop-color="white" stop-opacity="0.42"/>
<stop offset="1" stop-color="white" stop-opacity="0"/>
</linearGradient>
</defs>
</svg>
