<svg width="364" height="115" viewBox="0 0 364 115" fill="none" xmlns="http://www.w3.org/2000/svg">
    <path d="M363.294 19.0112L363.266 46.7612L318.501 110.279L282.652 110.092L282.716 47.392L271.916 47.3358L271.945 18.5358L282.745 18.592L282.762 2.09201L316.362 2.26688L316.345 18.7669L363.294 19.0112ZM313.59 72.3028L329.815 47.6371L313.615 47.5528L313.59 72.3028ZM227.64 58.2054C227.622 75.5054 223.958 89.0864 216.648 98.9484C209.238 108.81 197.884 113.701 182.584 113.621C167.384 113.542 156.089 108.483 148.7 98.4448C141.31 88.5063 137.624 74.937 137.641 57.737C137.659 40.437 141.373 26.8063 148.783 16.8448C156.193 6.98333 167.498 2.09214 182.697 2.17124C197.997 2.25087 209.342 7.25993 216.732 17.1984C224.022 27.2364 227.658 40.9054 227.64 58.2054ZM170.491 57.908C170.483 65.908 171.276 71.9121 172.872 75.9205C174.468 80.0288 177.716 82.0957 182.616 82.1212C187.616 82.1472 190.918 80.1144 192.522 76.0227C194.126 72.0311 194.932 66.0352 194.94 58.0352C194.949 49.9352 194.155 43.8311 192.559 39.7227C190.963 35.7144 187.665 33.6972 182.665 33.6712C177.765 33.6457 174.513 35.6288 172.909 39.6205C171.305 43.7122 170.499 49.808 170.491 57.908ZM92.3661 17.6012L92.3378 45.3512L47.5733 108.869L11.7238 108.682L11.7878 45.982L0.987936 45.9258L1.01731 17.1258L11.8172 17.182L11.834 0.682005L45.4335 0.856869L45.4167 17.3569L92.3661 17.6012ZM42.6621 70.8928L58.8872 46.2271L42.6874 46.1428L42.6621 70.8928Z" fill="#131312"/>
    <path d="M363.294 19.0112L365.294 19.0216C365.295 17.917 364.401 17.017 363.296 17.0112L363.294 19.0112ZM363.266 46.7612L364.902 47.9179C365.138 47.5827 365.265 47.1825 365.266 46.7716L363.266 46.7612ZM318.501 110.279L318.499 112.279C319.151 112.282 319.763 111.967 320.138 111.435L318.501 110.279ZM282.652 110.092L280.652 110.082C280.651 111.186 281.545 112.086 282.65 112.092L282.652 110.092ZM282.716 47.392L284.716 47.4024C284.717 46.2978 283.822 45.3977 282.718 45.392L282.716 47.392ZM271.916 47.3358L269.916 47.3254C269.915 48.4299 270.809 49.33 271.914 49.3358L271.916 47.3358ZM271.945 18.5358L271.947 16.5358C270.843 16.53 269.946 17.4208 269.945 18.5254L271.945 18.5358ZM282.745 18.592L282.743 20.592C283.848 20.5977 284.744 19.707 284.745 18.6024L282.745 18.592ZM282.762 2.09201L282.764 0.0920125C281.659 0.086264 280.763 0.977035 280.762 2.0816L282.762 2.09201ZM316.362 2.26688L318.361 2.27728C318.363 1.17272 317.468 0.272625 316.364 0.266877L316.362 2.26688ZM316.345 18.7669L314.345 18.7565C314.344 19.861 315.238 20.7611 316.343 20.7669L316.345 18.7669ZM313.59 72.3028L311.59 72.2924C311.589 73.1768 312.169 73.9593 313.017 74.2164C313.864 74.4736 314.777 74.1443 315.262 73.4068L313.59 72.3028ZM329.815 47.6371L331.487 48.7411C331.89 48.1286 331.924 47.3431 331.575 46.6951C331.227 46.0471 330.552 45.6409 329.817 45.6371L329.815 47.6371ZM313.615 47.5528L313.617 45.5528C312.513 45.5471 311.616 46.4378 311.615 47.5424L313.615 47.5528ZM361.294 19.0008L361.266 46.7508L365.266 46.7716L365.294 19.0216L361.294 19.0008ZM361.629 45.6045L316.865 109.122L320.138 111.435L364.902 47.9179L361.629 45.6045ZM318.503 108.279L282.654 108.092L282.65 112.092L318.499 112.279L318.503 108.279ZM284.652 110.102L284.716 47.4024L280.716 47.3816L280.652 110.082L284.652 110.102ZM282.718 45.392L271.918 45.3358L271.914 49.3358L282.714 49.392L282.718 45.392ZM273.916 47.3462L273.945 18.5462L269.945 18.5254L269.916 47.3254L273.916 47.3462ZM271.943 20.5358L282.743 20.592L282.747 16.592L271.947 16.5358L271.943 20.5358ZM284.745 18.6024L284.762 2.10242L280.762 2.0816L280.745 18.5816L284.745 18.6024ZM282.76 4.09201L316.359 4.26687L316.364 0.266877L282.764 0.0920125L282.76 4.09201ZM314.362 2.25647L314.345 18.7565L318.345 18.7773L318.361 2.27728L314.362 2.25647ZM316.343 20.7669L363.292 21.0112L363.296 17.0112L316.347 16.7669L316.343 20.7669ZM315.262 73.4068L331.487 48.7411L328.143 46.5331L311.918 71.1988L315.262 73.4068ZM329.817 45.6371L313.617 45.5528L313.613 49.5528L329.813 49.6371L329.817 45.6371ZM311.615 47.5424L311.59 72.2924L315.59 72.3132L315.615 47.5632L311.615 47.5424ZM216.648 98.9484L218.249 100.154L218.257 100.144L216.648 98.9484ZM148.7 98.4448L150.308 97.2634L150.303 97.2557L148.7 98.4448ZM148.783 16.8448L147.182 15.6391L147.176 15.6468L148.783 16.8448ZM216.732 17.1984L218.348 16.0276C218.344 16.0215 218.34 16.0154 218.335 16.0094L216.732 17.1984ZM172.872 75.9205L174.736 75.2031C174.734 75.1978 174.732 75.1926 174.73 75.1873L172.872 75.9205ZM192.522 76.0227L190.666 75.2703C190.664 75.2755 190.662 75.2807 190.66 75.2859L192.522 76.0227ZM192.559 39.7227L194.423 39.0054C194.421 39.0001 194.419 38.9949 194.417 38.9896L192.559 39.7227ZM172.909 39.6205L171.053 38.868C171.051 38.8732 171.049 38.8785 171.047 38.8837L172.909 39.6205ZM225.64 58.195C225.623 75.2366 222.011 88.3478 215.04 97.7531L218.257 100.144C225.906 89.825 229.622 75.7742 229.64 58.2158L225.64 58.195ZM215.048 97.7427C208.106 106.981 197.422 111.698 182.586 111.621L182.582 115.621C198.345 115.703 210.371 110.639 218.249 100.154L215.048 97.7427ZM182.586 111.621C167.862 111.545 157.237 106.675 150.308 97.2634L147.091 99.6261C154.942 110.291 166.906 115.54 182.582 115.621L182.586 111.621ZM150.303 97.2557C143.255 87.777 139.624 74.681 139.641 57.7474L135.641 57.7266C135.623 75.193 139.365 89.2355 147.096 99.6338L150.303 97.2557ZM139.641 57.7474C139.659 40.7124 143.317 27.5503 150.389 18.0429L147.176 15.6468C139.428 26.0623 135.659 40.1617 135.641 57.7266L139.641 57.7474ZM150.383 18.0506C157.328 8.80861 167.965 4.09458 182.695 4.17125L182.7 0.17125C167.031 0.0897041 155.058 5.15803 147.182 15.6391L150.383 18.0506ZM182.695 4.17125C197.532 4.24846 208.206 9.07686 215.129 18.3875L218.335 16.0094C210.478 5.443 198.463 0.253288 182.7 0.17125L182.695 4.17125ZM215.115 18.3693C222.074 27.951 225.657 41.155 225.64 58.195L229.64 58.2158C229.658 40.6559 225.969 26.5219 218.348 16.0276L215.115 18.3693ZM168.491 57.8976C168.483 65.9719 169.275 72.2847 171.015 76.6536L174.73 75.1873C173.278 71.5396 172.483 65.844 172.491 57.9184L168.491 57.8976ZM171.008 76.6379C171.938 79.0307 173.4 80.9419 175.436 82.2379C177.457 83.5235 179.889 84.107 182.614 84.1212L182.618 80.1212C180.443 80.1099 178.801 79.6471 177.574 78.8659C176.362 78.0949 175.403 76.9185 174.736 75.2031L171.008 76.6379ZM182.614 84.1212C185.381 84.1356 187.849 83.5807 189.896 82.3205C191.962 81.0483 193.447 79.1514 194.384 76.7595L190.66 75.2859C189.993 76.9858 189.024 78.1511 187.789 78.9117C186.534 79.6843 184.85 80.1328 182.618 80.1212L182.614 84.1212ZM194.378 76.7752C196.127 72.4244 196.932 66.12 196.94 58.0456L192.94 58.0248C192.932 65.9505 192.126 71.6377 190.666 75.2703L194.378 76.7752ZM196.94 58.0456C196.949 49.8701 196.156 43.4659 194.423 39.0054L190.695 40.4401C192.154 44.1962 192.949 50.0004 192.94 58.0248L196.94 58.0456ZM194.417 38.9896C193.478 36.6311 191.99 34.7604 189.927 33.4986C187.886 32.2503 185.427 31.6856 182.667 31.6712L182.663 35.6712C184.904 35.6829 186.593 36.1398 187.85 36.9086C189.085 37.664 190.045 38.8061 190.701 40.4559L194.417 38.9896ZM182.667 31.6712C179.951 31.6571 177.524 32.1992 175.505 33.4306C173.467 34.6737 171.994 36.528 171.053 38.868L174.766 40.3729C175.429 38.7213 176.384 37.5882 177.598 36.8482C178.831 36.0965 180.48 35.6599 182.663 35.6712L182.667 31.6712ZM171.047 38.8837C169.305 43.3262 168.499 49.722 168.491 57.8976L172.491 57.9184C172.499 49.894 173.305 44.0981 174.772 40.3573L171.047 38.8837ZM92.3661 17.6012L94.3661 17.6116C94.3672 16.507 93.4727 15.607 92.3681 15.6012L92.3661 17.6012ZM92.3378 45.3512L93.9741 46.5079C94.2104 46.1727 94.3373 45.7725 94.3378 45.3616L92.3378 45.3512ZM47.5733 108.869L47.5713 110.869C48.2234 110.872 48.8348 110.557 49.2097 110.025L47.5733 108.869ZM11.7238 108.682L9.72385 108.672C9.72273 109.776 10.6172 110.676 11.7218 110.682L11.7238 108.682ZM11.7878 45.982L13.7878 45.9924C13.7889 44.8878 12.8944 43.9877 11.7898 43.982L11.7878 45.982ZM0.987944 45.9258L-1.01203 45.9154C-1.01316 47.0199 -0.118665 47.92 0.985904 47.9258L0.987944 45.9258ZM1.01732 17.1258L1.01936 15.1258C-0.0852056 15.12 -0.981523 16.0108 -0.98265 17.1154L1.01732 17.1258ZM11.8172 17.182L11.8151 19.182C12.9197 19.1877 13.816 18.297 13.8171 17.1924L11.8172 17.182ZM11.834 0.682005L11.836 -1.31799C10.7315 -1.32374 9.83515 -0.432972 9.83402 0.671596L11.834 0.682005ZM45.4335 0.856869L47.4335 0.867278C47.4346 -0.23729 46.5401 -1.13738 45.4356 -1.14313L45.4335 0.856869ZM45.4167 17.3569L43.4167 17.3465C43.4156 18.451 44.3101 19.3511 45.4147 19.3569L45.4167 17.3569ZM42.6621 70.8928L40.6621 70.8824C40.6612 71.7668 41.2414 72.5493 42.0887 72.8064C42.936 73.0636 43.8492 72.7343 44.3344 71.9968L42.6621 70.8928ZM58.8872 46.2271L60.5594 47.3311C60.9623 46.7186 60.9961 45.9331 60.6474 45.2851C60.2988 44.6371 59.6237 44.2309 58.8892 44.2271L58.8872 46.2271ZM42.6874 46.1428L42.6894 44.1428C41.5849 44.137 40.6885 45.0278 40.6874 46.1324L42.6874 46.1428ZM90.3661 17.5908L90.3378 45.3408L94.3378 45.3616L94.3661 17.6116L90.3661 17.5908ZM90.7014 44.1944L45.937 107.712L49.2097 110.025L93.9741 46.5079L90.7014 44.1944ZM47.5754 106.869L11.7259 106.682L11.7218 110.682L47.5713 110.869L47.5754 106.869ZM13.7238 108.692L13.7878 45.9924L9.78781 45.9716L9.72385 108.672L13.7238 108.692ZM11.7898 43.982L0.989985 43.9258L0.985904 47.9258L11.7857 47.982L11.7898 43.982ZM2.98792 45.9362L3.0173 17.1362L-0.98265 17.1154L-1.01203 45.9154L2.98792 45.9362ZM1.01528 19.1258L11.8151 19.182L11.8192 15.182L1.01936 15.1258L1.01528 19.1258ZM13.8171 17.1924L13.834 0.692413L9.83402 0.671596L9.81719 17.1716L13.8171 17.1924ZM11.832 2.682L45.4315 2.85687L45.4356 -1.14313L11.836 -1.31799L11.832 2.682ZM43.4336 0.84646L43.4167 17.3465L47.4167 17.3673L47.4335 0.867278L43.4336 0.84646ZM45.4147 19.3569L92.364 19.6012L92.3681 15.6012L45.4188 15.3569L45.4147 19.3569ZM44.3344 71.9968L60.5594 47.3311L57.2149 45.1231L40.9899 69.7888L44.3344 71.9968ZM58.8892 44.2271L42.6894 44.1428L42.6853 48.1428L58.8851 48.2271L58.8892 44.2271ZM40.6874 46.1324L40.6621 70.8824L44.6621 70.9032L44.6873 46.1532L40.6874 46.1324Z" fill="url(#paint0_linear_900_8096)"/>
    <defs>
    <linearGradient id="paint0_linear_900_8096" x1="177.253" y1="126.101" x2="185.987" y2="-68.4488" gradientUnits="userSpaceOnUse">
    <stop stop-color="#5226FF" stop-opacity="0.61"/>
    <stop offset="0.705968" stop-color="#1E1317"/>
    </linearGradient>
    </defs>
    </svg>
    