<svg width="471" height="73" viewBox="0 0 471 73" fill="none" xmlns="http://www.w3.org/2000/svg">
<path d="M22.112 55.872H42.656V72H0.8V4.032H22.112V55.872ZM91.7945 21.024V29.376H112.915V45.408H91.7945V55.008H115.795V72H70.4825V4.032H115.795V21.024H91.7945ZM213.394 4.032L190.546 72H162.994L140.146 4.032H162.802L176.818 50.784L190.738 4.032H213.394ZM260.597 21.024V29.376H281.717V45.408H260.597V55.008H284.597V72H239.285V4.032H284.597V21.024H260.597ZM335.061 55.872H355.605V72H313.749V4.032H335.061V55.872ZM420.384 23.808C420.576 16.192 422.784 10.368 427.008 6.336C431.296 2.304 437.344 0.287996 445.152 0.287996C450.208 0.287996 454.528 1.152 458.112 2.88C461.696 4.608 464.384 6.944 466.176 9.888C468.032 12.832 468.96 16.16 468.96 19.872C468.96 24.352 467.904 27.872 465.792 30.432C463.68 32.928 461.312 34.624 458.688 35.52V35.904C466.368 38.784 470.208 44.128 470.208 51.936C470.208 56.032 469.248 59.648 467.328 62.784C465.408 65.92 462.656 68.352 459.072 70.08C455.552 71.808 451.36 72.672 446.496 72.672C438.176 72.672 431.648 70.688 426.912 66.72C422.176 62.752 419.744 56.544 419.616 48.096H440.352C440.224 50.4 440.544 52.16 441.312 53.376C442.144 54.528 443.552 55.104 445.536 55.104C446.688 55.104 447.648 54.688 448.416 53.856C449.184 52.96 449.568 51.808 449.568 50.4C449.568 48.608 448.96 47.264 447.744 46.368C446.592 45.408 444.608 44.928 441.792 44.928H438.24V27.744H441.696C446.048 28 448.224 26.272 448.224 22.56C448.224 20.96 447.872 19.776 447.168 19.008C446.528 18.24 445.696 17.856 444.672 17.856C442.304 17.856 441.12 19.84 441.12 23.808H420.384Z" fill="#131312"/>
<path d="M22.112 55.872H19.112C19.112 57.5289 20.4551 58.872 22.112 58.872V55.872ZM42.656 55.872H45.656C45.656 54.2151 44.3129 52.872 42.656 52.872V55.872ZM42.656 72V75C44.3129 75 45.656 73.6569 45.656 72H42.656ZM0.8 72H-2.2C-2.2 73.6569 -0.856854 75 0.8 75V72ZM0.8 4.032V1.032C-0.856854 1.032 -2.2 2.37514 -2.2 4.032H0.8ZM22.112 4.032H25.112C25.112 2.37514 23.7689 1.032 22.112 1.032V4.032ZM22.112 58.872H42.656V52.872H22.112V58.872ZM39.656 55.872V72H45.656V55.872H39.656ZM42.656 69H0.8V75H42.656V69ZM3.8 72V4.032H-2.2V72H3.8ZM0.8 7.032H22.112V1.032H0.8V7.032ZM19.112 4.032V55.872H25.112V4.032H19.112ZM91.7945 21.024V18.024C90.1376 18.024 88.7945 19.3671 88.7945 21.024H91.7945ZM91.7945 29.376H88.7945C88.7945 31.0329 90.1376 32.376 91.7945 32.376V29.376ZM112.915 29.376H115.915C115.915 27.7191 114.571 26.376 112.915 26.376V29.376ZM112.915 45.408V48.408C114.571 48.408 115.915 47.0648 115.915 45.408H112.915ZM91.7945 45.408V42.408C90.1376 42.408 88.7945 43.7511 88.7945 45.408H91.7945ZM91.7945 55.008H88.7945C88.7945 56.6649 90.1376 58.008 91.7945 58.008V55.008ZM115.795 55.008H118.795C118.795 53.3511 117.451 52.008 115.795 52.008V55.008ZM115.795 72V75C117.451 75 118.795 73.6569 118.795 72H115.795ZM70.4825 72H67.4825C67.4825 73.6569 68.8256 75 70.4825 75V72ZM70.4825 4.032V1.032C68.8256 1.032 67.4825 2.37514 67.4825 4.032H70.4825ZM115.795 4.032H118.795C118.795 2.37514 117.451 1.032 115.795 1.032V4.032ZM115.795 21.024V24.024C117.451 24.024 118.795 22.6809 118.795 21.024H115.795ZM88.7945 21.024V29.376H94.7945V21.024H88.7945ZM91.7945 32.376H112.915V26.376H91.7945V32.376ZM109.915 29.376V45.408H115.915V29.376H109.915ZM112.915 42.408H91.7945V48.408H112.915V42.408ZM88.7945 45.408V55.008H94.7945V45.408H88.7945ZM91.7945 58.008H115.795V52.008H91.7945V58.008ZM112.795 55.008V72H118.795V55.008H112.795ZM115.795 69H70.4825V75H115.795V69ZM73.4825 72V4.032H67.4825V72H73.4825ZM70.4825 7.032H115.795V1.032H70.4825V7.032ZM112.795 4.032V21.024H118.795V4.032H112.795ZM115.795 18.024H91.7945V24.024H115.795V18.024ZM213.394 4.032L216.238 4.98791C216.546 4.07257 216.394 3.06507 215.83 2.28096C215.267 1.49685 214.36 1.032 213.394 1.032V4.032ZM190.546 72V75C191.835 75 192.979 74.1772 193.39 72.9559L190.546 72ZM162.994 72L160.151 72.9559C160.561 74.1772 161.706 75 162.994 75V72ZM140.146 4.032V1.032C139.181 1.032 138.274 1.49685 137.71 2.28096C137.147 3.06507 136.995 4.07257 137.303 4.98791L140.146 4.032ZM162.802 4.032L165.676 3.1705C165.295 1.90127 164.127 1.032 162.802 1.032V4.032ZM176.818 50.784L173.945 51.6455C174.325 52.9157 175.495 53.7852 176.821 53.784C178.147 53.7827 179.315 52.911 179.694 51.6401L176.818 50.784ZM190.738 4.032V1.032C189.411 1.032 188.242 1.90397 187.863 3.17591L190.738 4.032ZM210.551 3.07609L187.703 71.0441L193.39 72.9559L216.238 4.98791L210.551 3.07609ZM190.546 69H162.994V75H190.546V69ZM165.838 71.0441L142.99 3.07609L137.303 4.98791L160.151 72.9559L165.838 71.0441ZM140.146 7.032H162.802V1.032H140.146V7.032ZM159.929 4.8935L173.945 51.6455L179.692 49.9225L165.676 3.1705L159.929 4.8935ZM179.694 51.6401L193.614 4.88808L187.863 3.17591L173.943 49.9279L179.694 51.6401ZM190.738 7.032H213.394V1.032H190.738V7.032ZM260.597 21.024V18.024C258.94 18.024 257.597 19.3671 257.597 21.024H260.597ZM260.597 29.376H257.597C257.597 31.0329 258.94 32.376 260.597 32.376V29.376ZM281.717 29.376H284.717C284.717 27.7191 283.374 26.376 281.717 26.376V29.376ZM281.717 45.408V48.408C283.374 48.408 284.717 47.0648 284.717 45.408H281.717ZM260.597 45.408V42.408C258.94 42.408 257.597 43.7511 257.597 45.408H260.597ZM260.597 55.008H257.597C257.597 56.6649 258.94 58.008 260.597 58.008V55.008ZM284.597 55.008H287.597C287.597 53.3511 286.254 52.008 284.597 52.008V55.008ZM284.597 72V75C286.254 75 287.597 73.6569 287.597 72H284.597ZM239.285 72H236.285C236.285 73.6569 237.628 75 239.285 75V72ZM239.285 4.032V1.032C237.628 1.032 236.285 2.37514 236.285 4.032H239.285ZM284.597 4.032H287.597C287.597 2.37514 286.254 1.032 284.597 1.032V4.032ZM284.597 21.024V24.024C286.254 24.024 287.597 22.6809 287.597 21.024H284.597ZM257.597 21.024V29.376H263.597V21.024H257.597ZM260.597 32.376H281.717V26.376H260.597V32.376ZM278.717 29.376V45.408H284.717V29.376H278.717ZM281.717 42.408H260.597V48.408H281.717V42.408ZM257.597 45.408V55.008H263.597V45.408H257.597ZM260.597 58.008H284.597V52.008H260.597V58.008ZM281.597 55.008V72H287.597V55.008H281.597ZM284.597 69H239.285V75H284.597V69ZM242.285 72V4.032H236.285V72H242.285ZM239.285 7.032H284.597V1.032H239.285V7.032ZM281.597 4.032V21.024H287.597V4.032H281.597ZM284.597 18.024H260.597V24.024H284.597V18.024ZM335.061 55.872H332.061C332.061 57.5289 333.404 58.872 335.061 58.872V55.872ZM355.605 55.872H358.605C358.605 54.2151 357.262 52.872 355.605 52.872V55.872ZM355.605 72V75C357.262 75 358.605 73.6569 358.605 72H355.605ZM313.749 72H310.749C310.749 73.6569 312.092 75 313.749 75V72ZM313.749 4.032V1.032C312.092 1.032 310.749 2.37514 310.749 4.032H313.749ZM335.061 4.032H338.061C338.061 2.37514 336.718 1.032 335.061 1.032V4.032ZM335.061 58.872H355.605V52.872H335.061V58.872ZM352.605 55.872V72H358.605V55.872H352.605ZM355.605 69H313.749V75H355.605V69ZM316.749 72V4.032H310.749V72H316.749ZM313.749 7.032H335.061V1.032H313.749V7.032ZM332.061 4.032V55.872H338.061V4.032H332.061ZM420.384 23.808L417.385 23.7324C417.364 24.5409 417.671 25.3234 418.236 25.9024C418.801 26.4815 419.575 26.808 420.384 26.808V23.808ZM427.008 6.336L424.953 4.15044C424.947 4.15558 424.942 4.16075 424.936 4.16593L427.008 6.336ZM466.176 9.888L463.613 11.4478C463.621 11.4613 463.63 11.4746 463.638 11.4879L466.176 9.888ZM465.792 30.432L468.082 32.3698C468.09 32.3603 468.098 32.3508 468.106 32.3411L465.792 30.432ZM458.688 35.52L457.718 32.6809C456.504 33.0956 455.688 34.2368 455.688 35.52H458.688ZM458.688 35.904H455.688C455.688 37.1545 456.463 38.2739 457.634 38.713L458.688 35.904ZM467.328 62.784L469.886 64.3505L467.328 62.784ZM459.072 70.08L457.769 67.3777C457.762 67.3808 457.756 67.3839 457.75 67.387L459.072 70.08ZM426.912 66.72L428.838 64.4204L426.912 66.72ZM419.616 48.096V45.096C418.812 45.096 418.042 45.4183 417.478 45.9908C416.915 46.5633 416.604 47.338 416.616 48.1414L419.616 48.096ZM440.352 48.096L443.347 48.2624C443.393 47.4391 443.098 46.6333 442.531 46.0344C441.964 45.4354 441.176 45.096 440.352 45.096V48.096ZM441.312 53.376L438.775 54.978C438.808 55.0305 438.843 55.0821 438.88 55.1325L441.312 53.376ZM448.416 53.856L450.62 55.8908C450.645 55.8638 450.67 55.8363 450.694 55.8084L448.416 53.856ZM447.744 46.368L445.823 48.6727C445.869 48.7109 445.916 48.7477 445.964 48.7832L447.744 46.368ZM438.24 44.928H435.24C435.24 46.5849 436.583 47.928 438.24 47.928V44.928ZM438.24 27.744V24.744C436.583 24.744 435.24 26.0871 435.24 27.744H438.24ZM441.696 27.744L441.872 24.7492C441.813 24.7457 441.755 24.744 441.696 24.744V27.744ZM447.168 19.008L444.863 20.9286C444.893 20.9648 444.924 21.0004 444.956 21.0352L447.168 19.008ZM441.12 23.808V26.808C442.777 26.808 444.12 25.4649 444.12 23.808H441.12ZM423.383 23.8836C423.561 16.8095 425.589 11.8379 429.079 8.50607L424.936 4.16593C419.979 8.89807 417.59 15.5745 417.385 23.7324L423.383 23.8836ZM429.063 8.52156C432.633 5.16494 437.852 3.28799 445.152 3.28799V-2.712C436.836 -2.712 429.959 -0.55695 424.953 4.15044L429.063 8.52156ZM445.152 3.28799C449.875 3.28799 453.726 4.09587 456.809 5.5823L459.415 0.177692C455.33 -1.79188 450.541 -2.712 445.152 -2.712V3.28799ZM456.809 5.5823C459.954 7.09871 462.166 9.07096 463.613 11.4478L468.738 8.32816C466.601 4.81703 463.438 2.11729 459.415 0.177692L456.809 5.5823ZM463.638 11.4879C465.172 13.9206 465.96 16.6868 465.96 19.872H471.96C471.96 15.6332 470.892 11.7434 468.714 8.2881L463.638 11.4879ZM465.96 19.872C465.96 23.8992 465.013 26.6624 463.478 28.5229L468.106 32.3411C470.795 29.0816 471.96 24.8048 471.96 19.872H465.96ZM463.502 28.4942C461.677 30.6508 459.743 31.9896 457.718 32.6809L459.657 38.359C462.88 37.2584 465.683 35.2052 468.082 32.3698L463.502 28.4942ZM455.688 35.52V35.904H461.688V35.52H455.688ZM457.634 38.713C461.056 39.9962 463.394 41.7391 464.891 43.8226C466.38 45.8948 467.208 48.5398 467.208 51.936H473.208C473.208 47.5241 472.115 43.5932 469.764 40.3214C467.421 37.0609 463.999 34.6918 459.741 33.095L457.634 38.713ZM467.208 51.936C467.208 55.544 466.368 58.6054 464.769 61.2175L469.886 64.3505C472.127 60.6906 473.208 56.52 473.208 51.936H467.208ZM464.769 61.2175C463.175 63.8218 460.878 65.8785 457.769 67.3777L460.375 72.7823C464.433 70.8255 467.641 68.0182 469.886 64.3505L464.769 61.2175ZM457.75 67.387C454.728 68.8704 451.009 69.672 446.496 69.672V75.672C451.71 75.672 456.375 74.7456 460.394 72.773L457.75 67.387ZM446.496 69.672C438.635 69.672 432.872 67.8002 428.838 64.4204L424.985 69.0196C430.423 73.5758 437.716 75.672 446.496 75.672V69.672ZM428.838 64.4204C424.991 61.1969 422.735 55.9627 422.615 48.0506L416.616 48.1414C416.752 57.1253 419.361 64.3071 424.985 69.0196L428.838 64.4204ZM419.616 51.096H440.352V45.096H419.616V51.096ZM437.356 47.9296C437.213 50.5103 437.527 53.0023 438.775 54.978L443.848 51.774C443.56 51.3177 443.234 50.2897 443.347 48.2624L437.356 47.9296ZM438.88 55.1325C440.479 57.3469 442.998 58.104 445.536 58.104V52.104C444.105 52.104 443.809 51.7091 443.744 51.6195L438.88 55.1325ZM445.536 58.104C447.508 58.104 449.273 57.3502 450.62 55.8908L446.211 51.8212C446.022 52.0258 445.867 52.104 445.536 52.104V58.104ZM450.694 55.8084C452.014 54.2679 452.568 52.3792 452.568 50.4H446.568C446.568 51.2368 446.354 51.6521 446.138 51.9036L450.694 55.8084ZM452.568 50.4C452.568 47.8559 451.655 45.5238 449.523 43.9528L445.964 48.7832C446.264 49.0042 446.568 49.3601 446.568 50.4H452.568ZM449.664 44.0633C447.669 42.4006 444.772 41.928 441.792 41.928V47.928C444.444 47.928 445.515 48.4155 445.823 48.6727L449.664 44.0633ZM441.792 41.928H438.24V47.928H441.792V41.928ZM441.24 44.928V27.744H435.24V44.928H441.24ZM438.24 30.744H441.696V24.744H438.24V30.744ZM441.52 30.7388C444.032 30.8866 446.54 30.512 448.457 28.9893C450.486 27.3786 451.224 25.0014 451.224 22.56H445.224C445.224 23.8306 444.874 24.1734 444.726 24.2907C444.468 24.4959 443.711 24.8574 441.872 24.7492L441.52 30.7388ZM451.224 22.56C451.224 20.598 450.803 18.5339 449.379 16.9808L444.956 21.0352C444.956 21.0353 444.959 21.0386 444.965 21.0464C444.971 21.0544 444.98 21.0682 444.991 21.0895C445.014 21.1322 445.049 21.2074 445.084 21.3269C445.157 21.5736 445.224 21.969 445.224 22.56H451.224ZM449.472 17.0874C448.247 15.6165 446.561 14.856 444.672 14.856V20.856C444.74 20.856 444.779 20.8623 444.796 20.8658C444.812 20.869 444.813 20.8709 444.807 20.8679C444.8 20.8648 444.798 20.8626 444.803 20.8665C444.809 20.871 444.83 20.8883 444.863 20.9286L449.472 17.0874ZM444.672 14.856C442.464 14.856 440.581 15.8801 439.432 17.8066C438.428 19.488 438.12 21.6236 438.12 23.808H444.12C444.12 22.0244 444.403 21.184 444.584 20.8814C444.647 20.7749 444.656 20.8052 444.581 20.8471C444.509 20.8871 444.507 20.856 444.672 20.856V14.856ZM441.12 20.808H420.384V26.808H441.12V20.808Z" fill="url(#paint0_linear_566_8269)"/>
<defs>
<linearGradient id="paint0_linear_566_8269" x1="242" y1="-34" x2="241.899" y2="95.9999" gradientUnits="userSpaceOnUse">
<stop stop-color="white" stop-opacity="0.42"/>
<stop offset="1" stop-color="#131312" stop-opacity="0"/>
</linearGradient>
</defs>
</svg>
