<svg width="473" height="71" viewBox="0 0 473 71" fill="none" xmlns="http://www.w3.org/2000/svg">
    <path d="M34.976 70L22.208 45.616H22.112V70H0.8V2.032H32.48C37.984 2.032 42.688 3.024 46.592 5.008C50.496 6.928 53.408 9.584 55.328 12.976C57.312 16.304 58.304 20.08 58.304 24.304C58.304 28.848 57.024 32.88 54.464 36.4C51.968 39.92 48.352 42.448 43.616 43.984L58.4 70H34.976ZM22.112 31.408H30.56C32.608 31.408 34.144 30.96 35.168 30.064C36.192 29.104 36.704 27.632 36.704 25.648C36.704 23.856 36.16 22.448 35.072 21.424C34.048 20.4 32.544 19.888 30.56 19.888H22.112V31.408ZM107.545 19.024V27.376H128.665V43.408H107.545V53.008H131.545V70H86.2325V2.032H131.545V19.024H107.545ZM187.288 70.672C179.16 70.672 172.44 68.784 167.128 65.008C161.88 61.168 159.032 55.568 158.584 48.208H181.24C181.56 52.112 183.288 54.064 186.424 54.064C187.576 54.064 188.536 53.808 189.304 53.296C190.136 52.72 190.552 51.856 190.552 50.704C190.552 49.104 189.688 47.824 187.96 46.864C186.232 45.84 183.544 44.688 179.896 43.408C175.544 41.872 171.928 40.368 169.048 38.896C166.232 37.424 163.8 35.28 161.752 32.464C159.704 29.648 158.712 26.032 158.776 21.616C158.776 17.2 159.896 13.456 162.136 10.384C164.44 7.248 167.544 4.88 171.448 3.27999C175.416 1.68 179.864 0.879997 184.792 0.879997C193.112 0.879997 199.704 2.8 204.568 6.64C209.496 10.48 212.088 15.888 212.344 22.864H189.4C189.336 20.944 188.856 19.568 187.96 18.736C187.064 17.904 185.976 17.488 184.696 17.488C183.8 17.488 183.064 17.808 182.488 18.448C181.912 19.024 181.624 19.856 181.624 20.944C181.624 22.48 182.456 23.76 184.12 24.784C185.848 25.744 188.568 26.928 192.28 28.336C196.568 29.936 200.088 31.472 202.84 32.944C205.656 34.416 208.088 36.464 210.136 39.088C212.184 41.712 213.208 45.008 213.208 48.976C213.208 53.136 212.184 56.88 210.136 60.208C208.088 63.472 205.112 66.032 201.208 67.888C197.304 69.744 192.664 70.672 187.288 70.672ZM297.4 25.36C297.4 29.648 296.408 33.552 294.424 37.072C292.44 40.528 289.496 43.28 285.592 45.328C281.752 47.376 277.08 48.4 271.576 48.4H263.128V70H241.816V2.032H271.576C279.896 2.032 286.264 4.144 290.68 8.368C295.16 12.592 297.4 18.256 297.4 25.36ZM269.176 31.6C273.592 31.6 275.8 29.52 275.8 25.36C275.8 21.2 273.592 19.12 269.176 19.12H263.128V31.6H269.176ZM323.36 35.92C323.36 29.2 324.704 23.216 327.392 17.968C330.144 12.72 334.048 8.656 339.104 5.776C344.16 2.832 350.112 1.36 356.96 1.36C362.848 1.36 368.096 2.48 372.704 4.72C377.376 6.896 381.152 10 384.032 14.032C386.976 18.064 388.928 22.768 389.888 28.144H367.424C366.4 25.904 364.928 24.176 363.008 22.96C361.152 21.68 359.008 21.04 356.576 21.04C352.992 21.04 350.144 22.384 348.032 25.072C345.984 27.76 344.96 31.376 344.96 35.92C344.96 40.464 345.984 44.08 348.032 46.768C350.144 49.456 352.992 50.8 356.576 50.8C359.008 50.8 361.152 50.192 363.008 48.976C364.928 47.696 366.4 45.936 367.424 43.696H389.888C388.928 49.072 386.976 53.776 384.032 57.808C381.152 61.84 377.376 64.976 372.704 67.216C368.096 69.392 362.848 70.48 356.96 70.48C350.112 70.48 344.16 69.04 339.104 66.16C334.048 63.216 330.144 59.12 327.392 53.872C324.704 48.624 323.36 42.64 323.36 35.92ZM472.057 2.032V18.928H454.009V70H432.697V18.928H414.841V2.032H472.057Z" fill="#131312"/>
    <path d="M34.976 70L32.3183 71.3916C32.836 72.3804 33.8599 73 34.976 73V70ZM22.208 45.616L24.8657 44.2244C24.348 43.2356 23.3241 42.616 22.208 42.616V45.616ZM22.112 45.616V42.616C20.4551 42.616 19.112 43.9591 19.112 45.616H22.112ZM22.112 70V73C23.7689 73 25.112 71.6569 25.112 70H22.112ZM0.8 70H-2.2C-2.2 71.6569 -0.856854 73 0.8 73L0.8 70ZM0.8 2.032V-0.968C-0.856854 -0.968 -2.2 0.375145 -2.2 2.032H0.8ZM46.592 5.008L45.2329 7.68245C45.2445 7.68839 45.2563 7.69426 45.268 7.70004L46.592 5.008ZM55.328 12.976L52.7172 14.4538C52.7283 14.4734 52.7396 14.4929 52.7512 14.5122L55.328 12.976ZM54.464 36.4L52.0378 34.6355C52.0307 34.6452 52.0237 34.6549 52.0168 34.6647L54.464 36.4ZM43.616 43.984L42.6905 41.1303C41.8327 41.4085 41.1455 42.0579 40.8192 42.8986C40.493 43.7393 40.5622 44.6821 41.0077 45.4662L43.616 43.984ZM58.4 70V73C59.4681 73 60.4557 72.4321 60.9929 71.5089C61.5302 70.5857 61.536 69.4465 61.0083 68.5178L58.4 70ZM22.112 31.408H19.112C19.112 33.0649 20.4551 34.408 22.112 34.408V31.408ZM35.168 30.064L37.1435 32.3217C37.1693 32.2991 37.1948 32.2761 37.2198 32.2526L35.168 30.064ZM35.072 21.424L32.9507 23.5453C32.9721 23.5667 32.9938 23.5878 33.0159 23.6086L35.072 21.424ZM22.112 19.888V16.888C20.4551 16.888 19.112 18.2311 19.112 19.888H22.112ZM37.6337 68.6084L24.8657 44.2244L19.5503 47.0076L32.3183 71.3916L37.6337 68.6084ZM22.208 42.616H22.112V48.616H22.208V42.616ZM19.112 45.616V70H25.112V45.616H19.112ZM22.112 67H0.8V73H22.112V67ZM3.8 70V2.032H-2.2V70H3.8ZM0.8 5.032H32.48V-0.968H0.8V5.032ZM32.48 5.032C37.6301 5.032 41.8442 5.96035 45.2329 7.68245L47.9511 2.33354C43.5318 0.0876504 38.3379 -0.968 32.48 -0.968V5.032ZM45.268 7.70004C48.6962 9.38602 51.1283 11.6467 52.7172 14.4538L57.9388 11.4982C55.6877 7.52127 52.2958 4.46998 47.916 2.31595L45.268 7.70004ZM52.7512 14.5122C54.4335 17.3342 55.304 20.5705 55.304 24.304H61.304C61.304 19.5895 60.1905 15.2738 57.9048 11.4398L52.7512 14.5122ZM55.304 24.304C55.304 28.2437 54.2077 31.6518 52.0378 34.6355L56.8902 38.1645C59.8403 34.1082 61.304 29.4523 61.304 24.304H55.304ZM52.0168 34.6647C49.9501 37.5794 46.9104 39.7617 42.6905 41.1303L44.5415 46.8377C49.7936 45.1343 53.9859 42.2606 56.9112 38.1353L52.0168 34.6647ZM41.0077 45.4662L55.7917 71.4822L61.0083 68.5178L46.2243 42.5018L41.0077 45.4662ZM58.4 67H34.976V73H58.4V67ZM22.112 34.408H30.56V28.408H22.112V34.408ZM30.56 34.408C32.9793 34.408 35.3542 33.8874 37.1435 32.3217L33.1925 27.8063C32.9339 28.0326 32.2367 28.408 30.56 28.408V34.408ZM37.2198 32.2526C39.064 30.5237 39.704 28.111 39.704 25.648H33.704C33.704 27.153 33.32 27.6843 33.1162 27.8754L37.2198 32.2526ZM39.704 25.648C39.704 23.2071 38.937 20.9419 37.1281 19.2394L33.0159 23.6086C33.383 23.9541 33.704 24.5049 33.704 25.648H39.704ZM37.1933 19.3027C35.4245 17.5339 33.0385 16.888 30.56 16.888V22.888C32.0495 22.888 32.6715 23.2661 32.9507 23.5453L37.1933 19.3027ZM30.56 16.888H22.112V22.888H30.56V16.888ZM19.112 19.888V31.408H25.112V19.888H19.112ZM107.545 19.024V16.024C105.888 16.024 104.545 17.3671 104.545 19.024H107.545ZM107.545 27.376H104.545C104.545 29.0329 105.888 30.376 107.545 30.376V27.376ZM128.665 27.376H131.665C131.665 25.7191 130.321 24.376 128.665 24.376V27.376ZM128.665 43.408V46.408C130.321 46.408 131.665 45.0649 131.665 43.408H128.665ZM107.545 43.408V40.408C105.888 40.408 104.545 41.7511 104.545 43.408H107.545ZM107.545 53.008H104.545C104.545 54.6649 105.888 56.008 107.545 56.008V53.008ZM131.545 53.008H134.545C134.545 51.3511 133.201 50.008 131.545 50.008V53.008ZM131.545 70V73C133.201 73 134.545 71.6569 134.545 70H131.545ZM86.2325 70H83.2325C83.2325 71.6569 84.5756 73 86.2325 73V70ZM86.2325 2.032V-0.968C84.5756 -0.968 83.2325 0.375145 83.2325 2.032H86.2325ZM131.545 2.032H134.545C134.545 0.375145 133.201 -0.968 131.545 -0.968V2.032ZM131.545 19.024V22.024C133.201 22.024 134.545 20.6809 134.545 19.024H131.545ZM104.545 19.024V27.376H110.545V19.024H104.545ZM107.545 30.376H128.665V24.376H107.545V30.376ZM125.665 27.376V43.408H131.665V27.376H125.665ZM128.665 40.408H107.545V46.408H128.665V40.408ZM104.545 43.408V53.008H110.545V43.408H104.545ZM107.545 56.008H131.545V50.008H107.545V56.008ZM128.545 53.008V70H134.545V53.008H128.545ZM131.545 67H86.2325V73H131.545V67ZM89.2325 70V2.032H83.2325V70H89.2325ZM86.2325 5.032H131.545V-0.968H86.2325V5.032ZM128.545 2.032V19.024H134.545V2.032H128.545ZM131.545 16.024H107.545V22.024H131.545V16.024ZM167.128 65.008L165.357 67.4291C165.368 67.4372 165.379 67.4452 165.39 67.4532L167.128 65.008ZM158.584 48.208V45.208C157.757 45.208 156.966 45.5496 156.399 46.1521C155.833 46.7546 155.54 47.5645 155.59 48.3903L158.584 48.208ZM181.24 48.208L184.23 47.9629C184.103 46.4063 182.802 45.208 181.24 45.208V48.208ZM189.304 53.296L190.968 55.7921C190.983 55.7824 190.997 55.7726 191.012 55.7626L189.304 53.296ZM187.96 46.864L186.431 49.4449C186.455 49.4591 186.479 49.4729 186.503 49.4865L187.96 46.864ZM179.896 43.408L178.898 46.237L178.903 46.2388L179.896 43.408ZM169.048 38.896L167.658 41.5547C167.667 41.5589 167.675 41.5631 167.683 41.5673L169.048 38.896ZM161.752 32.464L164.178 30.6995L164.178 30.6995L161.752 32.464ZM158.776 21.616L161.776 21.6595C161.776 21.645 161.776 21.6305 161.776 21.616L158.776 21.616ZM162.136 10.384L159.719 8.60775L159.712 8.61648L162.136 10.384ZM171.448 3.27999L170.326 0.49767C170.321 0.499792 170.316 0.501929 170.311 0.50408L171.448 3.27999ZM204.568 6.64L202.709 8.99465C202.714 8.99858 202.719 9.0025 202.724 9.0064L204.568 6.64ZM212.344 22.864V25.864C213.159 25.864 213.939 25.5326 214.504 24.9461C215.07 24.3595 215.372 23.5682 215.342 22.754L212.344 22.864ZM189.4 22.864L186.402 22.9639C186.456 24.581 187.782 25.864 189.4 25.864V22.864ZM182.488 18.448L184.61 20.5693C184.647 20.5321 184.683 20.494 184.718 20.4549L182.488 18.448ZM184.12 24.784L182.548 27.339C182.586 27.3623 182.624 27.3848 182.663 27.4065L184.12 24.784ZM192.28 28.336L191.216 31.141C191.221 31.1429 191.226 31.1448 191.231 31.1467L192.28 28.336ZM202.84 32.944L201.425 35.5894C201.434 35.5938 201.442 35.5983 201.45 35.6027L202.84 32.944ZM210.136 39.088L207.771 40.9338L207.771 40.9338L210.136 39.088ZM210.136 60.208L212.677 61.8025C212.682 61.7951 212.687 61.7877 212.691 61.7803L210.136 60.208ZM201.208 67.888L199.92 65.1786L201.208 67.888ZM187.288 67.672C179.628 67.672 173.557 65.8973 168.866 62.5628L165.39 67.4532C171.323 71.6707 178.693 73.672 187.288 73.672V67.672ZM168.9 62.5869C164.474 59.3485 161.981 54.6287 161.579 48.0257L155.59 48.3903C156.084 56.5073 159.286 62.9875 165.357 67.4291L168.9 62.5869ZM158.584 51.208H181.24V45.208H158.584V51.208ZM178.25 48.4531C178.438 50.7429 179.068 52.9375 180.53 54.5885C182.078 56.3376 184.187 57.064 186.424 57.064V51.064C185.525 51.064 185.202 50.8144 185.023 50.6115C184.756 50.3105 184.363 49.5771 184.23 47.9629L178.25 48.4531ZM186.424 57.064C188.021 57.064 189.598 56.7058 190.968 55.7921L187.64 50.7998C187.475 50.9102 187.131 51.064 186.424 51.064V57.064ZM191.012 55.7626C192.775 54.5419 193.552 52.6824 193.552 50.704H187.552C187.552 50.8121 187.542 50.8772 187.536 50.9077C187.53 50.9368 187.527 50.9353 187.537 50.9146C187.548 50.8927 187.564 50.8673 187.583 50.8452C187.602 50.8238 187.611 50.8197 187.597 50.8294L191.012 55.7626ZM193.552 50.704C193.552 47.7425 191.833 45.5839 189.417 44.2415L186.503 49.4865C187.543 50.0641 187.552 50.4655 187.552 50.704H193.552ZM189.49 44.2831C187.5 43.1043 184.587 41.8744 180.89 40.5772L178.903 46.2388C182.502 47.5016 184.964 48.5757 186.431 49.4449L189.49 44.2831ZM180.895 40.579C176.62 39.0703 173.137 37.6165 170.414 36.2247L167.683 41.5673C170.72 43.1195 174.468 44.6736 178.898 46.237L180.895 40.579ZM170.438 36.2373C168.07 34.9994 165.981 33.1779 164.178 30.6995L159.326 34.2285C161.62 37.3821 164.395 39.8486 167.658 41.5547L170.438 36.2373ZM164.178 30.6995C162.604 28.5346 161.719 25.6025 161.776 21.6595L155.777 21.5725C155.706 26.4615 156.804 30.7614 159.326 34.2285L164.178 30.6995ZM161.776 21.616C161.776 17.7291 162.753 14.6305 164.56 12.1515L159.712 8.61648C157.04 12.2815 155.776 16.6709 155.776 21.616H161.776ZM164.554 12.1602C166.504 9.50608 169.148 7.46497 172.586 6.05591L170.311 0.50408C165.941 2.29502 162.377 4.98991 159.719 8.60776L164.554 12.1602ZM172.57 6.06232C176.132 4.62622 180.191 3.88 184.792 3.88V-2.12C179.538 -2.12 174.701 -1.26623 170.326 0.49767L172.57 6.06232ZM184.792 3.88C192.668 3.88 198.531 5.69595 202.709 8.99465L206.427 4.28535C200.878 -0.0959545 193.556 -2.12 184.792 -2.12V3.88ZM202.724 9.0064C206.866 12.2336 209.118 16.7667 209.346 22.974L215.342 22.754C215.058 15.0093 212.127 8.72644 206.412 4.2736L202.724 9.0064ZM212.344 19.864H189.4V25.864H212.344V19.864ZM192.399 22.7641C192.323 20.488 191.743 18.1551 190.002 16.5376L185.919 20.9344C185.969 20.9809 186.35 21.3999 186.402 22.9639L192.399 22.7641ZM190.002 16.5376C188.523 15.1644 186.694 14.488 184.696 14.488V20.488C185.258 20.488 185.606 20.6436 185.919 20.9344L190.002 16.5376ZM184.696 14.488C182.989 14.488 181.429 15.1404 180.258 16.4411L184.718 20.4549C184.732 20.4393 184.734 20.4402 184.722 20.4491C184.716 20.4533 184.708 20.4585 184.699 20.464C184.689 20.4696 184.679 20.4747 184.668 20.4792C184.658 20.4837 184.649 20.4869 184.642 20.4891C184.635 20.4912 184.631 20.492 184.632 20.4919C184.632 20.4919 184.637 20.4909 184.647 20.49C184.657 20.489 184.674 20.488 184.696 20.488V14.488ZM180.367 16.3267C179.059 17.6341 178.624 19.3361 178.624 20.944H184.624C184.624 20.6583 184.663 20.5213 184.675 20.4853C184.681 20.4693 184.68 20.4761 184.667 20.497C184.654 20.5188 184.634 20.5446 184.61 20.5693L180.367 16.3267ZM178.624 20.944C178.624 23.8094 180.273 25.9389 182.548 27.339L185.693 22.229C184.64 21.5811 184.624 21.1506 184.624 20.944H178.624ZM182.663 27.4065C184.589 28.476 187.475 29.722 191.216 31.141L193.344 25.531C189.661 24.134 187.108 23.012 185.577 22.1615L182.663 27.4065ZM191.231 31.1467C195.446 32.7193 198.832 34.2023 201.425 35.5894L204.255 30.2986C201.344 28.7417 197.69 27.1527 193.329 25.5253L191.231 31.1467ZM201.45 35.6027C203.869 36.867 205.974 38.6308 207.771 40.9338L212.501 37.2422C210.203 34.2972 207.443 31.965 204.23 30.2853L201.45 35.6027ZM207.771 40.9338C209.333 42.9344 210.208 45.5438 210.208 48.976H216.208C216.208 44.4722 215.036 40.4895 212.501 37.2422L207.771 40.9338ZM210.208 48.976C210.208 52.6182 209.319 55.8114 207.581 58.6357L212.691 61.7803C215.049 57.9486 216.208 53.6538 216.208 48.976H210.208ZM207.595 58.6135C205.886 61.337 203.374 63.5368 199.92 65.1786L202.496 70.5974C206.851 68.5272 210.29 65.607 212.677 61.8025L207.595 58.6135ZM199.92 65.1786C196.504 66.8025 192.325 67.672 187.288 67.672V73.672C193.004 73.672 198.104 72.6855 202.496 70.5974L199.92 65.1786ZM294.424 37.072L297.026 38.5656C297.03 38.5588 297.034 38.5519 297.038 38.545L294.424 37.072ZM285.592 45.328L284.199 42.6714C284.193 42.6745 284.187 42.6777 284.18 42.6809L285.592 45.328ZM263.128 48.4V45.4C261.471 45.4 260.128 46.7431 260.128 48.4H263.128ZM263.128 70V73C264.785 73 266.128 71.6569 266.128 70H263.128ZM241.816 70H238.816C238.816 71.6569 240.159 73 241.816 73V70ZM241.816 2.032V-0.968C240.159 -0.968 238.816 0.375145 238.816 2.032H241.816ZM290.68 8.368L288.607 10.5359C288.612 10.5409 288.617 10.5458 288.622 10.5508L290.68 8.368ZM263.128 19.12V16.12C261.471 16.12 260.128 17.4631 260.128 19.12H263.128ZM263.128 31.6H260.128C260.128 33.2569 261.471 34.6 263.128 34.6V31.6ZM294.4 25.36C294.4 29.1646 293.526 32.5562 291.811 35.599L297.038 38.545C299.291 34.5478 300.4 30.1314 300.4 25.36H294.4ZM291.822 35.5784C290.152 38.488 287.653 40.8592 284.199 42.6714L286.986 47.9846C291.339 45.7008 294.728 42.568 297.026 38.5656L291.822 35.5784ZM284.18 42.6809C280.875 44.4439 276.715 45.4 271.576 45.4V51.4C277.445 51.4 282.629 50.3081 287.004 47.9751L284.18 42.6809ZM271.576 45.4H263.128V51.4H271.576V45.4ZM260.128 48.4V70H266.128V48.4H260.128ZM263.128 67H241.816V73H263.128V67ZM244.816 70V2.032H238.816V70H244.816ZM241.816 5.032H271.576V-0.968H241.816V5.032ZM271.576 5.032C279.408 5.032 284.925 7.01463 288.607 10.5359L292.754 6.20007C287.603 1.27337 280.384 -0.968 271.576 -0.968V5.032ZM288.622 10.5508C292.407 14.1192 294.4 18.9433 294.4 25.36H300.4C300.4 17.5687 297.914 11.0648 292.738 6.18523L288.622 10.5508ZM269.176 34.6C271.804 34.6 274.332 33.9847 276.201 32.2237C278.104 30.431 278.8 27.9498 278.8 25.36H272.8C272.8 26.9302 272.392 27.569 272.087 27.8563C271.749 28.1753 270.965 28.6 269.176 28.6V34.6ZM278.8 25.36C278.8 22.7702 278.104 20.289 276.201 18.4963C274.332 16.7353 271.804 16.12 269.176 16.12V22.12C270.965 22.12 271.749 22.5447 272.087 22.8637C272.392 23.151 272.8 23.7897 272.8 25.36H278.8ZM269.176 16.12H263.128V22.12H269.176V16.12ZM260.128 19.12V31.6H266.128V19.12H260.128ZM263.128 34.6H269.176V28.6H263.128V34.6ZM327.392 17.968L324.735 16.5748C324.731 16.5833 324.726 16.5918 324.722 16.6004L327.392 17.968ZM339.104 5.776L340.589 8.38275C340.597 8.37805 340.605 8.37331 340.614 8.36852L339.104 5.776ZM372.704 4.72L371.392 7.4181C371.407 7.42536 371.422 7.43249 371.437 7.4395L372.704 4.72ZM384.032 14.032L381.591 15.7757C381.597 15.7842 381.603 15.7927 381.609 15.8011L384.032 14.032ZM389.888 28.144V31.144C390.776 31.144 391.618 30.7507 392.188 30.0699C392.758 29.3891 392.997 28.4907 392.841 27.6166L389.888 28.144ZM367.424 28.144L364.696 29.3913C365.184 30.4591 366.25 31.144 367.424 31.144V28.144ZM363.008 22.96L361.305 25.4296C361.337 25.4519 361.37 25.4735 361.403 25.4945L363.008 22.96ZM348.032 25.072L345.673 23.2185C345.664 23.2302 345.655 23.242 345.646 23.2539L348.032 25.072ZM348.032 46.768L345.646 48.5861C345.655 48.598 345.664 48.6098 345.673 48.6215L348.032 46.768ZM363.008 48.976L364.652 51.4854C364.659 51.481 364.665 51.4766 364.672 51.4721L363.008 48.976ZM367.424 43.696V40.696C366.25 40.696 365.184 41.3809 364.696 42.4487L367.424 43.696ZM389.888 43.696L392.841 44.2234C392.997 43.3493 392.758 42.4509 392.188 41.7701C391.618 41.0893 390.776 40.696 389.888 40.696V43.696ZM384.032 57.808L381.609 56.0389C381.603 56.0473 381.597 56.0558 381.591 56.0643L384.032 57.808ZM372.704 67.216L373.985 69.9287C373.99 69.9262 373.996 69.9237 374.001 69.9211L372.704 67.216ZM339.104 66.16L337.594 68.7525C337.603 68.7573 337.611 68.7621 337.619 68.7668L339.104 66.16ZM327.392 53.872L324.722 55.2396C324.726 55.2482 324.731 55.2567 324.735 55.2652L327.392 53.872ZM326.36 35.92C326.36 29.6087 327.62 24.1046 330.062 19.3356L324.722 16.6004C321.789 22.3274 320.36 28.7913 320.36 35.92H326.36ZM330.049 19.3612C332.54 14.6116 336.041 10.9732 340.589 8.38275L337.619 3.16924C332.055 6.3388 327.748 10.8284 324.735 16.5748L330.049 19.3612ZM340.614 8.36852C345.138 5.73385 350.551 4.36 356.96 4.36V-1.64C349.673 -1.64 343.182 -0.069855 337.594 3.18347L340.614 8.36852ZM356.96 4.36C362.461 4.36 367.25 5.40444 371.392 7.4181L374.016 2.0219C368.942 -0.444447 363.235 -1.64 356.96 -1.64V4.36ZM371.437 7.4395C375.66 9.40613 379.024 12.1821 381.591 15.7757L386.473 12.2883C383.28 7.81789 379.092 4.38587 373.971 2.0005L371.437 7.4395ZM381.609 15.8011C384.26 19.4313 386.047 23.7014 386.935 28.6714L392.841 27.6166C391.809 21.8346 389.692 16.6967 386.455 12.2629L381.609 15.8011ZM389.888 25.144H367.424V31.144H389.888V25.144ZM370.152 26.8967C368.908 24.1741 367.066 21.9788 364.613 20.4255L361.403 25.4945C362.79 26.3732 363.892 27.6339 364.696 29.3913L370.152 26.8967ZM364.711 20.4904C362.315 18.8375 359.566 18.04 356.576 18.04V24.04C358.45 24.04 359.99 24.5225 361.305 25.4296L364.711 20.4904ZM356.576 18.04C352.123 18.04 348.385 19.767 345.673 23.2185L350.391 26.9255C351.903 25.001 353.861 24.04 356.576 24.04V18.04ZM345.646 23.2539C343.082 26.6186 341.96 30.9437 341.96 35.92H347.96C347.96 31.8083 348.886 28.9014 350.418 26.8901L345.646 23.2539ZM341.96 35.92C341.96 40.8963 343.082 45.2214 345.646 48.5861L350.418 44.9499C348.886 42.9386 347.96 40.0317 347.96 35.92H341.96ZM345.673 48.6215C348.385 52.073 352.123 53.8 356.576 53.8V47.8C353.861 47.8 351.903 46.839 350.391 44.9145L345.673 48.6215ZM356.576 53.8C359.534 53.8 362.261 53.052 364.652 51.4854L361.364 46.4666C360.043 47.3319 358.482 47.8 356.576 47.8V53.8ZM364.672 51.4721C367.088 49.8618 368.913 47.6548 370.152 44.9433L364.696 42.4487C363.887 44.2172 362.768 45.5302 361.344 46.4798L364.672 51.4721ZM367.424 46.696H389.888V40.696H367.424V46.696ZM386.935 43.1686C386.047 48.1386 384.26 52.4087 381.609 56.0389L386.455 59.5771C389.692 55.1433 391.809 50.0054 392.841 44.2234L386.935 43.1686ZM381.591 56.0643C379.019 59.6653 375.644 62.4793 371.407 64.5109L374.001 69.9211C379.108 67.4727 383.285 64.0147 386.473 59.5517L381.591 56.0643ZM371.423 64.5033C367.273 66.4628 362.474 67.48 356.96 67.48V73.48C363.222 73.48 368.919 72.3212 373.985 69.9287L371.423 64.5033ZM356.96 67.48C350.54 67.48 345.118 66.1332 340.589 63.5532L337.619 68.7668C343.202 71.9468 349.684 73.48 356.96 73.48V67.48ZM340.614 63.5675C336.052 60.9112 332.542 57.2339 330.049 52.4788L324.735 55.2652C327.746 61.0061 332.044 65.5208 337.594 68.7525L340.614 63.5675ZM330.062 52.5044C327.62 47.7354 326.36 42.2313 326.36 35.92H320.36C320.36 43.0487 321.789 49.5126 324.722 55.2396L330.062 52.5044ZM472.057 2.032H475.057C475.057 0.375145 473.714 -0.968 472.057 -0.968V2.032ZM472.057 18.928V21.928C473.714 21.928 475.057 20.5849 475.057 18.928H472.057ZM454.009 18.928V15.928C452.352 15.928 451.009 17.2711 451.009 18.928H454.009ZM454.009 70V73C455.666 73 457.009 71.6569 457.009 70H454.009ZM432.697 70H429.697C429.697 71.6569 431.04 73 432.697 73V70ZM432.697 18.928H435.697C435.697 17.2711 434.354 15.928 432.697 15.928V18.928ZM414.841 18.928H411.841C411.841 20.5849 413.184 21.928 414.841 21.928V18.928ZM414.841 2.032V-0.968C413.184 -0.968 411.841 0.375145 411.841 2.032H414.841ZM469.057 2.032V18.928H475.057V2.032H469.057ZM472.057 15.928H454.009V21.928H472.057V15.928ZM451.009 18.928V70H457.009V18.928H451.009ZM454.009 67H432.697V73H454.009V67ZM435.697 70V18.928H429.697V70H435.697ZM432.697 15.928H414.841V21.928H432.697V15.928ZM417.841 18.928V2.032H411.841V18.928H417.841ZM414.841 5.032H472.057V-0.968H414.841V5.032Z" fill="url(#paint0_linear_1001_8071)"/>
    <defs>
    <linearGradient id="paint0_linear_1001_8071" x1="242" y1="-36" x2="241.899" y2="93.9999" gradientUnits="userSpaceOnUse">
    <stop stop-color="white" stop-opacity="0.42"/>
    <stop offset="1" stop-color="#131312" stop-opacity="0"/>
    </linearGradient>
    </defs>
    </svg>
    