<svg width="1180" height="219" viewBox="0 0 1180 219" fill="none" xmlns="http://www.w3.org/2000/svg">
<path d="M67.4809 165.6H131.681V216H0.88086V3.6H67.4809V165.6ZM322.139 218.1C302.139 218.1 283.739 213.4 266.939 204C250.339 194.6 237.139 181.6 227.339 165C217.539 148.4 212.639 129.7 212.639 108.9C212.639 88.1 217.539 69.4 227.339 52.8C237.139 36.2 250.339 23.3 266.939 14.1C283.739 4.69999 302.139 -8.58307e-06 322.139 -8.58307e-06C342.139 -8.58307e-06 360.439 4.69999 377.039 14.1C393.639 23.3 406.739 36.2 416.339 52.8C426.139 69.4 431.039 88.1 431.039 108.9C431.039 129.7 426.139 148.4 416.339 165C406.739 181.6 393.539 194.6 376.739 204C360.139 213.4 341.939 218.1 322.139 218.1ZM322.139 156C335.339 156 345.539 151.8 352.739 143.4C359.939 134.8 363.539 123.3 363.539 108.9C363.539 94.3 359.939 82.8 352.739 74.4C345.539 65.8 335.339 61.5 322.139 61.5C308.739 61.5 298.439 65.8 291.239 74.4C284.039 82.8 280.439 94.3 280.439 108.9C280.439 123.3 284.039 134.8 291.239 143.4C298.439 151.8 308.739 156 322.139 156ZM651.264 76.2C648.664 72 644.964 68.8 640.164 66.6C635.364 64.2 629.564 63 622.764 63C609.964 63 600.064 67.2 593.064 75.6C586.064 83.8 582.564 95.1 582.564 109.5C582.564 126.1 586.464 138.5 594.264 146.7C602.064 154.9 614.064 159 630.264 159C645.664 159 658.064 152.8 667.464 140.4H614.364V93.3H722.664V159.9C713.464 175.7 700.764 189.3 684.564 200.7C668.364 211.9 647.864 217.5 623.064 217.5C601.064 217.5 581.864 213 565.464 204C549.264 194.8 536.764 182 527.964 165.6C519.364 149.2 515.064 130.5 515.064 109.5C515.064 88.5 519.364 69.8 527.964 53.4C536.764 37 549.264 24.3 565.464 15.3C581.664 6.09999 600.664 1.49999 622.464 1.49999C650.264 1.49999 672.864 8.19999 690.264 21.6C707.864 35 718.264 53.2 721.464 76.2H651.264ZM879.25 3.6V216H812.65V3.6H879.25ZM1179.03 216H1112.43L1041.93 109.2V216H975.33V3.6H1041.93L1112.43 112.2V3.6H1179.03V216Z" fill="#131312"/>
<path d="M67.4809 165.6H62.4809C62.4809 168.361 64.7195 170.6 67.4809 170.6V165.6ZM131.681 165.6H136.681C136.681 162.839 134.442 160.6 131.681 160.6V165.6ZM131.681 216V221C134.442 221 136.681 218.761 136.681 216H131.681ZM0.880859 216H-4.11914C-4.11914 218.761 -1.88055 221 0.880859 221V216ZM0.880859 3.6V-1.4C-1.88055 -1.4 -4.11914 0.838577 -4.11914 3.6H0.880859ZM67.4809 3.6H72.4808C72.4808 0.838577 70.2423 -1.4 67.4809 -1.4V3.6ZM67.4809 170.6H131.681V160.6H67.4809V170.6ZM126.681 165.6V216H136.681V165.6H126.681ZM131.681 211H0.880859V221H131.681V211ZM5.88086 216V3.6H-4.11914V216H5.88086ZM0.880859 8.6H67.4809V-1.4H0.880859V8.6ZM62.4809 3.6V165.6H72.4808V3.6H62.4809ZM266.939 204L264.475 208.351C264.482 208.355 264.49 208.359 264.497 208.363L266.939 204ZM227.339 165L223.033 167.542L227.339 165ZM266.939 14.1L269.362 18.4733C269.368 18.47 269.374 18.4667 269.38 18.4634L266.939 14.1ZM377.039 14.1L374.575 18.4509C374.588 18.4584 374.602 18.4659 374.615 18.4733L377.039 14.1ZM416.339 52.8L412.01 55.3031C412.018 55.3161 412.025 55.329 412.033 55.3419L416.339 52.8ZM416.339 165L412.033 162.458C412.025 162.471 412.018 162.484 412.01 162.497L416.339 165ZM376.739 204L374.297 199.637C374.29 199.641 374.282 199.645 374.275 199.649L376.739 204ZM352.739 143.4L356.535 146.654C356.548 146.639 356.56 146.625 356.572 146.61L352.739 143.4ZM352.739 74.4L348.905 77.6097C348.917 77.6245 348.93 77.6393 348.942 77.6539L352.739 74.4ZM291.239 74.4L295.035 77.6539C295.048 77.6393 295.06 77.6245 295.072 77.6097L291.239 74.4ZM291.239 143.4L287.405 146.61C287.417 146.625 287.43 146.639 287.442 146.654L291.239 143.4ZM322.139 213.1C302.959 213.1 285.404 208.603 269.38 199.637L264.497 208.363C282.073 218.197 301.318 223.1 322.139 223.1V213.1ZM269.402 199.649C253.573 190.685 241.004 178.313 231.644 162.458L223.033 167.542C233.273 184.887 247.105 198.515 264.475 208.351L269.402 199.649ZM231.644 162.458C222.335 146.689 217.639 128.879 217.639 108.9H207.639C207.639 130.521 212.743 150.111 223.033 167.542L231.644 162.458ZM217.639 108.9C217.639 88.921 222.335 71.1113 231.644 55.3419L223.033 50.2581C212.743 67.6887 207.639 87.2789 207.639 108.9H217.639ZM231.644 55.3419C240.999 39.4964 253.554 27.2343 269.362 18.4733L264.515 9.72672C247.123 19.3657 233.278 32.9035 223.033 50.2581L231.644 55.3419ZM269.38 18.4634C285.404 9.4974 302.959 4.99999 322.139 4.99999V-5.00001C301.318 -5.00001 282.073 -0.0974121 264.497 9.73657L269.38 18.4634ZM322.139 4.99999C341.319 4.99999 358.763 9.49725 374.575 18.4509L379.502 9.74913C362.114 -0.0972672 342.959 -5.00001 322.139 -5.00001V4.99999ZM374.615 18.4733C390.414 27.2292 402.859 39.479 412.01 55.3031L420.667 50.2969C410.618 32.921 396.864 19.3708 379.462 9.72672L374.615 18.4733ZM412.033 55.3419C421.343 71.1113 426.039 88.921 426.039 108.9H436.039C436.039 87.2789 430.935 67.6887 420.644 50.2581L412.033 55.3419ZM426.039 108.9C426.039 128.879 421.343 146.689 412.033 162.458L420.644 167.542C430.935 150.111 436.039 130.521 436.039 108.9H426.039ZM412.01 162.497C402.862 178.315 390.316 190.674 374.297 199.637L379.18 208.363C396.762 198.526 410.615 184.885 420.667 167.503L412.01 162.497ZM374.275 199.649C358.456 208.607 341.109 213.1 322.139 213.1V223.1C342.768 223.1 361.822 218.193 379.202 208.351L374.275 199.649ZM322.139 161C336.488 161 348.2 156.378 356.535 146.654L348.942 140.146C342.877 147.222 334.189 151 322.139 151V161ZM356.572 146.61C364.719 136.88 368.539 124.134 368.539 108.9H358.539C358.539 122.466 355.159 132.72 348.905 140.19L356.572 146.61ZM368.539 108.9C368.539 93.4932 364.731 80.7081 356.535 71.146L348.942 77.6539C355.146 84.8919 358.539 95.1068 358.539 108.9H368.539ZM356.572 71.1903C348.251 61.2504 336.528 56.5 322.139 56.5V66.5C334.149 66.5 342.827 70.3496 348.905 77.6097L356.572 71.1903ZM322.139 56.5C307.577 56.5 295.742 61.2324 287.405 71.1903L295.072 77.6097C301.136 70.3676 309.901 66.5 322.139 66.5V56.5ZM287.442 71.146C279.246 80.7081 275.439 93.4932 275.439 108.9H285.439C285.439 95.1068 288.831 84.8919 295.035 77.6539L287.442 71.146ZM275.439 108.9C275.439 124.134 279.259 136.88 287.405 146.61L295.072 140.19C288.818 132.72 285.439 122.466 285.439 108.9H275.439ZM287.442 146.654C295.792 156.395 307.616 161 322.139 161V151C309.861 151 301.085 147.205 295.035 140.146L287.442 146.654ZM651.264 76.2L647.013 78.8318C647.925 80.3041 649.533 81.2 651.264 81.2V76.2ZM640.164 66.6L637.928 71.0721C637.979 71.0974 638.03 71.1218 638.081 71.1453L640.164 66.6ZM593.064 75.6L596.867 78.8463C596.88 78.8313 596.893 78.8161 596.906 78.8009L593.064 75.6ZM594.264 146.7L590.642 150.146H590.642L594.264 146.7ZM667.464 140.4L671.449 143.421C672.596 141.908 672.787 139.876 671.942 138.175C671.098 136.475 669.363 135.4 667.464 135.4V140.4ZM614.365 140.4H609.365C609.365 143.161 611.603 145.4 614.365 145.4V140.4ZM614.365 93.3V88.3C611.603 88.3 609.365 90.5386 609.365 93.3H614.365ZM722.664 93.3H727.664C727.664 90.5386 725.426 88.3 722.664 88.3V93.3ZM722.664 159.9L726.985 162.416C727.43 161.652 727.664 160.784 727.664 159.9H722.664ZM684.564 200.7L687.408 204.813C687.419 204.805 687.431 204.797 687.442 204.789L684.564 200.7ZM565.464 204L562.995 208.348C563.016 208.36 563.038 208.372 563.059 208.383L565.464 204ZM527.964 165.6L523.536 167.922C523.544 167.936 523.551 167.95 523.559 167.964L527.964 165.6ZM527.964 53.4L523.559 51.0359C523.551 51.0499 523.544 51.0639 523.536 51.0779L527.964 53.4ZM565.464 15.3L567.893 19.6708C567.906 19.6632 567.92 19.6555 567.934 19.6478L565.464 15.3ZM690.264 21.6L687.214 25.5614C687.221 25.567 687.228 25.5726 687.236 25.5782L690.264 21.6ZM721.464 76.2V81.2C722.911 81.2 724.286 80.5738 725.236 79.4829C726.185 78.392 726.616 76.9435 726.417 75.511L721.464 76.2ZM655.516 73.5682C652.361 68.4722 647.878 64.6354 642.248 62.0547L638.081 71.1453C642.051 72.9646 644.968 75.5278 647.013 78.8318L655.516 73.5682ZM642.401 62.1279C636.746 59.3006 630.139 58 622.764 58V68C628.99 68 633.983 69.0994 637.928 71.0721L642.401 62.1279ZM622.764 58C608.762 58 597.34 62.6592 589.223 72.3991L596.906 78.8009C602.789 71.7408 611.167 68 622.764 68V58ZM589.262 72.3537C581.262 81.7243 577.564 94.3129 577.564 109.5H587.564C587.564 95.8871 590.867 85.8757 596.867 78.8463L589.262 72.3537ZM577.564 109.5C577.564 126.79 581.62 140.661 590.642 150.146L597.887 143.254C591.309 136.339 587.564 125.41 587.564 109.5H577.564ZM590.642 150.146C599.731 159.702 613.294 164 630.264 164V154C614.835 154 604.398 150.098 597.887 143.254L590.642 150.146ZM630.264 164C647.248 164 661.115 157.052 671.449 143.421L663.48 137.379C655.014 148.548 644.081 154 630.264 154V164ZM667.464 135.4H614.365V145.4H667.464V135.4ZM619.365 140.4V93.3H609.365V140.4H619.365ZM614.365 98.3H722.664V88.3H614.365V98.3ZM717.664 93.3V159.9H727.664V93.3H717.664ZM718.344 157.384C709.535 172.511 697.348 185.59 681.687 196.611L687.442 204.789C704.181 193.01 717.394 178.889 726.985 162.416L718.344 157.384ZM681.721 196.587C666.55 207.076 647.113 212.5 623.064 212.5V222.5C648.616 222.5 670.178 216.724 687.408 204.813L681.721 196.587ZM623.064 212.5C601.757 212.5 583.413 208.146 567.87 199.617L563.059 208.383C580.316 217.854 600.372 222.5 623.064 222.5V212.5ZM567.934 199.652C552.552 190.917 540.724 178.804 532.37 163.236L523.559 167.964C532.805 185.196 545.977 198.683 562.995 208.348L567.934 199.652ZM532.393 163.278C524.216 147.685 520.064 129.801 520.064 109.5H510.064C510.064 131.199 514.513 150.715 523.536 167.922L532.393 163.278ZM520.064 109.5C520.064 89.1994 524.216 71.3146 532.393 55.722L523.536 51.0779C514.513 68.2854 510.064 87.8006 510.064 109.5H520.064ZM532.37 55.7641C540.719 40.2048 552.534 28.2031 567.893 19.6708L563.036 10.9292C545.995 20.3968 532.81 33.7951 523.559 51.0359L532.37 55.7641ZM567.934 19.6478C583.262 10.943 601.382 6.49999 622.464 6.49999V-3.50001C599.947 -3.50001 580.067 1.25698 562.995 10.9522L567.934 19.6478ZM622.464 6.49999C649.458 6.49999 670.898 12.9963 687.214 25.5614L693.315 17.6386C674.831 3.40373 651.071 -3.50001 622.464 -3.50001V6.49999ZM687.236 25.5782C703.729 38.1355 713.484 55.124 716.512 76.889L726.417 75.511C723.045 51.276 712 31.8645 693.293 17.6218L687.236 25.5782ZM721.464 71.2H651.264V81.2H721.464V71.2ZM879.25 3.6H884.25C884.25 0.838577 882.012 -1.4 879.25 -1.4V3.6ZM879.25 216V221C882.012 221 884.25 218.761 884.25 216H879.25ZM812.65 216H807.65C807.65 218.761 809.889 221 812.65 221V216ZM812.65 3.6V-1.4C809.889 -1.4 807.65 0.838577 807.65 3.6H812.65ZM874.25 3.6V216H884.25V3.6H874.25ZM879.25 211H812.65V221H879.25V211ZM817.65 216V3.6H807.65V216H817.65ZM812.65 8.6H879.25V-1.4H812.65V8.6ZM1179.03 216V221C1181.79 221 1184.03 218.761 1184.03 216H1179.03ZM1112.43 216L1108.26 218.755C1109.18 220.156 1110.75 221 1112.43 221V216ZM1041.93 109.2L1046.1 106.445C1044.89 104.603 1042.61 103.776 1040.49 104.411C1038.38 105.046 1036.93 106.992 1036.93 109.2H1041.93ZM1041.93 216V221C1044.69 221 1046.93 218.761 1046.93 216H1041.93ZM975.33 216H970.33C970.33 218.761 972.569 221 975.33 221V216ZM975.33 3.6V-1.4C972.569 -1.4 970.33 0.838577 970.33 3.6H975.33ZM1041.93 3.6L1046.12 0.877502C1045.2 -0.54287 1043.62 -1.4 1041.93 -1.4V3.6ZM1112.43 112.2L1108.24 114.923C1109.44 116.78 1111.73 117.623 1113.85 116.994C1115.97 116.365 1117.43 114.415 1117.43 112.2H1112.43ZM1112.43 3.6V-1.4C1109.67 -1.4 1107.43 0.838577 1107.43 3.6H1112.43ZM1179.03 3.6H1184.03C1184.03 0.838577 1181.79 -1.4 1179.03 -1.4V3.6ZM1179.03 211H1112.43V221H1179.03V211ZM1116.6 213.245L1046.1 106.445L1037.76 111.955L1108.26 218.755L1116.6 213.245ZM1036.93 109.2V216H1046.93V109.2H1036.93ZM1041.93 211H975.33V221H1041.93V211ZM980.33 216V3.6H970.33V216H980.33ZM975.33 8.6H1041.93V-1.4H975.33V8.6ZM1037.74 6.32249L1108.24 114.923L1116.62 109.477L1046.12 0.877502L1037.74 6.32249ZM1117.43 112.2V3.6H1107.43V112.2H1117.43ZM1112.43 8.6H1179.03V-1.4H1112.43V8.6ZM1174.03 3.6V216H1184.03V3.6H1174.03Z" fill="url(#paint0_linear_905_7922)"/>
<defs>
<linearGradient id="paint0_linear_905_7922" x1="590" y1="-114" x2="583.521" y2="410.42" gradientUnits="userSpaceOnUse">
<stop stop-color="#F8911E"/>
<stop offset="0.878481" stop-opacity="0"/>
</linearGradient>
</defs>
</svg>
