<svg width="101" height="150" viewBox="0 0 101 150" fill="none" xmlns="http://www.w3.org/2000/svg">
<path d="M0.35 88.5H-3.65V92.5H0.35V88.5ZM0.35 67.8L-2.92829 65.5081L-3.65 66.5404V67.8H0.35ZM47.75 -3.8147e-06V-4H45.6659L44.4717 -2.2919L47.75 -3.8147e-06ZM76.4 -3.8147e-06H80.4V-4H76.4V-3.8147e-06ZM76.4 66.3H72.4V70.3H76.4V66.3ZM88.7 66.3H92.7V62.3H88.7V66.3ZM88.7 88.5V92.5H92.7V88.5H88.7ZM76.4 88.5V84.5H72.4V88.5H76.4ZM76.4 108V112H80.4V108H76.4ZM50.75 108H46.75V112H50.75V108ZM50.75 88.5H54.75V84.5H50.75V88.5ZM52.55 28.2H56.55V14.9016L49.2137 25.9933L52.55 28.2ZM27.35 66.3L24.0137 64.0933L19.9085 70.3H27.35V66.3ZM52.55 66.3V70.3H56.55V66.3H52.55ZM4.35 88.5V67.8H-3.65V88.5H4.35ZM3.62829 70.0919L51.0283 2.2919L44.4717 -2.2919L-2.92829 65.5081L3.62829 70.0919ZM47.75 4H76.4V-4H47.75V4ZM72.4 -3.8147e-06V66.3H80.4V-3.8147e-06H72.4ZM76.4 70.3H88.7V62.3H76.4V70.3ZM84.7 66.3V88.5H92.7V66.3H84.7ZM88.7 84.5H76.4V92.5H88.7V84.5ZM72.4 88.5V108H80.4V88.5H72.4ZM76.4 104H50.75V112H76.4V104ZM54.75 108V88.5H46.75V108H54.75ZM50.75 84.5H0.35V92.5H50.75V84.5ZM49.2137 25.9933L24.0137 64.0933L30.6863 68.5067L55.8863 30.4067L49.2137 25.9933ZM27.35 70.3H52.55V62.3H27.35V70.3ZM56.55 66.3V28.2H48.55V66.3H56.55Z" fill="url(#paint0_linear_260_6169)"/>
<path d="M12.99 145.04H11.99V146.04H12.99V145.04ZM19.71 145.04H20.71V144.04H19.71V145.04ZM19.71 149V150H20.71V149H19.71ZM7.86 149H6.86V150H7.86V149ZM7.86 127.94V126.94H6.86V127.94H7.86ZM12.99 127.94H13.99V126.94H12.99V127.94ZM12.99 146.04H19.71V144.04H12.99V146.04ZM18.71 145.04V149H20.71V145.04H18.71ZM19.71 148H7.86V150H19.71V148ZM8.86 149V127.94H6.86V149H8.86ZM7.86 128.94H12.99V126.94H7.86V128.94ZM11.99 127.94V145.04H13.99V127.94H11.99ZM37.8469 141.86V142.86H38.7381L38.8403 141.975L37.8469 141.86ZM26.2369 141.86V140.86H25.157L25.2398 141.937L26.2369 141.86ZM27.2269 144.26L26.5323 144.979L26.5449 144.992L26.5579 145.003L27.2269 144.26ZM32.0869 143.45V142.45H31.4479L31.1794 143.03L32.0869 143.45ZM37.5469 143.45L38.516 143.697L38.8333 142.45H37.5469V143.45ZM36.0169 146.42L35.2514 145.776L35.2429 145.787L36.0169 146.42ZM33.2869 148.49L33.7007 149.4L33.2869 148.49ZM25.2169 148.19L24.7371 149.067L25.2169 148.19ZM22.2169 145.19L23.0917 144.705L22.2169 145.19ZM22.1869 136.07L21.312 135.585L21.3064 135.596L22.1869 136.07ZM25.1869 133.07L25.6667 133.947L25.1869 133.07ZM33.9169 133.04L33.4419 133.92L33.4419 133.92L33.9169 133.04ZM36.8569 135.95L35.9827 136.436L35.9886 136.446L36.8569 135.95ZM32.6869 139.01V140.01H33.6869V139.01H32.6869ZM31.7869 136.91L32.4418 136.154L31.7869 136.91ZM27.3469 136.88L26.7067 136.112L26.7003 136.117L26.6939 136.123L27.3469 136.88ZM26.2669 139.01L25.2783 138.86L25.1032 140.01H26.2669V139.01ZM36.9369 140.36C36.9369 140.798 36.9095 141.26 36.8535 141.745L38.8403 141.975C38.9043 141.42 38.9369 140.882 38.9369 140.36H36.9369ZM37.8469 140.86H26.2369V142.86H37.8469V140.86ZM25.2398 141.937C25.3329 143.147 25.7295 144.204 26.5323 144.979L27.9215 143.541C27.5642 143.196 27.3008 142.653 27.2339 141.783L25.2398 141.937ZM26.5579 145.003C27.3542 145.72 28.3275 146.07 29.4169 146.07V144.07C28.7863 144.07 28.2995 143.88 27.8958 143.517L26.5579 145.003ZM29.4169 146.07C30.1979 146.07 30.9294 145.904 31.5631 145.52C32.2015 145.133 32.6732 144.564 32.9943 143.87L31.1794 143.03C31.0006 143.416 30.7773 143.657 30.5256 143.81C30.2694 143.966 29.9159 144.07 29.4169 144.07V146.07ZM32.0869 144.45H37.5469V142.45H32.0869V144.45ZM36.5778 143.203C36.3354 144.155 35.8959 145.01 35.2515 145.776L36.7822 147.064C37.6179 146.07 38.1983 144.945 38.516 143.697L36.5778 143.203ZM35.2429 145.787C34.6262 146.541 33.8423 147.139 32.8731 147.58L33.7007 149.4C34.9314 148.841 35.9676 148.059 36.7908 147.053L35.2429 145.787ZM32.8731 147.58C31.9184 148.014 30.8321 148.24 29.5969 148.24V150.24C31.0817 150.24 32.4553 149.966 33.7007 149.4L32.8731 147.58ZM29.5969 148.24C28.1034 148.24 26.8121 147.923 25.6967 147.313L24.7371 149.067C26.1817 149.857 27.8103 150.24 29.5969 150.24V148.24ZM25.6967 147.313C24.5861 146.705 23.7217 145.843 23.0917 144.705L21.3421 145.674C22.1521 147.137 23.2876 148.275 24.7371 149.067L25.6967 147.313ZM23.0917 144.705C22.4668 143.577 22.1369 142.23 22.1369 140.63H20.1369C20.1369 142.51 20.5269 144.203 21.3421 145.674L23.0917 144.705ZM22.1369 140.63C22.1369 139.026 22.4587 137.674 23.0673 136.544L21.3064 135.596C20.515 137.066 20.1369 138.754 20.1369 140.63H22.1369ZM23.0617 136.554C23.6917 135.417 24.5561 134.555 25.6667 133.947L24.7071 132.193C23.2576 132.985 22.1221 134.123 21.3121 135.585L23.0617 136.554ZM25.6667 133.947C26.7803 133.338 28.0812 133.02 29.5969 133.02V131.02C27.7926 131.02 26.1534 131.402 24.7071 132.193L25.6667 133.947ZM29.5969 133.02C31.0732 133.02 32.3461 133.329 33.4419 133.92L34.3918 132.16C32.9676 131.391 31.3606 131.02 29.5969 131.02V133.02ZM33.4419 133.92C34.5328 134.509 35.3748 135.341 35.9827 136.436L37.731 135.464C36.939 134.039 35.821 132.931 34.3918 132.16L33.4419 133.92ZM35.9886 136.446C36.6095 137.533 36.9369 138.826 36.9369 140.36H38.9369C38.9369 138.534 38.5443 136.887 37.7251 135.454L35.9886 136.446ZM33.6869 139.01C33.6869 137.875 33.2863 136.886 32.4418 136.154L31.1319 137.666C31.4875 137.974 31.6869 138.385 31.6869 139.01H33.6869ZM32.4418 136.154C31.6357 135.456 30.6432 135.13 29.5369 135.13V137.13C30.2305 137.13 30.7381 137.324 31.1319 137.666L32.4418 136.154ZM29.5369 135.13C28.4682 135.13 27.5049 135.447 26.7067 136.112L27.9871 137.648C28.3888 137.313 28.8855 137.13 29.5369 137.13V135.13ZM26.6939 136.123C25.8964 136.81 25.4461 137.757 25.2783 138.86L27.2555 139.16C27.3676 138.423 27.6373 137.95 27.9998 137.637L26.6939 136.123ZM26.2669 140.01H32.6869V138.01H26.2669V140.01ZM48.1732 144.2L47.2164 144.491L48.1732 147.638L49.13 144.491L48.1732 144.2ZM51.8032 132.26V131.26H51.062L50.8464 131.969L51.8032 132.26ZM57.2632 132.26L58.2056 132.594L58.6791 131.26H57.2632V132.26ZM51.3232 149V150H52.0295L52.2656 149.334L51.3232 149ZM44.9932 149L44.0508 149.334L44.287 150H44.9932V149ZM39.0532 132.26V131.26H37.6373L38.1108 132.594L39.0532 132.26ZM44.5432 132.26L45.5 131.969L45.2844 131.26H44.5432V132.26ZM49.13 144.491L52.76 132.551L50.8464 131.969L47.2164 143.909L49.13 144.491ZM51.8032 133.26H57.2632V131.26H51.8032V133.26ZM56.3208 131.926L50.3808 148.666L52.2656 149.334L58.2056 132.594L56.3208 131.926ZM51.3232 148H44.9932V150H51.3232V148ZM45.9356 148.666L39.9956 131.926L38.1108 132.594L44.0508 149.334L45.9356 148.666ZM39.0532 133.26H44.5432V131.26H39.0532V133.26ZM43.5864 132.551L47.2164 144.491L49.13 143.909L45.5 131.969L43.5864 132.551ZM75.1125 141.86V142.86H76.0038L76.1059 141.975L75.1125 141.86ZM63.5025 141.86V140.86H62.4226L62.5054 141.937L63.5025 141.86ZM64.4925 144.26L63.7979 144.979L63.8105 144.992L63.8235 145.003L64.4925 144.26ZM69.3525 143.45V142.45H68.7135L68.445 143.03L69.3525 143.45ZM74.8125 143.45L75.7816 143.697L76.0989 142.45H74.8125V143.45ZM73.2825 146.42L72.5171 145.776L72.5085 145.787L73.2825 146.42ZM70.5525 148.49L70.9663 149.4L70.5525 148.49ZM62.4825 148.19L62.0027 149.067L62.4825 148.19ZM59.4825 145.19L60.3573 144.705L59.4825 145.19ZM59.4525 136.07L58.5776 135.585L58.572 135.596L59.4525 136.07ZM62.4525 133.07L62.9323 133.947L62.4525 133.07ZM71.1825 133.04L70.7076 133.92V133.92L71.1825 133.04ZM74.1225 135.95L73.2483 136.436L73.2543 136.446L74.1225 135.95ZM69.9525 139.01V140.01H70.9525V139.01H69.9525ZM69.0525 136.91L69.7074 136.154L69.0525 136.91ZM64.6125 136.88L63.9723 136.112L63.9659 136.117L63.9596 136.123L64.6125 136.88ZM63.5325 139.01L62.5439 138.86L62.3688 140.01H63.5325V139.01ZM74.2025 140.36C74.2025 140.798 74.1751 141.26 74.1191 141.745L76.1059 141.975C76.1699 141.42 76.2025 140.882 76.2025 140.36H74.2025ZM75.1125 140.86H63.5025V142.86H75.1125V140.86ZM62.5054 141.937C62.5986 143.147 62.9952 144.204 63.7979 144.979L65.1871 143.541C64.8298 143.196 64.5664 142.653 64.4996 141.783L62.5054 141.937ZM63.8235 145.003C64.6199 145.72 65.5931 146.07 66.6825 146.07V144.07C66.0519 144.07 65.5651 143.88 65.1615 143.517L63.8235 145.003ZM66.6825 146.07C67.4635 146.07 68.195 145.904 68.8287 145.52C69.4671 145.133 69.9388 144.564 70.26 143.87L68.445 143.03C68.2662 143.416 68.0429 143.657 67.7913 143.81C67.535 143.966 67.1815 144.07 66.6825 144.07V146.07ZM69.3525 144.45H74.8125V142.45H69.3525V144.45ZM73.8434 143.203C73.6011 144.155 73.1615 145.01 72.5171 145.776L74.0479 147.064C74.8835 146.07 75.464 144.945 75.7816 143.697L73.8434 143.203ZM72.5085 145.787C71.8918 146.541 71.1079 147.139 70.1387 147.58L70.9663 149.4C72.1971 148.841 73.2332 148.059 74.0565 147.053L72.5085 145.787ZM70.1387 147.58C69.1841 148.014 68.0977 148.24 66.8625 148.24V150.24C68.3473 150.24 69.7209 149.966 70.9663 149.4L70.1387 147.58ZM66.8625 148.24C65.369 148.24 64.0777 147.923 62.9623 147.313L62.0027 149.067C63.4473 149.857 65.076 150.24 66.8625 150.24V148.24ZM62.9623 147.313C61.8518 146.705 60.9873 145.843 60.3573 144.705L58.6077 145.674C59.4177 147.137 60.5532 148.275 62.0027 149.067L62.9623 147.313ZM60.3573 144.705C59.7324 143.577 59.4025 142.23 59.4025 140.63H57.4025C57.4025 142.51 57.7925 144.203 58.6077 145.674L60.3573 144.705ZM59.4025 140.63C59.4025 139.026 59.7243 137.674 60.333 136.544L58.572 135.596C57.7807 137.066 57.4025 138.754 57.4025 140.63H59.4025ZM60.3273 136.554C60.9573 135.417 61.8218 134.555 62.9323 133.947L61.9727 132.193C60.5232 132.985 59.3877 134.123 58.5777 135.585L60.3273 136.554ZM62.9323 133.947C64.0459 133.338 65.3468 133.02 66.8625 133.02V131.02C65.0582 131.02 63.4191 131.402 61.9727 132.193L62.9323 133.947ZM66.8625 133.02C68.3388 133.02 69.6118 133.329 70.7076 133.92L71.6574 132.16C70.2332 131.391 68.6262 131.02 66.8625 131.02V133.02ZM70.7076 133.92C71.7984 134.509 72.6404 135.341 73.2483 136.436L74.9967 135.464C74.2046 134.039 73.0866 132.931 71.6574 132.16L70.7076 133.92ZM73.2543 136.446C73.8751 137.533 74.2025 138.826 74.2025 140.36H76.2025C76.2025 138.534 75.8099 136.887 74.9907 135.454L73.2543 136.446ZM70.9525 139.01C70.9525 137.875 70.5519 136.886 69.7074 136.154L68.3976 137.666C68.7531 137.974 68.9525 138.385 68.9525 139.01H70.9525ZM69.7074 136.154C68.9013 135.456 67.9088 135.13 66.8025 135.13V137.13C67.4962 137.13 68.0037 137.324 68.3976 137.666L69.7074 136.154ZM66.8025 135.13C65.7339 135.13 64.7706 135.447 63.9723 136.112L65.2527 137.648C65.6544 137.313 66.1511 137.13 66.8025 137.13V135.13ZM63.9596 136.123C63.1621 136.81 62.7117 137.757 62.5439 138.86L64.5211 139.16C64.6333 138.423 64.9029 137.95 65.2654 137.637L63.9596 136.123ZM63.5325 140.01H69.9525V138.01H63.5325V140.01ZM83.0388 126.8H84.0388V125.8H83.0388V126.8ZM83.0388 149V150H84.0388V149H83.0388ZM77.9088 149H76.9088V150H77.9088V149ZM77.9088 126.8V125.8H76.9088V126.8H77.9088ZM82.0388 126.8V149H84.0388V126.8H82.0388ZM83.0388 148H77.9088V150H83.0388V148ZM78.9088 149V126.8H76.9088V149H78.9088ZM77.9088 127.8H83.0388V125.8H77.9088V127.8ZM89.6665 148.49L90.0681 147.574L89.6665 148.49ZM86.9665 146.45L86.1664 147.05L86.1732 147.059L86.9665 146.45ZM85.8565 143.51V142.51H84.7797L84.8592 143.584L85.8565 143.51ZM90.9265 143.51L91.9212 143.407L91.8284 142.51H90.9265V143.51ZM91.7365 144.92L92.3365 144.12V144.12L91.7365 144.92ZM94.9765 145.1L95.5532 145.917L95.562 145.911L94.9765 145.1ZM94.7665 143.06L94.3338 143.962L94.3486 143.969L94.3637 143.975L94.7665 143.06ZM92.3365 142.28L92.579 141.31L92.5714 141.308L92.5637 141.306L92.3365 142.28ZM89.3365 141.41L88.9651 142.338L88.9752 142.343L88.9854 142.346L89.3365 141.41ZM87.2665 139.94L86.5057 140.589L86.5104 140.595L86.5153 140.6L87.2665 139.94ZM87.1765 134.6L86.3476 134.041L86.3444 134.045L87.1765 134.6ZM89.5165 132.71L89.112 131.795L89.1054 131.798L89.5165 132.71ZM98.1565 133.58L97.5015 134.336L97.5078 134.341L98.1565 133.58ZM100.256 137.72V138.72H101.367L101.251 137.616L100.256 137.72ZM95.5165 137.72L94.5259 137.857L94.645 138.72H95.5165V137.72ZM94.7365 136.34L94.1073 137.117L94.1161 137.124L94.125 137.131L94.7365 136.34ZM91.6765 136.19L92.243 137.014L92.26 137.002L92.2765 136.99L91.6765 136.19ZM91.9465 138.2L91.5138 139.102L91.5206 139.105L91.5274 139.108L91.9465 138.2ZM94.3465 138.92L94.5964 137.952L94.58 137.947L94.5634 137.944L94.3465 138.92ZM97.3765 139.88L96.9969 140.805L97.0072 140.809L97.0175 140.813L97.3765 139.88ZM99.4165 141.38L98.6465 142.018L98.6564 142.03L98.6666 142.042L99.4165 141.38ZM100.346 144.14H101.346V144.131L101.346 144.123L100.346 144.14ZM99.5065 146.78L98.6942 146.197L98.6913 146.201L99.5065 146.78ZM97.1365 148.58L96.7468 147.659L96.7404 147.662L97.1365 148.58ZM93.5665 148.24C92.2211 148.24 91.0615 148.01 90.0681 147.574L89.2648 149.406C90.5514 149.97 91.9918 150.24 93.5665 150.24V148.24ZM90.0681 147.574C89.0593 147.132 88.3028 146.549 87.7598 145.841L86.1732 147.059C86.9501 148.071 87.9936 148.848 89.2648 149.406L90.0681 147.574ZM87.7665 145.85C87.2193 145.12 86.9194 144.322 86.8538 143.436L84.8592 143.584C84.9536 144.858 85.3937 146.02 86.1665 147.05L87.7665 145.85ZM85.8565 144.51H90.9265V142.51H85.8565V144.51ZM89.9318 143.613C90.0214 144.479 90.4409 145.198 91.1365 145.72L92.3365 144.12C92.0721 143.922 91.9516 143.701 91.9212 143.407L89.9318 143.613ZM91.1365 145.72C91.8173 146.231 92.6275 146.46 93.5065 146.46V144.46C92.9854 144.46 92.6157 144.329 92.3365 144.12L91.1365 145.72ZM93.5065 146.46C94.2492 146.46 94.9759 146.324 95.5532 145.917L94.3998 144.283C94.2971 144.356 94.0438 144.46 93.5065 144.46V146.46ZM95.562 145.911C96.149 145.487 96.5165 144.87 96.5165 144.11H94.5165C94.5165 144.154 94.5083 144.17 94.5036 144.179C94.4969 144.191 94.4717 144.231 94.391 144.289L95.562 145.911ZM96.5165 144.11C96.5165 143.687 96.4028 143.27 96.1427 142.906C95.8886 142.55 95.54 142.308 95.1692 142.145L94.3637 143.975C94.493 144.032 94.5194 144.075 94.5153 144.069C94.5149 144.068 94.514 144.067 94.5131 144.065C94.5122 144.063 94.5119 144.062 94.5121 144.063C94.5123 144.064 94.5165 144.077 94.5165 144.11H96.5165ZM95.1992 142.158C94.6028 141.872 93.7101 141.593 92.579 141.31L92.0939 143.25C93.2029 143.527 93.9302 143.768 94.3338 143.962L95.1992 142.158ZM92.5637 141.306C91.3891 141.032 90.4338 140.753 89.6876 140.474L88.9854 142.346C89.8392 142.667 90.8839 142.968 92.1093 143.254L92.5637 141.306ZM89.7079 140.482C89.0568 140.221 88.496 139.824 88.0176 139.28L86.5153 140.6C87.1969 141.376 88.0162 141.959 88.9651 142.338L89.7079 140.482ZM88.0273 139.291C87.6403 138.837 87.3965 138.179 87.3965 137.21H85.3965C85.3965 138.521 85.7327 139.683 86.5057 140.589L88.0273 139.291ZM87.3965 137.21C87.3965 136.442 87.6008 135.766 88.0085 135.155L86.3444 134.045C85.7122 134.994 85.3965 136.058 85.3965 137.21H87.3965ZM88.0053 135.159C88.4258 134.537 89.0494 134.018 89.9276 133.622L89.1054 131.798C87.9436 132.322 87.0071 133.063 86.3476 134.041L88.0053 135.159ZM89.921 133.625C90.8061 133.233 91.8922 133.02 93.2065 133.02V131.02C91.6808 131.02 90.3069 131.267 89.112 131.795L89.921 133.625ZM93.2065 133.02C95.1446 133.02 96.5351 133.498 97.5016 134.336L98.8114 132.824C97.3778 131.582 95.4684 131.02 93.2065 131.02V133.02ZM97.5078 134.341C98.5162 135.201 99.1063 136.337 99.2619 137.824L101.251 137.616C101.047 135.663 100.237 134.039 98.8052 132.819L97.5078 134.341ZM100.256 136.72H95.5165V138.72H100.256V136.72ZM96.5071 137.583C96.3934 136.759 96.007 136.058 95.3479 135.549L94.125 137.131C94.3459 137.302 94.4796 137.521 94.5259 137.857L96.5071 137.583ZM95.3657 135.563C94.7208 135.041 93.917 134.83 93.0565 134.83V136.83C93.5959 136.83 93.9121 136.959 94.1073 137.117L95.3657 135.563ZM93.0565 134.83C92.3429 134.83 91.6369 134.97 91.0765 135.39L92.2765 136.99C92.3561 136.93 92.57 136.83 93.0565 136.83V134.83ZM91.11 135.366C90.509 135.779 90.1965 136.403 90.1965 137.12H92.1965C92.1965 137.087 92.1998 137.067 92.202 137.057C92.2041 137.047 92.2058 137.045 92.2051 137.046C92.2044 137.048 92.2044 137.047 92.2077 137.043C92.2113 137.039 92.2215 137.029 92.243 137.014L91.11 135.366ZM90.1965 137.12C90.1965 137.544 90.3102 137.957 90.5626 138.32C90.8092 138.676 91.1484 138.926 91.5138 139.102L92.3792 137.298C92.2445 137.234 92.2087 137.184 92.2054 137.18C92.2034 137.177 92.2028 137.176 92.2018 137.172C92.2006 137.168 92.1965 137.153 92.1965 137.12H90.1965ZM91.5274 139.108C92.1471 139.394 93.0316 139.652 94.1296 139.896L94.5634 137.944C93.5013 137.708 92.7859 137.486 92.3655 137.292L91.5274 139.108ZM94.0966 139.888C95.3126 140.202 96.2748 140.509 96.9969 140.805L97.756 138.955C96.9182 138.611 95.8604 138.278 94.5964 137.952L94.0966 139.888ZM97.0175 140.813C97.6236 141.046 98.166 141.438 98.6465 142.018L100.187 140.742C99.507 139.922 98.6894 139.314 97.7355 138.947L97.0175 140.813ZM98.6666 142.042C99.0696 142.498 99.3296 143.167 99.3466 144.157L101.346 144.123C101.323 142.793 100.963 141.622 100.166 140.718L98.6666 142.042ZM99.3465 144.14C99.3465 144.915 99.1295 145.59 98.6942 146.197L100.319 147.363C101.004 146.41 101.346 145.325 101.346 144.14H99.3465ZM98.6913 146.201C98.2794 146.78 97.6523 147.276 96.7468 147.659L97.5261 149.501C98.7007 149.004 99.6535 148.3 100.322 147.359L98.6913 146.201ZM96.7404 147.662C95.8702 148.037 94.82 148.24 93.5665 148.24V150.24C95.0329 150.24 96.3628 150.003 97.5326 149.498L96.7404 147.662Z" fill="white"/>
<defs>
<linearGradient id="paint0_linear_260_6169" x1="52" y1="119.5" x2="61" y2="-29" gradientUnits="userSpaceOnUse">
<stop stop-color="white"/>
<stop offset="1" stop-color="white" stop-opacity="0"/>
</linearGradient>
</defs>
</svg>
