<svg width="51" height="63" viewBox="0 0 51 63" fill="none" xmlns="http://www.w3.org/2000/svg">
<path d="M9.352 28.76H8.352V29.76H9.352V28.76ZM9.352 22.136L8.53243 21.563L8.352 21.8211V22.136H9.352ZM24.52 0.439999V-0.560001H23.999L23.7004 -0.132977L24.52 0.439999ZM33.688 0.439999H34.688V-0.560001H33.688V0.439999ZM33.688 21.656H32.688V22.656H33.688V21.656ZM37.624 21.656H38.624V20.656H37.624V21.656ZM37.624 28.76V29.76H38.624V28.76H37.624ZM33.688 28.76V27.76H32.688V28.76H33.688ZM33.688 35V36H34.688V35H33.688ZM25.48 35H24.48V36H25.48V35ZM25.48 28.76H26.48V27.76H25.48V28.76ZM26.056 9.464H27.056V6.1394L25.2219 8.91233L26.056 9.464ZM17.992 21.656L17.1579 21.1043L16.1316 22.656H17.992V21.656ZM26.056 21.656V22.656H27.056V21.656H26.056ZM10.352 28.76V22.136H8.352V28.76H10.352ZM10.1716 22.709L25.3396 1.01297L23.7004 -0.132977L8.53243 21.563L10.1716 22.709ZM24.52 1.44H33.688V-0.560001H24.52V1.44ZM32.688 0.439999V21.656H34.688V0.439999H32.688ZM33.688 22.656H37.624V20.656H33.688V22.656ZM36.624 21.656V28.76H38.624V21.656H36.624ZM37.624 27.76H33.688V29.76H37.624V27.76ZM32.688 28.76V35H34.688V28.76H32.688ZM33.688 34H25.48V36H33.688V34ZM26.48 35V28.76H24.48V35H26.48ZM25.48 27.76H9.352V29.76H25.48V27.76ZM25.2219 8.91233L17.1579 21.1043L18.8261 22.2077L26.8901 10.0157L25.2219 8.91233ZM17.992 22.656H26.056V20.656H17.992V22.656ZM27.056 21.656V9.464H25.056V21.656H27.056Z" fill="url(#paint0_linear_260_6169)"/>
<path d="M3.262 60.152H2.262V61.152H3.262V60.152ZM6.398 60.152H7.398V59.152H6.398V60.152ZM6.398 62V63H7.398V62H6.398ZM0.868 62H-0.132V63H0.868V62ZM0.868 52.172V51.172H-0.132V52.172H0.868ZM3.262 52.172H4.262V51.172H3.262V52.172ZM3.262 61.152H6.398V59.152H3.262V61.152ZM5.398 60.152V62H7.398V60.152H5.398ZM6.398 61H0.868V63H6.398V61ZM1.868 62V52.172H-0.132V62H1.868ZM0.868 53.172H3.262V51.172H0.868V53.172ZM2.262 52.172V60.152H4.262V52.172H2.262ZM16.1219 58.668V59.668H17.0131L17.1153 58.7826L16.1219 58.668ZM10.7039 58.668V57.668H9.624L9.70682 58.7447L10.7039 58.668ZM11.1659 59.788L10.4713 60.5074L10.4839 60.5196L10.4969 60.5313L11.1659 59.788ZM13.4339 59.41V58.41H12.7949L12.5264 58.9899L13.4339 59.41ZM15.9819 59.41L16.951 59.6567L17.2683 58.41H15.9819V59.41ZM15.2679 60.796L14.5024 60.1523L14.4939 60.1628L15.2679 60.796ZM13.9939 61.762L14.4077 62.6724L13.9939 61.762ZM10.2279 61.622L9.74806 62.4994L10.2279 61.622ZM8.82788 60.222L9.70267 59.7375L8.82788 60.222ZM8.81388 55.966L7.93902 55.4815L7.9334 55.4919L8.81388 55.966ZM10.2139 54.566L10.6937 55.4434L10.2139 54.566ZM14.2879 54.552L13.8129 55.432H13.8129L14.2879 54.552ZM15.6599 55.91L14.7857 56.3957L14.7916 56.4061L15.6599 55.91ZM13.7139 57.338V58.338H14.7139V57.338H13.7139ZM13.2939 56.358L13.9488 55.6023L13.9488 55.6023L13.2939 56.358ZM11.2219 56.344L10.5817 55.5758L10.5753 55.5811L10.5689 55.5866L11.2219 56.344ZM10.7179 57.338L9.72926 57.1876L9.55419 58.338H10.7179V57.338ZM15.1639 57.968C15.1639 58.1504 15.1525 58.3454 15.1285 58.5534L17.1153 58.7826C17.1473 58.5053 17.1639 58.2336 17.1639 57.968H15.1639ZM16.1219 57.668H10.7039V59.668H16.1219V57.668ZM9.70682 58.7447C9.75727 59.4005 9.97786 60.031 10.4713 60.5074L11.8605 59.0686C11.8126 59.0223 11.7251 58.9061 11.7009 58.5913L9.70682 58.7447ZM10.4969 60.5313C10.9732 60.96 11.5571 61.166 12.1879 61.166V59.166C12.016 59.166 11.9185 59.12 11.8348 59.0447L10.4969 60.5313ZM12.1879 61.166C12.6276 61.166 13.0697 61.0724 13.4661 60.8319C13.8671 60.5886 14.1535 60.2358 14.3413 59.8301L12.5264 58.9899C12.4809 59.0882 12.4429 59.1134 12.4286 59.1221C12.4097 59.1336 12.3455 59.166 12.1879 59.166V61.166ZM13.4339 60.41H15.9819V58.41H13.4339V60.41ZM15.0128 59.1633C14.9198 59.5287 14.7522 59.8555 14.5025 60.1524L16.0332 61.4396C16.4742 60.9152 16.7827 60.3179 16.951 59.6567L15.0128 59.1633ZM14.4939 60.1628C14.2612 60.4472 13.9627 60.6777 13.5801 60.8516L14.4077 62.6724C15.0518 62.3796 15.6026 61.9661 16.0418 61.4292L14.4939 60.1628ZM13.5801 60.8516C13.2121 61.0189 12.7818 61.112 12.2719 61.112V63.112C13.0313 63.112 13.749 62.9718 14.4077 62.6724L13.5801 60.8516ZM12.2719 61.112C11.6531 61.112 11.1404 60.9813 10.7077 60.7446L9.74806 62.4994C10.51 62.9161 11.36 63.112 12.2719 63.112V61.112ZM10.7077 60.7446C10.2798 60.5106 9.94869 60.1817 9.70267 59.7375L7.95308 60.7065C8.37906 61.4756 8.98127 62.08 9.74806 62.4994L10.7077 60.7446ZM9.70267 59.7375C9.46183 59.3026 9.32388 58.7656 9.32388 58.094H7.32388C7.32388 59.0464 7.52192 59.928 7.95308 60.7065L9.70267 59.7375ZM9.32388 58.094C9.32388 57.4179 9.45905 56.8771 9.69435 56.4401L7.9334 55.4919C7.51537 56.2683 7.32388 57.1461 7.32388 58.094H9.32388ZM9.68867 56.4505C9.93469 56.0063 10.2658 55.6774 10.6937 55.4434L9.73406 53.6886C8.96727 54.108 8.36506 54.7124 7.93908 55.4815L9.68867 56.4505ZM10.6937 55.4434C11.1246 55.2077 11.6415 55.076 12.2719 55.076V53.076C11.3529 53.076 10.4978 53.271 9.73406 53.6886L10.6937 55.4434ZM12.2719 55.076C12.8842 55.076 13.3891 55.2033 13.8129 55.432L14.7628 53.672C14.0106 53.266 13.1716 53.076 12.2719 53.076V55.076ZM13.8129 55.432C14.2318 55.6581 14.5511 55.9733 14.7857 56.3956L16.534 55.4244C16.1153 54.6707 15.52 54.0806 14.7628 53.672L13.8129 55.432ZM14.7916 56.4061C15.0285 56.8207 15.1639 57.3303 15.1639 57.968H17.1639C17.1639 57.0377 16.9633 56.1753 16.5281 55.4139L14.7916 56.4061ZM14.7139 57.338C14.7139 56.6726 14.4733 56.0569 13.9488 55.6023L12.6389 57.1137C12.6745 57.1445 12.7139 57.1821 12.7139 57.338H14.7139ZM13.9488 55.6023C13.4627 55.181 12.8702 54.994 12.2439 54.994V56.994C12.4575 56.994 12.5651 57.0497 12.6389 57.1137L13.9488 55.6023ZM12.2439 54.994C11.6339 54.994 11.0599 55.1772 10.5817 55.5758L11.8621 57.1122C11.9438 57.0441 12.0512 56.994 12.2439 56.994V54.994ZM10.5689 55.5866C10.0808 56.0074 9.82244 56.5752 9.72926 57.1876L11.7065 57.4884C11.744 57.2421 11.8217 57.1472 11.8748 57.1014L10.5689 55.5866ZM10.7179 58.338H13.7139V56.338H10.7179V58.338ZM22.2008 59.76L21.2441 60.0509L22.2008 63.1979L23.1576 60.0509L22.2008 59.76ZM23.8948 54.188V53.188H23.1537L22.9381 53.8971L23.8948 54.188ZM26.4428 54.188L27.3853 54.5224L27.8588 53.188H26.4428V54.188ZM23.6708 62V63H24.3771L24.6133 62.3344L23.6708 62ZM20.7168 62L19.7744 62.3344L20.0106 63H20.7168V62ZM17.9448 54.188V53.188H16.5289L17.0024 54.5224L17.9448 54.188ZM20.5068 54.188L21.4636 53.8971L21.248 53.188H20.5068V54.188ZM23.1576 60.0509L24.8516 54.4789L22.9381 53.8971L21.2441 59.4691L23.1576 60.0509ZM23.8948 55.188H26.4428V53.188H23.8948V55.188ZM25.5004 53.8536L22.7284 61.6656L24.6133 62.3344L27.3853 54.5224L25.5004 53.8536ZM23.6708 61H20.7168V63H23.6708V61ZM21.6593 61.6656L18.8873 53.8536L17.0024 54.5224L19.7744 62.3344L21.6593 61.6656ZM17.9448 55.188H20.5068V53.188H17.9448V55.188ZM19.5501 54.4789L21.2441 60.0509L23.1576 59.4691L21.4636 53.8971L19.5501 54.4789ZM36.0325 58.668V59.668H36.9238L37.0259 58.7826L36.0325 58.668ZM30.6145 58.668V57.668H29.5346L29.6174 58.7447L30.6145 58.668ZM31.0765 59.788L30.3819 60.5074L30.3945 60.5196L30.4075 60.5313L31.0765 59.788ZM33.3445 59.41V58.41H32.7055L32.437 58.9899L33.3445 59.41ZM35.8925 59.41L36.8616 59.6567L37.1789 58.41H35.8925V59.41ZM35.1785 60.796L34.4131 60.1523L34.4045 60.1628L35.1785 60.796ZM33.9045 61.762L34.3183 62.6724L33.9045 61.762ZM30.1385 61.622L29.6587 62.4994L30.1385 61.622ZM28.7385 60.222L29.6133 59.7375L28.7385 60.222ZM28.7245 55.966L27.8496 55.4815L27.844 55.4919L28.7245 55.966ZM30.1245 54.566L30.6043 55.4434L30.1245 54.566ZM34.1985 54.552L33.7236 55.432L34.1985 54.552ZM35.5705 55.91L34.6963 56.3957L34.7023 56.4061L35.5705 55.91ZM33.6245 57.338V58.338H34.6245V57.338H33.6245ZM33.2045 56.358L33.8594 55.6023V55.6023L33.2045 56.358ZM31.1325 56.344L30.4923 55.5758L30.4859 55.5811L30.4796 55.5866L31.1325 56.344ZM30.6285 57.338L29.6399 57.1876L29.4648 58.338H30.6285V57.338ZM35.0745 57.968C35.0745 58.1504 35.0631 58.3454 35.0391 58.5534L37.0259 58.7826C37.0579 58.5053 37.0745 58.2336 37.0745 57.968H35.0745ZM36.0325 57.668H30.6145V59.668H36.0325V57.668ZM29.6174 58.7447C29.6679 59.4005 29.8885 60.031 30.3819 60.5074L31.7711 59.0686C31.7232 59.0223 31.6358 58.9061 31.6116 58.5913L29.6174 58.7447ZM30.4075 60.5313C30.8839 60.96 31.4677 61.166 32.0985 61.166V59.166C31.9266 59.166 31.8291 59.12 31.7455 59.0447L30.4075 60.5313ZM32.0985 61.166C32.5382 61.166 32.9804 61.0724 33.3767 60.8319C33.7778 60.5886 34.0641 60.2358 34.252 59.8301L32.437 58.9899C32.3915 59.0882 32.3536 59.1134 32.3393 59.1221C32.3203 59.1336 32.2561 59.166 32.0985 59.166V61.166ZM33.3445 60.41H35.8925V58.41H33.3445V60.41ZM34.9234 59.1633C34.8304 59.5287 34.6628 59.8555 34.4131 60.1524L35.9439 61.4396C36.3848 60.9152 36.6933 60.3179 36.8616 59.6567L34.9234 59.1633ZM34.4045 60.1628C34.1718 60.4472 33.8733 60.6777 33.4907 60.8516L34.3183 62.6724C34.9624 62.3796 35.5132 61.9661 35.9525 61.4292L34.4045 60.1628ZM33.4907 60.8516C33.1227 61.0189 32.6924 61.112 32.1825 61.112V63.112C32.942 63.112 33.6596 62.9718 34.3183 62.6724L33.4907 60.8516ZM32.1825 61.112C31.5637 61.112 31.051 60.9813 30.6183 60.7446L29.6587 62.4994C30.4207 62.9161 31.2706 63.112 32.1825 63.112V61.112ZM30.6183 60.7446C30.1904 60.5106 29.8593 60.1817 29.6133 59.7375L27.8637 60.7065C28.2897 61.4756 28.8919 62.08 29.6587 62.4994L30.6183 60.7446ZM29.6133 59.7375C29.3725 59.3026 29.2345 58.7656 29.2345 58.094H27.2345C27.2345 59.0464 27.4326 59.928 27.8637 60.7065L29.6133 59.7375ZM29.2345 58.094C29.2345 57.4179 29.3697 56.8771 29.605 56.4401L27.844 55.4919C27.426 56.2683 27.2345 57.1461 27.2345 58.094H29.2345ZM29.5993 56.4505C29.8453 56.0063 30.1764 55.6774 30.6043 55.4434L29.6447 53.6886C28.8779 54.108 28.2757 54.7124 27.8497 55.4815L29.5993 56.4505ZM30.6043 55.4434C31.0353 55.2077 31.5521 55.076 32.1825 55.076V53.076C31.2635 53.076 30.4084 53.271 29.6447 53.6886L30.6043 55.4434ZM32.1825 55.076C32.7948 55.076 33.2998 55.2033 33.7236 55.432L34.6734 53.672C33.9212 53.266 33.0822 53.076 32.1825 53.076V55.076ZM33.7236 55.432C34.1424 55.6581 34.4617 55.9733 34.6963 56.3956L36.4447 55.4244C36.0259 54.6707 35.4306 54.0806 34.6734 53.672L33.7236 55.432ZM34.7023 56.4061C34.9391 56.8207 35.0745 57.3303 35.0745 57.968H37.0745C37.0745 57.0377 36.8739 56.1753 36.4387 55.4139L34.7023 56.4061ZM34.6245 57.338C34.6245 56.6726 34.3839 56.0569 33.8594 55.6023L32.5496 57.1137C32.5851 57.1445 32.6245 57.1821 32.6245 57.338H34.6245ZM33.8594 55.6023C33.3733 55.181 32.7808 54.994 32.1545 54.994V56.994C32.3682 56.994 32.4757 57.0497 32.5496 57.1137L33.8594 55.6023ZM32.1545 54.994C31.5445 54.994 30.9706 55.1772 30.4923 55.5758L31.7727 57.1122C31.8544 57.0441 31.9618 56.994 32.1545 56.994V54.994ZM30.4796 55.5866C29.9914 56.0074 29.7331 56.5752 29.6399 57.1876L31.6171 57.4884C31.6546 57.2421 31.7323 57.1472 31.7854 57.1014L30.4796 55.5866ZM30.6285 58.338H33.6245V56.338H30.6285V58.338ZM40.9915 51.64H41.9915V50.64H40.9915V51.64ZM40.9915 62V63H41.9915V62H40.9915ZM38.5975 62H37.5975V63H38.5975V62ZM38.5975 51.64V50.64H37.5975V51.64H38.5975ZM39.9915 51.64V62H41.9915V51.64H39.9915ZM40.9915 61H38.5975V63H40.9915V61ZM39.5975 62V51.64H37.5975V62H39.5975ZM38.5975 52.64H40.9915V50.64H38.5975V52.64ZM45.3444 61.762L45.746 60.8462L45.3444 61.762ZM44.0844 60.81L43.2843 61.41L43.291 61.4188L44.0844 60.81ZM43.5664 59.438V58.438H42.4895L42.5691 59.5119L43.5664 59.438ZM45.9324 59.438L46.9271 59.3351L46.8342 58.438H45.9324V59.438ZM46.3104 60.096L46.9104 59.296V59.296L46.3104 60.096ZM47.8224 60.18L48.3991 60.997L48.4078 60.9907L47.8224 60.18ZM47.7244 59.228L47.2916 60.1295L47.3065 60.1367L47.3216 60.1433L47.7244 59.228ZM46.5904 58.864L46.8329 57.8939L46.8253 57.8919L46.8176 57.8902L46.5904 58.864ZM45.1904 58.458L44.819 59.3865L44.8291 59.3905L44.8392 59.3943L45.1904 58.458ZM44.2244 57.772L43.4635 58.4209L43.4683 58.4266L43.4732 58.4321L44.2244 57.772ZM44.1824 55.28L43.3535 54.7205L43.3503 54.7253L44.1824 55.28ZM45.2744 54.398L44.8698 53.4834L44.8633 53.4864L45.2744 54.398ZM49.3064 54.804L48.6514 55.5597L48.6576 55.565L49.3064 54.804ZM50.2864 56.736V57.736H51.3965L51.2809 56.6319L50.2864 56.736ZM48.0744 56.736L47.0837 56.8726L47.2028 57.736H48.0744V56.736ZM47.7104 56.092L47.0812 56.8692L47.09 56.8764L47.0989 56.8833L47.7104 56.092ZM46.2824 56.022L46.8489 56.846L46.8659 56.8344L46.8824 56.822L46.2824 56.022ZM46.4084 56.96L45.9756 57.8615L45.9824 57.8648L45.9893 57.868L46.4084 56.96ZM47.5284 57.296L47.7782 56.3277L47.7618 56.3235L47.7453 56.3198L47.5284 57.296ZM48.9424 57.744L48.5628 58.6692L48.573 58.6734L48.5834 58.6773L48.9424 57.744ZM49.8944 58.444L49.1243 59.082L49.1342 59.094L49.1445 59.1056L49.8944 58.444ZM50.3284 59.732H51.3284V59.7234L51.3282 59.7148L50.3284 59.732ZM49.9364 60.964L49.124 60.3808L49.1212 60.3848L49.9364 60.964ZM48.8304 61.804L48.4407 60.883L48.4343 60.8858L48.8304 61.804ZM47.1644 61.112C46.5977 61.112 46.1314 61.0152 45.746 60.8462L44.9427 62.6778C45.6213 62.9754 46.3684 63.112 47.1644 63.112V61.112ZM45.746 60.8462C45.3452 60.6704 45.0687 60.4501 44.8777 60.2012L43.291 61.4188C43.716 61.9725 44.2795 62.3869 44.9427 62.6778L45.746 60.8462ZM44.8844 60.21C44.6891 59.9497 44.5866 59.6743 44.5636 59.3641L42.5691 59.5119C42.6208 60.2097 42.8636 60.849 43.2844 61.41L44.8844 60.21ZM43.5664 60.438H45.9324V58.438H43.5664V60.438ZM44.9377 59.5409C44.9953 60.0978 45.2707 60.5663 45.7104 60.896L46.9104 59.296C46.902 59.2898 46.9004 59.2874 46.9027 59.2899C46.9051 59.2926 46.9099 59.2985 46.915 59.3074C46.9201 59.3163 46.9236 59.3248 46.9257 59.3315C46.9278 59.3381 46.9275 59.3399 46.9271 59.3351L44.9377 59.5409ZM45.7104 60.896C46.1352 61.2146 46.6307 61.348 47.1364 61.348V59.348C46.9887 59.348 46.9336 59.3134 46.9104 59.296L45.7104 60.896ZM47.1364 61.348C47.5377 61.348 48.0031 61.2765 48.399 60.997L47.2457 59.363C47.2878 59.3333 47.3118 59.3303 47.294 59.3347C47.275 59.3393 47.2259 59.348 47.1364 59.348V61.348ZM48.4078 60.9907C48.8029 60.7054 49.0744 60.2647 49.0744 59.718H47.0744C47.0744 59.6551 47.0902 59.574 47.1335 59.4946C47.1748 59.4189 47.2216 59.3803 47.2369 59.3693L48.4078 60.9907ZM49.0744 59.718C49.0744 59.4228 48.994 59.117 48.8006 58.8463C48.6131 58.5838 48.3645 58.4172 48.1271 58.3127L47.3216 60.1433C47.3175 60.1415 47.244 60.1079 47.1731 60.0087C47.0964 59.9013 47.0744 59.7892 47.0744 59.718H49.0744ZM48.1571 58.3265C47.8273 58.1682 47.3666 58.0273 46.8329 57.8939L46.3478 59.8341C46.8594 59.962 47.1547 60.0638 47.2916 60.1295L48.1571 58.3265ZM46.8176 57.8902C46.283 57.7654 45.861 57.6415 45.5415 57.5217L44.8392 59.3943C45.2664 59.5545 45.7777 59.7012 46.3631 59.8378L46.8176 57.8902ZM45.5617 57.5295C45.3373 57.4397 45.1446 57.3042 44.9755 57.1119L43.4732 58.4321C43.8455 58.8558 44.2968 59.1776 44.819 59.3865L45.5617 57.5295ZM44.9852 57.1231C44.9075 57.032 44.8184 56.8593 44.8184 56.498H42.8184C42.8184 57.2007 42.9999 57.8773 43.4635 58.4209L44.9852 57.1231ZM44.8184 56.498C44.8184 56.2424 44.884 56.0303 45.0144 55.8347L43.3503 54.7253C42.9954 55.2577 42.8184 55.8576 42.8184 56.498H44.8184ZM45.0112 55.8395C45.1437 55.6432 45.3513 55.4603 45.6855 55.3096L44.8633 53.4864C44.2455 53.765 43.725 54.1701 43.3535 54.7205L45.0112 55.8395ZM45.6789 55.3125C46.0093 55.1664 46.4394 55.076 46.9964 55.076V53.076C46.228 53.076 45.5101 53.2003 44.8699 53.4835L45.6789 55.3125ZM46.9964 55.076C47.8145 55.076 48.325 55.2768 48.6514 55.5597L49.9613 54.0483C49.1677 53.3605 48.1382 53.076 46.9964 53.076V55.076ZM48.6576 55.565C49.0154 55.87 49.2322 56.2706 49.2918 56.8401L51.2809 56.6319C51.1725 55.596 50.736 54.7086 49.9551 54.043L48.6576 55.565ZM50.2864 55.736H48.0744V57.736H50.2864V55.736ZM49.065 56.5994C48.994 56.0845 48.7462 55.6287 48.3218 55.3007L47.0989 56.8833C47.1014 56.8852 47.0998 56.8843 47.096 56.88C47.0922 56.8757 47.0882 56.8701 47.0848 56.8641C47.0832 56.8612 47.082 56.8588 47.0812 56.8569C47.0804 56.8551 47.0801 56.8541 47.0801 56.8542C47.0802 56.8544 47.082 56.86 47.0837 56.8726L49.065 56.5994ZM48.3396 55.3148C47.9187 54.9741 47.4136 54.854 46.9264 54.854V56.854C47.0099 56.854 47.0567 56.8643 47.0769 56.8704C47.0944 56.8757 47.0915 56.8776 47.0812 56.8692L48.3396 55.3148ZM46.9264 54.854C46.5328 54.854 46.0721 54.9297 45.6824 55.222L46.8824 56.822C46.8355 56.8571 46.8029 56.8649 46.8078 56.8636C46.8103 56.863 46.8209 56.8604 46.8411 56.8582C46.8613 56.8559 46.8894 56.854 46.9264 56.854V54.854ZM45.7158 55.198C45.2855 55.4938 45.0584 55.9519 45.0584 56.456H47.0584C47.0584 56.4987 47.0489 56.5771 47.003 56.6661C46.9565 56.7563 46.8944 56.8147 46.8489 56.846L45.7158 55.198ZM45.0584 56.456C45.0584 56.7516 45.1388 57.053 45.3245 57.3204C45.5044 57.5795 45.7436 57.7502 45.9756 57.8615L46.8411 56.0585C46.8412 56.0585 46.8449 56.0603 46.8515 56.0644C46.8582 56.0685 46.868 56.0751 46.8799 56.0846C46.9044 56.1042 46.9363 56.1351 46.9672 56.1796C47.0363 56.279 47.0584 56.3844 47.0584 56.456H45.0584ZM45.9893 57.868C46.3316 58.026 46.7895 58.1562 47.3114 58.2722L47.7453 56.3198C47.2592 56.2118 46.9704 56.118 46.8274 56.052L45.9893 57.868ZM47.2785 58.2643C47.8331 58.4074 48.2566 58.5436 48.5628 58.6692L49.3219 56.8188C48.9001 56.6458 48.3809 56.4833 47.7782 56.3277L47.2785 58.2643ZM48.5834 58.6773C48.7735 58.7505 48.9532 58.8755 49.1243 59.082L50.6644 57.806C50.2942 57.3592 49.8393 57.0175 49.3013 56.8107L48.5834 58.6773ZM49.1445 59.1056C49.2275 59.1996 49.3221 59.3776 49.3285 59.7492L51.3282 59.7148C51.316 59.0037 51.1213 58.3231 50.6442 57.7824L49.1445 59.1056ZM49.3284 59.732C49.3284 59.9847 49.2607 60.1905 49.124 60.3808L50.7487 61.5472C51.1347 61.0095 51.3284 60.394 51.3284 59.732H49.3284ZM49.1212 60.3848C48.9973 60.5591 48.7915 60.7346 48.4407 60.883L49.22 62.725C49.8399 62.4627 50.3714 62.0782 50.7515 61.5432L49.1212 60.3848ZM48.4343 60.8858C48.1081 61.0265 47.6926 61.112 47.1644 61.112V63.112C47.9055 63.112 48.6007 62.9922 49.2265 62.7222L48.4343 60.8858Z" fill="#9A9A9A"/>
<defs>
<linearGradient id="paint0_linear_260_6169" x1="22.7333" y1="23.3234" x2="22.5686" y2="-20.6661" gradientUnits="userSpaceOnUse">
<stop stop-color="white"/>
<stop offset="1" stop-color="white" stop-opacity="0"/>
</linearGradient>
</defs>
</svg>
