<svg width="295" height="70" viewBox="0 0 295 70" fill="none" xmlns="http://www.w3.org/2000/svg">
<path d="M13.088 67.272L11.9503 70.0479L13.088 67.272ZM3.68 60.168L1.26236 61.9442L1.27401 61.9601L1.28588 61.9758L3.68 60.168ZM0.0320005 48.84V45.84H-3.05622L-2.96674 48.9269L0.0320005 48.84ZM17.504 48.84L20.4883 48.5339L20.212 45.84H17.504V48.84ZM20.096 54.6L18.0732 56.8155L18.1 56.84L18.1275 56.8638L20.096 54.6ZM31.616 54.888L33.4503 57.2619L33.4834 57.2363L33.5157 57.2099L31.616 54.888ZM32 46.056L29.8787 48.1773L29.909 48.2076L29.9401 48.237L32 46.056ZM27.872 43.368L26.6638 46.1139L26.6834 46.1226L26.7031 46.1309L27.872 43.368ZM20.96 40.968L20.0748 43.8344L20.0892 43.8389L20.1036 43.8432L20.96 40.968ZM3.2 30.984L5.59298 29.1747H5.59298L3.2 30.984ZM7.04 6.024L8.87719 8.39565L8.88756 8.38762L8.89786 8.3795L7.04 6.024ZM42.752 6.024L40.8941 8.3795L40.9044 8.38762L40.9148 8.39565L42.752 6.024ZM50.048 20.808V23.808H53.2033L53.0442 20.6567L50.048 20.808ZM32.288 20.808L29.2932 20.9842L29.4593 23.808H32.288V20.808ZM29.888 15.72L27.9195 17.9838L27.9481 18.0087L27.9774 18.0329L29.888 15.72ZM19.424 15.432L21.3564 17.7267L21.3908 17.6977L21.4244 17.6677L19.424 15.432ZM20.672 25.032L22.2036 22.4524V22.4524L20.672 25.032ZM30.272 28.968L31.2332 26.1262L31.2144 26.1198L31.1955 26.1137L30.272 28.968ZM40.832 33.192L39.4904 35.8753L39.5029 35.8815L39.5155 35.8877L40.832 33.192ZM47.936 39.048L45.5648 40.8857L47.936 39.048ZM47.936 59.4L45.4008 57.7961L45.389 57.8147L45.3774 57.8335L47.936 59.4ZM39.488 66.888L38.1464 64.2047H38.1464L39.488 66.888ZM26.336 66.672C21.7336 66.672 17.7133 65.9254 14.2257 64.4961L11.9503 70.0479C16.2707 71.8186 21.0824 72.672 26.336 72.672V66.672ZM14.2257 64.4961C10.7817 63.0846 8.09384 61.035 6.07412 58.3602L1.28588 61.9758C4.00216 65.5731 7.58628 68.2594 11.9503 70.0479L14.2257 64.4961ZM6.09765 58.3918C4.20186 55.8114 3.14356 52.6454 3.03074 48.7531L-2.96674 48.9269C-2.82356 53.8666 -1.44986 58.2526 1.26236 61.9442L6.09765 58.3918ZM0.0320005 51.84H17.504V45.84H0.0320005V51.84ZM14.5197 49.1461C14.8307 52.1785 15.927 54.8559 18.0732 56.8155L22.1188 52.3845C21.321 51.6561 20.6893 50.4935 20.4883 48.5339L14.5197 49.1461ZM18.1275 56.8638C20.2562 58.7149 22.9262 59.52 25.856 59.52V53.52C24.0498 53.52 22.8798 53.0451 22.0645 52.3362L18.1275 56.8638ZM25.856 59.52C28.7113 59.52 31.354 58.8817 33.4503 57.2619L29.7817 52.5141C29.062 53.0703 27.8647 53.52 25.856 53.52V59.52ZM33.5157 57.2099C35.6889 55.4318 36.728 52.975 36.728 50.184H30.728C30.728 51.361 30.3591 52.0402 29.7163 52.5661L33.5157 57.2099ZM36.728 50.184C36.728 47.7411 35.8449 45.5608 34.0599 43.875L29.9401 48.237C30.4591 48.7272 30.728 49.2989 30.728 50.184H36.728ZM34.1213 43.9347C32.7169 42.5303 30.9997 41.4338 29.0409 40.6051L26.7031 46.1309C28.0723 46.7102 29.1071 47.4057 29.8787 48.1773L34.1213 43.9347ZM29.0802 40.6221C27.3097 39.843 24.8661 39.0013 21.8164 38.0928L20.1036 43.8432C23.0699 44.7267 25.2343 45.485 26.6638 46.1139L29.0802 40.6221ZM21.8452 38.1016C17.5773 36.7835 14.184 35.4922 11.6205 34.2403L8.98749 39.6317C11.928 41.0678 15.6387 42.4645 20.0748 43.8344L21.8452 38.1016ZM11.6205 34.2403C9.32296 33.1182 7.31431 31.4513 5.59298 29.1747L0.807022 32.7933C3.05369 35.7647 5.78104 38.0658 8.98749 39.6317L11.6205 34.2403ZM5.59298 29.1747C4.10235 27.2032 3.224 24.4697 3.224 20.712H-2.776C-2.776 25.4023 -1.67035 29.5168 0.807023 32.7933L5.59298 29.1747ZM3.224 20.712C3.224 15.2705 5.14032 11.2904 8.87719 8.39565L5.20281 3.65235C-0.14832 7.79759 -2.776 13.6095 -2.776 20.712H3.224ZM8.89786 8.3795C12.7874 5.31173 17.9991 3.648 24.8 3.648V-2.352C17.0089 -2.352 10.3806 -0.431728 5.18214 3.6685L8.89786 8.3795ZM24.8 3.648C31.7429 3.648 37.0133 5.31857 40.8941 8.3795L44.6099 3.6685C39.4027 -0.438572 32.7051 -2.352 24.8 -2.352V3.648ZM40.9148 8.39565C44.6904 11.3204 46.7708 15.395 47.0518 20.9593L53.0442 20.6567C52.6852 13.549 49.9016 7.76761 44.5892 3.65235L40.9148 8.39565ZM50.048 17.808H32.288V23.808H50.048V17.808ZM35.2828 20.6318C35.1135 17.7535 34.0068 15.2312 31.7986 13.4071L27.9774 18.0329C28.7132 18.6408 29.2065 19.5105 29.2932 20.9842L35.2828 20.6318ZM31.8565 13.4562C29.7427 11.6181 27.1134 10.8 24.224 10.8V16.8C25.9426 16.8 27.0893 17.2619 27.9195 17.9838L31.8565 13.4562ZM24.224 10.8C21.669 10.8 19.3026 11.5151 17.4236 13.1963L21.4244 17.6677C21.9774 17.1729 22.8111 16.8 24.224 16.8V10.8ZM17.4916 13.1373C15.4353 14.8689 14.6 17.3137 14.6 19.944H20.6C20.6 18.6063 20.9807 18.0431 21.3564 17.7267L17.4916 13.1373ZM14.6 19.944C14.6 23.2943 16.286 25.9168 19.1404 27.6116L22.2036 22.4524C20.962 21.7152 20.6 20.9457 20.6 19.944H14.6ZM19.1404 27.6116C21.483 29.0025 24.9405 30.3962 29.3485 31.8223L31.1955 26.1137C26.8995 24.7238 23.957 23.4935 22.2036 22.4524L19.1404 27.6116ZM29.3108 31.8098C33.5929 33.2582 36.9716 34.6159 39.4904 35.8753L42.1736 30.5087C39.3164 29.0801 35.6551 27.6218 31.2332 26.1262L29.3108 31.8098ZM39.5155 35.8877C41.8312 37.0186 43.8455 38.6673 45.5648 40.8857L50.3072 37.2103C48.0586 34.3087 45.3368 32.0534 42.1485 30.4963L39.5155 35.8877ZM45.5648 40.8857C47.0499 42.802 47.912 45.4031 47.912 48.936H53.912C53.912 44.4049 52.7901 40.414 50.3072 37.2103L45.5648 40.8857ZM47.912 48.936C47.912 52.229 47.0702 55.1572 45.4008 57.7961L50.4712 61.0039C52.7698 57.3708 53.912 53.323 53.912 48.936H47.912ZM45.3774 57.8335C43.7871 60.4312 41.4226 62.5666 38.1464 64.2047L40.8296 69.5713C44.9774 67.4974 48.245 64.6408 50.4946 60.9665L45.3774 57.8335ZM38.1464 64.2047C34.9321 65.8119 31.0264 66.672 26.336 66.672V72.672C31.7576 72.672 36.6199 71.6761 40.8296 69.5713L38.1464 64.2047ZM109.495 1.608H112.495V-1.392H109.495V1.608ZM109.495 14.76V17.76H112.495V14.76H109.495ZM91.6385 14.76V11.76H88.6385V14.76H91.6385ZM91.6385 69V72H94.6385V69H91.6385ZM75.2225 69H72.2225V72H75.2225V69ZM75.2225 14.76H78.2225V11.76H75.2225V14.76ZM57.3665 14.76H54.3665V17.76H57.3665V14.76ZM57.3665 1.608V-1.392H54.3665V1.608H57.3665ZM106.495 1.608V14.76H112.495V1.608H106.495ZM109.495 11.76H91.6385V17.76H109.495V11.76ZM88.6385 14.76V69H94.6385V14.76H88.6385ZM91.6385 66H75.2225V72H91.6385V66ZM78.2225 69V14.76H72.2225V69H78.2225ZM75.2225 11.76H57.3665V17.76H75.2225V11.76ZM60.3665 14.76V1.608H54.3665V14.76H60.3665ZM57.3665 4.608H109.495V-1.392H57.3665V4.608ZM159.685 57.096L162.527 56.1336L161.837 54.096H159.685V57.096ZM134.533 57.096V54.096H132.382L131.692 56.1336L134.533 57.096ZM130.501 69V72H132.653L133.343 69.9624L130.501 69ZM113.317 69L110.496 67.9793L109.041 72H113.317V69ZM137.701 1.608V-1.392H135.596L134.88 0.587288L137.701 1.608ZM156.709 1.608L159.53 0.587288L158.814 -1.392H156.709V1.608ZM181.093 69V72H185.369L183.914 67.9793L181.093 69ZM163.717 69L160.876 69.9624L161.566 72H163.717V69ZM155.461 44.424V47.424H159.644L158.303 43.4621L155.461 44.424ZM147.109 19.752L149.951 18.7901L147.093 10.3474L144.264 18.8L147.109 19.752ZM138.853 44.424L136.008 43.472L134.686 47.424H138.853V44.424ZM159.685 54.096H134.533V60.096H159.685V54.096ZM131.692 56.1336L127.66 68.0376L133.343 69.9624L137.375 58.0584L131.692 56.1336ZM130.501 66H113.317V72H130.501V66ZM116.138 70.0207L140.522 2.62871L134.88 0.587288L110.496 67.9793L116.138 70.0207ZM137.701 4.608H156.709V-1.392H137.701V4.608ZM153.888 2.62871L178.272 70.0207L183.914 67.9793L159.53 0.587288L153.888 2.62871ZM181.093 66H163.717V72H181.093V66ZM166.559 68.0376L162.527 56.1336L156.844 58.0584L160.876 69.9624L166.559 68.0376ZM158.303 43.4621L149.951 18.7901L144.268 20.7139L152.62 45.3859L158.303 43.4621ZM144.264 18.8L136.008 43.472L141.698 45.376L149.954 20.704L144.264 18.8ZM138.853 47.424H155.461V41.424H138.853V47.424ZM236.995 1.608H239.995V-1.392H236.995V1.608ZM236.995 14.76V17.76H239.995V14.76H236.995ZM219.139 14.76V11.76H216.139V14.76H219.139ZM219.139 69V72H222.139V69H219.139ZM202.723 69H199.723V72H202.723V69ZM202.723 14.76H205.723V11.76H202.723V14.76ZM184.867 14.76H181.867V17.76H184.867V14.76ZM184.867 1.608V-1.392H181.867V1.608H184.867ZM233.995 1.608V14.76H239.995V1.608H233.995ZM236.995 11.76H219.139V17.76H236.995V11.76ZM216.139 14.76V69H222.139V14.76H216.139ZM219.139 66H202.723V72H219.139V66ZM205.723 69V14.76H199.723V69H205.723ZM202.723 11.76H184.867V17.76H202.723V11.76ZM187.867 14.76V1.608H181.867V14.76H187.867ZM184.867 4.608H236.995V-1.392H184.867V4.608ZM256.369 67.272L255.232 70.0479L256.369 67.272ZM246.961 60.168L244.544 61.9442L244.555 61.9601L244.567 61.9758L246.961 60.168ZM243.313 48.84V45.84H240.225L240.315 48.9269L243.313 48.84ZM260.785 48.84L263.77 48.5339L263.493 45.84H260.785V48.84ZM263.377 54.6L261.354 56.8155L261.381 56.84L261.409 56.8638L263.377 54.6ZM274.897 54.888L276.732 57.2619L276.765 57.2363L276.797 57.2099L274.897 54.888ZM275.281 46.056L273.16 48.1773L273.19 48.2076L273.221 48.237L275.281 46.056ZM271.153 43.368L269.945 46.1139L269.965 46.1226L269.984 46.1309L271.153 43.368ZM264.241 40.968L263.356 43.8344L263.37 43.8389L263.385 43.8432L264.241 40.968ZM246.481 30.984L248.874 29.1747L246.481 30.984ZM250.321 6.024L252.158 8.39565L252.169 8.38762L252.179 8.3795L250.321 6.024ZM286.033 6.024L284.175 8.3795L284.186 8.38762L284.196 8.39565L286.033 6.024ZM293.329 20.808V23.808H296.485L296.325 20.6567L293.329 20.808ZM275.569 20.808L272.574 20.9842L272.741 23.808H275.569V20.808ZM273.169 15.72L271.201 17.9838L271.229 18.0087L271.259 18.0329L273.169 15.72ZM262.705 15.432L264.638 17.7267L264.672 17.6977L264.706 17.6677L262.705 15.432ZM263.953 25.032L265.485 22.4524V22.4524L263.953 25.032ZM273.553 28.968L274.514 26.1262L274.496 26.1198L274.477 26.1137L273.553 28.968ZM284.113 33.192L282.772 35.8753L282.784 35.8815L282.797 35.8877L284.113 33.192ZM291.217 39.048L288.846 40.8857L291.217 39.048ZM291.217 59.4L288.682 57.7961L288.67 57.8147L288.659 57.8335L291.217 59.4ZM282.769 66.888L281.428 64.2047L282.769 66.888ZM269.617 66.672C265.015 66.672 260.995 65.9254 257.507 64.4961L255.232 70.0479C259.552 71.8186 264.364 72.672 269.617 72.672V66.672ZM257.507 64.4961C254.063 63.0846 251.375 61.035 249.355 58.3602L244.567 61.9758C247.283 65.5731 250.868 68.2594 255.232 70.0479L257.507 64.4961ZM249.379 58.3918C247.483 55.8114 246.425 52.6454 246.312 48.7531L240.315 48.9269C240.458 53.8666 241.831 58.2526 244.544 61.9442L249.379 58.3918ZM243.313 51.84H260.785V45.84H243.313V51.84ZM257.801 49.1461C258.112 52.1785 259.208 54.8559 261.354 56.8155L265.4 52.3845C264.602 51.6561 263.971 50.4935 263.77 48.5339L257.801 49.1461ZM261.409 56.8638C263.537 58.7149 266.207 59.52 269.137 59.52V53.52C267.331 53.52 266.161 53.0451 265.346 52.3362L261.409 56.8638ZM269.137 59.52C271.993 59.52 274.635 58.8817 276.732 57.2619L273.063 52.5141C272.343 53.0703 271.146 53.52 269.137 53.52V59.52ZM276.797 57.2099C278.97 55.4318 280.009 52.975 280.009 50.184H274.009C274.009 51.361 273.64 52.0402 272.998 52.5661L276.797 57.2099ZM280.009 50.184C280.009 47.7411 279.126 45.5608 277.341 43.875L273.221 48.237C273.74 48.7272 274.009 49.2989 274.009 50.184H280.009ZM277.403 43.9347C275.998 42.5303 274.281 41.4338 272.322 40.6051L269.984 46.1309C271.354 46.7102 272.388 47.4057 273.16 48.1773L277.403 43.9347ZM272.361 40.6221C270.591 39.843 268.147 39.0013 265.098 38.0928L263.385 43.8432C266.351 44.7267 268.516 45.485 269.945 46.1139L272.361 40.6221ZM265.126 38.1016C260.858 36.7835 257.465 35.4922 254.902 34.2403L252.269 39.6317C255.209 41.0678 258.92 42.4645 263.356 43.8344L265.126 38.1016ZM254.902 34.2403C252.604 33.1182 250.596 31.4513 248.874 29.1747L244.088 32.7933C246.335 35.7647 249.062 38.0658 252.269 39.6317L254.902 34.2403ZM248.874 29.1747C247.384 27.2032 246.505 24.4697 246.505 20.712H240.505C240.505 25.4023 241.611 29.5168 244.088 32.7933L248.874 29.1747ZM246.505 20.712C246.505 15.2705 248.422 11.2904 252.158 8.39565L248.484 3.65235C243.133 7.79759 240.505 13.6095 240.505 20.712H246.505ZM252.179 8.3795C256.069 5.31173 261.28 3.648 268.081 3.648V-2.352C260.29 -2.352 253.662 -0.431728 248.463 3.6685L252.179 8.3795ZM268.081 3.648C275.024 3.648 280.295 5.31857 284.175 8.3795L287.891 3.6685C282.684 -0.438572 275.986 -2.352 268.081 -2.352V3.648ZM284.196 8.39565C287.972 11.3204 290.052 15.395 290.333 20.9593L296.325 20.6567C295.966 13.549 293.183 7.76761 287.87 3.65235L284.196 8.39565ZM293.329 17.808H275.569V23.808H293.329V17.808ZM278.564 20.6318C278.395 17.7535 277.288 15.2312 275.08 13.4071L271.259 18.0329C271.994 18.6408 272.488 19.5105 272.574 20.9842L278.564 20.6318ZM275.138 13.4562C273.024 11.6181 270.395 10.8 267.505 10.8V16.8C269.224 16.8 270.371 17.2619 271.201 17.9838L275.138 13.4562ZM267.505 10.8C264.95 10.8 262.584 11.5151 260.705 13.1963L264.706 17.6677C265.259 17.1729 266.092 16.8 267.505 16.8V10.8ZM260.773 13.1373C258.716 14.8689 257.881 17.3137 257.881 19.944H263.881C263.881 18.6063 264.262 18.0431 264.638 17.7267L260.773 13.1373ZM257.881 19.944C257.881 23.2943 259.567 25.9168 262.422 27.6116L265.485 22.4524C264.243 21.7152 263.881 20.9457 263.881 19.944H257.881ZM262.422 27.6116C264.764 29.0025 268.222 30.3962 272.63 31.8223L274.477 26.1137C270.181 24.7238 267.238 23.4935 265.485 22.4524L262.422 27.6116ZM272.592 31.8098C276.874 33.2582 280.253 34.6159 282.772 35.8753L285.455 30.5087C282.598 29.0801 278.936 27.6218 274.514 26.1262L272.592 31.8098ZM282.797 35.8877C285.112 37.0186 287.127 38.6673 288.846 40.8857L293.589 37.2103C291.34 34.3087 288.618 32.0534 285.43 30.4963L282.797 35.8877ZM288.846 40.8857C290.331 42.802 291.193 45.4031 291.193 48.936H297.193C297.193 44.4049 296.071 40.414 293.589 37.2103L288.846 40.8857ZM291.193 48.936C291.193 52.229 290.351 55.1572 288.682 57.7961L293.752 61.0039C296.051 57.3708 297.193 53.323 297.193 48.936H291.193ZM288.659 57.8335C287.068 60.4312 284.704 62.5666 281.428 64.2047L284.111 69.5713C288.259 67.4974 291.526 64.6408 293.776 60.9665L288.659 57.8335ZM281.428 64.2047C278.213 65.8119 274.308 66.672 269.617 66.672V72.672C275.039 72.672 279.901 71.6761 284.111 69.5713L281.428 64.2047Z" fill="url(#paint0_linear_566_8182)"/>
<defs>
<linearGradient id="paint0_linear_566_8182" x1="47.0674" y1="289.571" x2="42.7519" y2="-77.2369" gradientUnits="userSpaceOnUse">
<stop offset="0.275218" stop-color="white"/>
<stop offset="0.95529" stop-opacity="0"/>
</linearGradient>
</defs>
</svg>
