<svg width="400" height="70" viewBox="0 0 400 70" fill="none" xmlns="http://www.w3.org/2000/svg">
<path d="M52.432 1.608H55.432V-1.392H52.432V1.608ZM52.432 14.76V17.76H55.432V14.76H52.432ZM34.576 14.76V11.76H31.576V14.76H34.576ZM34.576 69V72H37.576V69H34.576ZM18.16 69H15.16V72H18.16V69ZM18.16 14.76H21.16V11.76H18.16V14.76ZM0.304 14.76H-2.696V17.76H0.304V14.76ZM0.304 1.608V-1.392H-2.696V1.608H0.304ZM49.432 1.608V14.76H55.432V1.608H49.432ZM52.432 11.76H34.576V17.76H52.432V11.76ZM31.576 14.76V69H37.576V14.76H31.576ZM34.576 66H18.16V72H34.576V66ZM21.16 69V14.76H15.16V69H21.16ZM18.16 11.76H0.304V17.76H18.16V11.76ZM3.304 14.76V1.608H-2.696V14.76H3.304ZM0.304 4.608H52.432V-1.392H0.304V4.608ZM75.0708 65.256L73.603 67.8724L73.6097 67.8762L73.6165 67.88L75.0708 65.256ZM62.4948 52.968L59.8978 54.4699L59.9085 54.4884L59.9195 54.5069L62.4948 52.968ZM62.4948 17.352L59.9195 15.8131L59.9126 15.8248L59.9057 15.8365L62.4948 17.352ZM75.0708 5.064L73.6165 2.44004L73.6097 2.44379L73.603 2.44757L75.0708 5.064ZM109.919 5.064L108.451 7.68043L108.458 7.68421L108.465 7.68796L109.919 5.064ZM122.399 17.352L119.796 18.8438L119.803 18.8557L119.81 18.8675L122.399 17.352ZM122.399 52.968L124.988 54.4835L124.992 54.4767L124.996 54.4699L122.399 52.968ZM109.919 65.256L111.387 67.8724L109.919 65.256ZM105.407 49.32L103.189 47.3L103.179 47.3109L103.169 47.322L105.407 49.32ZM105.407 20.904L103.169 22.902L103.188 22.9231L103.207 22.9438L105.407 20.904ZM79.4868 20.808L77.2869 18.7682L77.2769 18.779L77.2669 18.79L79.4868 20.808ZM79.4868 49.416L77.2489 51.414L77.2677 51.4351L77.2869 51.4558L79.4868 49.416ZM92.5428 66.672C86.6927 66.672 81.3724 65.3186 76.525 62.632L73.6165 67.88C79.3931 71.0814 85.7208 72.672 92.5428 72.672V66.672ZM76.5385 62.6396C71.755 59.9562 67.9418 56.2349 65.07 51.4291L59.9195 54.5069C63.3197 60.1971 67.8905 64.6678 73.603 67.8724L76.5385 62.6396ZM65.0917 51.4661C62.3033 46.6444 60.8867 41.2171 60.8867 35.112H54.8867C54.8867 42.1908 56.5422 48.6675 59.8978 54.4699L65.0917 51.4661ZM60.8867 35.112C60.8867 29.0065 62.3033 23.6175 65.0838 18.8675L59.9057 15.8365C56.5422 21.5825 54.8867 28.0335 54.8867 35.112H60.8867ZM65.07 18.8909C67.9418 14.0851 71.755 10.3638 76.5385 7.68043L73.603 2.44757C67.8905 5.65216 63.3197 10.1229 59.9195 15.8131L65.07 18.8909ZM76.525 7.68796C81.3724 5.00145 86.6927 3.648 92.5428 3.648V-2.352C85.7208 -2.352 79.3931 -0.761448 73.6165 2.44004L76.525 7.68796ZM92.5428 3.648C98.3929 3.648 103.675 5.00138 108.451 7.68043L111.387 2.44757C105.666 -0.761379 99.3646 -2.352 92.5428 -2.352V3.648ZM108.465 7.68796C113.3 10.3676 117.061 14.073 119.796 18.8438L125.002 15.8602C121.72 10.135 117.162 5.64838 111.373 2.44004L108.465 7.68796ZM119.81 18.8675C122.59 23.6175 124.007 29.0065 124.007 35.112H130.007C130.007 28.0335 128.351 21.5825 124.988 15.8365L119.81 18.8675ZM124.007 35.112C124.007 41.2171 122.59 46.6444 119.802 51.4661L124.996 54.4699C128.351 48.6675 130.007 42.1908 130.007 35.112H124.007ZM119.81 51.4525C117.004 56.2455 113.229 59.9593 108.451 62.6396L111.387 67.8724C117.105 64.6647 121.649 60.1865 124.988 54.4835L119.81 51.4525ZM108.451 62.6396C103.675 65.3186 98.3929 66.672 92.5428 66.672V72.672C99.3646 72.672 105.666 71.0814 111.387 67.8724L108.451 62.6396ZM92.5428 57.696C98.6602 57.696 103.804 55.6193 107.645 51.318L103.169 47.322C100.609 50.1887 97.1773 51.696 92.5428 51.696V57.696ZM107.625 51.34C111.495 47.0904 113.303 41.5786 113.303 35.112H107.303C107.303 40.4214 105.847 44.3816 103.189 47.3L107.625 51.34ZM113.303 35.112C113.303 28.5935 111.501 23.0641 107.607 18.8642L103.207 22.9438C105.84 25.7839 107.303 29.7265 107.303 35.112H113.303ZM107.645 18.9059C103.804 14.6047 98.6602 12.528 92.5428 12.528V18.528C97.1773 18.528 100.609 20.0353 103.169 22.902L107.645 18.9059ZM92.5428 12.528C86.3905 12.528 81.197 14.5515 77.2869 18.7682L81.6866 22.8478C84.3045 20.0245 87.815 18.528 92.5428 18.528V12.528ZM77.2669 18.79C73.4423 22.997 71.6868 28.5545 71.6868 35.112H77.6868C77.6868 29.6375 79.1312 25.659 81.7066 22.826L77.2669 18.79ZM71.6868 35.112C71.6868 41.6177 73.4483 47.1574 77.2489 51.414L81.7246 47.418C79.1252 44.5066 77.6868 40.5103 77.6868 35.112H71.6868ZM77.2869 51.4558C81.197 55.6725 86.3905 57.696 92.5428 57.696V51.696C87.815 51.696 84.3045 50.1995 81.6866 47.3762L77.2869 51.4558ZM184.811 34.056L187.429 35.5218L187.435 35.5108L187.441 35.4998L184.811 34.056ZM176.555 41.832L175.141 39.1862L176.555 41.832ZM152.555 44.808V41.808H149.555V44.808H152.555ZM152.555 69V72H155.555V69H152.555ZM136.139 69H133.139V72H136.139V69ZM136.139 1.608V-1.392H133.139V1.608H136.139ZM176.364 4.392L177.705 1.70871L176.364 4.392ZM152.555 14.856V11.856H149.555V14.856H152.555ZM152.555 31.752H149.555V34.752H152.555V31.752ZM184.499 23.304C184.499 26.7286 183.719 29.8124 182.182 32.6122L187.441 35.4998C189.488 31.7716 190.499 27.6874 190.499 23.304H184.499ZM182.194 32.5902C180.722 35.2193 178.424 37.4316 175.141 39.1862L177.97 44.4778C182.111 42.2644 185.317 39.2927 187.429 35.5218L182.194 32.5902ZM175.141 39.1862C171.978 40.8771 167.889 41.808 162.732 41.808V47.808C168.582 47.808 173.709 46.7549 177.97 44.4778L175.141 39.1862ZM162.732 41.808H152.555V47.808H162.732V41.808ZM149.555 44.808V69H155.555V44.808H149.555ZM152.555 66H136.139V72H152.555V66ZM139.139 69V1.608H133.139V69H139.139ZM136.139 4.608H162.732V-1.392H136.139V4.608ZM162.732 4.608C167.775 4.608 171.831 5.47978 175.022 7.07528L177.705 1.70871C173.472 -0.407787 168.44 -1.392 162.732 -1.392V4.608ZM175.022 7.07528C178.26 8.69456 180.576 10.8615 182.108 13.5549L187.323 10.5891C185.143 6.7545 181.891 3.80143 177.705 1.70871L175.022 7.07528ZM182.108 13.5549C183.676 16.3126 184.499 19.5337 184.499 23.304H190.499C190.499 18.6263 189.467 14.3593 187.323 10.5891L182.108 13.5549ZM161.484 34.752C165.03 34.752 168.257 33.9242 170.567 31.71L166.416 27.378C165.654 28.1077 164.209 28.752 161.484 28.752V34.752ZM170.567 31.71C172.84 29.5315 173.796 26.5815 173.796 23.304H167.796C167.796 25.4025 167.215 26.6125 166.416 27.378L170.567 31.71ZM173.796 23.304C173.796 20.0265 172.84 17.0765 170.567 14.898L166.416 19.23C167.215 19.9955 167.796 21.2055 167.796 23.304H173.796ZM170.567 14.898C168.257 12.6837 165.03 11.856 161.484 11.856V17.856C164.209 17.856 165.654 18.5003 166.416 19.23L170.567 14.898ZM161.484 11.856H152.555V17.856H161.484V11.856ZM149.555 14.856V31.752H155.555V14.856H149.555ZM152.555 34.752H161.484V28.752H152.555V34.752ZM260.262 1.608H263.262V-1.392H260.262V1.608ZM260.262 14.76V17.76H263.262V14.76H260.262ZM232.805 14.76V11.76H229.805V14.76H232.805ZM232.805 28.968H229.805V31.968H232.805V28.968ZM253.35 28.968H256.349V25.968H253.35V28.968ZM253.35 41.736V44.736H256.349V41.736H253.35ZM232.805 41.736V38.736H229.805V41.736H232.805ZM232.805 69V72H235.805V69H232.805ZM216.389 69H213.389V72H216.389V69ZM216.389 1.608V-1.392H213.389V1.608H216.389ZM257.262 1.608V14.76H263.262V1.608H257.262ZM260.262 11.76H232.805V17.76H260.262V11.76ZM229.805 14.76V28.968H235.805V14.76H229.805ZM232.805 31.968H253.35V25.968H232.805V31.968ZM250.35 28.968V41.736H256.349V28.968H250.35ZM253.35 38.736H232.805V44.736H253.35V38.736ZM229.805 41.736V69H235.805V41.736H229.805ZM232.805 66H216.389V72H232.805V66ZM219.389 69V1.608H213.389V69H219.389ZM216.389 4.608H260.262V-1.392H216.389V4.608ZM310.841 57.096L313.683 56.1336L312.993 54.096H310.841V57.096ZM285.69 57.096V54.096H283.538L282.848 56.1336L285.69 57.096ZM281.658 69V72H283.809L284.499 69.9624L281.658 69ZM264.474 69L261.652 67.9793L260.198 72H264.474V69ZM288.858 1.608V-1.392H286.753L286.036 0.587288L288.858 1.608ZM307.866 1.608L310.687 0.587288L309.97 -1.392H307.866V1.608ZM332.25 69V72H336.525L335.071 67.9793L332.25 69ZM314.874 69L312.032 69.9624L312.722 72H314.874V69ZM306.617 44.424V47.424H310.8L309.459 43.4621L306.617 44.424ZM298.266 19.752L301.107 18.7901L298.249 10.3474L295.421 18.8L298.266 19.752ZM290.009 44.424L287.165 43.472L285.842 47.424H290.009V44.424ZM310.841 54.096H285.69V60.096H310.841V54.096ZM282.848 56.1336L278.816 68.0376L284.499 69.9624L288.531 58.0584L282.848 56.1336ZM281.658 66H264.474V72H281.658V66ZM267.295 70.0207L291.679 2.62871L286.036 0.587288L261.652 67.9793L267.295 70.0207ZM288.858 4.608H307.866V-1.392H288.858V4.608ZM305.044 2.62871L329.428 70.0207L335.071 67.9793L310.687 0.587288L305.044 2.62871ZM332.25 66H314.874V72H332.25V66ZM317.715 68.0376L313.683 56.1336L308 58.0584L312.032 69.9624L317.715 68.0376ZM309.459 43.4621L301.107 18.7901L295.424 20.7139L303.776 45.3859L309.459 43.4621ZM295.421 18.8L287.165 43.472L292.854 45.376L301.11 20.704L295.421 18.8ZM290.009 47.424H306.617V41.424H290.009V47.424ZM399.959 69V72H402.959V69H399.959ZM383.543 69L381.04 70.6534L381.929 72H383.543V69ZM356.087 27.432L358.59 25.7786L353.087 17.4468V27.432H356.087ZM356.087 69V72H359.087V69H356.087ZM339.671 69H336.671V72H339.671V69ZM339.671 1.608V-1.392H336.671V1.608H339.671ZM356.087 1.608L358.593 -0.0401115L357.705 -1.392H356.087V1.608ZM383.543 43.368L381.036 45.0161L386.543 53.3917V43.368H383.543ZM383.543 1.608V-1.392H380.543V1.608H383.543ZM399.959 1.608H402.959V-1.392H399.959V1.608ZM399.959 66H383.543V72H399.959V66ZM386.046 67.3466L358.59 25.7786L353.583 29.0854L381.04 70.6534L386.046 67.3466ZM353.087 27.432V69H359.087V27.432H353.087ZM356.087 66H339.671V72H356.087V66ZM342.671 69V1.608H336.671V69H342.671ZM339.671 4.608H356.087V-1.392H339.671V4.608ZM353.58 3.25611L381.036 45.0161L386.049 41.7199L358.593 -0.0401115L353.58 3.25611ZM386.543 43.368V1.608H380.543V43.368H386.543ZM383.543 4.608H399.959V-1.392H383.543V4.608ZM396.959 1.608V69H402.959V1.608H396.959Z" fill="url(#paint0_linear_566_8176)"/>
<defs>
<linearGradient id="paint0_linear_566_8176" x1="66.764" y1="289.571" x2="63.5589" y2="-77.2597" gradientUnits="userSpaceOnUse">
<stop offset="0.275218" stop-color="white"/>
<stop offset="0.95529" stop-opacity="0"/>
</linearGradient>
</defs>
</svg>
