<svg width="68" height="227" viewBox="0 0 68 227" fill="none" xmlns="http://www.w3.org/2000/svg">
<path d="M68 161.23V182.542L33.824 205.102H68L68 226.414H0.0319996V205.102L34.784 182.542H0.0319996L0.0319996 161.23H68ZM0.0319996 82.4812H16.928V109.169H26.336V89.9692H42.368V109.169H68V130.481H0.0319996V82.4812ZM0.0319996 0.766504H16.928V18.8145H68V40.1265H16.928L16.928 57.9825H0.0319996L0.0319996 0.766504Z" fill="#131312"/>
<path d="M68 161.23H71C71 159.573 69.6569 158.23 68 158.23V161.23ZM68 182.542L69.6527 185.045C70.4939 184.49 71 183.55 71 182.542H68ZM33.824 205.102L32.1713 202.598C31.0659 203.328 30.5698 204.696 30.9508 205.965C31.3317 207.233 32.4995 208.102 33.824 208.102V205.102ZM68 205.102H71C71 203.445 69.6569 202.102 68 202.102V205.102ZM68 226.414V229.414C69.6569 229.414 71 228.071 71 226.414H68ZM0.0319977 226.414H-2.968C-2.968 228.071 -1.62486 229.414 0.0319977 229.414V226.414ZM0.0319977 205.102L-1.6015 202.585C-2.45372 203.139 -2.968 204.086 -2.968 205.102H0.0319977ZM34.784 182.542L36.4175 185.058C37.532 184.335 38.0378 182.964 37.6605 181.69C37.2832 180.416 36.1128 179.542 34.784 179.542V182.542ZM0.0319977 182.542H-2.968C-2.968 184.199 -1.62486 185.542 0.0319977 185.542V182.542ZM0.0319977 161.23V158.23C-1.62486 158.23 -2.968 159.573 -2.968 161.23H0.0319977ZM65 161.23V182.542H71V161.23H65ZM66.3473 180.038L32.1713 202.598L35.4767 207.605L69.6527 185.045L66.3473 180.038ZM33.824 208.102H68V202.102H33.824V208.102ZM65 205.102L65 226.414H71L71 205.102H65ZM68 223.414H0.0319977V229.414H68L68 223.414ZM3.032 226.414V205.102H-2.968V226.414H3.032ZM1.6655 207.618L36.4175 185.058L33.1505 180.025L-1.6015 202.585L1.6655 207.618ZM34.784 179.542H0.0319977V185.542H34.784V179.542ZM3.032 182.542L3.032 161.23H-2.968L-2.968 182.542H3.032ZM0.0319977 164.23H68V158.23H0.0319977V164.23ZM0.0319977 82.4813V79.4813C-1.62486 79.4813 -2.968 80.8244 -2.968 82.4813H0.0319977ZM16.928 82.4813H19.928C19.928 80.8244 18.5849 79.4813 16.928 79.4813V82.4813ZM16.928 109.169H13.928C13.928 110.826 15.2711 112.169 16.928 112.169V109.169ZM26.336 109.169V112.169C27.9929 112.169 29.336 110.826 29.336 109.169H26.336ZM26.336 89.9693V86.9693C24.6791 86.9693 23.336 88.3124 23.336 89.9693H26.336ZM42.368 89.9693H45.368C45.368 88.3124 44.0248 86.9693 42.368 86.9693V89.9693ZM42.368 109.169H39.368C39.368 110.826 40.7111 112.169 42.368 112.169V109.169ZM68 109.169H71C71 107.512 69.6569 106.169 68 106.169V109.169ZM68 130.481V133.481C69.6569 133.481 71 132.138 71 130.481H68ZM0.0319977 130.481H-2.968C-2.968 132.138 -1.62486 133.481 0.0319977 133.481V130.481ZM0.0319977 85.4813H16.928V79.4813H0.0319977V85.4813ZM13.928 82.4813V109.169H19.928V82.4813H13.928ZM16.928 112.169H26.336V106.169H16.928V112.169ZM29.336 109.169V89.9693H23.336V109.169H29.336ZM26.336 92.9693H42.368V86.9693H26.336V92.9693ZM39.368 89.9693V109.169H45.368V89.9693H39.368ZM42.368 112.169H68V106.169H42.368V112.169ZM65 109.169V130.481H71V109.169H65ZM68 127.481H0.0319977V133.481H68V127.481ZM3.032 130.481V82.4813H-2.968V130.481H3.032ZM0.0319977 0.76651V-2.23349C-1.62486 -2.23349 -2.968 -0.89035 -2.968 0.76651H0.0319977ZM16.928 0.76651H19.928C19.928 -0.89035 18.5849 -2.23349 16.928 -2.23349V0.76651ZM16.928 18.8145H13.928C13.928 20.4713 15.2711 21.8145 16.928 21.8145V18.8145ZM68 18.8145H71C71 17.1577 69.6569 15.8145 68 15.8145V18.8145ZM68 40.1265V43.1265C69.6569 43.1265 71 41.7834 71 40.1265H68ZM16.928 40.1265V37.1265C15.2711 37.1265 13.928 38.4696 13.928 40.1265H16.928ZM16.928 57.9825V60.9825C18.5849 60.9825 19.928 59.6394 19.928 57.9825H16.928ZM0.0319977 57.9825H-2.968C-2.968 59.6394 -1.62486 60.9825 0.0319977 60.9825V57.9825ZM0.0319977 3.76651H16.928V-2.23349H0.0319977V3.76651ZM13.928 0.76651V18.8145H19.928V0.76651H13.928ZM16.928 21.8145H68V15.8145H16.928V21.8145ZM65 18.8145V40.1265H71V18.8145H65ZM68 37.1265H16.928V43.1265H68V37.1265ZM13.928 40.1265L13.928 57.9825H19.928L19.928 40.1265H13.928ZM16.928 54.9825H0.0319977V60.9825H16.928V54.9825ZM3.032 57.9825L3.032 0.76651H-2.968L-2.968 57.9825H3.032Z" fill="url(#paint0_linear_566_8336)"/>
<defs>
<linearGradient id="paint0_linear_566_8336" x1="-38" y1="115.5" x2="88.5" y2="116" gradientUnits="userSpaceOnUse">
<stop stop-color="white" stop-opacity="0.42"/>
<stop offset="1" stop-color="white" stop-opacity="0"/>
</linearGradient>
</defs>
</svg>
