<svg width="69" height="387" viewBox="0 0 69 387" fill="none" xmlns="http://www.w3.org/2000/svg">
<path d="M57.728 338.616V361.272L68 364.632V387L0.0319996 362.136V337.56L68 312.792V335.256L57.728 338.616ZM41.696 343.8L22.784 349.944L41.696 356.088V343.8ZM51.008 263.214V235.95H68L68 286.83H51.968L16.928 259.95V286.83H0.0319996V235.95H16.064L51.008 263.214ZM0.0319996 184.409H38.336C41.472 184.409 43.968 183.737 45.824 182.393C47.616 180.985 48.512 178.745 48.512 175.673C48.512 172.601 47.616 170.329 45.824 168.857C43.968 167.385 41.472 166.649 38.336 166.649H0.0319996V145.433H38.336C44.8 145.433 50.336 146.777 54.944 149.465C59.488 152.153 62.912 155.833 65.216 160.505C67.52 165.177 68.672 170.393 68.672 176.153C68.672 181.913 67.52 187.033 65.216 191.513C62.912 195.929 59.488 199.385 54.944 201.881C50.4 204.377 44.864 205.625 38.336 205.625H0.0319996V184.409ZM68 74.0332L38.528 93.8092H68V115.121H0.0319996L0.0319996 93.8092H28.64L0.0319996 74.3212V50.2252L32.576 73.6492L68 48.6892V74.0332ZM0.0319996 0.220488H68V21.5325H0.0319996V0.220488Z" fill="#131312"/>
<path d="M57.728 338.616L56.7953 335.765C55.5621 336.168 54.728 337.319 54.728 338.616H57.728ZM57.728 361.272H54.728C54.728 362.569 55.5621 363.72 56.7953 364.123L57.728 361.272ZM68 364.632H71C71 363.335 70.1659 362.184 68.9327 361.781L68 364.632ZM68 387L66.9693 389.817C67.8894 390.154 68.9158 390.02 69.7187 389.459C70.5217 388.898 71 387.98 71 387H68ZM0.0319977 362.136H-2.968C-2.968 363.395 -2.1814 364.521 -0.998661 364.953L0.0319977 362.136ZM0.0319977 337.56L-0.995148 334.741C-2.17972 335.173 -2.968 336.299 -2.968 337.56H0.0319977ZM68 312.792H71C71 311.813 70.5223 310.896 69.7203 310.334C68.9182 309.773 67.8927 309.638 66.9729 309.973L68 312.792ZM68 335.256L68.9327 338.107C70.1659 337.704 71 336.553 71 335.256H68ZM41.696 343.8H44.696C44.696 342.84 44.2363 341.937 43.4594 341.373C42.6825 340.809 41.6824 340.65 40.7691 340.947L41.696 343.8ZM22.784 349.944L21.8571 347.091C20.6209 347.492 19.784 348.644 19.784 349.944C19.784 351.244 20.6209 352.396 21.8571 352.797L22.784 349.944ZM41.696 356.088L40.7691 358.941C41.6824 359.238 42.6825 359.079 43.4594 358.515C44.2363 357.951 44.696 357.048 44.696 356.088H41.696ZM54.728 338.616V361.272H60.728V338.616H54.728ZM56.7953 364.123L67.0673 367.483L68.9327 361.781L58.6607 358.421L56.7953 364.123ZM65 364.632V387H71V364.632H65ZM69.0307 384.183L1.06266 359.319L-0.998661 364.953L66.9693 389.817L69.0307 384.183ZM3.032 362.136V337.56H-2.968V362.136H3.032ZM1.05915 340.379L69.0271 315.611L66.9729 309.973L-0.995148 334.741L1.05915 340.379ZM65 312.792V335.256H71V312.792H65ZM67.0673 332.405L56.7953 335.765L58.6607 341.467L68.9327 338.107L67.0673 332.405ZM40.7691 340.947L21.8571 347.091L23.7109 352.797L42.6229 346.653L40.7691 340.947ZM21.8571 352.797L40.7691 358.941L42.6229 353.235L23.7109 347.091L21.8571 352.797ZM44.696 356.088V343.8H38.696V356.088H44.696ZM51.008 263.214L49.1626 265.579C50.0666 266.285 51.2936 266.413 52.324 265.91C53.3544 265.407 54.008 264.361 54.008 263.214H51.008ZM51.008 235.95V232.95C49.3511 232.95 48.008 234.293 48.008 235.95H51.008ZM68 235.95H71C71 234.293 69.6569 232.95 68 232.95V235.95ZM68 286.83V289.83C69.6569 289.83 71 288.487 71 286.83H68ZM51.968 286.83L50.142 289.21C50.6659 289.612 51.3077 289.83 51.968 289.83V286.83ZM16.928 259.95L18.754 257.57C17.8477 256.874 16.6253 256.754 15.601 257.259C14.5766 257.765 13.928 258.808 13.928 259.95H16.928ZM16.928 286.83V289.83C18.5849 289.83 19.928 288.487 19.928 286.83H16.928ZM0.0319977 286.83H-2.968C-2.968 288.487 -1.62486 289.83 0.0319977 289.83V286.83ZM0.0319977 235.95V232.95C-1.62486 232.95 -2.968 234.293 -2.968 235.95H0.0319977ZM16.064 235.95L17.9094 233.585C17.3822 233.173 16.7327 232.95 16.064 232.95V235.95ZM54.008 263.214V235.95H48.008V263.214H54.008ZM51.008 238.95H68V232.95H51.008V238.95ZM65 235.95L65 286.83H71L71 235.95H65ZM68 283.83H51.968V289.83H68V283.83ZM53.794 284.45L18.754 257.57L15.102 262.33L50.142 289.21L53.794 284.45ZM13.928 259.95V286.83H19.928V259.95H13.928ZM16.928 283.83H0.0319977V289.83H16.928V283.83ZM3.032 286.83V235.95H-2.968V286.83H3.032ZM0.0319977 238.95H16.064V232.95H0.0319977V238.95ZM14.2186 238.315L49.1626 265.579L52.8534 260.849L17.9094 233.585L14.2186 238.315ZM0.0319977 184.409V181.409C-1.62486 181.409 -2.968 182.752 -2.968 184.409H0.0319977ZM45.824 182.393L47.5835 184.823C47.6153 184.8 47.6466 184.776 47.6775 184.752L45.824 182.393ZM45.824 168.857L47.7282 166.539C47.715 166.528 47.7016 166.517 47.6882 166.507L45.824 168.857ZM0.0319977 166.649H-2.968C-2.968 168.306 -1.62486 169.649 0.0319977 169.649V166.649ZM0.0319977 145.433V142.433C-1.62486 142.433 -2.968 143.776 -2.968 145.433H0.0319977ZM54.944 149.465L56.4714 146.883C56.4662 146.88 56.4609 146.877 56.4556 146.874L54.944 149.465ZM65.216 160.505L67.9066 159.178L65.216 160.505ZM65.216 191.513L67.8758 192.901C67.8785 192.896 67.8812 192.891 67.8839 192.885L65.216 191.513ZM54.944 201.881L56.3883 204.511L54.944 201.881ZM0.0319977 205.625H-2.968C-2.968 207.282 -1.62486 208.625 0.0319977 208.625V205.625ZM0.0319977 187.409H38.336V181.409H0.0319977V187.409ZM38.336 187.409C41.8757 187.409 45.0575 186.652 47.5835 184.823L44.0645 179.963C42.8784 180.822 41.0683 181.409 38.336 181.409V187.409ZM47.6775 184.752C50.426 182.593 51.512 179.323 51.512 175.673H45.512C45.512 178.168 44.806 179.378 43.9705 180.034L47.6775 184.752ZM51.512 175.673C51.512 172.015 50.4234 168.753 47.7282 166.539L43.9198 171.175C44.8086 171.905 45.512 173.187 45.512 175.673H51.512ZM47.6882 166.507C45.1521 164.495 41.9291 163.649 38.336 163.649V169.649C41.0149 169.649 42.7839 170.275 43.9598 171.208L47.6882 166.507ZM38.336 163.649H0.0319977V169.649H38.336V163.649ZM3.032 166.649V145.433H-2.968V166.649H3.032ZM0.0319977 148.433H38.336V142.433H0.0319977V148.433ZM38.336 148.433C44.3811 148.433 49.3713 149.688 53.4324 152.057L56.4556 146.874C51.3007 143.867 45.2188 142.433 38.336 142.433V148.433ZM53.4166 152.047C57.4664 154.443 60.4827 157.69 62.5254 161.832L67.9066 159.178C65.3413 153.976 61.5096 149.864 56.4714 146.883L53.4166 152.047ZM62.5254 161.832C64.6051 166.049 65.672 170.804 65.672 176.153H71.672C71.672 169.982 70.4349 164.305 67.9066 159.178L62.5254 161.832ZM65.672 176.153C65.672 181.505 64.6044 186.143 62.5481 190.141L67.8839 192.885C70.4356 187.924 71.672 182.322 71.672 176.153H65.672ZM62.5562 190.126C60.5376 193.995 57.5473 197.028 53.4997 199.252L56.3883 204.511C61.4287 201.742 65.2864 197.864 67.8758 192.901L62.5562 190.126ZM53.4997 199.252C49.4986 201.45 44.4875 202.625 38.336 202.625V208.625C45.2405 208.625 51.3014 207.305 56.3883 204.511L53.4997 199.252ZM38.336 202.625H0.0319977V208.625H38.336V202.625ZM3.032 205.625V184.409H-2.968V205.625H3.032ZM68 74.0332L69.6716 76.5244C70.5019 75.9673 71 75.0331 71 74.0332H68ZM38.528 93.8092L36.8564 91.3181C35.76 92.0538 35.2735 93.4198 35.658 94.6829C36.0425 95.946 37.2077 96.8092 38.528 96.8092V93.8092ZM68 93.8092H71C71 92.1524 69.6569 90.8092 68 90.8092V93.8092ZM68 115.121V118.121C69.6569 118.121 71 116.778 71 115.121H68ZM0.0319977 115.121H-2.968C-2.968 116.778 -1.62486 118.121 0.0319977 118.121V115.121ZM0.0319977 93.8092V90.8092C-1.62486 90.8092 -2.968 92.1524 -2.968 93.8092H0.0319977ZM28.64 93.8092V96.8092C29.9565 96.8092 31.1191 95.951 31.5069 94.6929C31.8947 93.4349 31.417 92.071 30.329 91.3298L28.64 93.8092ZM0.0319977 74.3212H-2.968C-2.968 75.3137 -2.47719 76.2419 -1.65698 76.8006L0.0319977 74.3212ZM0.0319977 50.2252L1.78453 47.7903C0.870876 47.1328 -0.334038 47.042 -1.33592 47.5552C-2.3378 48.0685 -2.968 49.0995 -2.968 50.2252H0.0319977ZM32.576 73.6492L30.8235 76.0841C31.8613 76.8311 33.2586 76.8382 34.304 76.1016L32.576 73.6492ZM68 48.6892H71C71 47.5689 70.3758 46.542 69.3813 46.0262C68.3869 45.5103 67.1878 45.5916 66.272 46.2368L68 48.6892ZM66.3284 71.5421L36.8564 91.3181L40.1996 96.3004L69.6716 76.5244L66.3284 71.5421ZM38.528 96.8092H68V90.8092H38.528V96.8092ZM65 93.8092V115.121H71V93.8092H65ZM68 112.121H0.0319977V118.121H68V112.121ZM3.032 115.121L3.032 93.8092H-2.968L-2.968 115.121H3.032ZM0.0319977 96.8092H28.64V90.8092H0.0319977V96.8092ZM30.329 91.3298L1.72098 71.8419L-1.65698 76.8006L26.951 96.2886L30.329 91.3298ZM3.032 74.3212V50.2252H-2.968V74.3212H3.032ZM-1.72054 52.6601L30.8235 76.0841L34.3285 71.2144L1.78453 47.7903L-1.72054 52.6601ZM34.304 76.1016L69.728 51.1416L66.272 46.2368L30.848 71.1969L34.304 76.1016ZM65 48.6892V74.0332H71V48.6892H65ZM0.0319977 0.22049V-2.77951C-1.62486 -2.77951 -2.968 -1.43637 -2.968 0.22049H0.0319977ZM68 0.22049H71C71 -1.43637 69.6569 -2.77951 68 -2.77951V0.22049ZM68 21.5325V24.5325C69.6569 24.5325 71 23.1893 71 21.5325H68ZM0.0319977 21.5325H-2.968C-2.968 23.1893 -1.62486 24.5325 0.0319977 24.5325V21.5325ZM0.0319977 3.22049H68V-2.77951H0.0319977V3.22049ZM65 0.22049V21.5325H71V0.22049H65ZM68 18.5325H0.0319977V24.5325H68V18.5325ZM3.032 21.5325V0.22049H-2.968V21.5325H3.032Z" fill="url(#paint0_linear_566_8270)"/>
<defs>
<linearGradient id="paint0_linear_566_8270" x1="-38" y1="160.5" x2="88.5" y2="161" gradientUnits="userSpaceOnUse">
<stop stop-color="white" stop-opacity="0.42"/>
<stop offset="1" stop-opacity="0"/>
</linearGradient>
</defs>
</svg>
