<svg width="68" height="338" viewBox="0 0 68 338" fill="none" xmlns="http://www.w3.org/2000/svg">
    <path d="M0.0319996 255.715H68V276.931H34.112L68 287.395V305.635L34.112 316.099H68V337.411H0.0319996V311.299L40.832 296.323L0.0319996 281.731V255.715ZM17.024 203.667H25.376V182.547H41.408V203.667H51.008V179.667H68V224.979H0.0319996L0.0319996 179.667H17.024V203.667ZM0.0319996 97.139H16.928L16.928 115.187H68V136.499H16.928V154.355H0.0319996L0.0319996 97.139ZM57.728 26.6548V49.3108L68 52.6708V75.0388L0.0319996 50.1748V25.5988L68 0.830751V23.2948L57.728 26.6548ZM41.696 31.8388L22.784 37.9828L41.696 44.1268V31.8388Z" fill="#131312"/>
    <path d="M0.0319996 255.715V252.715C-1.62485 252.715 -2.968 254.058 -2.968 255.715H0.0319996ZM68 255.715H71C71 254.058 69.6569 252.715 68 252.715V255.715ZM68 276.931V279.931C69.6569 279.931 71 278.588 71 276.931H68ZM34.112 276.931V273.931C32.628 273.931 31.367 275.016 31.1456 276.484C30.9242 277.951 31.8089 279.36 33.2269 279.798L34.112 276.931ZM68 287.395H71C71 286.079 70.1424 284.917 68.8851 284.529L68 287.395ZM68 305.635L68.8851 308.502C70.1424 308.113 71 306.951 71 305.635H68ZM34.112 316.099L33.2269 313.233C31.8089 313.671 30.9242 315.079 31.1456 316.547C31.367 318.014 32.628 319.099 34.112 319.099V316.099ZM68 316.099H71C71 314.442 69.6569 313.099 68 313.099V316.099ZM68 337.411V340.411C69.6569 340.411 71 339.068 71 337.411H68ZM0.0319996 337.411H-2.968C-2.968 339.068 -1.62485 340.411 0.0319996 340.411L0.0319996 337.411ZM0.0319996 311.299L-1.00174 308.483C-2.18288 308.917 -2.968 310.041 -2.968 311.299H0.0319996ZM40.832 296.323L41.8657 299.14C43.0512 298.704 43.8372 297.574 43.832 296.311C43.8267 295.048 43.0313 293.924 41.8423 293.498L40.832 296.323ZM0.0319996 281.731H-2.968C-2.968 282.999 -2.1716 284.129 -0.978273 284.556L0.0319996 281.731ZM0.0319996 258.715H68V252.715H0.0319996V258.715ZM65 255.715V276.931H71V255.715H65ZM68 273.931H34.112V279.931H68V273.931ZM33.2269 279.798L67.1149 290.262L68.8851 284.529L34.9971 274.065L33.2269 279.798ZM65 287.395V305.635H71V287.395H65ZM67.1149 302.769L33.2269 313.233L34.9971 318.966L68.8851 308.502L67.1149 302.769ZM34.112 319.099H68V313.099H34.112V319.099ZM65 316.099V337.411H71V316.099H65ZM68 334.411H0.0319996L0.0319996 340.411H68V334.411ZM3.032 337.411V311.299H-2.968V337.411H3.032ZM1.06574 314.116L41.8657 299.14L39.7983 293.507L-1.00174 308.483L1.06574 314.116ZM41.8423 293.498L1.04227 278.906L-0.978273 284.556L39.8217 299.148L41.8423 293.498ZM3.032 281.731V255.715H-2.968V281.731H3.032ZM17.024 203.667H14.024C14.024 205.324 15.3671 206.667 17.024 206.667V203.667ZM25.376 203.667V206.667C27.0329 206.667 28.376 205.324 28.376 203.667H25.376ZM25.376 182.547V179.547C23.7191 179.547 22.376 180.89 22.376 182.547H25.376ZM41.408 182.547H44.408C44.408 180.89 43.0649 179.547 41.408 179.547V182.547ZM41.408 203.667H38.408C38.408 205.324 39.7511 206.667 41.408 206.667V203.667ZM51.008 203.667V206.667C52.6649 206.667 54.008 205.324 54.008 203.667H51.008ZM51.008 179.667V176.667C49.3511 176.667 48.008 178.01 48.008 179.667H51.008ZM68 179.667H71C71 178.01 69.6569 176.667 68 176.667V179.667ZM68 224.979V227.979C69.6569 227.979 71 226.636 71 224.979H68ZM0.0319996 224.979H-2.968C-2.968 226.636 -1.62485 227.979 0.0319996 227.979V224.979ZM0.0319996 179.667V176.667C-1.62485 176.667 -2.968 178.01 -2.968 179.667H0.0319996ZM17.024 179.667H20.024C20.024 178.01 18.6809 176.667 17.024 176.667V179.667ZM17.024 206.667H25.376V200.667H17.024V206.667ZM28.376 203.667V182.547H22.376V203.667H28.376ZM25.376 185.547H41.408V179.547H25.376V185.547ZM38.408 182.547V203.667H44.408V182.547H38.408ZM41.408 206.667H51.008V200.667H41.408V206.667ZM54.008 203.667V179.667H48.008V203.667H54.008ZM51.008 182.667H68V176.667H51.008V182.667ZM65 179.667V224.979H71V179.667H65ZM68 221.979H0.0319996L0.0319996 227.979H68V221.979ZM3.032 224.979L3.032 179.667H-2.968L-2.968 224.979H3.032ZM0.0319996 182.667H17.024V176.667H0.0319996V182.667ZM14.024 179.667V203.667H20.024V179.667H14.024ZM0.0319996 97.139V94.139C-1.62485 94.139 -2.968 95.4821 -2.968 97.139H0.0319996ZM16.928 97.139H19.928C19.928 95.4821 18.5849 94.139 16.928 94.139V97.139ZM16.928 115.187H13.928C13.928 116.844 15.2711 118.187 16.928 118.187V115.187ZM68 115.187H71C71 113.53 69.6569 112.187 68 112.187V115.187ZM68 136.499V139.499C69.6569 139.499 71 138.156 71 136.499H68ZM16.928 136.499V133.499C15.2711 133.499 13.928 134.842 13.928 136.499H16.928ZM16.928 154.355V157.355C18.5849 157.355 19.928 156.012 19.928 154.355H16.928ZM0.0319996 154.355H-2.968C-2.968 156.012 -1.62485 157.355 0.0319996 157.355V154.355ZM0.0319996 100.139H16.928V94.139H0.0319996V100.139ZM13.928 97.139L13.928 115.187H19.928L19.928 97.139H13.928ZM16.928 118.187H68V112.187H16.928V118.187ZM65 115.187V136.499H71V115.187H65ZM68 133.499H16.928V139.499H68V133.499ZM13.928 136.499V154.355H19.928V136.499H13.928ZM16.928 151.355H0.0319996V157.355H16.928V151.355ZM3.032 154.355L3.032 97.139H-2.968L-2.968 154.355H3.032ZM57.728 26.6548L56.7953 23.8034C55.5621 24.2068 54.728 25.3573 54.728 26.6548H57.728ZM57.728 49.3108H54.728C54.728 50.6083 55.5621 51.7587 56.7953 52.1621L57.728 49.3108ZM68 52.6708H71C71 51.3733 70.1659 50.2228 68.9327 49.8194L68 52.6708ZM68 75.0388L66.9693 77.8562C67.8894 78.1927 68.9158 78.0589 69.7187 77.4976C70.5217 76.9364 71 76.0184 71 75.0388H68ZM0.0319996 50.1748H-2.968C-2.968 51.4342 -2.18141 52.5595 -0.998659 52.9922L0.0319996 50.1748ZM0.0319996 25.5988L-0.995147 22.7801C-2.17972 23.2117 -2.968 24.338 -2.968 25.5988H0.0319996ZM68 0.830751H71C71 -0.148247 70.5223 -1.06566 69.7203 -1.62704C68.9182 -2.18841 67.8927 -2.32312 66.9729 -1.98793L68 0.830751ZM68 23.2948L68.9327 26.1461C70.1659 25.7427 71 24.5923 71 23.2948H68ZM41.696 31.8388H44.696C44.696 30.8785 44.2363 29.9762 43.4594 29.4117C42.6825 28.8473 41.6824 28.6888 40.7691 28.9855L41.696 31.8388ZM22.784 37.9828L21.8571 35.1295C20.6209 35.5311 19.784 36.683 19.784 37.9828C19.784 39.2825 20.6209 40.4344 21.8571 40.836L22.784 37.9828ZM41.696 44.1268L40.7691 46.98C41.6824 47.2767 42.6825 47.1182 43.4594 46.5538C44.2363 45.9893 44.696 45.087 44.696 44.1268H41.696ZM54.728 26.6548V49.3108H60.728V26.6548H54.728ZM56.7953 52.1621L67.0673 55.5221L68.9327 49.8194L58.6607 46.4594L56.7953 52.1621ZM65 52.6708V75.0388H71V52.6708H65ZM69.0307 72.2214L1.06266 47.3574L-0.998659 52.9922L66.9693 77.8562L69.0307 72.2214ZM3.032 50.1748V25.5988H-2.968V50.1748H3.032ZM1.05915 28.4174L69.0271 3.64943L66.9729 -1.98793L-0.995147 22.7801L1.05915 28.4174ZM65 0.830751V23.2948H71V0.830751H65ZM67.0673 20.4434L56.7953 23.8034L58.6607 29.5061L68.9327 26.1461L67.0673 20.4434ZM40.7691 28.9855L21.8571 35.1295L23.7109 40.836L42.6229 34.692L40.7691 28.9855ZM21.8571 40.836L40.7691 46.98L42.6229 41.2735L23.7109 35.1295L21.8571 40.836ZM44.696 44.1268V31.8388H38.696V44.1268H44.696Z" fill="url(#paint0_linear_1001_8072)"/>
    <defs>
    <linearGradient id="paint0_linear_1001_8072" x1="-38" y1="171.5" x2="88.5" y2="172" gradientUnits="userSpaceOnUse">
    <stop stop-color="white" stop-opacity="0.42"/>
    <stop offset="1" stop-opacity="0"/>
    </linearGradient>
    </defs>
    </svg>
    