<svg width="1091" height="185" viewBox="0 0 1091 185" fill="none" xmlns="http://www.w3.org/2000/svg">
<path d="M0.711812 91.3366C0.752134 73.8366 4.28803 58.2614 11.3195 44.6109C18.5176 30.9608 28.7087 20.4009 41.8926 12.9312C55.0769 5.29492 70.5857 1.49731 88.419 1.5384C103.752 1.57373 117.412 4.52188 129.399 10.3829C141.552 16.0775 151.367 24.1835 158.843 34.7008C166.485 45.2184 171.54 57.4801 174.008 71.4858L115.508 71.351C112.855 65.5115 109.032 61.0027 104.039 57.8245C99.2137 54.4801 93.6342 52.8005 87.3009 52.786C77.9676 52.7645 70.5428 56.2474 65.0267 63.2347C59.6773 70.2224 56.9889 79.6329 56.9617 91.4662C56.9344 103.299 59.5794 112.722 64.8965 119.735C70.3804 126.747 77.789 130.264 87.1223 130.286C93.4556 130.3 99.0426 128.73 103.883 125.574C108.891 122.253 112.735 117.678 115.415 111.851L173.915 111.986C171.382 125.98 166.271 138.218 158.58 148.7C151.056 159.183 141.204 167.327 129.024 173.132C117.011 178.771 103.338 181.573 88.0042 181.538C70.1709 181.497 54.6796 177.711 41.5303 170.181C28.3813 162.484 18.2392 151.794 11.1041 138.111C4.13558 124.428 0.67149 108.837 0.711812 91.3366ZM334.985 182.607C318.318 182.569 302.994 178.617 289.012 170.751C275.197 162.886 264.222 152.027 256.087 138.175C247.952 124.323 243.905 108.73 243.945 91.397C243.985 74.0637 248.104 58.4898 256.302 44.6753C264.501 30.8609 275.526 20.1362 289.377 12.5015C303.395 4.7004 318.737 0.819077 335.404 0.857479C352.07 0.895881 367.311 4.84767 381.126 12.7129C394.942 20.4114 405.834 31.1865 413.802 45.0382C421.937 58.8903 425.984 74.483 425.944 91.8163C425.904 109.15 421.785 124.724 413.587 138.538C405.555 152.353 394.53 163.161 380.512 170.962C366.66 178.763 351.485 182.645 334.985 182.607ZM335.104 130.857C346.104 130.882 354.612 127.402 360.628 120.416C366.645 113.263 369.667 103.687 369.694 91.6867C369.722 79.5201 366.745 69.9299 360.761 62.9161C354.777 55.7356 346.285 52.1327 335.286 52.1073C324.119 52.0816 315.527 55.6452 309.511 62.798C303.495 69.7841 300.473 79.3605 300.445 91.5272C300.417 103.527 303.395 113.117 309.378 120.298C315.362 127.312 323.937 130.831 335.104 130.857ZM679.417 4.65014L619.51 181.513L547.76 181.347L488.668 4.21063L547.668 4.34657L583.887 126.18L620.417 4.5142L679.417 4.65014ZM802.239 49.1832L802.189 70.9332L857.189 71.0599L857.092 112.81L802.092 112.683L802.035 137.683L864.535 137.827L864.433 182.077L746.433 181.805L746.841 4.80549L864.841 5.07737L864.739 49.3273L802.239 49.1832ZM1029.35 182.457L996.245 118.88L995.995 118.88L995.848 182.38L940.349 182.252L940.756 5.25229L1023.26 5.44238C1037.59 5.47541 1049.83 8.08695 1059.99 13.277C1070.14 18.3004 1077.71 25.2346 1082.69 34.0794C1087.84 42.7579 1090.4 52.5972 1090.37 63.5972C1090.35 75.4305 1086.99 85.9228 1080.3 95.074C1073.78 104.226 1064.35 110.787 1052 114.759L1090.35 182.597L1029.35 182.457ZM996.08 81.88L1018.08 81.9307C1023.41 81.9429 1027.42 80.7855 1030.09 78.4583C1032.76 75.9645 1034.1 72.1342 1034.11 66.9676C1034.13 62.3009 1032.72 58.631 1029.89 55.9578C1027.23 53.285 1023.32 51.9426 1018.15 51.9307L996.149 51.88L996.08 81.88Z" fill="#131312"/>
<path d="M11.3195 44.6109L8.66586 43.2115C8.66137 43.22 8.65693 43.2285 8.65253 43.2371L11.3195 44.6109ZM41.8926 12.9312L43.3714 15.5414C43.3797 15.5367 43.3879 15.532 43.3962 15.5272L41.8926 12.9312ZM129.399 10.3829L128.081 13.0779C128.096 13.0852 128.111 13.0924 128.126 13.0994L129.399 10.3829ZM158.843 34.7008L156.398 36.4388C156.404 36.4473 156.41 36.4558 156.416 36.4643L158.843 34.7008ZM174.008 71.4858L174.001 74.4858C174.889 74.4878 175.732 74.0964 176.304 73.417C176.875 72.7375 177.117 71.8397 176.963 70.9652L174.008 71.4858ZM115.508 71.351L112.777 72.592C113.263 73.6609 114.327 74.3483 115.501 74.351L115.508 71.351ZM104.039 57.8245L102.33 60.2903C102.363 60.3126 102.395 60.3343 102.428 60.3553L104.039 57.8245ZM65.0267 63.2347L62.6721 61.3758C62.6628 61.3875 62.6537 61.3992 62.6446 61.411L65.0267 63.2347ZM64.8965 119.735L62.5061 121.547C62.5151 121.559 62.5242 121.571 62.5333 121.583L64.8965 119.735ZM103.883 125.574L105.521 128.088C105.528 128.083 105.535 128.079 105.542 128.074L103.883 125.574ZM115.415 111.851L115.422 108.851C114.248 108.848 113.18 109.531 112.689 110.597L115.415 111.851ZM173.915 111.986L176.867 112.52C177.025 111.646 176.788 110.747 176.219 110.065C175.651 109.383 174.81 108.988 173.922 108.986L173.915 111.986ZM158.58 148.7L156.161 146.926C156.155 146.934 156.149 146.943 156.143 146.951L158.58 148.7ZM129.024 173.132L130.298 175.848C130.304 175.846 130.309 175.843 130.314 175.841L129.024 173.132ZM41.5303 170.181L40.0147 172.77C40.0229 172.775 40.0311 172.779 40.0394 172.784L41.5303 170.181ZM11.1041 138.111L8.43079 139.472C8.43516 139.481 8.43956 139.489 8.444 139.498L11.1041 138.111ZM3.7118 91.3435C3.75118 74.2522 7.20148 59.1566 13.9865 45.9846L8.65253 43.2371C1.37458 57.3661 -2.24692 73.421 -2.28818 91.3296L3.7118 91.3435ZM13.9731 46.0102C20.9088 32.8579 30.6965 22.7227 43.3714 15.5414L40.4137 10.3211C26.7208 18.0791 16.1265 29.0636 8.66586 43.2115L13.9731 46.0102ZM43.3962 15.5272C56.0485 8.19902 71.0178 4.49832 88.412 4.53839L88.4259 -1.46159C70.1535 -1.50369 54.1052 2.39082 40.389 10.3352L43.3962 15.5272ZM88.412 4.53839C103.359 4.57283 116.559 7.44437 128.081 13.0779L130.716 7.68778C118.265 1.5994 104.146 -1.42537 88.4259 -1.46159L88.412 4.53839ZM128.126 13.0994C139.83 18.5837 149.234 26.3607 156.398 36.4388L161.288 32.9627C153.5 22.0063 143.274 13.5714 130.672 7.66628L128.126 13.0994ZM156.416 36.4643C163.766 46.5794 168.657 58.4068 171.054 72.0064L176.963 70.9652C174.423 56.5533 169.205 43.8573 161.27 32.9373L156.416 36.4643ZM174.015 68.4858L115.515 68.351L115.501 74.351L174.001 74.4858L174.015 68.4858ZM118.239 70.11C115.367 63.7874 111.175 58.8104 105.65 55.2938L102.428 60.3553C106.889 63.195 110.343 67.2357 112.777 72.592L118.239 70.11ZM105.748 55.3588C100.383 51.6402 94.1992 49.8018 87.3078 49.786L87.294 55.7859C93.0692 55.7993 98.0446 57.3199 102.33 60.2903L105.748 55.3588ZM87.3078 49.786C77.1056 49.7625 68.7899 53.6263 62.6721 61.3758L67.3814 65.0936C72.2958 58.8684 78.8295 55.7664 87.294 55.7859L87.3078 49.786ZM62.6446 61.411C56.778 69.0742 53.9899 79.1936 53.9617 91.4593L59.9617 91.4731C59.9879 80.0721 62.5765 71.3705 67.4088 65.0583L62.6446 61.411ZM53.9617 91.4593C53.9334 103.725 56.6749 113.857 62.5061 121.547L67.287 117.922C62.4839 111.588 59.9354 102.874 59.9617 91.4731L53.9617 91.4593ZM62.5333 121.583C68.6154 129.36 76.9132 133.262 87.1154 133.286L87.1292 127.286C78.6648 127.266 72.1454 124.134 67.2598 117.886L62.5333 121.583ZM87.1154 133.286C93.9744 133.302 100.145 131.592 105.521 128.088L102.245 123.061C97.9403 125.867 92.9368 127.299 87.1292 127.286L87.1154 133.286ZM105.542 128.074C111.045 124.423 115.244 119.403 118.14 113.104L112.689 110.597C110.226 115.954 106.736 120.082 102.225 123.074L105.542 128.074ZM115.408 114.851L173.908 114.986L173.922 108.986L115.422 108.851L115.408 114.851ZM170.963 111.452C168.504 125.04 163.558 136.845 156.161 146.926L160.999 150.475C168.984 139.592 174.261 126.92 176.867 112.52L170.963 111.452ZM156.143 146.951C148.928 157.004 139.478 164.826 127.733 170.424L130.314 175.841C142.93 169.828 153.184 161.363 161.017 150.45L156.143 146.951ZM127.749 170.417C116.195 175.84 102.97 178.572 88.0111 178.538L87.9973 184.538C103.705 184.574 117.827 181.702 130.298 175.848L127.749 170.417ZM88.0111 178.538C70.6059 178.498 55.6445 174.807 43.0211 167.577L40.0394 172.784C53.7147 180.616 69.736 184.496 87.9973 184.538L88.0111 178.538ZM43.0458 167.592C30.3903 160.184 20.6419 149.913 13.7641 136.724L8.444 139.498C15.8365 153.674 26.3722 164.784 40.0147 172.77L43.0458 167.592ZM13.7773 136.749C7.05312 123.546 3.67242 108.435 3.7118 91.3435L-2.28818 91.3296C-2.32944 109.238 1.21803 125.31 8.43079 139.472L13.7773 136.749ZM289.012 170.751L287.528 173.358C287.532 173.361 287.537 173.363 287.541 173.366L289.012 170.751ZM256.087 138.175L253.5 139.694L256.087 138.175ZM289.377 12.5015L290.825 15.1288L290.835 15.1229L289.377 12.5015ZM381.126 12.7129L379.642 15.32C379.65 15.3245 379.658 15.329 379.666 15.3335L381.126 12.7129ZM413.802 45.0382L411.202 46.5341C411.206 46.5419 411.211 46.5497 411.215 46.5574L413.802 45.0382ZM413.587 138.538L411.007 137.007C411.002 137.015 410.998 137.022 410.993 137.03L413.587 138.538ZM380.512 170.962L379.053 168.34C379.048 168.343 379.044 168.345 379.04 168.348L380.512 170.962ZM360.628 120.416L362.901 122.374C362.909 122.365 362.917 122.356 362.924 122.347L360.628 120.416ZM360.761 62.9161L358.456 64.8366C358.463 64.8455 358.471 64.8544 358.478 64.8632L360.761 62.9161ZM309.511 62.798L311.784 64.7556C311.792 64.7468 311.799 64.738 311.807 64.7291L309.511 62.798ZM309.378 120.298L307.074 122.218C307.081 122.227 307.089 122.236 307.096 122.245L309.378 120.298ZM334.992 179.607C318.817 179.57 304 175.74 290.483 168.136L287.541 173.366C301.988 181.493 317.819 185.567 334.978 185.607L334.992 179.607ZM290.496 168.144C277.142 160.541 266.546 150.06 258.674 136.656L253.5 139.694C261.898 153.994 273.251 165.23 287.528 173.358L290.496 168.144ZM258.674 136.656C250.832 123.303 246.906 108.245 246.945 91.4039L240.945 91.3901C240.904 109.216 245.072 125.343 253.5 139.694L258.674 136.656ZM246.945 91.4039C246.984 74.5632 250.979 59.5232 258.882 46.2064L253.723 43.1442C245.229 57.4564 240.986 73.5642 240.945 91.3901L246.945 91.4039ZM258.882 46.2064C266.812 32.8441 277.45 22.5013 290.825 15.1288L287.928 9.87415C273.602 17.7712 262.189 28.8776 253.723 43.1442L258.882 46.2064ZM290.835 15.1229C304.387 7.58114 319.222 3.8202 335.397 3.85747L335.41 -2.14251C318.252 -2.18205 302.402 1.81966 287.918 9.88004L290.835 15.1229ZM335.397 3.85747C351.571 3.89474 366.299 7.7237 379.642 15.32L382.611 10.1058C368.323 1.97165 352.569 -2.10298 335.41 -2.14251L335.397 3.85747ZM379.666 15.3335C393.002 22.7644 403.502 33.1485 411.202 46.5341L416.402 43.5424C408.166 29.2245 396.882 18.0583 382.587 10.0923L379.666 15.3335ZM411.215 46.5574C419.057 59.9105 422.983 74.9688 422.944 91.8094L428.944 91.8233C428.985 73.9973 424.817 57.8702 416.389 43.5191L411.215 46.5574ZM422.944 91.8094C422.905 108.65 418.91 123.69 411.007 137.007L416.166 140.069C424.66 125.757 428.903 109.649 428.944 91.8233L422.944 91.8094ZM410.993 137.03C403.234 150.377 392.601 160.801 379.053 168.34L381.971 173.583C396.458 165.521 407.876 154.329 416.18 140.046L410.993 137.03ZM379.04 168.348C365.657 175.885 350.994 179.644 334.992 179.607L334.978 185.607C351.976 185.646 367.664 181.641 381.984 173.576L379.04 168.348ZM335.097 133.857C346.787 133.884 356.203 130.152 362.901 122.374L358.355 118.458C353.021 124.652 345.421 127.881 335.111 127.857L335.097 133.857ZM362.924 122.347C369.51 114.518 372.666 104.194 372.694 91.6936L366.694 91.6798C366.668 103.18 363.78 112.009 358.332 118.485L362.924 122.347ZM372.694 91.6936C372.724 79.043 369.623 68.6814 363.043 60.969L358.478 64.8632C363.866 71.1784 366.721 79.9972 366.694 91.6798L372.694 91.6936ZM363.065 60.9956C356.411 53.0096 347.006 49.1343 335.292 49.1073L335.279 55.1073C345.565 55.131 353.144 58.4616 358.456 64.8366L363.065 60.9956ZM335.292 49.1073C323.429 49.08 313.915 52.9009 307.215 60.8669L311.807 64.7291C317.139 58.3894 324.809 55.0832 335.279 55.1073L335.292 49.1073ZM307.238 60.8404C300.622 68.5224 297.474 78.8696 297.445 91.5203L303.445 91.5341C303.471 79.8515 306.367 71.0459 311.784 64.7556L307.238 60.8404ZM297.445 91.5203C297.416 104.02 300.524 114.359 307.074 122.218L311.683 118.377C306.266 111.876 303.418 103.034 303.445 91.5341L297.445 91.5203ZM307.096 122.245C313.768 130.065 323.257 133.83 335.097 133.857L335.111 127.857C324.618 127.833 316.957 124.558 311.661 118.351L307.096 122.245ZM679.417 4.65014L682.259 5.6126C682.568 4.69797 682.419 3.69013 681.857 2.90472C681.295 2.11931 680.39 1.65237 679.424 1.65015L679.417 4.65014ZM619.51 181.513L619.503 184.513C620.791 184.516 621.938 183.695 622.351 182.475L619.51 181.513ZM547.76 181.347L544.914 182.297C545.322 183.519 546.464 184.344 547.753 184.347L547.76 181.347ZM488.668 4.21063L488.675 1.21064C487.709 1.20841 486.801 1.67118 486.236 2.45399C485.67 3.2368 485.516 4.24394 485.822 5.15999L488.668 4.21063ZM547.668 4.34657L550.543 3.49169C550.166 2.22159 549 1.34963 547.675 1.34658L547.668 4.34657ZM583.887 126.18L581.011 127.035C581.389 128.306 582.557 129.179 583.883 129.18C585.209 129.182 586.379 128.313 586.76 127.043L583.887 126.18ZM620.417 4.5142L620.424 1.5142C619.097 1.51115 617.926 2.38042 617.544 3.65149L620.417 4.5142ZM676.576 3.68768L616.668 180.55L622.351 182.475L682.259 5.6126L676.576 3.68768ZM619.516 178.513L547.767 178.347L547.753 184.347L619.503 184.513L619.516 178.513ZM550.606 180.398L491.514 3.26128L485.822 5.15999L544.914 182.297L550.606 180.398ZM488.661 7.21062L547.661 7.34657L547.675 1.34658L488.675 1.21064L488.661 7.21062ZM544.792 5.20145L581.011 127.035L586.763 125.325L550.543 3.49169L544.792 5.20145ZM586.76 127.043L623.291 5.3769L617.544 3.65149L581.014 125.318L586.76 127.043ZM620.41 7.51419L679.41 7.65013L679.424 1.65015L620.424 1.5142L620.41 7.51419ZM802.239 49.1832L802.246 46.1833C800.589 46.1794 799.243 47.5195 799.239 49.1763L802.239 49.1832ZM802.189 70.9332L799.189 70.9263C799.185 72.5831 800.525 73.9294 802.182 73.9332L802.189 70.9332ZM857.189 71.0599L860.189 71.0668C860.192 69.41 858.852 68.0637 857.195 68.0599L857.189 71.0599ZM857.092 112.81L857.085 115.81C858.742 115.814 860.088 114.474 860.092 112.817L857.092 112.81ZM802.092 112.683L802.099 109.683C800.443 109.679 799.096 111.019 799.092 112.676L802.092 112.683ZM802.035 137.683L799.035 137.676C799.031 139.333 800.371 140.679 802.028 140.683L802.035 137.683ZM864.535 137.827L867.535 137.834C867.539 136.177 866.198 134.831 864.542 134.827L864.535 137.827ZM864.433 182.077L864.426 185.077C866.083 185.081 867.429 183.741 867.433 182.084L864.433 182.077ZM746.433 181.805L743.433 181.798C743.429 183.455 744.769 184.801 746.426 184.805L746.433 181.805ZM746.841 4.80549L746.848 1.8055C745.191 1.80168 743.845 3.14173 743.841 4.79858L746.841 4.80549ZM864.841 5.07737L867.841 5.08429C867.844 3.42744 866.504 2.0812 864.847 2.07738L864.841 5.07737ZM864.739 49.3273L864.732 52.3272C866.389 52.3311 867.735 50.991 867.739 49.3342L864.739 49.3273ZM799.239 49.1763L799.189 70.9263L805.189 70.9401L805.239 49.1902L799.239 49.1763ZM802.182 73.9332L857.182 74.0599L857.195 68.0599L802.196 67.9332L802.182 73.9332ZM854.189 71.053L854.092 112.803L860.092 112.817L860.189 71.0668L854.189 71.053ZM857.099 109.81L802.099 109.683L802.086 115.683L857.085 115.81L857.099 109.81ZM799.092 112.676L799.035 137.676L805.035 137.69L805.092 112.69L799.092 112.676ZM802.028 140.683L864.528 140.827L864.542 134.827L802.042 134.683L802.028 140.683ZM861.535 137.82L861.433 182.07L867.433 182.084L867.535 137.834L861.535 137.82ZM864.44 179.077L746.44 178.805L746.426 184.805L864.426 185.077L864.44 179.077ZM749.433 181.812L749.841 4.8124L743.841 4.79858L743.433 181.798L749.433 181.812ZM746.834 7.80548L864.834 8.07737L864.847 2.07738L746.848 1.8055L746.834 7.80548ZM861.841 5.07046L861.739 49.3203L867.739 49.3342L867.841 5.08429L861.841 5.07046ZM864.746 46.3273L802.246 46.1833L802.232 52.1832L864.732 52.3272L864.746 46.3273ZM1029.35 182.457L1026.69 183.842C1027.2 184.832 1028.23 185.454 1029.34 185.457L1029.35 182.457ZM996.245 118.88L998.906 117.495C998.39 116.505 997.368 115.883 996.252 115.88L996.245 118.88ZM995.995 118.88L996.002 115.88C994.345 115.876 992.999 117.216 992.995 118.873L995.995 118.88ZM995.848 182.38L995.842 185.38C997.498 185.384 998.845 184.043 998.848 182.387L995.848 182.38ZM940.349 182.252L937.349 182.245C937.345 183.902 938.685 185.248 940.342 185.252L940.349 182.252ZM940.756 5.25229L940.763 2.2523C939.106 2.24848 937.76 3.58853 937.756 5.24538L940.756 5.25229ZM1059.99 13.277L1058.62 15.9483C1058.63 15.9543 1058.65 15.9602 1058.66 15.966L1059.99 13.277ZM1082.69 34.0794L1080.08 35.5512C1080.09 35.5708 1080.1 35.5903 1080.11 35.6096L1082.69 34.0794ZM1080.3 95.0741L1077.88 93.3039C1077.87 93.3136 1077.86 93.3234 1077.86 93.3331L1080.3 95.0741ZM1052 114.759L1051.09 111.903C1050.23 112.179 1049.54 112.827 1049.21 113.667C1048.88 114.507 1048.95 115.45 1049.39 116.235L1052 114.759ZM1090.35 182.597L1090.34 185.597C1091.41 185.6 1092.4 185.034 1092.94 184.112C1093.48 183.19 1093.49 182.051 1092.96 181.121L1090.35 182.597ZM996.08 81.88L993.08 81.8731C993.076 83.5299 994.416 84.8761 996.073 84.88L996.08 81.88ZM1030.09 78.4583L1032.06 80.7206C1032.08 80.698 1032.11 80.6751 1032.13 80.6516L1030.09 78.4583ZM1029.89 55.9578L1027.76 58.0742C1027.78 58.0957 1027.81 58.1168 1027.83 58.1376L1029.89 55.9578ZM996.149 51.88L996.156 48.8801C994.499 48.8762 993.153 50.2163 993.149 51.8731L996.149 51.88ZM1032.01 181.071L998.906 117.495L993.584 120.266L1026.69 183.842L1032.01 181.071ZM996.252 115.88L996.002 115.88L995.988 121.88L996.238 121.88L996.252 115.88ZM992.995 118.873L992.848 182.373L998.848 182.387L998.995 118.887L992.995 118.873ZM995.855 179.38L940.355 179.252L940.342 185.252L995.842 185.38L995.855 179.38ZM943.349 182.259L943.756 5.25921L937.756 5.24538L937.349 182.245L943.349 182.259ZM940.749 8.25228L1023.25 8.44237L1023.26 2.44239L940.763 2.2523L940.749 8.25228ZM1023.25 8.44237C1037.23 8.47458 1048.98 11.0213 1058.62 15.9483L1061.35 10.6057C1050.68 5.15256 1037.95 2.47623 1023.26 2.44239L1023.25 8.44237ZM1058.66 15.966C1068.34 20.7543 1075.43 27.292 1080.08 35.5512L1085.3 32.6076C1080 23.1771 1071.95 15.8466 1061.32 10.588L1058.66 15.966ZM1080.11 35.6096C1084.96 43.7815 1087.4 53.0808 1087.37 63.5903L1093.37 63.6041C1093.4 52.1136 1090.72 41.7344 1085.27 32.5491L1080.11 35.6096ZM1087.37 63.5903C1087.35 74.8193 1084.17 84.6881 1077.88 93.3039L1082.72 96.8441C1089.8 87.1574 1093.34 76.0416 1093.37 63.6041L1087.37 63.5903ZM1077.86 93.3331C1071.77 101.88 1062.91 108.098 1051.09 111.903L1052.92 117.615C1065.78 113.477 1075.79 106.571 1082.74 96.815L1077.86 93.3331ZM1049.39 116.235L1087.74 184.074L1092.96 181.121L1054.62 113.283L1049.39 116.235ZM1090.36 179.597L1029.36 179.457L1029.34 185.457L1090.34 185.597L1090.36 179.597ZM996.073 84.88L1018.07 84.9306L1018.09 78.9307L996.087 78.88L996.073 84.88ZM1018.07 84.9306C1023.78 84.9438 1028.62 83.7157 1032.06 80.7206L1028.12 76.196C1026.21 77.8553 1023.05 78.9421 1018.09 78.9307L1018.07 84.9306ZM1032.13 80.6516C1035.63 77.3907 1037.1 72.6201 1037.11 66.9745L1031.11 66.9606C1031.1 71.6483 1029.89 74.5382 1028.04 76.265L1032.13 80.6516ZM1037.11 66.9745C1037.13 61.6589 1035.5 57.1313 1031.95 53.7779L1027.83 58.1376C1029.94 60.1307 1031.12 62.9429 1031.11 66.9606L1037.11 66.9745ZM1032.02 53.8414C1028.61 50.4221 1023.82 48.9438 1018.16 48.9307L1018.14 54.9307C1022.81 54.9415 1025.85 56.1479 1027.76 58.0742L1032.02 53.8414ZM1018.16 48.9307L996.156 48.8801L996.142 54.88L1018.14 54.9307L1018.16 48.9307ZM993.149 51.8731L993.08 81.8731L999.08 81.8869L999.149 51.887L993.149 51.8731Z" fill="url(#paint0_linear_582_7448)"/>
<defs>
<linearGradient id="paint0_linear_582_7448" x1="559.747" y1="-44.2379" x2="555.017" y2="193.73" gradientUnits="userSpaceOnUse">
<stop stop-color="#8D8D8D" stop-opacity="0.61"/>
<stop offset="0.699784" stop-color="#131312"/>
</linearGradient>
</defs>
</svg>
