<svg width="18" height="18" viewBox="0 0 18 18" fill="none" xmlns="http://www.w3.org/2000/svg">
<path fill-rule="evenodd" clip-rule="evenodd" d="M6.75978 9.24787C6.77534 9.2609 6.79004 9.27312 6.8048 9.28786C7.74127 10.1927 8.27894 11.412 8.31761 12.722L8.4167 16.0781L10.27 14.9965C10.4159 14.9112 10.503 14.7501 10.4979 14.5758L10.441 12.6492C10.4025 11.3443 10.8624 10.0997 11.7355 9.1465L15.6823 4.69202C15.9377 4.40372 16.0717 4.03131 16.0602 3.64296L16.037 2.85447C16.0254 2.46359 15.7077 2.15511 15.3303 2.16625L2.8029 2.53611C2.42466 2.54728 2.12572 2.87397 2.13726 3.26484L2.16054 4.05333C2.17201 4.44168 2.32777 4.80554 2.5997 5.07743L6.75978 9.24787ZM8.16268 17.5552C7.99251 17.5602 7.82269 17.5197 7.66668 17.4333C7.36493 17.2651 7.17796 16.9578 7.16771 16.6108L7.054 12.7593C7.02577 11.8032 6.64285 10.9132 5.97298 10.2424C5.95314 10.227 5.93324 10.2098 5.91584 10.1918L1.70538 5.97142C1.20494 5.4702 0.917924 4.80163 0.896933 4.09064L0.873653 3.30215C0.841544 2.2146 1.69069 1.30424 2.7656 1.2725L15.293 0.902642C16.3671 0.870931 17.2685 1.72961 17.3006 2.81716L17.3238 3.60565C17.3448 4.3158 17.0977 4.99929 16.6294 5.52996L12.6745 9.99227C12.0186 10.7098 11.6759 11.6381 11.7046 12.6119L11.7615 14.5385C11.7803 15.1753 11.453 15.7684 10.9076 16.0881L8.61915 17.4237C8.47657 17.5063 8.32021 17.5506 8.16268 17.5552Z" fill="black"/>
</svg>
