<svg width="127" height="110" viewBox="0 0 127 110" fill="none" xmlns="http://www.w3.org/2000/svg">
    <g filter="url(#filter0_dd_603_7845)">
    <mask id="path-1-inside-1_603_7845" fill="white">
    <path d="M89.1097 38.3645C87.3058 37.3802 84.9848 37.3802 82.9224 38.3645L68.4872 46.4935L58.6921 51.664L44.5135 59.7986C42.7096 60.783 40.3887 60.783 38.3262 59.7986L27.2462 53.395C26.3039 52.8646 25.5228 52.1085 24.9801 51.2014C24.4373 50.2942 24.1518 49.2675 24.1516 48.2226V35.9018C24.1516 33.9313 25.1838 31.9608 27.2462 30.7295L38.3262 24.5728C40.1301 23.5866 42.4511 23.5866 44.5135 24.5728L55.5936 30.9765C56.5361 31.5066 57.3174 32.2626 57.8602 33.1698C58.403 34.077 58.6884 35.1039 58.6882 36.1488V44.276L68.4833 38.8567V30.4843C68.4833 28.5138 67.4531 26.5433 65.3906 25.312L44.7701 13.7396C42.9662 12.7535 40.6472 12.7535 38.5848 13.7396L17.4452 25.5571C15.3828 26.5433 14.3525 28.5138 14.3525 30.4843V53.6345C14.3525 55.605 15.3828 57.57 17.4452 58.8069L38.3262 70.3848C40.1301 71.371 42.4511 71.371 44.5135 70.3848L58.6921 62.5028L68.4872 57.0852L82.6658 49.2032C84.4697 48.2189 86.7907 48.2189 88.8531 49.2032L99.9331 55.3617C100.877 55.8924 101.659 56.6495 102.203 57.5581C102.746 58.4667 103.031 59.4952 103.03 60.5415V72.8549C103.03 74.8254 101.999 76.7959 99.937 78.0272L89.1097 84.1858C87.3058 85.1701 84.9848 85.1701 82.9224 84.1858L71.8423 78.0272C70.9003 77.4968 70.1195 76.7406 69.5771 75.8335C69.0347 74.9263 68.7494 73.8996 68.7496 72.8549V64.9654L58.9487 70.3848V78.512C58.9487 80.4825 59.9809 82.453 62.0433 83.6843L82.9224 95.2604C84.7282 96.2465 87.0472 96.2465 89.1097 95.2604L109.991 83.6825C110.933 83.152 111.714 82.3958 112.256 81.4887C112.798 80.5815 113.084 79.5548 113.083 78.5101V55.1092C113.083 53.1387 112.053 51.1681 109.991 49.9368L89.1097 38.3645Z"/>
    </mask>
    <path d="M89.1097 38.3645C87.3058 37.3802 84.9848 37.3802 82.9224 38.3645L68.4872 46.4935L58.6921 51.664L44.5135 59.7986C42.7096 60.783 40.3887 60.783 38.3262 59.7986L27.2462 53.395C26.3039 52.8646 25.5228 52.1085 24.9801 51.2014C24.4373 50.2942 24.1518 49.2675 24.1516 48.2226V35.9018C24.1516 33.9313 25.1838 31.9608 27.2462 30.7295L38.3262 24.5728C40.1301 23.5866 42.4511 23.5866 44.5135 24.5728L55.5936 30.9765C56.5361 31.5066 57.3174 32.2626 57.8602 33.1698C58.403 34.077 58.6884 35.1039 58.6882 36.1488V44.276L68.4833 38.8567V30.4843C68.4833 28.5138 67.4531 26.5433 65.3906 25.312L44.7701 13.7396C42.9662 12.7535 40.6472 12.7535 38.5848 13.7396L17.4452 25.5571C15.3828 26.5433 14.3525 28.5138 14.3525 30.4843V53.6345C14.3525 55.605 15.3828 57.57 17.4452 58.8069L38.3262 70.3848C40.1301 71.371 42.4511 71.371 44.5135 70.3848L58.6921 62.5028L68.4872 57.0852L82.6658 49.2032C84.4697 48.2189 86.7907 48.2189 88.8531 49.2032L99.9331 55.3617C100.877 55.8924 101.659 56.6495 102.203 57.5581C102.746 58.4667 103.031 59.4952 103.03 60.5415V72.8549C103.03 74.8254 101.999 76.7959 99.937 78.0272L89.1097 84.1858C87.3058 85.1701 84.9848 85.1701 82.9224 84.1858L71.8423 78.0272C70.9003 77.4968 70.1195 76.7406 69.5771 75.8335C69.0347 74.9263 68.7494 73.8996 68.7496 72.8549V64.9654L58.9487 70.3848V78.512C58.9487 80.4825 59.9809 82.453 62.0433 83.6843L82.9224 95.2604C84.7282 96.2465 87.0472 96.2465 89.1097 95.2604L109.991 83.6825C110.933 83.152 111.714 82.3958 112.256 81.4887C112.798 80.5815 113.084 79.5548 113.083 78.5101V55.1092C113.083 53.1387 112.053 51.1681 109.991 49.9368L89.1097 38.3645Z" fill="url(#paint0_linear_603_7845)" shape-rendering="crispEdges"/>
    <path d="M89.1097 38.3645L89.5944 37.4898L89.5887 37.4867L89.1097 38.3645ZM82.9224 38.3645L82.4916 37.462L82.4611 37.4766L82.4317 37.4932L82.9224 38.3645ZM68.4872 46.4935L68.954 47.3779L68.9661 47.3715L68.9779 47.3649L68.4872 46.4935ZM58.6921 51.664L58.2253 50.7797L58.2097 50.7879L58.1945 50.7966L58.6921 51.664ZM44.5135 59.7986L44.9925 60.6765L45.0019 60.6713L45.0112 60.666L44.5135 59.7986ZM38.3262 59.7986L37.8258 60.6644L37.8599 60.6842L37.8955 60.7011L38.3262 59.7986ZM27.2462 53.395L27.7466 52.5291L27.7367 52.5235L27.2462 53.395ZM24.1516 48.2226H23.1516V48.2228L24.1516 48.2226ZM27.2462 30.7295L26.7605 29.8553L26.7469 29.8629L26.7336 29.8708L27.2462 30.7295ZM38.3262 24.5728L37.8465 23.6953L37.8405 23.6987L38.3262 24.5728ZM44.5135 24.5728L45.0139 23.707L44.9801 23.6875L44.9449 23.6706L44.5135 24.5728ZM55.5936 30.9765L55.0931 31.8423L55.1034 31.8481L55.5936 30.9765ZM58.6882 36.1488L57.6882 36.1486V36.1488H58.6882ZM58.6882 44.276H57.6882V45.9721L59.1723 45.151L58.6882 44.276ZM68.4833 38.8567L68.9675 39.7317L69.4833 39.4462V38.8567H68.4833ZM65.3907 25.312L65.9033 24.4533L65.8918 24.4465L65.8801 24.4399L65.3907 25.312ZM44.7701 13.7396L45.2596 12.8675L45.2498 12.8622L44.7701 13.7396ZM38.5848 13.7396L38.1534 12.8375L38.1246 12.8512L38.0968 12.8668L38.5848 13.7396ZM17.4452 25.5571L17.8766 26.4593L17.9054 26.4455L17.9332 26.43L17.4452 25.5571ZM17.4452 58.8069L16.9309 59.6645L16.9455 59.6732L16.9603 59.6814L17.4452 58.8069ZM38.3262 70.3848L37.8413 71.2594L37.8465 71.2622L38.3262 70.3848ZM44.5135 70.3848L44.9449 71.287L44.9726 71.2737L44.9994 71.2588L44.5135 70.3848ZM58.6921 62.5028L58.2081 61.6277L58.2062 61.6287L58.6921 62.5028ZM68.4872 57.0852L68.9712 57.9603L68.9731 57.9593L68.4872 57.0852ZM82.6658 49.2032L82.1868 48.3254L82.1799 48.3292L82.6658 49.2032ZM88.8531 49.2032L89.3389 48.3292L89.3118 48.3141L89.2838 48.3007L88.8531 49.2032ZM99.9331 55.3617L100.423 54.49L100.419 54.4877L99.9331 55.3617ZM103.03 60.5415L102.03 60.5404V60.5415H103.03ZM99.937 78.0272L100.431 78.8965L100.441 78.8913L100.45 78.8859L99.937 78.0272ZM89.1097 84.1858L89.5887 85.0636L89.5964 85.0594L89.6041 85.055L89.1097 84.1858ZM82.9224 84.1858L82.4365 85.0598L82.4637 85.0749L82.4916 85.0882L82.9224 84.1858ZM71.8423 78.0272L71.3517 78.8986L71.3565 78.9013L71.8423 78.0272ZM68.7496 72.8549L69.7496 72.8551V72.8549H68.7496ZM68.7496 64.9654H69.7496V63.2698L68.2658 64.0903L68.7496 64.9654ZM58.9487 70.3848L58.4648 69.5097L57.9487 69.795V70.3848H58.9487ZM62.0433 83.6843L61.5307 84.5429L61.5444 84.5511L61.5584 84.5589L62.0433 83.6843ZM82.9224 95.2604L82.4375 96.1349L82.4431 96.138L82.9224 95.2604ZM89.1097 95.2604L89.5411 96.1625L89.5683 96.1495L89.5946 96.1349L89.1097 95.2604ZM109.991 83.6825L110.476 84.557L110.481 84.5538L109.991 83.6825ZM113.083 78.5101H112.083V78.5103L113.083 78.5101ZM109.991 49.9368L110.503 49.0782L110.489 49.0699L110.475 49.0621L109.991 49.9368ZM89.5887 37.4867C87.4684 36.3297 84.8061 36.3574 82.4916 37.462L83.3531 39.267C85.1635 38.4029 87.1432 38.4306 88.6307 39.2423L89.5887 37.4867ZM82.4317 37.4932L67.9965 45.6222L68.9779 47.3649L83.4131 39.2358L82.4317 37.4932ZM68.0204 45.6092L58.2253 50.7797L59.1589 52.5484L68.954 47.3779L68.0204 45.6092ZM58.1945 50.7966L44.0159 58.9313L45.0112 60.666L59.1897 52.5314L58.1945 50.7966ZM44.0345 58.9208C42.547 59.7325 40.5674 59.7602 38.7569 58.8962L37.8955 60.7011C40.21 61.8057 42.8722 61.8334 44.9925 60.6765L44.0345 58.9208ZM38.8266 58.9328L27.7466 52.5292L26.7458 54.2608L37.8258 60.6644L38.8266 58.9328ZM27.7367 52.5235C26.9424 52.0764 26.2895 51.4422 25.8382 50.6879L24.1219 51.7148C24.7561 52.7747 25.6655 53.6528 26.7557 54.2664L27.7367 52.5235ZM25.8382 50.6879C25.3871 49.934 25.1517 49.0843 25.1516 48.2224L23.1516 48.2228C23.1518 49.4506 23.4875 50.6544 24.1219 51.7148L25.8382 50.6879ZM25.1516 48.2226V35.9018H23.1516V48.2226H25.1516ZM25.1516 35.9018C25.1516 34.295 25.9885 32.645 27.7588 31.5881L26.7336 29.8708C24.379 31.2766 23.1516 33.5677 23.1516 35.9018H25.1516ZM27.7319 31.6036L38.8119 25.4469L37.8405 23.6987L26.7605 29.8553L27.7319 31.6036ZM38.8059 25.4502C40.293 24.6372 42.2721 24.6094 44.0822 25.475L44.9449 23.6706C42.6301 22.5638 39.9672 22.536 37.8465 23.6953L38.8059 25.4502ZM44.0132 25.4386L55.0932 31.8423L56.094 30.1107L45.0139 23.707L44.0132 25.4386ZM55.1034 31.8481C55.8978 32.2949 56.5508 32.929 57.0021 33.6832L58.7183 32.6564C58.0841 31.5963 57.1744 30.7182 56.0838 30.1049L55.1034 31.8481ZM57.0021 33.6832C57.4531 34.4371 57.6884 35.2868 57.6882 36.1486L59.6882 36.149C59.6884 34.921 59.3528 33.7169 58.7183 32.6564L57.0021 33.6832ZM57.6882 36.1488V44.276H59.6882V36.1488H57.6882ZM59.1723 45.151L68.9675 39.7317L67.9992 37.9816L58.2041 43.401L59.1723 45.151ZM69.4833 38.8567V30.4843H67.4833V38.8567H69.4833ZM69.4833 30.4843C69.4833 28.1508 68.2584 25.8594 65.9033 24.4533L64.878 26.1706C66.6478 27.2272 67.4833 28.8768 67.4833 30.4843H69.4833ZM65.8801 24.4399L45.2595 12.8676L44.2807 14.6117L64.9012 26.184L65.8801 24.4399ZM45.2498 12.8622C43.1291 11.7028 40.4682 11.7306 38.1534 12.8375L39.0161 14.6418C40.8262 13.7763 42.8033 13.8041 44.2904 14.6171L45.2498 12.8622ZM38.0968 12.8668L16.9573 24.6842L17.9332 26.43L39.0727 14.6125L38.0968 12.8668ZM17.0138 24.6549C14.571 25.823 13.3525 28.1666 13.3525 30.4843H15.3525C15.3525 28.861 16.1946 27.2636 17.8766 26.4593L17.0138 24.6549ZM13.3525 30.4843V53.6345H15.3525V30.4843H13.3525ZM13.3525 53.6345C13.3525 55.9694 14.5785 58.2537 16.9309 59.6645L17.9596 57.9493C16.1871 56.8863 15.3525 55.2407 15.3525 53.6345H13.3525ZM16.9603 59.6814L37.8413 71.2593L38.8111 69.5102L17.9301 57.9323L16.9603 59.6814ZM37.8465 71.2622C39.9672 72.4216 42.6301 72.3938 44.9449 71.287L44.0822 69.4826C42.2721 70.3481 40.293 70.3203 38.8059 69.5073L37.8465 71.2622ZM44.9994 71.2588L59.178 63.3768L58.2062 61.6287L44.0277 69.5108L44.9994 71.2588ZM59.1761 63.3778L68.9712 57.9603L68.0032 56.2102L58.2081 61.6277L59.1761 63.3778ZM68.9731 57.9593L83.1517 50.0772L82.1799 48.3292L68.0013 56.2112L68.9731 57.9593ZM83.1448 50.081C84.6323 49.2693 86.612 49.2417 88.4224 50.1057L89.2838 48.3007C86.9694 47.1961 84.3071 47.1684 82.1868 48.3254L83.1448 50.081ZM88.3673 50.0773L99.4473 56.2358L100.419 54.4877L89.3389 48.3292L88.3673 50.0773ZM99.4431 56.2335C100.239 56.6807 100.893 57.3158 101.344 58.0712L103.061 57.045C102.426 55.9833 101.515 55.104 100.423 54.49L99.4431 56.2335ZM101.344 58.0712C101.796 58.8263 102.031 59.6774 102.03 60.5404L104.03 60.5426C104.031 59.313 103.696 58.1071 103.061 57.045L101.344 58.0712ZM102.03 60.5415V72.8549H104.03V60.5415H102.03ZM102.03 72.8549C102.03 74.4624 101.194 76.112 99.4244 77.1686L100.45 78.8859C102.805 77.4798 104.03 75.1884 104.03 72.8549H102.03ZM99.4426 77.158L88.6153 83.3165L89.6041 85.055L100.431 78.8965L99.4426 77.158ZM88.6307 83.308C87.1432 84.1196 85.1635 84.1473 83.3531 83.2833L82.4916 85.0882C84.8061 86.1929 87.4684 86.2206 89.5887 85.0636L88.6307 83.308ZM83.4082 83.3117L72.3282 77.1532L71.3565 78.9013L82.4365 85.0598L83.4082 83.3117ZM72.333 77.1559C71.5389 76.7088 70.8863 76.0745 70.4353 75.3203L68.7188 76.3466C69.3526 77.4067 70.2617 78.2848 71.3517 78.8986L72.333 77.1559ZM70.4353 75.3203C69.9846 74.5664 69.7495 73.7168 69.7496 72.8551L67.7496 72.8547C67.7494 74.0824 68.0847 75.2862 68.7188 76.3466L70.4353 75.3203ZM69.7496 72.8549V64.9654H67.7496V72.8549H69.7496ZM68.2658 64.0903L58.4648 69.5097L59.4326 71.2599L69.2335 65.8405L68.2658 64.0903ZM57.9487 70.3848V78.512H59.9487V70.3848H57.9487ZM57.9487 78.512C57.9487 80.8461 59.1761 83.1372 61.5307 84.5429L62.5559 82.8257C60.7857 81.7688 59.9487 80.1188 59.9487 78.512H57.9487ZM61.5584 84.5589L82.4375 96.1349L83.4073 94.3858L62.5282 82.8097L61.5584 84.5589ZM82.4431 96.138C84.5654 97.297 87.2261 97.2695 89.5411 96.1625L88.6783 94.3582C86.8684 95.2236 84.8911 95.1961 83.4017 94.3827L82.4431 96.138ZM89.5946 96.1349L110.476 84.557L109.506 82.8079L88.6248 94.3858L89.5946 96.1349ZM110.481 84.5538C111.571 83.94 112.48 83.0619 113.114 82.0019L111.398 80.9755C110.947 81.7298 110.294 82.364 109.5 82.8111L110.481 84.5538ZM113.114 82.0019C113.748 80.9415 114.084 79.7377 114.083 78.5099L112.083 78.5103C112.084 79.372 111.848 80.2216 111.398 80.9755L113.114 82.0019ZM114.083 78.5101V55.1092H112.083V78.5101H114.083ZM114.083 55.1092C114.083 52.7756 112.858 50.4843 110.503 49.0782L109.478 50.7954C111.248 51.852 112.083 53.5017 112.083 55.1092H114.083ZM110.475 49.0621L89.5944 37.4898L88.6249 39.2391L109.506 50.8115L110.475 49.0621Z" fill="#7A5BB1" mask="url(#path-1-inside-1_603_7845)"/>
    </g>
    <defs>
    <filter id="filter0_dd_603_7845" x="0.352539" y="0" width="125.731" height="110" filterUnits="userSpaceOnUse" color-interpolation-filters="sRGB">
    <feFlood flood-opacity="0" result="BackgroundImageFix"/>
    <feColorMatrix in="SourceAlpha" type="matrix" values="0 0 0 0 0 0 0 0 0 0 0 0 0 0 0 0 0 0 127 0" result="hardAlpha"/>
    <feOffset dx="3" dy="4"/>
    <feGaussianBlur stdDeviation="5"/>
    <feComposite in2="hardAlpha" operator="out"/>
    <feColorMatrix type="matrix" values="0 0 0 0 0 0 0 0 0 0 0 0 0 0 0 0 0 0 0.25 0"/>
    <feBlend mode="normal" in2="BackgroundImageFix" result="effect1_dropShadow_603_7845"/>
    <feColorMatrix in="SourceAlpha" type="matrix" values="0 0 0 0 0 0 0 0 0 0 0 0 0 0 0 0 0 0 127 0" result="hardAlpha"/>
    <feOffset dx="-4" dy="-3"/>
    <feGaussianBlur stdDeviation="5"/>
    <feComposite in2="hardAlpha" operator="out"/>
    <feColorMatrix type="matrix" values="0 0 0 0 0.195883 0 0 0 0 0.195883 0 0 0 0 0.229326 0 0 0 0.22 0"/>
    <feBlend mode="normal" in2="effect1_dropShadow_603_7845" result="effect2_dropShadow_603_7845"/>
    <feBlend mode="normal" in="SourceGraphic" in2="effect2_dropShadow_603_7845" result="shape"/>
    </filter>
    <linearGradient id="paint0_linear_603_7845" x1="3.85567" y1="8.82126" x2="92.5684" y2="103.128" gradientUnits="userSpaceOnUse">
    <stop offset="0.176229" stop-color="#28282F" stop-opacity="0.73"/>
    <stop offset="0.806864" stop-color="#202026"/>
    </linearGradient>
    </defs>
    </svg>
    