<svg width="127" height="110" viewBox="0 0 127 110" fill="none" xmlns="http://www.w3.org/2000/svg">
<g filter="url(#filter0_dd_603_7845)">
<path d="M89.1097 38.3645C87.3058 37.3802 84.9848 37.3802 82.9224 38.3645L68.4872 46.4935L58.6921 51.664L44.5135 59.7986C42.7096 60.783 40.3887 60.783 38.3262 59.7986L27.2462 53.395C26.3039 52.8646 25.5228 52.1085 24.9801 51.2014C24.4373 50.2942 24.1518 49.2675 24.1516 48.2226V35.9018C24.1516 33.9313 25.1838 31.9608 27.2462 30.7295L38.3262 24.5728C40.1301 23.5866 42.4511 23.5866 44.5135 24.5728L55.5936 30.9765C56.5361 31.5066 57.3174 32.2626 57.8602 33.1698C58.403 34.077 58.6884 35.1039 58.6882 36.1488V44.276L68.4833 38.8567V30.4843C68.4833 28.5138 67.4531 26.5433 65.3907 25.312L44.7701 13.7396C42.9662 12.7535 40.6472 12.7535 38.5848 13.7396L17.4452 25.5571C15.3828 26.5433 14.3525 28.5138 14.3525 30.4843V53.6345C14.3525 55.605 15.3828 57.57 17.4452 58.8069L38.3262 70.3848C40.1301 71.371 42.4511 71.371 44.5135 70.3848L58.6921 62.5028L68.4872 57.0852L82.6658 49.2032C84.4697 48.2189 86.7907 48.2189 88.8531 49.2032L99.9331 55.3617C100.877 55.8924 101.659 56.6495 102.203 57.5581C102.746 58.4667 103.031 59.4952 103.03 60.5415V72.8549C103.03 74.8254 101.999 76.7959 99.937 78.0272L89.1097 84.1858C87.3058 85.1701 84.9848 85.1701 82.9224 84.1858L71.8423 78.0272C70.9003 77.4968 70.1195 76.7406 69.5771 75.8335C69.0347 74.9263 68.7495 73.8996 68.7496 72.8549V64.9654L58.9487 70.3848V78.512C58.9487 80.4825 59.9809 82.453 62.0433 83.6843L82.9224 95.2604C84.7282 96.2465 87.0472 96.2465 89.1097 95.2604L109.991 83.6825C110.933 83.152 111.714 82.3958 112.256 81.4887C112.798 80.5815 113.084 79.5548 113.083 78.5101V55.1092C113.083 53.1387 112.053 51.1681 109.991 49.9368L89.1097 38.3645Z" fill="url(#paint0_linear_603_7845)" shape-rendering="crispEdges"/>
<path d="M68.2496 65.8132V72.8548C68.2496 72.8548 68.2496 72.8549 68.2496 72.8549C68.2495 73.9911 68.5597 75.1063 69.1479 76.0901C69.736 77.0736 70.581 77.8908 71.597 78.4629L71.5994 78.4643L82.6795 84.6228L82.693 84.6303L82.707 84.637C84.8955 85.6815 87.3871 85.6953 89.3492 84.6247L89.3492 84.6247L89.3569 84.6204L100.184 78.4619L100.184 78.4619L100.193 78.4565C102.402 77.1378 103.53 75.0069 103.53 72.8549V60.5421V60.5415H103.03M68.2496 65.8132L68.2452 56.6477L68.4872 57.0852M68.2496 65.8132L59.4487 70.6797V78.512C59.4487 80.2985 60.3811 82.1066 62.2928 83.251L83.162 94.8215C83.1625 94.8218 83.1629 94.822 83.1633 94.8223C84.807 95.7193 86.9485 95.7348 88.8807 94.8156L109.745 83.2468L68.2496 65.8132ZM103.03 60.5415C103.031 59.4952 102.746 58.4667 102.203 57.5581C101.659 56.6495 100.877 55.8924 99.9331 55.3617L88.8531 49.2032C86.7907 48.2189 84.4697 48.2189 82.6658 49.2032L68.4872 57.0852M103.03 60.5415V72.8549C103.03 74.8254 101.999 76.7959 99.937 78.0272L89.1097 84.1858C87.3058 85.1701 84.9848 85.1701 82.9224 84.1858L103.03 60.5415ZM68.4872 57.0852L58.6921 62.5028L44.5135 70.3848M68.4872 57.0852L68.2443 56.6482M68.2443 56.6482L58.4501 62.0652L58.4492 62.0657L44.2842 69.9402M68.2443 56.6482L109.748 83.2452L109.747 83.2458C110.614 82.757 111.33 82.0622 111.827 81.2321C112.323 80.4016 112.584 79.4634 112.583 78.5101V55.1092C112.583 53.3223 111.653 51.5143 109.741 50.3701L88.8702 38.8034L89.1097 38.3645L88.8673 38.8018L88.8685 38.8025C87.2273 37.9077 85.0846 37.8919 83.1528 38.8086M68.2443 56.6482L82.9224 38.3645M44.2842 69.9402C42.3519 70.8593 40.2085 70.8436 38.5669 69.9465L38.5687 69.9475L38.3262 70.3848M44.2842 69.9402L44.2706 69.9478L44.5135 70.3848M44.2842 69.9402C44.2888 69.938 44.2933 69.9359 44.2979 69.9337L44.5135 70.3848M38.3262 70.3848L38.5661 69.9461L17.6953 58.3738M38.3262 70.3848L17.4452 58.8069M38.3262 70.3848C40.1301 71.371 42.4511 71.371 44.5135 70.3848M17.6953 58.3738C15.7826 57.2237 14.8525 55.4207 14.8525 53.6345V30.4843C14.8525 28.6874 15.7887 26.9034 17.6609 26.0082L17.6753 26.0013L17.6892 25.9935L38.8146 14.184M17.6953 58.3738L17.6877 58.3696L17.4452 58.8069M17.6953 58.3738C17.6977 58.3752 17.7 58.3767 17.7024 58.3781L17.4452 58.8069M38.8146 14.184C40.7462 13.2654 42.8867 13.2809 44.5279 14.1771L44.5254 14.1757L44.7701 13.7396M38.8146 14.184L38.8287 14.1761L38.5848 13.7396M38.8146 14.184C38.8099 14.1862 38.8052 14.1885 38.8004 14.1907L38.5848 13.7396M44.7701 13.7396L44.5303 14.1784L65.14 25.7447M44.7701 13.7396L65.3907 25.312M44.7701 13.7396C42.9662 12.7535 40.6472 12.7535 38.5848 13.7396M65.14 25.7447C67.0523 26.8888 67.9833 28.6971 67.9833 30.4843V38.5619M65.14 25.7447L65.146 25.748L65.3907 25.312M65.14 25.7447C65.1381 25.7435 65.1362 25.7424 65.1343 25.7413L65.3907 25.312M67.9833 38.5619L59.1882 43.428M67.9833 38.5619V38.8567H68.4833M67.9833 38.5619L68.2413 38.4191L68.4833 38.8567M59.1882 43.428V36.1489L58.6882 36.1488M59.1882 43.428L58.6882 43.7046V36.1488M59.1882 43.428V43.9994L68.4833 38.8567M58.6882 36.1488H59.1882C59.1884 35.0124 58.8779 33.8969 58.2893 32.9131C57.7013 31.9303 56.8567 31.1138 55.8413 30.5422L55.8438 30.5436L55.5936 30.9765M58.6882 36.1488C58.6884 35.1039 58.403 34.077 57.8602 33.1698C57.3174 32.2626 56.5361 31.5066 55.5936 30.9765M55.5936 30.9765L55.8387 30.5407L44.7637 24.1399L44.7468 24.1301L44.7292 24.1217C42.5406 23.0752 40.0487 23.0613 38.0864 24.1341L38.0834 24.1357L27.0033 30.2924L26.9966 30.2962L26.9899 30.3002C24.7814 31.6187 23.6516 33.7495 23.6516 35.9018V48.2226V48.2227C23.6518 49.3591 23.9624 50.4743 24.551 51.4581C25.139 52.4408 25.9833 53.2573 26.9984 53.8293L26.996 53.8279L27.2462 53.395M55.5936 30.9765L44.5135 24.5728C42.4511 23.5866 40.1301 23.5866 38.3262 24.5728L27.2462 30.7295C25.1838 31.9608 24.1516 33.9313 24.1516 35.9018V48.2226C24.1518 49.2675 24.4373 50.2942 24.9801 51.2014C25.5228 52.1085 26.3039 52.8646 27.2462 53.395M27.2462 53.395L27.0009 53.8307L38.076 60.2315L38.0931 60.2414L38.1109 60.2499C40.2993 61.2943 42.7909 61.3082 44.753 60.2375L44.7531 60.2376L44.7624 60.2323L58.9333 52.1021M27.2462 53.395L38.3262 59.7986C40.3887 60.783 42.7096 60.783 44.5135 59.7986L58.6921 51.664M58.9333 52.1021L68.7206 46.9357L68.7207 46.9359L68.7326 46.9292L83.1528 38.8086M58.9333 52.1021L58.9409 52.0977L58.6921 51.664M58.9333 52.1021L58.9255 52.1062L58.6921 51.664M83.1528 38.8086L83.1677 38.8002L82.9224 38.3645M83.1528 38.8086C83.1477 38.811 83.1427 38.8133 83.1377 38.8157L82.9224 38.3645M82.9224 38.3645L68.4872 46.4935L58.6921 51.664M68.4833 38.8567V30.4843C68.4833 28.5138 67.4531 26.5433 65.3907 25.312M38.5848 13.7396L17.4452 25.5571C15.3828 26.5433 14.3525 28.5138 14.3525 30.4843V53.6345C14.3525 55.605 15.3828 57.57 17.4452 58.8069" stroke="#7A5BB1" shape-rendering="crispEdges"/>
</g>
<defs>
<filter id="filter0_dd_603_7845" x="0.352539" y="0" width="125.731" height="110" filterUnits="userSpaceOnUse" color-interpolation-filters="sRGB">
<feFlood flood-opacity="0" result="BackgroundImageFix"/>
<feColorMatrix in="SourceAlpha" type="matrix" values="0 0 0 0 0 0 0 0 0 0 0 0 0 0 0 0 0 0 127 0" result="hardAlpha"/>
<feOffset dx="3" dy="4"/>
<feGaussianBlur stdDeviation="5"/>
<feComposite in2="hardAlpha" operator="out"/>
<feColorMatrix type="matrix" values="0 0 0 0 0 0 0 0 0 0 0 0 0 0 0 0 0 0 0.25 0"/>
<feBlend mode="normal" in2="BackgroundImageFix" result="effect1_dropShadow_603_7845"/>
<feColorMatrix in="SourceAlpha" type="matrix" values="0 0 0 0 0 0 0 0 0 0 0 0 0 0 0 0 0 0 127 0" result="hardAlpha"/>
<feOffset dx="-4" dy="-3"/>
<feGaussianBlur stdDeviation="5"/>
<feComposite in2="hardAlpha" operator="out"/>
<feColorMatrix type="matrix" values="0 0 0 0 0.195883 0 0 0 0 0.195883 0 0 0 0 0.229326 0 0 0 0.22 0"/>
<feBlend mode="normal" in2="effect1_dropShadow_603_7845" result="effect2_dropShadow_603_7845"/>
<feBlend mode="normal" in="SourceGraphic" in2="effect2_dropShadow_603_7845" result="shape"/>
</filter>
<linearGradient id="paint0_linear_603_7845" x1="3.85567" y1="8.82126" x2="92.5684" y2="103.128" gradientUnits="userSpaceOnUse">
<stop offset="0.176229" stop-color="#28282F" stop-opacity="0.73"/>
<stop offset="0.806864" stop-color="#202026"/>
</linearGradient>
</defs>
</svg>
