<svg width="93" height="29" viewBox="0 0 93 29" fill="none" xmlns="http://www.w3.org/2000/svg">
    <path d="M1.45765 21.7096C0.485884 21.7096 0 21.2209 0 20.2436V7.13785C0 6.16054 0.485884 5.67188 1.45765 5.67188C2.42942 5.67188 2.9153 6.16054 2.9153 7.13785V7.69492C3.49836 7.0108 4.20776 6.47328 5.04348 6.08235C5.89863 5.69143 6.82181 5.49597 7.81301 5.49597C8.97913 5.49597 9.84401 5.69143 10.4076 6.08235C10.9907 6.45373 11.2142 6.9033 11.0782 7.43105C10.981 7.84152 10.7866 8.11516 10.4951 8.25199C10.2036 8.36927 9.86344 8.38881 9.47474 8.31063C8.23087 8.05653 7.11334 8.03698 6.12214 8.25199C5.13093 8.467 4.3438 8.86769 3.76074 9.45408C3.19712 10.0405 2.9153 10.7832 2.9153 11.6824V20.2436C2.9153 21.2209 2.42942 21.7096 1.45765 21.7096Z" fill="url(#paint0_linear_1012_305)"/>
    <path d="M20.503 21.8269C18.8899 21.8269 17.4517 21.4848 16.1884 20.8007C14.9445 20.097 13.963 19.1392 13.2439 17.9274C12.5442 16.696 12.1944 15.2886 12.1944 13.7054C12.1944 12.1026 12.5248 10.6953 13.1856 9.4834C13.8658 8.25199 14.7987 7.29422 15.9843 6.6101C17.1698 5.90644 18.5303 5.55461 20.0657 5.55461C21.5817 5.55461 22.8838 5.89667 23.9722 6.58078C25.0606 7.24536 25.8866 8.1738 26.4502 9.36612C27.0333 10.5389 27.3248 11.8974 27.3248 13.4415C27.3248 13.8129 27.1985 14.1256 26.9458 14.3797C26.6932 14.6143 26.3725 14.7316 25.9838 14.7316H14.9056C15.1194 16.0803 15.7316 17.1846 16.7423 18.0447C17.7723 18.8851 19.0259 19.3054 20.503 19.3054C21.1055 19.3054 21.7177 19.1979 22.3397 18.9829C22.981 18.7483 23.4961 18.4844 23.8848 18.1913C24.1763 17.9762 24.4873 17.8687 24.8177 17.8687C25.1675 17.8492 25.4687 17.9469 25.7214 18.1619C26.0518 18.4551 26.2267 18.7776 26.2462 19.1295C26.2656 19.4813 26.1101 19.7843 25.7797 20.0384C25.1189 20.5661 24.2929 20.9961 23.3017 21.3284C22.3299 21.6607 21.397 21.8269 20.503 21.8269ZM20.0657 8.07607C18.6275 8.07607 17.4711 8.47677 16.5965 9.27816C15.7219 10.0796 15.168 11.1155 14.9348 12.386H24.6427C24.4678 11.1351 23.9917 10.1089 23.2142 9.30749C22.4368 8.48654 21.3873 8.07607 20.0657 8.07607Z" fill="url(#paint1_linear_1012_305)"/>
    <path d="M36.9189 21.8269C35.5584 21.8269 34.2951 21.6216 33.129 21.2112C31.9823 20.7811 31.0883 20.2436 30.4469 19.5986C30.1554 19.2858 30.0291 18.934 30.0679 18.5431C30.1262 18.1326 30.3206 17.8003 30.651 17.5462C31.0397 17.2335 31.4187 17.1064 31.788 17.1651C32.1767 17.2042 32.5071 17.3703 32.7792 17.6635C33.1096 18.0349 33.6343 18.3867 34.3534 18.719C35.092 19.0317 35.9083 19.1881 36.8023 19.1881C37.9295 19.1881 38.7847 19.0024 39.3678 18.631C39.9703 18.2597 40.2812 17.7808 40.3007 17.1944C40.3201 16.608 40.0383 16.0998 39.4552 15.6698C38.8916 15.2398 37.8518 14.8879 36.3358 14.6143C34.3729 14.2234 32.9444 13.637 32.0503 12.8551C31.1758 12.0733 30.7385 11.1155 30.7385 9.98183C30.7385 8.98497 31.03 8.16403 31.613 7.519C32.1961 6.85443 32.9444 6.36578 33.8578 6.05303C34.7713 5.72075 35.7236 5.55461 36.7148 5.55461C37.9976 5.55461 39.1345 5.75984 40.1257 6.17031C41.1169 6.58078 41.9041 7.14762 42.4871 7.87084C42.7592 8.18358 42.8856 8.51586 42.8661 8.86769C42.8467 9.19998 42.6815 9.4834 42.3705 9.71796C42.0596 9.93296 41.6903 10.0014 41.2627 9.92319C40.8351 9.84501 40.4756 9.66909 40.184 9.39544C39.6982 8.92633 39.1734 8.60382 38.6098 8.4279C38.0462 8.25199 37.3951 8.16403 36.6565 8.16403C35.8014 8.16403 35.0725 8.31063 34.47 8.60382C33.887 8.89701 33.5955 9.32703 33.5955 9.89387C33.5955 10.2457 33.6829 10.5682 33.8578 10.8614C34.0522 11.1351 34.4215 11.3892 34.9656 11.6237C35.5098 11.8387 36.3067 12.0537 37.3562 12.2687C39.5524 12.6988 41.0683 13.3145 41.9041 14.1159C42.7592 14.8977 43.1868 15.8653 43.1868 17.0185C43.1868 17.9176 42.9439 18.7288 42.458 19.452C41.9915 20.1752 41.2919 20.7518 40.359 21.1818C39.4455 21.6118 38.2988 21.8269 36.9189 21.8269Z" fill="url(#paint2_linear_1012_305)"/>
    <path d="M48.4334 28.5703C48.0059 28.5703 47.6463 28.4237 47.3548 28.1305C47.0827 27.8569 46.9466 27.505 46.9466 27.075V13.7054C46.9661 12.1612 47.3256 10.7735 48.0253 9.54204C48.725 8.31063 49.6773 7.34309 50.8823 6.63942C52.0873 5.91621 53.4478 5.55461 54.9637 5.55461C56.4991 5.55461 57.8693 5.91621 59.0743 6.63942C60.2793 7.34309 61.2316 8.31063 61.9313 9.54204C62.6504 10.7735 63.01 12.1612 63.01 13.7054C63.01 15.2495 62.6796 16.6373 62.0188 17.8687C61.3774 19.0806 60.4931 20.0481 59.3658 20.7714C58.2386 21.475 56.9656 21.8269 55.5468 21.8269C54.4001 21.8269 53.3409 21.5923 52.3691 21.1232C51.4168 20.6345 50.6005 19.9797 49.9202 19.1588V27.075C49.9202 27.505 49.7842 27.8569 49.5121 28.1305C49.24 28.4237 48.8805 28.5703 48.4334 28.5703ZM54.9637 19.1881C55.9549 19.1881 56.8392 18.9536 57.6166 18.4844C58.3941 17.9958 59.0063 17.341 59.4533 16.5201C59.9197 15.6796 60.153 14.7413 60.153 13.7054C60.153 12.6499 59.9197 11.7117 59.4533 10.8907C59.0063 10.0502 58.3941 9.39544 57.6166 8.92633C56.8392 8.43768 55.9549 8.19335 54.9637 8.19335C53.992 8.19335 53.1076 8.43768 52.3108 8.92633C51.5334 9.39544 50.9212 10.0502 50.4742 10.8907C50.0271 11.7117 49.8036 12.6499 49.8036 13.7054C49.8036 14.7413 50.0271 15.6796 50.4742 16.5201C50.9212 17.341 51.5334 17.9958 52.3108 18.4844C53.1076 18.9536 53.992 19.1881 54.9637 19.1881Z" fill="url(#paint3_linear_1012_305)"/>
    <path d="M74.6748 21.8269C73.12 21.8269 71.7304 21.475 70.5059 20.7714C69.3009 20.0481 68.3486 19.0806 67.6489 17.8687C66.9687 16.6373 66.6286 15.2495 66.6286 13.7054C66.6286 12.1221 66.9687 10.7148 67.6489 9.4834C68.3292 8.25199 69.2621 7.29422 70.4476 6.6101C71.6332 5.90644 72.9937 5.55461 74.529 5.55461C76.8224 5.55461 78.7271 6.43419 80.243 8.19335C80.5151 8.50609 80.6123 8.8286 80.5346 9.16089C80.4568 9.49317 80.243 9.78637 79.8932 10.0405C79.6211 10.2359 79.3199 10.3043 78.9895 10.2457C78.6591 10.1675 78.3578 9.9916 78.0857 9.71796C77.1334 8.70155 75.9478 8.19335 74.529 8.19335C73.0325 8.19335 71.8178 8.70155 70.8849 9.71796C69.952 10.7148 69.4856 12.044 69.4856 13.7054C69.4856 14.7609 69.6994 15.6991 70.1269 16.5201C70.574 17.341 71.1862 17.9958 71.9636 18.4844C72.741 18.9536 73.6447 19.1881 74.6748 19.1881C75.9964 19.1881 77.0654 18.8461 77.8816 18.1619C78.1926 17.9078 78.5133 17.771 78.8437 17.7515C79.1741 17.7124 79.4656 17.8003 79.7183 18.0153C80.0487 18.289 80.2333 18.6017 80.2722 18.9536C80.3111 19.2858 80.1945 19.5888 79.9224 19.8625C78.523 21.1721 76.7738 21.8269 74.6748 21.8269Z" fill="url(#paint4_linear_1012_305)"/>
    <path d="M90.7552 21.7096C89.7835 21.7096 88.9089 21.4653 88.1314 20.9766C87.354 20.4684 86.7418 19.7843 86.2948 18.9242C85.8478 18.0642 85.6243 17.0967 85.6243 16.0216V8.77974H84.2832C83.8751 8.77974 83.5447 8.66246 83.292 8.4279C83.0394 8.19335 82.913 7.90016 82.913 7.54832C82.913 7.1574 83.0394 6.84466 83.292 6.6101C83.5447 6.37555 83.8751 6.25827 84.2832 6.25827H85.6243V2.03628C85.6243 1.60626 85.7603 1.25443 86.0324 0.980784C86.3045 0.707136 86.6544 0.570312 87.0819 0.570312C87.5095 0.570312 87.8594 0.707136 88.1314 0.980784C88.4035 1.25443 88.5396 1.60626 88.5396 2.03628V6.25827H91.0176C91.4257 6.25827 91.7561 6.37555 92.0088 6.6101C92.2615 6.84466 92.3878 7.1574 92.3878 7.54832C92.3878 7.90016 92.2615 8.19335 92.0088 8.4279C91.7561 8.66246 91.4257 8.77974 91.0176 8.77974H88.5396V16.0216C88.5396 16.8035 88.7534 17.4583 89.181 17.986C89.6085 18.5138 90.1333 18.7776 90.7552 18.7776H91.7464C92.0963 18.7776 92.3878 18.9145 92.621 19.1881C92.8737 19.4618 93 19.8136 93 20.2436C93 20.6736 92.8348 21.0255 92.5044 21.2991C92.1934 21.5728 91.7853 21.7096 91.28 21.7096H90.7552Z" fill="url(#paint5_linear_1012_305)"/>
    <defs>
    <linearGradient id="paint0_linear_1012_305" x1="4.34892" y1="3.13078" x2="107.087" y2="30.2716" gradientUnits="userSpaceOnUse">
    <stop stop-color="#03AFD0"/>
    <stop offset="0.0001" stop-color="#03AFD0"/>
    <stop offset="0.589836" stop-color="#812DC1"/>
    <stop offset="1" stop-color="#56109D"/>
    </linearGradient>
    <linearGradient id="paint1_linear_1012_305" x1="4.34892" y1="3.13078" x2="107.087" y2="30.2716" gradientUnits="userSpaceOnUse">
    <stop stop-color="#03AFD0"/>
    <stop offset="0.0001" stop-color="#03AFD0"/>
    <stop offset="0.589836" stop-color="#812DC1"/>
    <stop offset="1" stop-color="#56109D"/>
    </linearGradient>
    <linearGradient id="paint2_linear_1012_305" x1="4.34892" y1="3.13078" x2="107.087" y2="30.2716" gradientUnits="userSpaceOnUse">
    <stop stop-color="#03AFD0"/>
    <stop offset="0.0001" stop-color="#03AFD0"/>
    <stop offset="0.589836" stop-color="#812DC1"/>
    <stop offset="1" stop-color="#56109D"/>
    </linearGradient>
    <linearGradient id="paint3_linear_1012_305" x1="4.34892" y1="3.13078" x2="107.087" y2="30.2716" gradientUnits="userSpaceOnUse">
    <stop stop-color="#03AFD0"/>
    <stop offset="0.0001" stop-color="#03AFD0"/>
    <stop offset="0.589836" stop-color="#812DC1"/>
    <stop offset="1" stop-color="#56109D"/>
    </linearGradient>
    <linearGradient id="paint4_linear_1012_305" x1="4.34892" y1="3.13078" x2="107.087" y2="30.2716" gradientUnits="userSpaceOnUse">
    <stop stop-color="#03AFD0"/>
    <stop offset="0.0001" stop-color="#03AFD0"/>
    <stop offset="0.589836" stop-color="#812DC1"/>
    <stop offset="1" stop-color="#56109D"/>
    </linearGradient>
    <linearGradient id="paint5_linear_1012_305" x1="4.34892" y1="3.13078" x2="107.087" y2="30.2716" gradientUnits="userSpaceOnUse">
    <stop stop-color="#03AFD0"/>
    <stop offset="0.0001" stop-color="#03AFD0"/>
    <stop offset="0.589836" stop-color="#812DC1"/>
    <stop offset="1" stop-color="#56109D"/>
    </linearGradient>
    </defs>
    </svg>
    