<svg width="1327" height="197" viewBox="0 0 1327 197" fill="none" xmlns="http://www.w3.org/2000/svg">
<path d="M96.786 195L60.876 126.42H60.606V195H0.666016V3.84H89.766C105.246 3.84 118.476 6.63 129.456 12.21C140.436 17.61 148.626 25.08 154.026 34.62C159.606 43.98 162.396 54.6 162.396 66.48C162.396 79.26 158.796 90.6 151.596 100.5C144.576 110.4 134.406 117.51 121.086 121.83L162.666 195H96.786ZM60.606 86.46H84.366C90.126 86.46 94.446 85.2 97.326 82.68C100.206 79.98 101.646 75.84 101.646 70.26C101.646 65.22 100.116 61.26 97.056 58.38C94.176 55.5 89.946 54.06 84.366 54.06H60.606V86.46ZM300.885 51.63V75.12H360.285V120.21H300.885V147.21H368.385V195H240.945V3.84H368.385V51.63H300.885ZM525.164 196.89C502.304 196.89 483.404 191.58 468.464 180.96C453.704 170.16 445.694 154.41 444.434 133.71H508.154C509.054 144.69 513.914 150.18 522.734 150.18C525.974 150.18 528.674 149.46 530.834 148.02C533.174 146.4 534.344 143.97 534.344 140.73C534.344 136.23 531.914 132.63 527.054 129.93C522.194 127.05 514.634 123.81 504.374 120.21C492.134 115.89 481.964 111.66 473.864 107.52C465.944 103.38 459.104 97.35 453.344 89.43C447.584 81.51 444.794 71.34 444.974 58.92C444.974 46.5 448.124 35.97 454.424 27.33C460.904 18.51 469.634 11.85 480.614 7.34999C491.774 2.84999 504.284 0.599992 518.144 0.599992C541.544 0.599992 560.084 5.99999 573.764 16.8C587.624 27.6 594.914 42.81 595.634 62.43H531.104C530.924 57.03 529.574 53.16 527.054 50.82C524.534 48.48 521.474 47.31 517.874 47.31C515.354 47.31 513.284 48.21 511.664 50.01C510.044 51.63 509.234 53.97 509.234 57.03C509.234 61.35 511.574 64.95 516.254 67.83C521.114 70.53 528.764 73.86 539.204 77.82C551.264 82.32 561.164 86.64 568.904 90.78C576.824 94.92 583.664 100.68 589.424 108.06C595.184 115.44 598.064 124.71 598.064 135.87C598.064 147.57 595.184 158.1 589.424 167.46C583.664 176.64 575.294 183.84 564.314 189.06C553.334 194.28 540.284 196.89 525.164 196.89ZM834.854 69.45C834.854 81.51 832.064 92.49 826.484 102.39C820.904 112.11 812.624 119.85 801.644 125.61C790.844 131.37 777.704 134.25 762.224 134.25H738.464V195H678.524V3.84H762.224C785.624 3.84 803.534 9.78 815.954 21.66C828.554 33.54 834.854 49.47 834.854 69.45ZM755.474 87C767.894 87 774.104 81.15 774.104 69.45C774.104 57.75 767.894 51.9 755.474 51.9H738.464V87H755.474ZM907.866 99.15C907.866 80.25 911.646 63.42 919.206 48.66C926.946 33.9 937.926 22.47 952.146 14.37C966.366 6.08999 983.106 1.94999 1002.37 1.94999C1018.93 1.94999 1033.69 5.09999 1046.65 11.4C1059.79 17.52 1070.41 26.25 1078.51 37.59C1086.79 48.93 1092.28 62.16 1094.98 77.28H1031.8C1028.92 70.98 1024.78 66.12 1019.38 62.7C1014.16 59.1 1008.13 57.3 1001.29 57.3C991.206 57.3 983.196 61.08 977.256 68.64C971.496 76.2 968.616 86.37 968.616 99.15C968.616 111.93 971.496 122.1 977.256 129.66C983.196 137.22 991.206 141 1001.29 141C1008.13 141 1014.16 139.29 1019.38 135.87C1024.78 132.27 1028.92 127.32 1031.8 121.02H1094.98C1092.28 136.14 1086.79 149.37 1078.51 160.71C1070.41 172.05 1059.79 180.87 1046.65 187.17C1033.69 193.29 1018.93 196.35 1002.37 196.35C983.106 196.35 966.366 192.3 952.146 184.2C937.926 175.92 926.946 164.4 919.206 149.64C911.646 134.88 907.866 118.05 907.866 99.15ZM1326.08 3.84V51.36H1275.32V195H1215.38V51.36H1165.16V3.84H1326.08Z" fill="#131312"/>
<path d="M96.786 195L94.1283 196.392C94.6461 197.38 95.6699 198 96.786 198V195ZM60.876 126.42L63.5337 125.028C63.016 124.04 61.9921 123.42 60.876 123.42V126.42ZM60.606 126.42V123.42C58.9492 123.42 57.606 124.763 57.606 126.42H60.606ZM60.606 195V198C62.2629 198 63.606 196.657 63.606 195H60.606ZM0.666016 195H-2.33398C-2.33398 196.657 -0.990845 198 0.666016 198V195ZM0.666016 3.84V0.839996C-0.990845 0.839996 -2.33398 2.18314 -2.33398 3.84H0.666016ZM129.456 12.21L128.097 14.8844C128.109 14.8904 128.12 14.8962 128.132 14.902L129.456 12.21ZM154.026 34.62L151.415 36.0978C151.426 36.1174 151.438 36.1368 151.449 36.1562L154.026 34.62ZM151.596 100.5L149.17 98.7355C149.163 98.7452 149.156 98.7549 149.149 98.7647L151.596 100.5ZM121.086 121.83L120.161 118.976C119.303 119.255 118.616 119.904 118.289 120.745C117.963 121.585 118.032 122.528 118.478 123.312L121.086 121.83ZM162.666 195V198C163.734 198 164.722 197.432 165.259 196.509C165.796 195.586 165.802 194.446 165.274 193.518L162.666 195ZM60.606 86.46H57.606C57.606 88.1169 58.9492 89.46 60.606 89.46V86.46ZM97.326 82.68L99.3015 84.9377C99.3274 84.9151 99.3528 84.8921 99.3778 84.8686L97.326 82.68ZM97.056 58.38L94.9347 60.5013C94.9561 60.5227 94.9779 60.5438 94.9999 60.5646L97.056 58.38ZM60.606 54.06V51.06C58.9492 51.06 57.606 52.4031 57.606 54.06H60.606ZM99.4437 193.608L63.5337 125.028L58.2183 127.812L94.1283 196.392L99.4437 193.608ZM60.876 123.42H60.606V129.42H60.876V123.42ZM57.606 126.42V195H63.606V126.42H57.606ZM60.606 192H0.666016V198H60.606V192ZM3.66602 195V3.84H-2.33398V195H3.66602ZM0.666016 6.84H89.766V0.839996H0.666016V6.84ZM89.766 6.84C104.892 6.84 117.632 9.56635 128.097 14.8844L130.815 9.53553C119.32 3.69365 105.6 0.839996 89.766 0.839996V6.84ZM128.132 14.902C138.636 20.068 146.346 27.1427 151.415 36.0978L156.637 33.1422C150.906 23.0173 142.236 15.152 130.78 9.51794L128.132 14.902ZM151.449 36.1562C156.728 45.0102 159.396 55.0905 159.396 66.48H165.396C165.396 54.1095 162.484 42.9498 156.603 33.0838L151.449 36.1562ZM159.396 66.48C159.396 78.6557 155.98 89.3718 149.17 98.7355L154.022 102.265C161.612 91.8282 165.396 79.8643 165.396 66.48H159.396ZM149.149 98.7647C142.558 108.059 132.964 114.824 120.161 118.976L122.012 124.684C135.848 120.196 146.594 112.741 154.043 102.235L149.149 98.7647ZM118.478 123.312L160.058 196.482L165.274 193.518L123.694 120.348L118.478 123.312ZM162.666 192H96.786V198H162.666V192ZM60.606 89.46H84.366V83.46H60.606V89.46ZM84.366 89.46C90.4974 89.46 95.6562 88.1274 99.3015 84.9377L95.3505 80.4223C93.2359 82.2726 89.7547 83.46 84.366 83.46V89.46ZM99.3778 84.8686C103.078 81.3997 104.646 76.319 104.646 70.26H98.646C98.646 75.361 97.334 78.5603 95.2742 80.4914L99.3778 84.8686ZM104.646 70.26C104.646 64.5711 102.893 59.7539 99.1121 56.1954L94.9999 60.5646C97.339 62.7661 98.646 65.8689 98.646 70.26H104.646ZM99.1773 56.2587C95.5526 52.6339 90.4405 51.06 84.366 51.06V57.06C89.4516 57.06 92.7995 58.3661 94.9347 60.5013L99.1773 56.2587ZM84.366 51.06H60.606V57.06H84.366V51.06ZM57.606 54.06V86.46H63.606V54.06H57.606ZM300.885 51.63V48.63C299.228 48.63 297.885 49.9731 297.885 51.63H300.885ZM300.885 75.12H297.885C297.885 76.7768 299.228 78.12 300.885 78.12V75.12ZM360.285 75.12H363.285C363.285 73.4631 361.942 72.12 360.285 72.12V75.12ZM360.285 120.21V123.21C361.942 123.21 363.285 121.867 363.285 120.21H360.285ZM300.885 120.21V117.21C299.228 117.21 297.885 118.553 297.885 120.21H300.885ZM300.885 147.21H297.885C297.885 148.867 299.228 150.21 300.885 150.21V147.21ZM368.385 147.21H371.385C371.385 145.553 370.042 144.21 368.385 144.21V147.21ZM368.385 195V198C370.042 198 371.385 196.657 371.385 195H368.385ZM240.945 195H237.945C237.945 196.657 239.288 198 240.945 198V195ZM240.945 3.84V0.839996C239.288 0.839996 237.945 2.18314 237.945 3.84H240.945ZM368.385 3.84H371.385C371.385 2.18314 370.042 0.839996 368.385 0.839996V3.84ZM368.385 51.63V54.63C370.042 54.63 371.385 53.2868 371.385 51.63H368.385ZM297.885 51.63V75.12H303.885V51.63H297.885ZM300.885 78.12H360.285V72.12H300.885V78.12ZM357.285 75.12V120.21H363.285V75.12H357.285ZM360.285 117.21H300.885V123.21H360.285V117.21ZM297.885 120.21V147.21H303.885V120.21H297.885ZM300.885 150.21H368.385V144.21H300.885V150.21ZM365.385 147.21V195H371.385V147.21H365.385ZM368.385 192H240.945V198H368.385V192ZM243.945 195V3.84H237.945V195H243.945ZM240.945 6.84H368.385V0.839996H240.945V6.84ZM365.385 3.84V51.63H371.385V3.84H365.385ZM368.385 48.63H300.885V54.63H368.385V48.63ZM468.464 180.96L466.693 183.381C466.704 183.389 466.715 183.397 466.726 183.405L468.464 180.96ZM444.434 133.71V130.71C443.607 130.71 442.816 131.052 442.249 131.654C441.682 132.257 441.389 133.066 441.44 133.892L444.434 133.71ZM508.154 133.71L511.144 133.465C511.017 131.908 509.716 130.71 508.154 130.71V133.71ZM530.834 148.02L532.498 150.516C532.513 150.506 532.527 150.497 532.542 150.487L530.834 148.02ZM527.054 129.93L525.525 132.511C525.549 132.525 525.573 132.539 525.597 132.552L527.054 129.93ZM504.374 120.21L503.376 123.039L503.381 123.041L504.374 120.21ZM473.864 107.52L472.474 110.179C472.483 110.183 472.491 110.187 472.499 110.191L473.864 107.52ZM453.344 89.43L455.77 87.6655H455.77L453.344 89.43ZM444.974 58.92L447.974 58.9635C447.974 58.949 447.974 58.9345 447.974 58.92H444.974ZM454.424 27.33L452.007 25.5537L452 25.5625L454.424 27.33ZM480.614 7.34998L479.492 4.56766C479.487 4.56979 479.482 4.57192 479.477 4.57407L480.614 7.34998ZM573.764 16.8L571.905 19.1546C571.91 19.1586 571.915 19.1625 571.92 19.1664L573.764 16.8ZM595.634 62.43V65.43C596.449 65.43 597.229 65.0986 597.794 64.5121C598.359 63.9255 598.662 63.1342 598.632 62.32L595.634 62.43ZM531.104 62.43L528.106 62.5299C528.16 64.147 529.486 65.43 531.104 65.43V62.43ZM511.664 50.01L513.786 52.1313C513.823 52.0941 513.859 52.056 513.894 52.0169L511.664 50.01ZM516.254 67.83L514.682 70.385C514.72 70.4083 514.758 70.4308 514.797 70.4525L516.254 67.83ZM539.204 77.82L538.14 80.625C538.145 80.6269 538.15 80.6288 538.155 80.6307L539.204 77.82ZM568.904 90.78L567.489 93.4254C567.498 93.4298 567.506 93.4343 567.514 93.4387L568.904 90.78ZM589.424 108.06L587.059 109.906L589.424 108.06ZM589.424 167.46L591.965 169.054C591.97 169.047 591.975 169.04 591.979 169.032L589.424 167.46ZM564.314 189.06L563.026 186.351L564.314 189.06ZM525.164 193.89C502.772 193.89 484.521 188.693 470.202 178.515L466.726 183.405C482.287 194.467 501.837 199.89 525.164 199.89V193.89ZM470.236 178.539C456.298 168.341 448.643 153.471 447.429 133.528L441.44 133.892C442.746 155.349 451.11 171.979 466.693 183.381L470.236 178.539ZM444.434 136.71H508.154V130.71H444.434V136.71ZM505.164 133.955C505.642 139.783 507.2 144.631 510.228 148.051C513.342 151.569 517.655 153.18 522.734 153.18V147.18C518.993 147.18 516.466 146.046 514.721 144.074C512.888 142.004 511.566 138.617 511.144 133.465L505.164 133.955ZM522.734 153.18C526.419 153.18 529.736 152.358 532.498 150.516L529.17 145.524C527.613 146.562 525.529 147.18 522.734 147.18V153.18ZM532.542 150.487C535.813 148.222 537.344 144.796 537.344 140.73H531.344C531.344 143.144 530.535 144.578 529.127 145.553L532.542 150.487ZM537.344 140.73C537.344 134.868 534.059 130.39 528.511 127.308L525.597 132.552C529.769 134.87 531.344 137.591 531.344 140.73H537.344ZM528.584 127.349C523.462 124.314 515.676 120.996 505.367 117.379L503.381 123.041C513.592 126.624 520.926 129.786 525.525 132.511L528.584 127.349ZM505.373 117.381C493.21 113.088 483.173 108.909 475.23 104.849L472.499 110.191C480.756 114.411 491.058 118.692 503.376 123.039L505.373 117.381ZM475.254 104.861C467.782 100.955 461.285 95.2479 455.77 87.6655L450.918 91.1945C456.923 99.4521 464.107 105.805 472.474 110.179L475.254 104.861ZM455.77 87.6655C450.484 80.3966 447.801 70.9105 447.974 58.9635L441.975 58.8765C441.788 71.7695 444.684 82.6234 450.918 91.1945L455.77 87.6655ZM447.974 58.92C447.974 47.0291 450.981 37.1445 456.848 29.0975L452 25.5625C445.268 34.7955 441.974 45.9709 441.974 58.92H447.974ZM456.842 29.1062C462.968 20.7681 471.238 14.435 481.752 10.1259L479.477 4.57407C468.031 9.26501 458.841 16.2519 452.007 25.5538L456.842 29.1062ZM481.736 10.1323C492.49 5.79621 504.611 3.59999 518.144 3.59999V-2.40001C503.958 -2.40001 491.059 -0.0962296 479.492 4.56766L481.736 10.1323ZM518.144 3.59999C541.1 3.59999 558.911 8.89594 571.905 19.1546L575.623 14.4453C561.258 3.10404 541.988 -2.40001 518.144 -2.40001V3.59999ZM571.92 19.1664C584.994 29.3535 591.944 43.6886 592.636 62.54L598.632 62.32C597.884 41.9313 590.255 25.8464 575.608 14.4336L571.92 19.1664ZM595.634 59.43H531.104V65.43H595.634V59.43ZM534.103 62.33C533.911 56.574 532.461 51.7471 529.096 48.6216L525.013 53.0184C526.687 54.5729 527.938 57.4859 528.106 62.5299L534.103 62.33ZM529.096 48.6216C525.993 45.7404 522.192 44.31 517.874 44.31V50.31C520.756 50.31 523.076 51.2196 525.013 53.0184L529.096 48.6216ZM517.874 44.31C514.543 44.31 511.649 45.5424 509.434 48.0031L513.894 52.0169C514.919 50.8776 516.165 50.31 517.874 50.31V44.31ZM509.543 47.8887C507.191 50.2401 506.234 53.4501 506.234 57.03H512.234C512.234 54.4899 512.897 53.0199 513.786 52.1313L509.543 47.8887ZM506.234 57.03C506.234 62.6794 509.391 67.1289 514.682 70.385L517.826 65.275C513.758 62.7711 512.234 60.0206 512.234 57.03H506.234ZM514.797 70.4525C519.854 73.262 527.671 76.654 538.14 80.625L540.268 75.015C529.857 71.066 522.374 67.798 517.711 65.2075L514.797 70.4525ZM538.155 80.6307C550.142 85.1033 559.908 89.3703 567.489 93.4254L570.319 88.1346C562.42 83.9097 552.386 79.5367 540.253 75.0093L538.155 80.6307ZM567.514 93.4387C575.037 97.371 581.55 102.847 587.059 109.906L591.789 106.214C585.779 98.5132 578.611 92.469 570.294 88.1213L567.514 93.4387ZM587.059 109.906C592.333 116.662 595.064 125.246 595.064 135.87H601.064C601.064 124.174 598.036 114.218 591.789 106.214L587.059 109.906ZM595.064 135.87C595.064 147.052 592.319 157.031 586.869 165.888L591.979 169.032C598.049 159.169 601.064 148.088 601.064 135.87H595.064ZM586.883 165.866C581.462 174.505 573.556 181.345 563.026 186.351L565.602 191.769C577.033 186.335 585.866 178.775 591.965 169.054L586.883 165.866ZM563.026 186.351C552.534 191.339 539.944 193.89 525.164 193.89V199.89C540.624 199.89 554.134 197.221 565.602 191.769L563.026 186.351ZM826.484 102.39L829.086 103.884C829.09 103.877 829.094 103.87 829.098 103.863L826.484 102.39ZM801.644 125.61L800.25 122.953C800.245 122.957 800.238 122.96 800.232 122.963L801.644 125.61ZM738.464 134.25V131.25C736.807 131.25 735.464 132.593 735.464 134.25H738.464ZM738.464 195V198C740.121 198 741.464 196.657 741.464 195H738.464ZM678.524 195H675.524C675.524 196.657 676.867 198 678.524 198V195ZM678.524 3.84V0.839996C676.867 0.839996 675.524 2.18314 675.524 3.84H678.524ZM815.954 21.66L813.88 23.8279C813.886 23.8329 813.891 23.8378 813.896 23.8428L815.954 21.66ZM738.464 51.9V48.9C736.807 48.9 735.464 50.2431 735.464 51.9H738.464ZM738.464 87H735.464C735.464 88.6568 736.807 90 738.464 90V87ZM831.854 69.45C831.854 81.0266 829.182 91.4942 823.871 100.917L829.098 103.863C834.947 93.4858 837.854 81.9934 837.854 69.45H831.854ZM823.882 100.896C818.616 110.07 810.781 117.429 800.25 122.953L803.038 128.267C814.467 122.271 823.192 114.15 829.086 103.884L823.882 100.896ZM800.232 122.963C789.967 128.438 777.339 131.25 762.224 131.25V137.25C778.069 137.25 791.721 134.302 803.056 128.257L800.232 122.963ZM762.224 131.25H738.464V137.25H762.224V131.25ZM735.464 134.25V195H741.464V134.25H735.464ZM738.464 192H678.524V198H738.464V192ZM681.524 195V3.84H675.524V195H681.524ZM678.524 6.84H762.224V0.839996H678.524V6.84ZM762.224 6.84C785.136 6.84 802.195 12.6506 813.88 23.8279L818.028 19.4921C804.873 6.90936 786.112 0.839996 762.224 0.839996V6.84ZM813.896 23.8428C825.801 35.0672 831.854 50.1573 831.854 69.45H837.854C837.854 48.7827 831.307 32.0128 818.012 19.4772L813.896 23.8428ZM755.474 90C762.103 90 767.633 88.4422 771.504 84.7962C775.408 81.1185 777.104 75.8098 777.104 69.45H771.104C771.104 74.7902 769.696 78.2565 767.39 80.4288C765.05 82.6328 761.265 84 755.474 84V90ZM777.104 69.45C777.104 63.0902 775.408 57.7815 771.504 54.1038C767.633 50.4578 762.103 48.9 755.474 48.9V54.9C761.265 54.9 765.05 56.2672 767.39 58.4712C769.696 60.6435 771.104 64.1097 771.104 69.45H777.104ZM755.474 48.9H738.464V54.9H755.474V48.9ZM735.464 51.9V87H741.464V51.9H735.464ZM738.464 90H755.474V84H738.464V90ZM919.206 48.66L916.549 47.2668C916.545 47.2753 916.54 47.2838 916.536 47.2924L919.206 48.66ZM952.146 14.37L953.631 16.9767C953.639 16.972 953.647 16.9673 953.656 16.9625L952.146 14.37ZM1046.65 11.4L1045.33 14.0981C1045.35 14.1054 1045.36 14.1125 1045.38 14.1195L1046.65 11.4ZM1078.51 37.59L1076.06 39.3337C1076.07 39.3422 1076.08 39.3507 1076.08 39.3591L1078.51 37.59ZM1094.98 77.28V80.28C1095.86 80.28 1096.71 79.8867 1097.28 79.2059C1097.85 78.5251 1098.09 77.6267 1097.93 76.7526L1094.98 77.28ZM1031.8 77.28L1029.07 78.5273C1029.56 79.5951 1030.62 80.28 1031.8 80.28V77.28ZM1019.38 62.7L1017.67 65.1696C1017.71 65.1919 1017.74 65.2135 1017.77 65.2345L1019.38 62.7ZM977.256 68.64L974.897 66.7865C974.888 66.7982 974.879 66.81 974.87 66.8219L977.256 68.64ZM977.256 129.66L974.87 131.478C974.879 131.49 974.888 131.502 974.897 131.513L977.256 129.66ZM1019.38 135.87L1021.02 138.379C1021.03 138.375 1021.03 138.371 1021.04 138.366L1019.38 135.87ZM1031.8 121.02V118.02C1030.62 118.02 1029.56 118.705 1029.07 119.773L1031.8 121.02ZM1094.98 121.02L1097.93 121.547C1098.09 120.673 1097.85 119.775 1097.28 119.094C1096.71 118.413 1095.86 118.02 1094.98 118.02V121.02ZM1078.51 160.71L1076.08 158.941C1076.08 158.949 1076.07 158.958 1076.06 158.966L1078.51 160.71ZM1046.65 187.17L1047.93 189.883C1047.93 189.88 1047.94 189.878 1047.94 189.875L1046.65 187.17ZM952.146 184.2L950.636 186.793C950.645 186.797 950.653 186.802 950.661 186.807L952.146 184.2ZM919.206 149.64L916.536 151.008C916.54 151.016 916.545 151.025 916.549 151.033L919.206 149.64ZM910.866 99.15C910.866 80.6587 914.562 64.3086 921.876 50.0276L916.536 47.2924C908.73 62.5314 904.866 79.8413 904.866 99.15H910.866ZM921.863 50.0532C929.342 35.7916 939.919 24.7872 953.631 16.9767L950.661 11.7632C935.933 20.1528 924.551 32.0084 916.549 47.2668L921.863 50.0532ZM953.656 16.9625C967.344 8.99184 983.545 4.94999 1002.37 4.94999V-1.05001C982.667 -1.05001 965.388 3.18814 950.636 11.7775L953.656 16.9625ZM1002.37 4.94999C1018.54 4.94999 1032.84 8.02444 1045.33 14.0981L1047.96 8.7019C1034.53 2.17554 1019.31 -1.05001 1002.37 -1.05001V4.94999ZM1045.38 14.1195C1058.07 20.0301 1068.28 28.4321 1076.06 39.3337L1080.95 35.8463C1072.53 24.0679 1061.5 15.0099 1047.91 8.6805L1045.38 14.1195ZM1076.08 39.3591C1084.07 50.2973 1089.4 63.0934 1092.02 77.8074L1097.93 76.7526C1095.16 61.2266 1089.5 47.5627 1080.93 35.8209L1076.08 39.3591ZM1094.98 74.28H1031.8V80.28H1094.98V74.28ZM1034.52 76.0327C1031.42 69.2501 1026.91 63.9228 1020.98 60.1655L1017.77 65.2345C1022.64 68.3172 1026.41 72.7099 1029.07 78.5273L1034.52 76.0327ZM1021.08 60.2304C1015.32 56.2574 1008.68 54.3 1001.29 54.3V60.3C1007.57 60.3 1012.99 61.9425 1017.67 65.1696L1021.08 60.2304ZM1001.29 54.3C990.337 54.3 981.437 58.463 974.897 66.7865L979.615 70.4935C984.955 63.697 992.075 60.3 1001.29 60.3V54.3ZM974.87 66.8219C968.594 75.0586 965.616 85.9377 965.616 99.15H971.616C971.616 86.8023 974.398 77.3414 979.642 70.4581L974.87 66.8219ZM965.616 99.15C965.616 112.362 968.594 123.241 974.87 131.478L979.642 127.842C974.398 120.959 971.616 111.498 971.616 99.15H965.616ZM974.897 131.513C981.437 139.837 990.337 144 1001.29 144V138C992.075 138 984.955 134.603 979.615 127.807L974.897 131.513ZM1001.29 144C1008.65 144 1015.26 142.15 1021.02 138.379L1017.73 133.361C1013.05 136.43 1007.6 138 1001.29 138V144ZM1021.04 138.366C1026.94 134.436 1031.43 129.039 1034.52 122.267L1029.07 119.773C1026.4 125.601 1022.62 130.104 1017.71 133.374L1021.04 138.366ZM1031.8 124.02H1094.98V118.02H1031.8V124.02ZM1092.02 120.493C1089.4 135.207 1084.07 148.003 1076.08 158.941L1080.93 162.479C1089.5 150.737 1095.16 137.073 1097.93 121.547L1092.02 120.493ZM1076.06 158.966C1068.27 169.875 1058.05 178.373 1045.35 184.465L1047.94 189.875C1061.52 183.367 1072.54 174.225 1080.95 162.454L1076.06 158.966ZM1045.36 184.457C1032.86 190.361 1018.55 193.35 1002.37 193.35V199.35C1019.3 199.35 1034.51 196.219 1047.93 189.883L1045.36 184.457ZM1002.37 193.35C983.534 193.35 967.324 189.393 953.631 181.593L950.661 186.807C965.408 195.207 982.678 199.35 1002.37 199.35V193.35ZM953.656 181.607C939.93 173.615 929.344 162.514 921.863 148.247L916.549 151.033C924.548 166.286 935.922 178.225 950.636 186.793L953.656 181.607ZM921.876 148.272C914.562 133.991 910.866 117.641 910.866 99.15H904.866C904.866 118.459 908.73 135.769 916.536 151.008L921.876 148.272ZM1326.08 3.84H1329.08C1329.08 2.18314 1327.73 0.839996 1326.08 0.839996V3.84ZM1326.08 51.36V54.36C1327.73 54.36 1329.08 53.0168 1329.08 51.36H1326.08ZM1275.32 51.36V48.36C1273.66 48.36 1272.32 49.7031 1272.32 51.36H1275.32ZM1275.32 195V198C1276.97 198 1278.32 196.657 1278.32 195H1275.32ZM1215.38 195H1212.38C1212.38 196.657 1213.72 198 1215.38 198V195ZM1215.38 51.36H1218.38C1218.38 49.7031 1217.03 48.36 1215.38 48.36V51.36ZM1165.16 51.36H1162.16C1162.16 53.0168 1163.5 54.36 1165.16 54.36V51.36ZM1165.16 3.84V0.839996C1163.5 0.839996 1162.16 2.18314 1162.16 3.84H1165.16ZM1323.08 3.84V51.36H1329.08V3.84H1323.08ZM1326.08 48.36H1275.32V54.36H1326.08V48.36ZM1272.32 51.36V195H1278.32V51.36H1272.32ZM1275.32 192H1215.38V198H1275.32V192ZM1218.38 195V51.36H1212.38V195H1218.38ZM1215.38 48.36H1165.16V54.36H1215.38V48.36ZM1168.16 51.36V3.84H1162.16V51.36H1168.16ZM1165.16 6.84H1326.08V0.839996H1165.16V6.84Z" fill="url(#paint0_linear_566_8299)"/>
<defs>
<linearGradient id="paint0_linear_566_8299" x1="658" y1="-102" x2="655.606" y2="337.987" gradientUnits="userSpaceOnUse">
<stop stop-color="#9E52FF"/>
<stop offset="1" stop-opacity="0"/>
</linearGradient>
</defs>
</svg>
